%TF.GenerationSoftware,KiCad,Pcbnew,6.0.1-79c1e3a40b~116~ubuntu20.04.1*%
%TF.CreationDate,2022-02-07T17:34:28-08:00*%
%TF.ProjectId,MirageR1,4d697261-6765-4523-912e-6b696361645f,rev?*%
%TF.SameCoordinates,Original*%
%TF.FileFunction,Soldermask,Bot*%
%TF.FilePolarity,Negative*%
%FSLAX46Y46*%
G04 Gerber Fmt 4.6, Leading zero omitted, Abs format (unit mm)*
G04 Created by KiCad (PCBNEW 6.0.1-79c1e3a40b~116~ubuntu20.04.1) date 2022-02-07 17:34:28*
%MOMM*%
%LPD*%
G01*
G04 APERTURE LIST*
G04 Aperture macros list*
%AMRoundRect*
0 Rectangle with rounded corners*
0 $1 Rounding radius*
0 $2 $3 $4 $5 $6 $7 $8 $9 X,Y pos of 4 corners*
0 Add a 4 corners polygon primitive as box body*
4,1,4,$2,$3,$4,$5,$6,$7,$8,$9,$2,$3,0*
0 Add four circle primitives for the rounded corners*
1,1,$1+$1,$2,$3*
1,1,$1+$1,$4,$5*
1,1,$1+$1,$6,$7*
1,1,$1+$1,$8,$9*
0 Add four rect primitives between the rounded corners*
20,1,$1+$1,$2,$3,$4,$5,0*
20,1,$1+$1,$4,$5,$6,$7,0*
20,1,$1+$1,$6,$7,$8,$9,0*
20,1,$1+$1,$8,$9,$2,$3,0*%
%AMRotRect*
0 Rectangle, with rotation*
0 The origin of the aperture is its center*
0 $1 length*
0 $2 width*
0 $3 Rotation angle, in degrees counterclockwise*
0 Add horizontal line*
21,1,$1,$2,0,0,$3*%
G04 Aperture macros list end*
%ADD10C,0.500000*%
%ADD11C,0.300000*%
%ADD12C,0.010000*%
%ADD13RoundRect,0.062500X-0.337500X-0.062500X0.337500X-0.062500X0.337500X0.062500X-0.337500X0.062500X0*%
%ADD14RoundRect,0.062500X-0.062500X-0.337500X0.062500X-0.337500X0.062500X0.337500X-0.062500X0.337500X0*%
%ADD15R,5.300000X5.300000*%
%ADD16R,3.350000X3.350000*%
%ADD17RoundRect,0.150000X0.256326X0.468458X-0.468458X-0.256326X-0.256326X-0.468458X0.468458X0.256326X0*%
%ADD18RotRect,2.000000X1.500000X225.000000*%
%ADD19RotRect,2.000000X3.800000X225.000000*%
%ADD20RotRect,2.800000X1.000000X225.000000*%
%ADD21RoundRect,0.135000X0.135000X0.185000X-0.135000X0.185000X-0.135000X-0.185000X0.135000X-0.185000X0*%
%ADD22RoundRect,0.135000X0.185000X-0.135000X0.185000X0.135000X-0.185000X0.135000X-0.185000X-0.135000X0*%
%ADD23RoundRect,0.135000X-0.035355X0.226274X-0.226274X0.035355X0.035355X-0.226274X0.226274X-0.035355X0*%
%ADD24RoundRect,0.135000X-0.226274X-0.035355X-0.035355X-0.226274X0.226274X0.035355X0.035355X0.226274X0*%
%ADD25RoundRect,0.135000X0.035355X-0.226274X0.226274X-0.035355X-0.035355X0.226274X-0.226274X0.035355X0*%
%ADD26RoundRect,0.135000X-0.135000X-0.185000X0.135000X-0.185000X0.135000X0.185000X-0.135000X0.185000X0*%
%ADD27RoundRect,0.150000X-0.521491X0.309359X0.309359X-0.521491X0.521491X-0.309359X-0.309359X0.521491X0*%
%ADD28RoundRect,0.150000X0.521491X-0.309359X-0.309359X0.521491X-0.521491X0.309359X0.309359X-0.521491X0*%
%ADD29RoundRect,0.150000X-0.309359X-0.521491X0.521491X0.309359X0.309359X0.521491X-0.521491X-0.309359X0*%
%ADD30RotRect,2.000000X2.500000X315.000000*%
%ADD31RotRect,0.500000X2.500000X315.000000*%
%ADD32C,0.900000*%
%ADD33RoundRect,0.250000X0.450000X-0.325000X0.450000X0.325000X-0.450000X0.325000X-0.450000X-0.325000X0*%
%ADD34RoundRect,0.250000X-0.088388X0.548008X-0.548008X0.088388X0.088388X-0.548008X0.548008X-0.088388X0*%
%ADD35RotRect,1.300000X1.700000X315.000000*%
%ADD36RoundRect,0.140000X0.021213X-0.219203X0.219203X-0.021213X-0.021213X0.219203X-0.219203X0.021213X0*%
%ADD37RoundRect,0.140000X0.219203X0.021213X0.021213X0.219203X-0.219203X-0.021213X-0.021213X-0.219203X0*%
%ADD38RoundRect,0.140000X-0.170000X0.140000X-0.170000X-0.140000X0.170000X-0.140000X0.170000X0.140000X0*%
%ADD39RoundRect,0.140000X-0.219203X-0.021213X-0.021213X-0.219203X0.219203X0.021213X0.021213X0.219203X0*%
%ADD40RoundRect,0.140000X0.140000X0.170000X-0.140000X0.170000X-0.140000X-0.170000X0.140000X-0.170000X0*%
%ADD41RoundRect,0.140000X0.170000X-0.140000X0.170000X0.140000X-0.170000X0.140000X-0.170000X-0.140000X0*%
%ADD42RoundRect,0.225000X-0.017678X0.335876X-0.335876X0.017678X0.017678X-0.335876X0.335876X-0.017678X0*%
%ADD43RoundRect,0.140000X-0.021213X0.219203X-0.219203X0.021213X0.021213X-0.219203X0.219203X-0.021213X0*%
G04 APERTURE END LIST*
D10*
X131800000Y-116200000D02*
X130000000Y-118000000D01*
X131800000Y-116000000D02*
X131800000Y-116200000D01*
X138400000Y-109400000D02*
X131800000Y-116000000D01*
D11*
X163254491Y-89218666D02*
G75*
G03*
X163254491Y-89218666I-600000J0D01*
G01*
X137080448Y-98492379D02*
G75*
G03*
X137080448Y-98492379I-600000J0D01*
G01*
X137331591Y-96706474D02*
G75*
G03*
X137331591Y-96706474I-600000J0D01*
G01*
X149528563Y-86100967D02*
G75*
G03*
X149528563Y-86100967I-600000J0D01*
G01*
D12*
%TO.C,Ref\u002A\u002A*%
X151184018Y-92271265D02*
X151739774Y-92826725D01*
X151739774Y-92826725D02*
X151067843Y-93498902D01*
X151067843Y-93498902D02*
X150901184Y-93665163D01*
X150901184Y-93665163D02*
X150761615Y-93803288D01*
X150761615Y-93803288D02*
X150646725Y-93915506D01*
X150646725Y-93915506D02*
X150554108Y-94004044D01*
X150554108Y-94004044D02*
X150481353Y-94071133D01*
X150481353Y-94071133D02*
X150426054Y-94119000D01*
X150426054Y-94119000D02*
X150385800Y-94149875D01*
X150385800Y-94149875D02*
X150358184Y-94165985D01*
X150358184Y-94165985D02*
X150342871Y-94169736D01*
X150342871Y-94169736D02*
X150301228Y-94164897D01*
X150301228Y-94164897D02*
X150229018Y-94152810D01*
X150229018Y-94152810D02*
X150137001Y-94135391D01*
X150137001Y-94135391D02*
X150051937Y-94117967D01*
X150051937Y-94117967D02*
X149935185Y-94090418D01*
X149935185Y-94090418D02*
X149796559Y-94053419D01*
X149796559Y-94053419D02*
X149653977Y-94011956D01*
X149653977Y-94011956D02*
X149533353Y-93973698D01*
X149533353Y-93973698D02*
X149422612Y-93934856D01*
X149422612Y-93934856D02*
X149301022Y-93889176D01*
X149301022Y-93889176D02*
X149175777Y-93839697D01*
X149175777Y-93839697D02*
X149054073Y-93789457D01*
X149054073Y-93789457D02*
X148943104Y-93741495D01*
X148943104Y-93741495D02*
X148850064Y-93698851D01*
X148850064Y-93698851D02*
X148782149Y-93664564D01*
X148782149Y-93664564D02*
X148746553Y-93641672D01*
X148746553Y-93641672D02*
X148745995Y-93641129D01*
X148745995Y-93641129D02*
X148755260Y-93621913D01*
X148755260Y-93621913D02*
X148793792Y-93574758D01*
X148793792Y-93574758D02*
X148861775Y-93499474D01*
X148861775Y-93499474D02*
X148959390Y-93395869D01*
X148959390Y-93395869D02*
X149086819Y-93263755D01*
X149086819Y-93263755D02*
X149244244Y-93102940D01*
X149244244Y-93102940D02*
X149431846Y-92913234D01*
X149431846Y-92913234D02*
X149649809Y-92694448D01*
X149649809Y-92694448D02*
X149676452Y-92667791D01*
X149676452Y-92667791D02*
X150628261Y-91715805D01*
X150628261Y-91715805D02*
X151184018Y-92271265D01*
X151184018Y-92271265D02*
X151184018Y-92271265D01*
G36*
X151184018Y-92271265D02*
G01*
X151739774Y-92826725D01*
X151067843Y-93498902D01*
X150901184Y-93665163D01*
X150761615Y-93803288D01*
X150646725Y-93915506D01*
X150554108Y-94004044D01*
X150481353Y-94071133D01*
X150426054Y-94119000D01*
X150385800Y-94149875D01*
X150358184Y-94165985D01*
X150342871Y-94169736D01*
X150301228Y-94164897D01*
X150229018Y-94152810D01*
X150137001Y-94135391D01*
X150051937Y-94117967D01*
X149935185Y-94090418D01*
X149796559Y-94053419D01*
X149653977Y-94011956D01*
X149533353Y-93973698D01*
X149422612Y-93934856D01*
X149301022Y-93889176D01*
X149175777Y-93839697D01*
X149054073Y-93789457D01*
X148943104Y-93741495D01*
X148850064Y-93698851D01*
X148782149Y-93664564D01*
X148746553Y-93641672D01*
X148745995Y-93641129D01*
X148755260Y-93621913D01*
X148793792Y-93574758D01*
X148861775Y-93499474D01*
X148959390Y-93395869D01*
X149086819Y-93263755D01*
X149244244Y-93102940D01*
X149431846Y-92913234D01*
X149649809Y-92694448D01*
X149676452Y-92667791D01*
X150628261Y-91715805D01*
X151184018Y-92271265D01*
G37*
X151184018Y-92271265D02*
X151739774Y-92826725D01*
X151067843Y-93498902D01*
X150901184Y-93665163D01*
X150761615Y-93803288D01*
X150646725Y-93915506D01*
X150554108Y-94004044D01*
X150481353Y-94071133D01*
X150426054Y-94119000D01*
X150385800Y-94149875D01*
X150358184Y-94165985D01*
X150342871Y-94169736D01*
X150301228Y-94164897D01*
X150229018Y-94152810D01*
X150137001Y-94135391D01*
X150051937Y-94117967D01*
X149935185Y-94090418D01*
X149796559Y-94053419D01*
X149653977Y-94011956D01*
X149533353Y-93973698D01*
X149422612Y-93934856D01*
X149301022Y-93889176D01*
X149175777Y-93839697D01*
X149054073Y-93789457D01*
X148943104Y-93741495D01*
X148850064Y-93698851D01*
X148782149Y-93664564D01*
X148746553Y-93641672D01*
X148745995Y-93641129D01*
X148755260Y-93621913D01*
X148793792Y-93574758D01*
X148861775Y-93499474D01*
X148959390Y-93395869D01*
X149086819Y-93263755D01*
X149244244Y-93102940D01*
X149431846Y-92913234D01*
X149649809Y-92694448D01*
X149676452Y-92667791D01*
X150628261Y-91715805D01*
X151184018Y-92271265D01*
X143146080Y-102990907D02*
X142960872Y-103047459D01*
X142960872Y-103047459D02*
X142852574Y-103078468D01*
X142852574Y-103078468D02*
X142735351Y-103108817D01*
X142735351Y-103108817D02*
X142631806Y-103132704D01*
X142631806Y-103132704D02*
X142616913Y-103135760D01*
X142616913Y-103135760D02*
X142542779Y-103146511D01*
X142542779Y-103146511D02*
X142436889Y-103156512D01*
X142436889Y-103156512D02*
X142309184Y-103165352D01*
X142309184Y-103165352D02*
X142169605Y-103172619D01*
X142169605Y-103172619D02*
X142028092Y-103177900D01*
X142028092Y-103177900D02*
X141894586Y-103180783D01*
X141894586Y-103180783D02*
X141779030Y-103180858D01*
X141779030Y-103180858D02*
X141691362Y-103177712D01*
X141691362Y-103177712D02*
X141664413Y-103175229D01*
X141664413Y-103175229D02*
X141337420Y-103126861D01*
X141337420Y-103126861D02*
X141037427Y-103065917D01*
X141037427Y-103065917D02*
X140893669Y-103029425D01*
X140893669Y-103029425D02*
X140754232Y-102989200D01*
X140754232Y-102989200D02*
X140620766Y-102947001D01*
X140620766Y-102947001D02*
X140498879Y-102904978D01*
X140498879Y-102904978D02*
X140394181Y-102865282D01*
X140394181Y-102865282D02*
X140312279Y-102830061D01*
X140312279Y-102830061D02*
X140258784Y-102801467D01*
X140258784Y-102801467D02*
X140239302Y-102781649D01*
X140239302Y-102781649D02*
X140240026Y-102778854D01*
X140240026Y-102778854D02*
X140255821Y-102760608D01*
X140255821Y-102760608D02*
X140297842Y-102713725D01*
X140297842Y-102713725D02*
X140363728Y-102640792D01*
X140363728Y-102640792D02*
X140451117Y-102544394D01*
X140451117Y-102544394D02*
X140557648Y-102427118D01*
X140557648Y-102427118D02*
X140680958Y-102291550D01*
X140680958Y-102291550D02*
X140818687Y-102140276D01*
X140818687Y-102140276D02*
X140968473Y-101975882D01*
X140968473Y-101975882D02*
X141127954Y-101800955D01*
X141127954Y-101800955D02*
X141294768Y-101618080D01*
X141294768Y-101618080D02*
X141466556Y-101429843D01*
X141466556Y-101429843D02*
X141640953Y-101238830D01*
X141640953Y-101238830D02*
X141815600Y-101047629D01*
X141815600Y-101047629D02*
X141988135Y-100858824D01*
X141988135Y-100858824D02*
X142156196Y-100675002D01*
X142156196Y-100675002D02*
X142317421Y-100498749D01*
X142317421Y-100498749D02*
X142469449Y-100332651D01*
X142469449Y-100332651D02*
X142609919Y-100179295D01*
X142609919Y-100179295D02*
X142736468Y-100041265D01*
X142736468Y-100041265D02*
X142846736Y-99921149D01*
X142846736Y-99921149D02*
X142938361Y-99821533D01*
X142938361Y-99821533D02*
X143008981Y-99745002D01*
X143008981Y-99745002D02*
X143056235Y-99694144D01*
X143056235Y-99694144D02*
X143074567Y-99674766D01*
X143074567Y-99674766D02*
X143146080Y-99601035D01*
X143146080Y-99601035D02*
X143146080Y-102990907D01*
X143146080Y-102990907D02*
X143146080Y-102990907D01*
G36*
X143146080Y-102990907D02*
G01*
X142960872Y-103047459D01*
X142852574Y-103078468D01*
X142735351Y-103108817D01*
X142631806Y-103132704D01*
X142616913Y-103135760D01*
X142542779Y-103146511D01*
X142436889Y-103156512D01*
X142309184Y-103165352D01*
X142169605Y-103172619D01*
X142028092Y-103177900D01*
X141894586Y-103180783D01*
X141779030Y-103180858D01*
X141691362Y-103177712D01*
X141664413Y-103175229D01*
X141337420Y-103126861D01*
X141037427Y-103065917D01*
X140893669Y-103029425D01*
X140754232Y-102989200D01*
X140620766Y-102947001D01*
X140498879Y-102904978D01*
X140394181Y-102865282D01*
X140312279Y-102830061D01*
X140258784Y-102801467D01*
X140239302Y-102781649D01*
X140240026Y-102778854D01*
X140255821Y-102760608D01*
X140297842Y-102713725D01*
X140363728Y-102640792D01*
X140451117Y-102544394D01*
X140557648Y-102427118D01*
X140680958Y-102291550D01*
X140818687Y-102140276D01*
X140968473Y-101975882D01*
X141127954Y-101800955D01*
X141294768Y-101618080D01*
X141466556Y-101429843D01*
X141640953Y-101238830D01*
X141815600Y-101047629D01*
X141988135Y-100858824D01*
X142156196Y-100675002D01*
X142317421Y-100498749D01*
X142469449Y-100332651D01*
X142609919Y-100179295D01*
X142736468Y-100041265D01*
X142846736Y-99921149D01*
X142938361Y-99821533D01*
X143008981Y-99745002D01*
X143056235Y-99694144D01*
X143074567Y-99674766D01*
X143146080Y-99601035D01*
X143146080Y-102990907D01*
G37*
X143146080Y-102990907D02*
X142960872Y-103047459D01*
X142852574Y-103078468D01*
X142735351Y-103108817D01*
X142631806Y-103132704D01*
X142616913Y-103135760D01*
X142542779Y-103146511D01*
X142436889Y-103156512D01*
X142309184Y-103165352D01*
X142169605Y-103172619D01*
X142028092Y-103177900D01*
X141894586Y-103180783D01*
X141779030Y-103180858D01*
X141691362Y-103177712D01*
X141664413Y-103175229D01*
X141337420Y-103126861D01*
X141037427Y-103065917D01*
X140893669Y-103029425D01*
X140754232Y-102989200D01*
X140620766Y-102947001D01*
X140498879Y-102904978D01*
X140394181Y-102865282D01*
X140312279Y-102830061D01*
X140258784Y-102801467D01*
X140239302Y-102781649D01*
X140240026Y-102778854D01*
X140255821Y-102760608D01*
X140297842Y-102713725D01*
X140363728Y-102640792D01*
X140451117Y-102544394D01*
X140557648Y-102427118D01*
X140680958Y-102291550D01*
X140818687Y-102140276D01*
X140968473Y-101975882D01*
X141127954Y-101800955D01*
X141294768Y-101618080D01*
X141466556Y-101429843D01*
X141640953Y-101238830D01*
X141815600Y-101047629D01*
X141988135Y-100858824D01*
X142156196Y-100675002D01*
X142317421Y-100498749D01*
X142469449Y-100332651D01*
X142609919Y-100179295D01*
X142736468Y-100041265D01*
X142846736Y-99921149D01*
X142938361Y-99821533D01*
X143008981Y-99745002D01*
X143056235Y-99694144D01*
X143074567Y-99674766D01*
X143146080Y-99601035D01*
X143146080Y-102990907D01*
X148926133Y-72325613D02*
X149778814Y-72325664D01*
X149778814Y-72325664D02*
X150629234Y-72325747D01*
X150629234Y-72325747D02*
X151476330Y-72325861D01*
X151476330Y-72325861D02*
X152319042Y-72326006D01*
X152319042Y-72326006D02*
X153156308Y-72326183D01*
X153156308Y-72326183D02*
X153987065Y-72326391D01*
X153987065Y-72326391D02*
X154810251Y-72326631D01*
X154810251Y-72326631D02*
X155624806Y-72326901D01*
X155624806Y-72326901D02*
X156429668Y-72327204D01*
X156429668Y-72327204D02*
X157223774Y-72327537D01*
X157223774Y-72327537D02*
X158006062Y-72327903D01*
X158006062Y-72327903D02*
X158775472Y-72328299D01*
X158775472Y-72328299D02*
X159530941Y-72328727D01*
X159530941Y-72328727D02*
X160271407Y-72329186D01*
X160271407Y-72329186D02*
X160995809Y-72329677D01*
X160995809Y-72329677D02*
X161703085Y-72330199D01*
X161703085Y-72330199D02*
X162392173Y-72330752D01*
X162392173Y-72330752D02*
X163062012Y-72331337D01*
X163062012Y-72331337D02*
X163711539Y-72331953D01*
X163711539Y-72331953D02*
X164339693Y-72332601D01*
X164339693Y-72332601D02*
X164945412Y-72333280D01*
X164945412Y-72333280D02*
X165527634Y-72333990D01*
X165527634Y-72333990D02*
X166085298Y-72334732D01*
X166085298Y-72334732D02*
X166617341Y-72335505D01*
X166617341Y-72335505D02*
X167122703Y-72336310D01*
X167122703Y-72336310D02*
X167600320Y-72337146D01*
X167600320Y-72337146D02*
X168049132Y-72338013D01*
X168049132Y-72338013D02*
X168468077Y-72338912D01*
X168468077Y-72338912D02*
X168856092Y-72339842D01*
X168856092Y-72339842D02*
X169212117Y-72340804D01*
X169212117Y-72340804D02*
X169535088Y-72341796D01*
X169535088Y-72341796D02*
X169823946Y-72342821D01*
X169823946Y-72342821D02*
X170077627Y-72343876D01*
X170077627Y-72343876D02*
X170295070Y-72344964D01*
X170295070Y-72344964D02*
X170475213Y-72346082D01*
X170475213Y-72346082D02*
X170616994Y-72347232D01*
X170616994Y-72347232D02*
X170719353Y-72348413D01*
X170719353Y-72348413D02*
X170781226Y-72349626D01*
X170781226Y-72349626D02*
X170800330Y-72350544D01*
X170800330Y-72350544D02*
X171117387Y-72410258D01*
X171117387Y-72410258D02*
X171419893Y-72509437D01*
X171419893Y-72509437D02*
X171705925Y-72647144D01*
X171705925Y-72647144D02*
X171973564Y-72822438D01*
X171973564Y-72822438D02*
X172220890Y-73034382D01*
X172220890Y-73034382D02*
X172242451Y-73055584D01*
X172242451Y-73055584D02*
X172455115Y-73296440D01*
X172455115Y-73296440D02*
X172632766Y-73560167D01*
X172632766Y-73560167D02*
X172774009Y-73843910D01*
X172774009Y-73843910D02*
X172877447Y-74144811D01*
X172877447Y-74144811D02*
X172941685Y-74460014D01*
X172941685Y-74460014D02*
X172946449Y-74496663D01*
X172946449Y-74496663D02*
X172947685Y-74527866D01*
X172947685Y-74527866D02*
X172948889Y-74600341D01*
X172948889Y-74600341D02*
X172950062Y-74713025D01*
X172950062Y-74713025D02*
X172951204Y-74864857D01*
X172951204Y-74864857D02*
X172952314Y-75054776D01*
X172952314Y-75054776D02*
X172953393Y-75281719D01*
X172953393Y-75281719D02*
X172954441Y-75544625D01*
X172954441Y-75544625D02*
X172955457Y-75842431D01*
X172955457Y-75842431D02*
X172956442Y-76174077D01*
X172956442Y-76174077D02*
X172957395Y-76538500D01*
X172957395Y-76538500D02*
X172958317Y-76934639D01*
X172958317Y-76934639D02*
X172959208Y-77361431D01*
X172959208Y-77361431D02*
X172960067Y-77817816D01*
X172960067Y-77817816D02*
X172960895Y-78302730D01*
X172960895Y-78302730D02*
X172961691Y-78815113D01*
X172961691Y-78815113D02*
X172962456Y-79353903D01*
X172962456Y-79353903D02*
X172963190Y-79918038D01*
X172963190Y-79918038D02*
X172963892Y-80506456D01*
X172963892Y-80506456D02*
X172964563Y-81118095D01*
X172964563Y-81118095D02*
X172965203Y-81751894D01*
X172965203Y-81751894D02*
X172965811Y-82406791D01*
X172965811Y-82406791D02*
X172966387Y-83081724D01*
X172966387Y-83081724D02*
X172966933Y-83775631D01*
X172966933Y-83775631D02*
X172967447Y-84487450D01*
X172967447Y-84487450D02*
X172967929Y-85216120D01*
X172967929Y-85216120D02*
X172968380Y-85960579D01*
X172968380Y-85960579D02*
X172968800Y-86719766D01*
X172968800Y-86719766D02*
X172969188Y-87492618D01*
X172969188Y-87492618D02*
X172969545Y-88278073D01*
X172969545Y-88278073D02*
X172969871Y-89075070D01*
X172969871Y-89075070D02*
X172970165Y-89882547D01*
X172970165Y-89882547D02*
X172970428Y-90699443D01*
X172970428Y-90699443D02*
X172970659Y-91524695D01*
X172970659Y-91524695D02*
X172970859Y-92357242D01*
X172970859Y-92357242D02*
X172971028Y-93196022D01*
X172971028Y-93196022D02*
X172971165Y-94039973D01*
X172971165Y-94039973D02*
X172971271Y-94888033D01*
X172971271Y-94888033D02*
X172971345Y-95739141D01*
X172971345Y-95739141D02*
X172971388Y-96592235D01*
X172971388Y-96592235D02*
X172971400Y-97446253D01*
X172971400Y-97446253D02*
X172971380Y-98300133D01*
X172971380Y-98300133D02*
X172971329Y-99152814D01*
X172971329Y-99152814D02*
X172971246Y-100003234D01*
X172971246Y-100003234D02*
X172971132Y-100850330D01*
X172971132Y-100850330D02*
X172970987Y-101693042D01*
X172970987Y-101693042D02*
X172970810Y-102530308D01*
X172970810Y-102530308D02*
X172970602Y-103361065D01*
X172970602Y-103361065D02*
X172970362Y-104184251D01*
X172970362Y-104184251D02*
X172970092Y-104998806D01*
X172970092Y-104998806D02*
X172969789Y-105803668D01*
X172969789Y-105803668D02*
X172969456Y-106597774D01*
X172969456Y-106597774D02*
X172969090Y-107380062D01*
X172969090Y-107380062D02*
X172968694Y-108149472D01*
X172968694Y-108149472D02*
X172968266Y-108904941D01*
X172968266Y-108904941D02*
X172967807Y-109645407D01*
X172967807Y-109645407D02*
X172967316Y-110369809D01*
X172967316Y-110369809D02*
X172966794Y-111077085D01*
X172966794Y-111077085D02*
X172966241Y-111766173D01*
X172966241Y-111766173D02*
X172965656Y-112436012D01*
X172965656Y-112436012D02*
X172965040Y-113085539D01*
X172965040Y-113085539D02*
X172964392Y-113713693D01*
X172964392Y-113713693D02*
X172963713Y-114319412D01*
X172963713Y-114319412D02*
X172963003Y-114901634D01*
X172963003Y-114901634D02*
X172962261Y-115459298D01*
X172962261Y-115459298D02*
X172961488Y-115991341D01*
X172961488Y-115991341D02*
X172960683Y-116496703D01*
X172960683Y-116496703D02*
X172959847Y-116974320D01*
X172959847Y-116974320D02*
X172958980Y-117423132D01*
X172958980Y-117423132D02*
X172958081Y-117842077D01*
X172958081Y-117842077D02*
X172957151Y-118230092D01*
X172957151Y-118230092D02*
X172956189Y-118586117D01*
X172956189Y-118586117D02*
X172955197Y-118909088D01*
X172955197Y-118909088D02*
X172954172Y-119197946D01*
X172954172Y-119197946D02*
X172953117Y-119451627D01*
X172953117Y-119451627D02*
X172952029Y-119669070D01*
X172952029Y-119669070D02*
X172950911Y-119849213D01*
X172950911Y-119849213D02*
X172949761Y-119990994D01*
X172949761Y-119990994D02*
X172948580Y-120093353D01*
X172948580Y-120093353D02*
X172947367Y-120155226D01*
X172947367Y-120155226D02*
X172946449Y-120174330D01*
X172946449Y-120174330D02*
X172886796Y-120490551D01*
X172886796Y-120490551D02*
X172787631Y-120792581D01*
X172787631Y-120792581D02*
X172650057Y-121078170D01*
X172650057Y-121078170D02*
X172475175Y-121345068D01*
X172475175Y-121345068D02*
X172264088Y-121591026D01*
X172264088Y-121591026D02*
X172240707Y-121614707D01*
X172240707Y-121614707D02*
X171996998Y-121829403D01*
X171996998Y-121829403D02*
X171732120Y-122008006D01*
X171732120Y-122008006D02*
X171448323Y-122149414D01*
X171448323Y-122149414D02*
X171147858Y-122252523D01*
X171147858Y-122252523D02*
X170832973Y-122316232D01*
X170832973Y-122316232D02*
X170800330Y-122320449D01*
X170800330Y-122320449D02*
X170770503Y-122321518D01*
X170770503Y-122321518D02*
X170699408Y-122322560D01*
X170699408Y-122322560D02*
X170588103Y-122323574D01*
X170588103Y-122323574D02*
X170437650Y-122324561D01*
X170437650Y-122324561D02*
X170249108Y-122325521D01*
X170249108Y-122325521D02*
X170023537Y-122326453D01*
X170023537Y-122326453D02*
X169761997Y-122327358D01*
X169761997Y-122327358D02*
X169465549Y-122328235D01*
X169465549Y-122328235D02*
X169135252Y-122329085D01*
X169135252Y-122329085D02*
X168772167Y-122329907D01*
X168772167Y-122329907D02*
X168377354Y-122330702D01*
X168377354Y-122330702D02*
X167951872Y-122331469D01*
X167951872Y-122331469D02*
X167496782Y-122332210D01*
X167496782Y-122332210D02*
X167013145Y-122332922D01*
X167013145Y-122332922D02*
X166502019Y-122333608D01*
X166502019Y-122333608D02*
X165964466Y-122334266D01*
X165964466Y-122334266D02*
X165401544Y-122334897D01*
X165401544Y-122334897D02*
X164814315Y-122335500D01*
X164814315Y-122335500D02*
X164203839Y-122336076D01*
X164203839Y-122336076D02*
X163571175Y-122336625D01*
X163571175Y-122336625D02*
X162917383Y-122337146D01*
X162917383Y-122337146D02*
X162243525Y-122337640D01*
X162243525Y-122337640D02*
X161550659Y-122338107D01*
X161550659Y-122338107D02*
X160839845Y-122338547D01*
X160839845Y-122338547D02*
X160112145Y-122338959D01*
X160112145Y-122338959D02*
X159368618Y-122339344D01*
X159368618Y-122339344D02*
X158610324Y-122339702D01*
X158610324Y-122339702D02*
X157838323Y-122340032D01*
X157838323Y-122340032D02*
X157053675Y-122340336D01*
X157053675Y-122340336D02*
X156257441Y-122340612D01*
X156257441Y-122340612D02*
X155450680Y-122340860D01*
X155450680Y-122340860D02*
X154634453Y-122341082D01*
X154634453Y-122341082D02*
X153809819Y-122341276D01*
X153809819Y-122341276D02*
X152977839Y-122341444D01*
X152977839Y-122341444D02*
X152139573Y-122341584D01*
X152139573Y-122341584D02*
X151296081Y-122341697D01*
X151296081Y-122341697D02*
X150448423Y-122341782D01*
X150448423Y-122341782D02*
X149597659Y-122341841D01*
X149597659Y-122341841D02*
X148744849Y-122341872D01*
X148744849Y-122341872D02*
X147891053Y-122341876D01*
X147891053Y-122341876D02*
X147037331Y-122341854D01*
X147037331Y-122341854D02*
X146184744Y-122341804D01*
X146184744Y-122341804D02*
X145334352Y-122341727D01*
X145334352Y-122341727D02*
X144487214Y-122341622D01*
X144487214Y-122341622D02*
X143644391Y-122341491D01*
X143644391Y-122341491D02*
X142806942Y-122341333D01*
X142806942Y-122341333D02*
X141975929Y-122341147D01*
X141975929Y-122341147D02*
X141152410Y-122340935D01*
X141152410Y-122340935D02*
X140337446Y-122340695D01*
X140337446Y-122340695D02*
X139532098Y-122340429D01*
X139532098Y-122340429D02*
X138737425Y-122340135D01*
X138737425Y-122340135D02*
X137954487Y-122339815D01*
X137954487Y-122339815D02*
X137184344Y-122339467D01*
X137184344Y-122339467D02*
X136428057Y-122339092D01*
X136428057Y-122339092D02*
X135686685Y-122338691D01*
X135686685Y-122338691D02*
X134961289Y-122338262D01*
X134961289Y-122338262D02*
X134252929Y-122337806D01*
X134252929Y-122337806D02*
X133562665Y-122337324D01*
X133562665Y-122337324D02*
X132891556Y-122336814D01*
X132891556Y-122336814D02*
X132240664Y-122336278D01*
X132240664Y-122336278D02*
X131611047Y-122335714D01*
X131611047Y-122335714D02*
X131003767Y-122335124D01*
X131003767Y-122335124D02*
X130419883Y-122334507D01*
X130419883Y-122334507D02*
X129860456Y-122333863D01*
X129860456Y-122333863D02*
X129326544Y-122333191D01*
X129326544Y-122333191D02*
X128819210Y-122332493D01*
X128819210Y-122332493D02*
X128339512Y-122331769D01*
X128339512Y-122331769D02*
X127888510Y-122331017D01*
X127888510Y-122331017D02*
X127467266Y-122330238D01*
X127467266Y-122330238D02*
X127076838Y-122329433D01*
X127076838Y-122329433D02*
X126718287Y-122328600D01*
X126718287Y-122328600D02*
X126392674Y-122327741D01*
X126392674Y-122327741D02*
X126101057Y-122326855D01*
X126101057Y-122326855D02*
X125844498Y-122325942D01*
X125844498Y-122325942D02*
X125624056Y-122325003D01*
X125624056Y-122325003D02*
X125440791Y-122324036D01*
X125440791Y-122324036D02*
X125295764Y-122323043D01*
X125295764Y-122323043D02*
X125190034Y-122322023D01*
X125190034Y-122322023D02*
X125124662Y-122320976D01*
X125124662Y-122320976D02*
X125101497Y-122320051D01*
X125101497Y-122320051D02*
X124804304Y-122262147D01*
X124804304Y-122262147D02*
X124512916Y-122164892D01*
X124512916Y-122164892D02*
X124233346Y-122031267D01*
X124233346Y-122031267D02*
X123971609Y-121864255D01*
X123971609Y-121864255D02*
X123733719Y-121666836D01*
X123733719Y-121666836D02*
X123681831Y-121616258D01*
X123681831Y-121616258D02*
X123466888Y-121371094D01*
X123466888Y-121371094D02*
X123288201Y-121105150D01*
X123288201Y-121105150D02*
X123146847Y-120820629D01*
X123146847Y-120820629D02*
X123043904Y-120519734D01*
X123043904Y-120519734D02*
X122980449Y-120204666D01*
X122980449Y-120204666D02*
X122976544Y-120174330D01*
X122976544Y-120174330D02*
X122975308Y-120143127D01*
X122975308Y-120143127D02*
X122974104Y-120070652D01*
X122974104Y-120070652D02*
X122972931Y-119957968D01*
X122972931Y-119957968D02*
X122971789Y-119806136D01*
X122971789Y-119806136D02*
X122970679Y-119616217D01*
X122970679Y-119616217D02*
X122969600Y-119389274D01*
X122969600Y-119389274D02*
X122968552Y-119126368D01*
X122968552Y-119126368D02*
X122967536Y-118828562D01*
X122967536Y-118828562D02*
X122966551Y-118496916D01*
X122966551Y-118496916D02*
X122965598Y-118132493D01*
X122965598Y-118132493D02*
X122964676Y-117736354D01*
X122964676Y-117736354D02*
X122963785Y-117309562D01*
X122963785Y-117309562D02*
X122962926Y-116853177D01*
X122962926Y-116853177D02*
X122962098Y-116368263D01*
X122962098Y-116368263D02*
X122961302Y-115855880D01*
X122961302Y-115855880D02*
X122960537Y-115317090D01*
X122960537Y-115317090D02*
X122959803Y-114752955D01*
X122959803Y-114752955D02*
X122959101Y-114164537D01*
X122959101Y-114164537D02*
X122958430Y-113552898D01*
X122958430Y-113552898D02*
X122957790Y-112919099D01*
X122957790Y-112919099D02*
X122957182Y-112264202D01*
X122957182Y-112264202D02*
X122956606Y-111589269D01*
X122956606Y-111589269D02*
X122956060Y-110895362D01*
X122956060Y-110895362D02*
X122955546Y-110183543D01*
X122955546Y-110183543D02*
X122955064Y-109454873D01*
X122955064Y-109454873D02*
X122954613Y-108710414D01*
X122954613Y-108710414D02*
X122954193Y-107951227D01*
X122954193Y-107951227D02*
X122953805Y-107178375D01*
X122953805Y-107178375D02*
X122953448Y-106392920D01*
X122953448Y-106392920D02*
X122953249Y-105905229D01*
X122953249Y-105905229D02*
X123972466Y-105905229D01*
X123972466Y-105905229D02*
X123972473Y-106977236D01*
X123972473Y-106977236D02*
X123972531Y-108007012D01*
X123972531Y-108007012D02*
X123972642Y-108994553D01*
X123972642Y-108994553D02*
X123972803Y-109939856D01*
X123972803Y-109939856D02*
X123973017Y-110842916D01*
X123973017Y-110842916D02*
X123973282Y-111703728D01*
X123973282Y-111703728D02*
X123973598Y-112522290D01*
X123973598Y-112522290D02*
X123973967Y-113298595D01*
X123973967Y-113298595D02*
X123974387Y-114032641D01*
X123974387Y-114032641D02*
X123974858Y-114724423D01*
X123974858Y-114724423D02*
X123975382Y-115373937D01*
X123975382Y-115373937D02*
X123975957Y-115981179D01*
X123975957Y-115981179D02*
X123976583Y-116546144D01*
X123976583Y-116546144D02*
X123977262Y-117068829D01*
X123977262Y-117068829D02*
X123977992Y-117549229D01*
X123977992Y-117549229D02*
X123978773Y-117987340D01*
X123978773Y-117987340D02*
X123979606Y-118383157D01*
X123979606Y-118383157D02*
X123980491Y-118736678D01*
X123980491Y-118736678D02*
X123981428Y-119047897D01*
X123981428Y-119047897D02*
X123982416Y-119316810D01*
X123982416Y-119316810D02*
X123983456Y-119543414D01*
X123983456Y-119543414D02*
X123984547Y-119727704D01*
X123984547Y-119727704D02*
X123985690Y-119869675D01*
X123985690Y-119869675D02*
X123986884Y-119969324D01*
X123986884Y-119969324D02*
X123988131Y-120026646D01*
X123988131Y-120026646D02*
X123988927Y-120040911D01*
X123988927Y-120040911D02*
X124040511Y-120281773D01*
X124040511Y-120281773D02*
X124128272Y-120505752D01*
X124128272Y-120505752D02*
X124248965Y-120709504D01*
X124248965Y-120709504D02*
X124399348Y-120889684D01*
X124399348Y-120889684D02*
X124576176Y-121042947D01*
X124576176Y-121042947D02*
X124776205Y-121165947D01*
X124776205Y-121165947D02*
X124996190Y-121255341D01*
X124996190Y-121255341D02*
X125215152Y-121305282D01*
X125215152Y-121305282D02*
X125241344Y-121306037D01*
X125241344Y-121306037D02*
X125308998Y-121306778D01*
X125308998Y-121306778D02*
X125417243Y-121307506D01*
X125417243Y-121307506D02*
X125565207Y-121308219D01*
X125565207Y-121308219D02*
X125752019Y-121308917D01*
X125752019Y-121308917D02*
X125976807Y-121309600D01*
X125976807Y-121309600D02*
X126238701Y-121310266D01*
X126238701Y-121310266D02*
X126536828Y-121310916D01*
X126536828Y-121310916D02*
X126870317Y-121311548D01*
X126870317Y-121311548D02*
X127238298Y-121312163D01*
X127238298Y-121312163D02*
X127639898Y-121312759D01*
X127639898Y-121312759D02*
X128074246Y-121313336D01*
X128074246Y-121313336D02*
X128540470Y-121313894D01*
X128540470Y-121313894D02*
X129037701Y-121314431D01*
X129037701Y-121314431D02*
X129565065Y-121314948D01*
X129565065Y-121314948D02*
X130121692Y-121315444D01*
X130121692Y-121315444D02*
X130706710Y-121315919D01*
X130706710Y-121315919D02*
X131319248Y-121316371D01*
X131319248Y-121316371D02*
X131958435Y-121316800D01*
X131958435Y-121316800D02*
X132623398Y-121317205D01*
X132623398Y-121317205D02*
X133313268Y-121317587D01*
X133313268Y-121317587D02*
X134027172Y-121317944D01*
X134027172Y-121317944D02*
X134764239Y-121318277D01*
X134764239Y-121318277D02*
X135523597Y-121318583D01*
X135523597Y-121318583D02*
X136304376Y-121318864D01*
X136304376Y-121318864D02*
X137105703Y-121319117D01*
X137105703Y-121319117D02*
X137926709Y-121319344D01*
X137926709Y-121319344D02*
X138766520Y-121319542D01*
X138766520Y-121319542D02*
X139624266Y-121319712D01*
X139624266Y-121319712D02*
X140499075Y-121319853D01*
X140499075Y-121319853D02*
X141390076Y-121319965D01*
X141390076Y-121319965D02*
X142296398Y-121320047D01*
X142296398Y-121320047D02*
X143217169Y-121320098D01*
X143217169Y-121320098D02*
X144151518Y-121320117D01*
X144151518Y-121320117D02*
X145098573Y-121320105D01*
X145098573Y-121320105D02*
X146057464Y-121320061D01*
X146057464Y-121320061D02*
X147027318Y-121319984D01*
X147027318Y-121319984D02*
X148007265Y-121319873D01*
X148007265Y-121319873D02*
X148035580Y-121319870D01*
X148035580Y-121319870D02*
X149216256Y-121319714D01*
X149216256Y-121319714D02*
X150355347Y-121319560D01*
X150355347Y-121319560D02*
X151453603Y-121319405D01*
X151453603Y-121319405D02*
X152511772Y-121319249D01*
X152511772Y-121319249D02*
X153530604Y-121319090D01*
X153530604Y-121319090D02*
X154510847Y-121318927D01*
X154510847Y-121318927D02*
X155453249Y-121318759D01*
X155453249Y-121318759D02*
X156358561Y-121318583D01*
X156358561Y-121318583D02*
X157227530Y-121318400D01*
X157227530Y-121318400D02*
X158060906Y-121318206D01*
X158060906Y-121318206D02*
X158859437Y-121318002D01*
X158859437Y-121318002D02*
X159623873Y-121317785D01*
X159623873Y-121317785D02*
X160354962Y-121317555D01*
X160354962Y-121317555D02*
X161053454Y-121317310D01*
X161053454Y-121317310D02*
X161720096Y-121317048D01*
X161720096Y-121317048D02*
X162355639Y-121316769D01*
X162355639Y-121316769D02*
X162960830Y-121316470D01*
X162960830Y-121316470D02*
X163536419Y-121316151D01*
X163536419Y-121316151D02*
X164083155Y-121315811D01*
X164083155Y-121315811D02*
X164601787Y-121315447D01*
X164601787Y-121315447D02*
X165093062Y-121315059D01*
X165093062Y-121315059D02*
X165557731Y-121314645D01*
X165557731Y-121314645D02*
X165996543Y-121314203D01*
X165996543Y-121314203D02*
X166410245Y-121313733D01*
X166410245Y-121313733D02*
X166799588Y-121313234D01*
X166799588Y-121313234D02*
X167165319Y-121312703D01*
X167165319Y-121312703D02*
X167508188Y-121312139D01*
X167508188Y-121312139D02*
X167828943Y-121311542D01*
X167828943Y-121311542D02*
X168128335Y-121310909D01*
X168128335Y-121310909D02*
X168407110Y-121310239D01*
X168407110Y-121310239D02*
X168666019Y-121309531D01*
X168666019Y-121309531D02*
X168905810Y-121308785D01*
X168905810Y-121308785D02*
X169127232Y-121307997D01*
X169127232Y-121307997D02*
X169331035Y-121307167D01*
X169331035Y-121307167D02*
X169517966Y-121306294D01*
X169517966Y-121306294D02*
X169688775Y-121305376D01*
X169688775Y-121305376D02*
X169844210Y-121304412D01*
X169844210Y-121304412D02*
X169985021Y-121303400D01*
X169985021Y-121303400D02*
X170111956Y-121302340D01*
X170111956Y-121302340D02*
X170225765Y-121301229D01*
X170225765Y-121301229D02*
X170327196Y-121300067D01*
X170327196Y-121300067D02*
X170416998Y-121298852D01*
X170416998Y-121298852D02*
X170495920Y-121297582D01*
X170495920Y-121297582D02*
X170564710Y-121296257D01*
X170564710Y-121296257D02*
X170624119Y-121294875D01*
X170624119Y-121294875D02*
X170674894Y-121293435D01*
X170674894Y-121293435D02*
X170717785Y-121291935D01*
X170717785Y-121291935D02*
X170753540Y-121290374D01*
X170753540Y-121290374D02*
X170782908Y-121288751D01*
X170782908Y-121288751D02*
X170806639Y-121287064D01*
X170806639Y-121287064D02*
X170825480Y-121285312D01*
X170825480Y-121285312D02*
X170840182Y-121283493D01*
X170840182Y-121283493D02*
X170851492Y-121281607D01*
X170851492Y-121281607D02*
X170860161Y-121279651D01*
X170860161Y-121279651D02*
X170863830Y-121278619D01*
X170863830Y-121278619D02*
X171104846Y-121185147D01*
X171104846Y-121185147D02*
X171321185Y-121058625D01*
X171321185Y-121058625D02*
X171510473Y-120901452D01*
X171510473Y-120901452D02*
X171670337Y-120716023D01*
X171670337Y-120716023D02*
X171798403Y-120504736D01*
X171798403Y-120504736D02*
X171892296Y-120269990D01*
X171892296Y-120269990D02*
X171904878Y-120227247D01*
X171904878Y-120227247D02*
X171906875Y-120219142D01*
X171906875Y-120219142D02*
X171908802Y-120208879D01*
X171908802Y-120208879D02*
X171910661Y-120195708D01*
X171910661Y-120195708D02*
X171912451Y-120178881D01*
X171912451Y-120178881D02*
X171914175Y-120157649D01*
X171914175Y-120157649D02*
X171915833Y-120131265D01*
X171915833Y-120131265D02*
X171917428Y-120098978D01*
X171917428Y-120098978D02*
X171918959Y-120060041D01*
X171918959Y-120060041D02*
X171920430Y-120013706D01*
X171920430Y-120013706D02*
X171921840Y-119959223D01*
X171921840Y-119959223D02*
X171923191Y-119895845D01*
X171923191Y-119895845D02*
X171924484Y-119822822D01*
X171924484Y-119822822D02*
X171925721Y-119739406D01*
X171925721Y-119739406D02*
X171926903Y-119644849D01*
X171926903Y-119644849D02*
X171928030Y-119538402D01*
X171928030Y-119538402D02*
X171929105Y-119419317D01*
X171929105Y-119419317D02*
X171930129Y-119286845D01*
X171930129Y-119286845D02*
X171931102Y-119140237D01*
X171931102Y-119140237D02*
X171932027Y-118978745D01*
X171932027Y-118978745D02*
X171932903Y-118801621D01*
X171932903Y-118801621D02*
X171933734Y-118608116D01*
X171933734Y-118608116D02*
X171934519Y-118397481D01*
X171934519Y-118397481D02*
X171935260Y-118168968D01*
X171935260Y-118168968D02*
X171935959Y-117921829D01*
X171935959Y-117921829D02*
X171936616Y-117655314D01*
X171936616Y-117655314D02*
X171937233Y-117368676D01*
X171937233Y-117368676D02*
X171937812Y-117061165D01*
X171937812Y-117061165D02*
X171938352Y-116732034D01*
X171938352Y-116732034D02*
X171938857Y-116380534D01*
X171938857Y-116380534D02*
X171939326Y-116005916D01*
X171939326Y-116005916D02*
X171939761Y-115607432D01*
X171939761Y-115607432D02*
X171940164Y-115184332D01*
X171940164Y-115184332D02*
X171940536Y-114735870D01*
X171940536Y-114735870D02*
X171940877Y-114261296D01*
X171940877Y-114261296D02*
X171941190Y-113759861D01*
X171941190Y-113759861D02*
X171941475Y-113230817D01*
X171941475Y-113230817D02*
X171941734Y-112673416D01*
X171941734Y-112673416D02*
X171941967Y-112086910D01*
X171941967Y-112086910D02*
X171942177Y-111470548D01*
X171942177Y-111470548D02*
X171942365Y-110823584D01*
X171942365Y-110823584D02*
X171942531Y-110145268D01*
X171942531Y-110145268D02*
X171942677Y-109434852D01*
X171942677Y-109434852D02*
X171942805Y-108691588D01*
X171942805Y-108691588D02*
X171942915Y-107914726D01*
X171942915Y-107914726D02*
X171943009Y-107103519D01*
X171943009Y-107103519D02*
X171943087Y-106257217D01*
X171943087Y-106257217D02*
X171943152Y-105375074D01*
X171943152Y-105375074D02*
X171943205Y-104456338D01*
X171943205Y-104456338D02*
X171943246Y-103500264D01*
X171943246Y-103500264D02*
X171943278Y-102506100D01*
X171943278Y-102506100D02*
X171943300Y-101473101D01*
X171943300Y-101473101D02*
X171943316Y-100400516D01*
X171943316Y-100400516D02*
X171943325Y-99287597D01*
X171943325Y-99287597D02*
X171943329Y-98133595D01*
X171943329Y-98133595D02*
X171943330Y-97335497D01*
X171943330Y-97335497D02*
X171943328Y-96153497D01*
X171943328Y-96153497D02*
X171943323Y-95013082D01*
X171943323Y-95013082D02*
X171943312Y-93913504D01*
X171943312Y-93913504D02*
X171943294Y-92854013D01*
X171943294Y-92854013D02*
X171943268Y-91833861D01*
X171943268Y-91833861D02*
X171943234Y-90852300D01*
X171943234Y-90852300D02*
X171943189Y-89908582D01*
X171943189Y-89908582D02*
X171943132Y-89001957D01*
X171943132Y-89001957D02*
X171943063Y-88131677D01*
X171943063Y-88131677D02*
X171942979Y-87296994D01*
X171942979Y-87296994D02*
X171942881Y-86497159D01*
X171942881Y-86497159D02*
X171942765Y-85731423D01*
X171942765Y-85731423D02*
X171942631Y-84999039D01*
X171942631Y-84999039D02*
X171942479Y-84299257D01*
X171942479Y-84299257D02*
X171942306Y-83631329D01*
X171942306Y-83631329D02*
X171942111Y-82994506D01*
X171942111Y-82994506D02*
X171941893Y-82388040D01*
X171941893Y-82388040D02*
X171941651Y-81811183D01*
X171941651Y-81811183D02*
X171941384Y-81263186D01*
X171941384Y-81263186D02*
X171941090Y-80743300D01*
X171941090Y-80743300D02*
X171940768Y-80250777D01*
X171940768Y-80250777D02*
X171940417Y-79784868D01*
X171940417Y-79784868D02*
X171940035Y-79344825D01*
X171940035Y-79344825D02*
X171939622Y-78929900D01*
X171939622Y-78929900D02*
X171939175Y-78539343D01*
X171939175Y-78539343D02*
X171938695Y-78172406D01*
X171938695Y-78172406D02*
X171938179Y-77828341D01*
X171938179Y-77828341D02*
X171937626Y-77506400D01*
X171937626Y-77506400D02*
X171937035Y-77205832D01*
X171937035Y-77205832D02*
X171936405Y-76925891D01*
X171936405Y-76925891D02*
X171935734Y-76665828D01*
X171935734Y-76665828D02*
X171935021Y-76424894D01*
X171935021Y-76424894D02*
X171934266Y-76202340D01*
X171934266Y-76202340D02*
X171933466Y-75997418D01*
X171933466Y-75997418D02*
X171932620Y-75809380D01*
X171932620Y-75809380D02*
X171931728Y-75637477D01*
X171931728Y-75637477D02*
X171930788Y-75480960D01*
X171930788Y-75480960D02*
X171929798Y-75339082D01*
X171929798Y-75339082D02*
X171928758Y-75211092D01*
X171928758Y-75211092D02*
X171927665Y-75096244D01*
X171927665Y-75096244D02*
X171926520Y-74993788D01*
X171926520Y-74993788D02*
X171925320Y-74902975D01*
X171925320Y-74902975D02*
X171924065Y-74823058D01*
X171924065Y-74823058D02*
X171922753Y-74753288D01*
X171922753Y-74753288D02*
X171921383Y-74692916D01*
X171921383Y-74692916D02*
X171919953Y-74641194D01*
X171919953Y-74641194D02*
X171918463Y-74597373D01*
X171918463Y-74597373D02*
X171916911Y-74560705D01*
X171916911Y-74560705D02*
X171915295Y-74530441D01*
X171915295Y-74530441D02*
X171913615Y-74505833D01*
X171913615Y-74505833D02*
X171911870Y-74486131D01*
X171911870Y-74486131D02*
X171910057Y-74470589D01*
X171910057Y-74470589D02*
X171908177Y-74458456D01*
X171908177Y-74458456D02*
X171906227Y-74448985D01*
X171906227Y-74448985D02*
X171904878Y-74443747D01*
X171904878Y-74443747D02*
X171817202Y-74205650D01*
X171817202Y-74205650D02*
X171694940Y-73990209D01*
X171694940Y-73990209D02*
X171540895Y-73800229D01*
X171540895Y-73800229D02*
X171357871Y-73638511D01*
X171357871Y-73638511D02*
X171148671Y-73507859D01*
X171148671Y-73507859D02*
X170916098Y-73411078D01*
X170916098Y-73411078D02*
X170853247Y-73392115D01*
X170853247Y-73392115D02*
X170845142Y-73390118D01*
X170845142Y-73390118D02*
X170834879Y-73388191D01*
X170834879Y-73388191D02*
X170821708Y-73386332D01*
X170821708Y-73386332D02*
X170804881Y-73384542D01*
X170804881Y-73384542D02*
X170783649Y-73382818D01*
X170783649Y-73382818D02*
X170757265Y-73381160D01*
X170757265Y-73381160D02*
X170724978Y-73379565D01*
X170724978Y-73379565D02*
X170686041Y-73378034D01*
X170686041Y-73378034D02*
X170639706Y-73376563D01*
X170639706Y-73376563D02*
X170585223Y-73375153D01*
X170585223Y-73375153D02*
X170521845Y-73373802D01*
X170521845Y-73373802D02*
X170448822Y-73372509D01*
X170448822Y-73372509D02*
X170365406Y-73371272D01*
X170365406Y-73371272D02*
X170270849Y-73370090D01*
X170270849Y-73370090D02*
X170164402Y-73368963D01*
X170164402Y-73368963D02*
X170045317Y-73367888D01*
X170045317Y-73367888D02*
X169912845Y-73366864D01*
X169912845Y-73366864D02*
X169766237Y-73365891D01*
X169766237Y-73365891D02*
X169604745Y-73364966D01*
X169604745Y-73364966D02*
X169427621Y-73364090D01*
X169427621Y-73364090D02*
X169234116Y-73363259D01*
X169234116Y-73363259D02*
X169023481Y-73362474D01*
X169023481Y-73362474D02*
X168794968Y-73361733D01*
X168794968Y-73361733D02*
X168547829Y-73361034D01*
X168547829Y-73361034D02*
X168281314Y-73360377D01*
X168281314Y-73360377D02*
X167994676Y-73359760D01*
X167994676Y-73359760D02*
X167687165Y-73359181D01*
X167687165Y-73359181D02*
X167358034Y-73358641D01*
X167358034Y-73358641D02*
X167006534Y-73358136D01*
X167006534Y-73358136D02*
X166631916Y-73357667D01*
X166631916Y-73357667D02*
X166233432Y-73357232D01*
X166233432Y-73357232D02*
X165810332Y-73356829D01*
X165810332Y-73356829D02*
X165361870Y-73356457D01*
X165361870Y-73356457D02*
X164887296Y-73356116D01*
X164887296Y-73356116D02*
X164385861Y-73355803D01*
X164385861Y-73355803D02*
X163856817Y-73355518D01*
X163856817Y-73355518D02*
X163299416Y-73355259D01*
X163299416Y-73355259D02*
X162712910Y-73355026D01*
X162712910Y-73355026D02*
X162096548Y-73354816D01*
X162096548Y-73354816D02*
X161449584Y-73354628D01*
X161449584Y-73354628D02*
X160771268Y-73354462D01*
X160771268Y-73354462D02*
X160060852Y-73354316D01*
X160060852Y-73354316D02*
X159317588Y-73354188D01*
X159317588Y-73354188D02*
X158540726Y-73354078D01*
X158540726Y-73354078D02*
X157729519Y-73353984D01*
X157729519Y-73353984D02*
X156883217Y-73353906D01*
X156883217Y-73353906D02*
X156001074Y-73353841D01*
X156001074Y-73353841D02*
X155082338Y-73353788D01*
X155082338Y-73353788D02*
X154126264Y-73353747D01*
X154126264Y-73353747D02*
X153132100Y-73353715D01*
X153132100Y-73353715D02*
X152099101Y-73353693D01*
X152099101Y-73353693D02*
X151026516Y-73353677D01*
X151026516Y-73353677D02*
X149913597Y-73353668D01*
X149913597Y-73353668D02*
X148759595Y-73353664D01*
X148759595Y-73353664D02*
X147961497Y-73353663D01*
X147961497Y-73353663D02*
X146779645Y-73353665D01*
X146779645Y-73353665D02*
X145639379Y-73353670D01*
X145639379Y-73353670D02*
X144539948Y-73353681D01*
X144539948Y-73353681D02*
X143480605Y-73353697D01*
X143480605Y-73353697D02*
X142460599Y-73353722D01*
X142460599Y-73353722D02*
X141479183Y-73353756D01*
X141479183Y-73353756D02*
X140535608Y-73353799D01*
X140535608Y-73353799D02*
X139629125Y-73353854D01*
X139629125Y-73353854D02*
X138758984Y-73353922D01*
X138758984Y-73353922D02*
X137924438Y-73354004D01*
X137924438Y-73354004D02*
X137124738Y-73354101D01*
X137124738Y-73354101D02*
X136359134Y-73354215D01*
X136359134Y-73354215D02*
X135626879Y-73354347D01*
X135626879Y-73354347D02*
X134927223Y-73354497D01*
X134927223Y-73354497D02*
X134259417Y-73354668D01*
X134259417Y-73354668D02*
X133622713Y-73354861D01*
X133622713Y-73354861D02*
X133016361Y-73355076D01*
X133016361Y-73355076D02*
X132439614Y-73355316D01*
X132439614Y-73355316D02*
X131891723Y-73355581D01*
X131891723Y-73355581D02*
X131371938Y-73355873D01*
X131371938Y-73355873D02*
X130879510Y-73356192D01*
X130879510Y-73356192D02*
X130413692Y-73356541D01*
X130413692Y-73356541D02*
X129973734Y-73356921D01*
X129973734Y-73356921D02*
X129558887Y-73357332D01*
X129558887Y-73357332D02*
X129168404Y-73357776D01*
X129168404Y-73357776D02*
X128801534Y-73358254D01*
X128801534Y-73358254D02*
X128457529Y-73358768D01*
X128457529Y-73358768D02*
X128135641Y-73359319D01*
X128135641Y-73359319D02*
X127835120Y-73359908D01*
X127835120Y-73359908D02*
X127555218Y-73360536D01*
X127555218Y-73360536D02*
X127295186Y-73361205D01*
X127295186Y-73361205D02*
X127054275Y-73361916D01*
X127054275Y-73361916D02*
X126831737Y-73362670D01*
X126831737Y-73362670D02*
X126626823Y-73363468D01*
X126626823Y-73363468D02*
X126438784Y-73364312D01*
X126438784Y-73364312D02*
X126266870Y-73365203D01*
X126266870Y-73365203D02*
X126110334Y-73366143D01*
X126110334Y-73366143D02*
X125968427Y-73367131D01*
X125968427Y-73367131D02*
X125840400Y-73368171D01*
X125840400Y-73368171D02*
X125725504Y-73369263D01*
X125725504Y-73369263D02*
X125622989Y-73370407D01*
X125622989Y-73370407D02*
X125532109Y-73371607D01*
X125532109Y-73371607D02*
X125452113Y-73372862D01*
X125452113Y-73372862D02*
X125382253Y-73374175D01*
X125382253Y-73374175D02*
X125321781Y-73375545D01*
X125321781Y-73375545D02*
X125269947Y-73376976D01*
X125269947Y-73376976D02*
X125226002Y-73378467D01*
X125226002Y-73378467D02*
X125189198Y-73380021D01*
X125189198Y-73380021D02*
X125158787Y-73381638D01*
X125158787Y-73381638D02*
X125134018Y-73383319D01*
X125134018Y-73383319D02*
X125114144Y-73385067D01*
X125114144Y-73385067D02*
X125098416Y-73386882D01*
X125098416Y-73386882D02*
X125086085Y-73388765D01*
X125086085Y-73388765D02*
X125076403Y-73390719D01*
X125076403Y-73390719D02*
X125069747Y-73392420D01*
X125069747Y-73392420D02*
X124828391Y-73481212D01*
X124828391Y-73481212D02*
X124611823Y-73603753D01*
X124611823Y-73603753D02*
X124421891Y-73758213D01*
X124421891Y-73758213D02*
X124260447Y-73942761D01*
X124260447Y-73942761D02*
X124129339Y-74155565D01*
X124129339Y-74155565D02*
X124030418Y-74394793D01*
X124030418Y-74394793D02*
X124018374Y-74433163D01*
X124018374Y-74433163D02*
X124016380Y-74440777D01*
X124016380Y-74440777D02*
X124014456Y-74450661D01*
X124014456Y-74450661D02*
X124012601Y-74463564D01*
X124012601Y-74463564D02*
X124010812Y-74480236D01*
X124010812Y-74480236D02*
X124009088Y-74501426D01*
X124009088Y-74501426D02*
X124007427Y-74527884D01*
X124007427Y-74527884D02*
X124005830Y-74560360D01*
X124005830Y-74560360D02*
X124004292Y-74599602D01*
X124004292Y-74599602D02*
X124002815Y-74646361D01*
X124002815Y-74646361D02*
X124001395Y-74701387D01*
X124001395Y-74701387D02*
X124000032Y-74765428D01*
X124000032Y-74765428D02*
X123998723Y-74839234D01*
X123998723Y-74839234D02*
X123997468Y-74923555D01*
X123997468Y-74923555D02*
X123996265Y-75019141D01*
X123996265Y-75019141D02*
X123995113Y-75126741D01*
X123995113Y-75126741D02*
X123994010Y-75247105D01*
X123994010Y-75247105D02*
X123992954Y-75380981D01*
X123992954Y-75380981D02*
X123991945Y-75529121D01*
X123991945Y-75529121D02*
X123990980Y-75692273D01*
X123990980Y-75692273D02*
X123990059Y-75871187D01*
X123990059Y-75871187D02*
X123989179Y-76066612D01*
X123989179Y-76066612D02*
X123988340Y-76279298D01*
X123988340Y-76279298D02*
X123987540Y-76509995D01*
X123987540Y-76509995D02*
X123986777Y-76759452D01*
X123986777Y-76759452D02*
X123986050Y-77028419D01*
X123986050Y-77028419D02*
X123985357Y-77317646D01*
X123985357Y-77317646D02*
X123984697Y-77627881D01*
X123984697Y-77627881D02*
X123984069Y-77959874D01*
X123984069Y-77959874D02*
X123983471Y-78314376D01*
X123983471Y-78314376D02*
X123982902Y-78692136D01*
X123982902Y-78692136D02*
X123982360Y-79093902D01*
X123982360Y-79093902D02*
X123981843Y-79520426D01*
X123981843Y-79520426D02*
X123981351Y-79972456D01*
X123981351Y-79972456D02*
X123980881Y-80450741D01*
X123980881Y-80450741D02*
X123980433Y-80956033D01*
X123980433Y-80956033D02*
X123980004Y-81489079D01*
X123980004Y-81489079D02*
X123979594Y-82050630D01*
X123979594Y-82050630D02*
X123979201Y-82641435D01*
X123979201Y-82641435D02*
X123978823Y-83262244D01*
X123978823Y-83262244D02*
X123978460Y-83913806D01*
X123978460Y-83913806D02*
X123978108Y-84596872D01*
X123978108Y-84596872D02*
X123977768Y-85312189D01*
X123977768Y-85312189D02*
X123977437Y-86060509D01*
X123977437Y-86060509D02*
X123977115Y-86842581D01*
X123977115Y-86842581D02*
X123976799Y-87659154D01*
X123976799Y-87659154D02*
X123976488Y-88510977D01*
X123976488Y-88510977D02*
X123976181Y-89398801D01*
X123976181Y-89398801D02*
X123975877Y-90323375D01*
X123975877Y-90323375D02*
X123975573Y-91285448D01*
X123975573Y-91285448D02*
X123975268Y-92285771D01*
X123975268Y-92285771D02*
X123974961Y-93325092D01*
X123974961Y-93325092D02*
X123974651Y-94404161D01*
X123974651Y-94404161D02*
X123974336Y-95523729D01*
X123974336Y-95523729D02*
X123974014Y-96684543D01*
X123974014Y-96684543D02*
X123973867Y-97219080D01*
X123973867Y-97219080D02*
X123973512Y-98586583D01*
X123973512Y-98586583D02*
X123973208Y-99911885D01*
X123973208Y-99911885D02*
X123972956Y-101194981D01*
X123972956Y-101194981D02*
X123972756Y-102435868D01*
X123972756Y-102435868D02*
X123972608Y-103634541D01*
X123972608Y-103634541D02*
X123972511Y-104790996D01*
X123972511Y-104790996D02*
X123972466Y-105905229D01*
X123972466Y-105905229D02*
X122953249Y-105905229D01*
X122953249Y-105905229D02*
X122953122Y-105595923D01*
X122953122Y-105595923D02*
X122952828Y-104788446D01*
X122952828Y-104788446D02*
X122952565Y-103971550D01*
X122952565Y-103971550D02*
X122952334Y-103146298D01*
X122952334Y-103146298D02*
X122952134Y-102313751D01*
X122952134Y-102313751D02*
X122951965Y-101474971D01*
X122951965Y-101474971D02*
X122951828Y-100631020D01*
X122951828Y-100631020D02*
X122951722Y-99782960D01*
X122951722Y-99782960D02*
X122951648Y-98931852D01*
X122951648Y-98931852D02*
X122951605Y-98078758D01*
X122951605Y-98078758D02*
X122951593Y-97224740D01*
X122951593Y-97224740D02*
X122951613Y-96370860D01*
X122951613Y-96370860D02*
X122951664Y-95518179D01*
X122951664Y-95518179D02*
X122951747Y-94667759D01*
X122951747Y-94667759D02*
X122951861Y-93820663D01*
X122951861Y-93820663D02*
X122952006Y-92977951D01*
X122952006Y-92977951D02*
X122952183Y-92140685D01*
X122952183Y-92140685D02*
X122952391Y-91309928D01*
X122952391Y-91309928D02*
X122952631Y-90486742D01*
X122952631Y-90486742D02*
X122952901Y-89672187D01*
X122952901Y-89672187D02*
X122953204Y-88867325D01*
X122953204Y-88867325D02*
X122953537Y-88073219D01*
X122953537Y-88073219D02*
X122953903Y-87290931D01*
X122953903Y-87290931D02*
X122954299Y-86521521D01*
X122954299Y-86521521D02*
X122954727Y-85766052D01*
X122954727Y-85766052D02*
X122955186Y-85025586D01*
X122955186Y-85025586D02*
X122955677Y-84301184D01*
X122955677Y-84301184D02*
X122956199Y-83593908D01*
X122956199Y-83593908D02*
X122956752Y-82904820D01*
X122956752Y-82904820D02*
X122957337Y-82234981D01*
X122957337Y-82234981D02*
X122957953Y-81585454D01*
X122957953Y-81585454D02*
X122958601Y-80957300D01*
X122958601Y-80957300D02*
X122959280Y-80351581D01*
X122959280Y-80351581D02*
X122959990Y-79769359D01*
X122959990Y-79769359D02*
X122960732Y-79211695D01*
X122960732Y-79211695D02*
X122961505Y-78679652D01*
X122961505Y-78679652D02*
X122962310Y-78174290D01*
X122962310Y-78174290D02*
X122963146Y-77696673D01*
X122963146Y-77696673D02*
X122964013Y-77247861D01*
X122964013Y-77247861D02*
X122964912Y-76828916D01*
X122964912Y-76828916D02*
X122965842Y-76440901D01*
X122965842Y-76440901D02*
X122966804Y-76084876D01*
X122966804Y-76084876D02*
X122967796Y-75761905D01*
X122967796Y-75761905D02*
X122968821Y-75473047D01*
X122968821Y-75473047D02*
X122969876Y-75219366D01*
X122969876Y-75219366D02*
X122970964Y-75001923D01*
X122970964Y-75001923D02*
X122972082Y-74821780D01*
X122972082Y-74821780D02*
X122973232Y-74679999D01*
X122973232Y-74679999D02*
X122974413Y-74577640D01*
X122974413Y-74577640D02*
X122975626Y-74515767D01*
X122975626Y-74515767D02*
X122976544Y-74496663D01*
X122976544Y-74496663D02*
X123036316Y-74179722D01*
X123036316Y-74179722D02*
X123135592Y-73876706D01*
X123135592Y-73876706D02*
X123273060Y-73590300D01*
X123273060Y-73590300D02*
X123447411Y-73323188D01*
X123447411Y-73323188D02*
X123657334Y-73078053D01*
X123657334Y-73078053D02*
X123680542Y-73054542D01*
X123680542Y-73054542D02*
X123923300Y-72841087D01*
X123923300Y-72841087D02*
X124188308Y-72663071D01*
X124188308Y-72663071D02*
X124472881Y-72521806D01*
X124472881Y-72521806D02*
X124774335Y-72418600D01*
X124774335Y-72418600D02*
X125089987Y-72354765D01*
X125089987Y-72354765D02*
X125122663Y-72350544D01*
X125122663Y-72350544D02*
X125153866Y-72349308D01*
X125153866Y-72349308D02*
X125226341Y-72348104D01*
X125226341Y-72348104D02*
X125339025Y-72346931D01*
X125339025Y-72346931D02*
X125490857Y-72345789D01*
X125490857Y-72345789D02*
X125680776Y-72344679D01*
X125680776Y-72344679D02*
X125907719Y-72343600D01*
X125907719Y-72343600D02*
X126170625Y-72342552D01*
X126170625Y-72342552D02*
X126468431Y-72341536D01*
X126468431Y-72341536D02*
X126800077Y-72340551D01*
X126800077Y-72340551D02*
X127164500Y-72339598D01*
X127164500Y-72339598D02*
X127560639Y-72338676D01*
X127560639Y-72338676D02*
X127987431Y-72337785D01*
X127987431Y-72337785D02*
X128443816Y-72336926D01*
X128443816Y-72336926D02*
X128928730Y-72336098D01*
X128928730Y-72336098D02*
X129441113Y-72335302D01*
X129441113Y-72335302D02*
X129979903Y-72334537D01*
X129979903Y-72334537D02*
X130544038Y-72333803D01*
X130544038Y-72333803D02*
X131132456Y-72333101D01*
X131132456Y-72333101D02*
X131744095Y-72332430D01*
X131744095Y-72332430D02*
X132377894Y-72331790D01*
X132377894Y-72331790D02*
X133032791Y-72331182D01*
X133032791Y-72331182D02*
X133707724Y-72330606D01*
X133707724Y-72330606D02*
X134401631Y-72330060D01*
X134401631Y-72330060D02*
X135113450Y-72329546D01*
X135113450Y-72329546D02*
X135842120Y-72329064D01*
X135842120Y-72329064D02*
X136586579Y-72328613D01*
X136586579Y-72328613D02*
X137345766Y-72328193D01*
X137345766Y-72328193D02*
X138118618Y-72327805D01*
X138118618Y-72327805D02*
X138904073Y-72327448D01*
X138904073Y-72327448D02*
X139701070Y-72327122D01*
X139701070Y-72327122D02*
X140508547Y-72326828D01*
X140508547Y-72326828D02*
X141325443Y-72326565D01*
X141325443Y-72326565D02*
X142150695Y-72326334D01*
X142150695Y-72326334D02*
X142983242Y-72326134D01*
X142983242Y-72326134D02*
X143822022Y-72325965D01*
X143822022Y-72325965D02*
X144665973Y-72325828D01*
X144665973Y-72325828D02*
X145514033Y-72325722D01*
X145514033Y-72325722D02*
X146365141Y-72325648D01*
X146365141Y-72325648D02*
X147218235Y-72325605D01*
X147218235Y-72325605D02*
X148072253Y-72325593D01*
X148072253Y-72325593D02*
X148926133Y-72325613D01*
X148926133Y-72325613D02*
X148926133Y-72325613D01*
G36*
X122952828Y-104788446D02*
G01*
X122952565Y-103971550D01*
X122952334Y-103146298D01*
X122952134Y-102313751D01*
X122951965Y-101474971D01*
X122951828Y-100631020D01*
X122951722Y-99782960D01*
X122951648Y-98931852D01*
X122951605Y-98078758D01*
X122951593Y-97224740D01*
X122951613Y-96370860D01*
X122951664Y-95518179D01*
X122951747Y-94667759D01*
X122951861Y-93820663D01*
X122952006Y-92977951D01*
X122952183Y-92140685D01*
X122952391Y-91309928D01*
X122952631Y-90486742D01*
X122952901Y-89672187D01*
X122953204Y-88867325D01*
X122953537Y-88073219D01*
X122953903Y-87290931D01*
X122954299Y-86521521D01*
X122954727Y-85766052D01*
X122955186Y-85025586D01*
X122955677Y-84301184D01*
X122956199Y-83593908D01*
X122956752Y-82904820D01*
X122957337Y-82234981D01*
X122957953Y-81585454D01*
X122958601Y-80957300D01*
X122959280Y-80351581D01*
X122959990Y-79769359D01*
X122960732Y-79211695D01*
X122961505Y-78679652D01*
X122962310Y-78174290D01*
X122963146Y-77696673D01*
X122964013Y-77247861D01*
X122964912Y-76828916D01*
X122965842Y-76440901D01*
X122966804Y-76084876D01*
X122967796Y-75761905D01*
X122968821Y-75473047D01*
X122969876Y-75219366D01*
X122970964Y-75001923D01*
X122972082Y-74821780D01*
X122973232Y-74679999D01*
X122974413Y-74577640D01*
X122975626Y-74515767D01*
X122976544Y-74496663D01*
X123036316Y-74179722D01*
X123135592Y-73876706D01*
X123273060Y-73590300D01*
X123447411Y-73323188D01*
X123657334Y-73078053D01*
X123680542Y-73054542D01*
X123923300Y-72841087D01*
X124188308Y-72663071D01*
X124472881Y-72521806D01*
X124774335Y-72418600D01*
X125089987Y-72354765D01*
X125122663Y-72350544D01*
X125153866Y-72349308D01*
X125226341Y-72348104D01*
X125339025Y-72346931D01*
X125490857Y-72345789D01*
X125680776Y-72344679D01*
X125907719Y-72343600D01*
X126170625Y-72342552D01*
X126468431Y-72341536D01*
X126800077Y-72340551D01*
X127164500Y-72339598D01*
X127560639Y-72338676D01*
X127987431Y-72337785D01*
X128443816Y-72336926D01*
X128928730Y-72336098D01*
X129441113Y-72335302D01*
X129979903Y-72334537D01*
X130544038Y-72333803D01*
X131132456Y-72333101D01*
X131744095Y-72332430D01*
X132377894Y-72331790D01*
X133032791Y-72331182D01*
X133707724Y-72330606D01*
X134401631Y-72330060D01*
X135113450Y-72329546D01*
X135842120Y-72329064D01*
X136586579Y-72328613D01*
X137345766Y-72328193D01*
X138118618Y-72327805D01*
X138904073Y-72327448D01*
X139701070Y-72327122D01*
X140508547Y-72326828D01*
X141325443Y-72326565D01*
X142150695Y-72326334D01*
X142983242Y-72326134D01*
X143822022Y-72325965D01*
X144665973Y-72325828D01*
X145514033Y-72325722D01*
X146365141Y-72325648D01*
X147218235Y-72325605D01*
X148072253Y-72325593D01*
X148926133Y-72325613D01*
X149778814Y-72325664D01*
X150629234Y-72325747D01*
X151476330Y-72325861D01*
X152319042Y-72326006D01*
X153156308Y-72326183D01*
X153987065Y-72326391D01*
X154810251Y-72326631D01*
X155624806Y-72326901D01*
X156429668Y-72327204D01*
X157223774Y-72327537D01*
X158006062Y-72327903D01*
X158775472Y-72328299D01*
X159530941Y-72328727D01*
X160271407Y-72329186D01*
X160995809Y-72329677D01*
X161703085Y-72330199D01*
X162392173Y-72330752D01*
X163062012Y-72331337D01*
X163711539Y-72331953D01*
X164339693Y-72332601D01*
X164945412Y-72333280D01*
X165527634Y-72333990D01*
X166085298Y-72334732D01*
X166617341Y-72335505D01*
X167122703Y-72336310D01*
X167600320Y-72337146D01*
X168049132Y-72338013D01*
X168468077Y-72338912D01*
X168856092Y-72339842D01*
X169212117Y-72340804D01*
X169535088Y-72341796D01*
X169823946Y-72342821D01*
X170077627Y-72343876D01*
X170295070Y-72344964D01*
X170475213Y-72346082D01*
X170616994Y-72347232D01*
X170719353Y-72348413D01*
X170781226Y-72349626D01*
X170800330Y-72350544D01*
X171117387Y-72410258D01*
X171419893Y-72509437D01*
X171705925Y-72647144D01*
X171973564Y-72822438D01*
X172220890Y-73034382D01*
X172242451Y-73055584D01*
X172455115Y-73296440D01*
X172632766Y-73560167D01*
X172774009Y-73843910D01*
X172877447Y-74144811D01*
X172941685Y-74460014D01*
X172946449Y-74496663D01*
X172947685Y-74527866D01*
X172948889Y-74600341D01*
X172950062Y-74713025D01*
X172951204Y-74864857D01*
X172952314Y-75054776D01*
X172953393Y-75281719D01*
X172954441Y-75544625D01*
X172955457Y-75842431D01*
X172956442Y-76174077D01*
X172957395Y-76538500D01*
X172958317Y-76934639D01*
X172959208Y-77361431D01*
X172960067Y-77817816D01*
X172960895Y-78302730D01*
X172961691Y-78815113D01*
X172962456Y-79353903D01*
X172963190Y-79918038D01*
X172963892Y-80506456D01*
X172964563Y-81118095D01*
X172965203Y-81751894D01*
X172965811Y-82406791D01*
X172966387Y-83081724D01*
X172966933Y-83775631D01*
X172967447Y-84487450D01*
X172967929Y-85216120D01*
X172968380Y-85960579D01*
X172968800Y-86719766D01*
X172969188Y-87492618D01*
X172969545Y-88278073D01*
X172969871Y-89075070D01*
X172970165Y-89882547D01*
X172970428Y-90699443D01*
X172970659Y-91524695D01*
X172970859Y-92357242D01*
X172971028Y-93196022D01*
X172971165Y-94039973D01*
X172971271Y-94888033D01*
X172971345Y-95739141D01*
X172971388Y-96592235D01*
X172971400Y-97446253D01*
X172971380Y-98300133D01*
X172971329Y-99152814D01*
X172971246Y-100003234D01*
X172971132Y-100850330D01*
X172970987Y-101693042D01*
X172970810Y-102530308D01*
X172970602Y-103361065D01*
X172970362Y-104184251D01*
X172970092Y-104998806D01*
X172969789Y-105803668D01*
X172969456Y-106597774D01*
X172969090Y-107380062D01*
X172968694Y-108149472D01*
X172968266Y-108904941D01*
X172967807Y-109645407D01*
X172967316Y-110369809D01*
X172966794Y-111077085D01*
X172966241Y-111766173D01*
X172965656Y-112436012D01*
X172965040Y-113085539D01*
X172964392Y-113713693D01*
X172963713Y-114319412D01*
X172963003Y-114901634D01*
X172962261Y-115459298D01*
X172961488Y-115991341D01*
X172960683Y-116496703D01*
X172959847Y-116974320D01*
X172958980Y-117423132D01*
X172958081Y-117842077D01*
X172957151Y-118230092D01*
X172956189Y-118586117D01*
X172955197Y-118909088D01*
X172954172Y-119197946D01*
X172953117Y-119451627D01*
X172952029Y-119669070D01*
X172950911Y-119849213D01*
X172949761Y-119990994D01*
X172948580Y-120093353D01*
X172947367Y-120155226D01*
X172946449Y-120174330D01*
X172886796Y-120490551D01*
X172787631Y-120792581D01*
X172650057Y-121078170D01*
X172475175Y-121345068D01*
X172264088Y-121591026D01*
X172240707Y-121614707D01*
X171996998Y-121829403D01*
X171732120Y-122008006D01*
X171448323Y-122149414D01*
X171147858Y-122252523D01*
X170832973Y-122316232D01*
X170800330Y-122320449D01*
X170770503Y-122321518D01*
X170699408Y-122322560D01*
X170588103Y-122323574D01*
X170437650Y-122324561D01*
X170249108Y-122325521D01*
X170023537Y-122326453D01*
X169761997Y-122327358D01*
X169465549Y-122328235D01*
X169135252Y-122329085D01*
X168772167Y-122329907D01*
X168377354Y-122330702D01*
X167951872Y-122331469D01*
X167496782Y-122332210D01*
X167013145Y-122332922D01*
X166502019Y-122333608D01*
X165964466Y-122334266D01*
X165401544Y-122334897D01*
X164814315Y-122335500D01*
X164203839Y-122336076D01*
X163571175Y-122336625D01*
X162917383Y-122337146D01*
X162243525Y-122337640D01*
X161550659Y-122338107D01*
X160839845Y-122338547D01*
X160112145Y-122338959D01*
X159368618Y-122339344D01*
X158610324Y-122339702D01*
X157838323Y-122340032D01*
X157053675Y-122340336D01*
X156257441Y-122340612D01*
X155450680Y-122340860D01*
X154634453Y-122341082D01*
X153809819Y-122341276D01*
X152977839Y-122341444D01*
X152139573Y-122341584D01*
X151296081Y-122341697D01*
X150448423Y-122341782D01*
X149597659Y-122341841D01*
X148744849Y-122341872D01*
X147891053Y-122341876D01*
X147037331Y-122341854D01*
X146184744Y-122341804D01*
X145334352Y-122341727D01*
X144487214Y-122341622D01*
X143644391Y-122341491D01*
X142806942Y-122341333D01*
X141975929Y-122341147D01*
X141152410Y-122340935D01*
X140337446Y-122340695D01*
X139532098Y-122340429D01*
X138737425Y-122340135D01*
X137954487Y-122339815D01*
X137184344Y-122339467D01*
X136428057Y-122339092D01*
X135686685Y-122338691D01*
X134961289Y-122338262D01*
X134252929Y-122337806D01*
X133562665Y-122337324D01*
X132891556Y-122336814D01*
X132240664Y-122336278D01*
X131611047Y-122335714D01*
X131003767Y-122335124D01*
X130419883Y-122334507D01*
X129860456Y-122333863D01*
X129326544Y-122333191D01*
X128819210Y-122332493D01*
X128339512Y-122331769D01*
X127888510Y-122331017D01*
X127467266Y-122330238D01*
X127076838Y-122329433D01*
X126718287Y-122328600D01*
X126392674Y-122327741D01*
X126101057Y-122326855D01*
X125844498Y-122325942D01*
X125624056Y-122325003D01*
X125440791Y-122324036D01*
X125295764Y-122323043D01*
X125190034Y-122322023D01*
X125124662Y-122320976D01*
X125101497Y-122320051D01*
X124804304Y-122262147D01*
X124512916Y-122164892D01*
X124233346Y-122031267D01*
X123971609Y-121864255D01*
X123733719Y-121666836D01*
X123681831Y-121616258D01*
X123466888Y-121371094D01*
X123288201Y-121105150D01*
X123146847Y-120820629D01*
X123043904Y-120519734D01*
X122980449Y-120204666D01*
X122976544Y-120174330D01*
X122975308Y-120143127D01*
X122974104Y-120070652D01*
X122972931Y-119957968D01*
X122971789Y-119806136D01*
X122970679Y-119616217D01*
X122969600Y-119389274D01*
X122968552Y-119126368D01*
X122967536Y-118828562D01*
X122966551Y-118496916D01*
X122965598Y-118132493D01*
X122964676Y-117736354D01*
X122963785Y-117309562D01*
X122962926Y-116853177D01*
X122962098Y-116368263D01*
X122961302Y-115855880D01*
X122960537Y-115317090D01*
X122959803Y-114752955D01*
X122959101Y-114164537D01*
X122958430Y-113552898D01*
X122957790Y-112919099D01*
X122957182Y-112264202D01*
X122956606Y-111589269D01*
X122956060Y-110895362D01*
X122955546Y-110183543D01*
X122955064Y-109454873D01*
X122954613Y-108710414D01*
X122954193Y-107951227D01*
X122953805Y-107178375D01*
X122953448Y-106392920D01*
X122953249Y-105905229D01*
X123972466Y-105905229D01*
X123972473Y-106977236D01*
X123972531Y-108007012D01*
X123972642Y-108994553D01*
X123972803Y-109939856D01*
X123973017Y-110842916D01*
X123973282Y-111703728D01*
X123973598Y-112522290D01*
X123973967Y-113298595D01*
X123974387Y-114032641D01*
X123974858Y-114724423D01*
X123975382Y-115373937D01*
X123975957Y-115981179D01*
X123976583Y-116546144D01*
X123977262Y-117068829D01*
X123977992Y-117549229D01*
X123978773Y-117987340D01*
X123979606Y-118383157D01*
X123980491Y-118736678D01*
X123981428Y-119047897D01*
X123982416Y-119316810D01*
X123983456Y-119543414D01*
X123984547Y-119727704D01*
X123985690Y-119869675D01*
X123986884Y-119969324D01*
X123988131Y-120026646D01*
X123988927Y-120040911D01*
X124040511Y-120281773D01*
X124128272Y-120505752D01*
X124248965Y-120709504D01*
X124399348Y-120889684D01*
X124576176Y-121042947D01*
X124776205Y-121165947D01*
X124996190Y-121255341D01*
X125215152Y-121305282D01*
X125241344Y-121306037D01*
X125308998Y-121306778D01*
X125417243Y-121307506D01*
X125565207Y-121308219D01*
X125752019Y-121308917D01*
X125976807Y-121309600D01*
X126238701Y-121310266D01*
X126536828Y-121310916D01*
X126870317Y-121311548D01*
X127238298Y-121312163D01*
X127639898Y-121312759D01*
X128074246Y-121313336D01*
X128540470Y-121313894D01*
X129037701Y-121314431D01*
X129565065Y-121314948D01*
X130121692Y-121315444D01*
X130706710Y-121315919D01*
X131319248Y-121316371D01*
X131958435Y-121316800D01*
X132623398Y-121317205D01*
X133313268Y-121317587D01*
X134027172Y-121317944D01*
X134764239Y-121318277D01*
X135523597Y-121318583D01*
X136304376Y-121318864D01*
X137105703Y-121319117D01*
X137926709Y-121319344D01*
X138766520Y-121319542D01*
X139624266Y-121319712D01*
X140499075Y-121319853D01*
X141390076Y-121319965D01*
X142296398Y-121320047D01*
X143217169Y-121320098D01*
X144151518Y-121320117D01*
X145098573Y-121320105D01*
X146057464Y-121320061D01*
X147027318Y-121319984D01*
X148007265Y-121319873D01*
X148035580Y-121319870D01*
X149216256Y-121319714D01*
X150355347Y-121319560D01*
X151453603Y-121319405D01*
X152511772Y-121319249D01*
X153530604Y-121319090D01*
X154510847Y-121318927D01*
X155453249Y-121318759D01*
X156358561Y-121318583D01*
X157227530Y-121318400D01*
X158060906Y-121318206D01*
X158859437Y-121318002D01*
X159623873Y-121317785D01*
X160354962Y-121317555D01*
X161053454Y-121317310D01*
X161720096Y-121317048D01*
X162355639Y-121316769D01*
X162960830Y-121316470D01*
X163536419Y-121316151D01*
X164083155Y-121315811D01*
X164601787Y-121315447D01*
X165093062Y-121315059D01*
X165557731Y-121314645D01*
X165996543Y-121314203D01*
X166410245Y-121313733D01*
X166799588Y-121313234D01*
X167165319Y-121312703D01*
X167508188Y-121312139D01*
X167828943Y-121311542D01*
X168128335Y-121310909D01*
X168407110Y-121310239D01*
X168666019Y-121309531D01*
X168905810Y-121308785D01*
X169127232Y-121307997D01*
X169331035Y-121307167D01*
X169517966Y-121306294D01*
X169688775Y-121305376D01*
X169844210Y-121304412D01*
X169985021Y-121303400D01*
X170111956Y-121302340D01*
X170225765Y-121301229D01*
X170327196Y-121300067D01*
X170416998Y-121298852D01*
X170495920Y-121297582D01*
X170564710Y-121296257D01*
X170624119Y-121294875D01*
X170674894Y-121293435D01*
X170717785Y-121291935D01*
X170753540Y-121290374D01*
X170782908Y-121288751D01*
X170806639Y-121287064D01*
X170825480Y-121285312D01*
X170840182Y-121283493D01*
X170851492Y-121281607D01*
X170860161Y-121279651D01*
X170863830Y-121278619D01*
X171104846Y-121185147D01*
X171321185Y-121058625D01*
X171510473Y-120901452D01*
X171670337Y-120716023D01*
X171798403Y-120504736D01*
X171892296Y-120269990D01*
X171904878Y-120227247D01*
X171906875Y-120219142D01*
X171908802Y-120208879D01*
X171910661Y-120195708D01*
X171912451Y-120178881D01*
X171914175Y-120157649D01*
X171915833Y-120131265D01*
X171917428Y-120098978D01*
X171918959Y-120060041D01*
X171920430Y-120013706D01*
X171921840Y-119959223D01*
X171923191Y-119895845D01*
X171924484Y-119822822D01*
X171925721Y-119739406D01*
X171926903Y-119644849D01*
X171928030Y-119538402D01*
X171929105Y-119419317D01*
X171930129Y-119286845D01*
X171931102Y-119140237D01*
X171932027Y-118978745D01*
X171932903Y-118801621D01*
X171933734Y-118608116D01*
X171934519Y-118397481D01*
X171935260Y-118168968D01*
X171935959Y-117921829D01*
X171936616Y-117655314D01*
X171937233Y-117368676D01*
X171937812Y-117061165D01*
X171938352Y-116732034D01*
X171938857Y-116380534D01*
X171939326Y-116005916D01*
X171939761Y-115607432D01*
X171940164Y-115184332D01*
X171940536Y-114735870D01*
X171940877Y-114261296D01*
X171941190Y-113759861D01*
X171941475Y-113230817D01*
X171941734Y-112673416D01*
X171941967Y-112086910D01*
X171942177Y-111470548D01*
X171942365Y-110823584D01*
X171942531Y-110145268D01*
X171942677Y-109434852D01*
X171942805Y-108691588D01*
X171942915Y-107914726D01*
X171943009Y-107103519D01*
X171943087Y-106257217D01*
X171943152Y-105375074D01*
X171943205Y-104456338D01*
X171943246Y-103500264D01*
X171943278Y-102506100D01*
X171943300Y-101473101D01*
X171943316Y-100400516D01*
X171943325Y-99287597D01*
X171943329Y-98133595D01*
X171943330Y-97335497D01*
X171943328Y-96153497D01*
X171943323Y-95013082D01*
X171943312Y-93913504D01*
X171943294Y-92854013D01*
X171943268Y-91833861D01*
X171943234Y-90852300D01*
X171943189Y-89908582D01*
X171943132Y-89001957D01*
X171943063Y-88131677D01*
X171942979Y-87296994D01*
X171942881Y-86497159D01*
X171942765Y-85731423D01*
X171942631Y-84999039D01*
X171942479Y-84299257D01*
X171942306Y-83631329D01*
X171942111Y-82994506D01*
X171941893Y-82388040D01*
X171941651Y-81811183D01*
X171941384Y-81263186D01*
X171941090Y-80743300D01*
X171940768Y-80250777D01*
X171940417Y-79784868D01*
X171940035Y-79344825D01*
X171939622Y-78929900D01*
X171939175Y-78539343D01*
X171938695Y-78172406D01*
X171938179Y-77828341D01*
X171937626Y-77506400D01*
X171937035Y-77205832D01*
X171936405Y-76925891D01*
X171935734Y-76665828D01*
X171935021Y-76424894D01*
X171934266Y-76202340D01*
X171933466Y-75997418D01*
X171932620Y-75809380D01*
X171931728Y-75637477D01*
X171930788Y-75480960D01*
X171929798Y-75339082D01*
X171928758Y-75211092D01*
X171927665Y-75096244D01*
X171926520Y-74993788D01*
X171925320Y-74902975D01*
X171924065Y-74823058D01*
X171922753Y-74753288D01*
X171921383Y-74692916D01*
X171919953Y-74641194D01*
X171918463Y-74597373D01*
X171916911Y-74560705D01*
X171915295Y-74530441D01*
X171913615Y-74505833D01*
X171911870Y-74486131D01*
X171910057Y-74470589D01*
X171908177Y-74458456D01*
X171906227Y-74448985D01*
X171904878Y-74443747D01*
X171817202Y-74205650D01*
X171694940Y-73990209D01*
X171540895Y-73800229D01*
X171357871Y-73638511D01*
X171148671Y-73507859D01*
X170916098Y-73411078D01*
X170853247Y-73392115D01*
X170845142Y-73390118D01*
X170834879Y-73388191D01*
X170821708Y-73386332D01*
X170804881Y-73384542D01*
X170783649Y-73382818D01*
X170757265Y-73381160D01*
X170724978Y-73379565D01*
X170686041Y-73378034D01*
X170639706Y-73376563D01*
X170585223Y-73375153D01*
X170521845Y-73373802D01*
X170448822Y-73372509D01*
X170365406Y-73371272D01*
X170270849Y-73370090D01*
X170164402Y-73368963D01*
X170045317Y-73367888D01*
X169912845Y-73366864D01*
X169766237Y-73365891D01*
X169604745Y-73364966D01*
X169427621Y-73364090D01*
X169234116Y-73363259D01*
X169023481Y-73362474D01*
X168794968Y-73361733D01*
X168547829Y-73361034D01*
X168281314Y-73360377D01*
X167994676Y-73359760D01*
X167687165Y-73359181D01*
X167358034Y-73358641D01*
X167006534Y-73358136D01*
X166631916Y-73357667D01*
X166233432Y-73357232D01*
X165810332Y-73356829D01*
X165361870Y-73356457D01*
X164887296Y-73356116D01*
X164385861Y-73355803D01*
X163856817Y-73355518D01*
X163299416Y-73355259D01*
X162712910Y-73355026D01*
X162096548Y-73354816D01*
X161449584Y-73354628D01*
X160771268Y-73354462D01*
X160060852Y-73354316D01*
X159317588Y-73354188D01*
X158540726Y-73354078D01*
X157729519Y-73353984D01*
X156883217Y-73353906D01*
X156001074Y-73353841D01*
X155082338Y-73353788D01*
X154126264Y-73353747D01*
X153132100Y-73353715D01*
X152099101Y-73353693D01*
X151026516Y-73353677D01*
X149913597Y-73353668D01*
X148759595Y-73353664D01*
X147961497Y-73353663D01*
X146779645Y-73353665D01*
X145639379Y-73353670D01*
X144539948Y-73353681D01*
X143480605Y-73353697D01*
X142460599Y-73353722D01*
X141479183Y-73353756D01*
X140535608Y-73353799D01*
X139629125Y-73353854D01*
X138758984Y-73353922D01*
X137924438Y-73354004D01*
X137124738Y-73354101D01*
X136359134Y-73354215D01*
X135626879Y-73354347D01*
X134927223Y-73354497D01*
X134259417Y-73354668D01*
X133622713Y-73354861D01*
X133016361Y-73355076D01*
X132439614Y-73355316D01*
X131891723Y-73355581D01*
X131371938Y-73355873D01*
X130879510Y-73356192D01*
X130413692Y-73356541D01*
X129973734Y-73356921D01*
X129558887Y-73357332D01*
X129168404Y-73357776D01*
X128801534Y-73358254D01*
X128457529Y-73358768D01*
X128135641Y-73359319D01*
X127835120Y-73359908D01*
X127555218Y-73360536D01*
X127295186Y-73361205D01*
X127054275Y-73361916D01*
X126831737Y-73362670D01*
X126626823Y-73363468D01*
X126438784Y-73364312D01*
X126266870Y-73365203D01*
X126110334Y-73366143D01*
X125968427Y-73367131D01*
X125840400Y-73368171D01*
X125725504Y-73369263D01*
X125622989Y-73370407D01*
X125532109Y-73371607D01*
X125452113Y-73372862D01*
X125382253Y-73374175D01*
X125321781Y-73375545D01*
X125269947Y-73376976D01*
X125226002Y-73378467D01*
X125189198Y-73380021D01*
X125158787Y-73381638D01*
X125134018Y-73383319D01*
X125114144Y-73385067D01*
X125098416Y-73386882D01*
X125086085Y-73388765D01*
X125076403Y-73390719D01*
X125069747Y-73392420D01*
X124828391Y-73481212D01*
X124611823Y-73603753D01*
X124421891Y-73758213D01*
X124260447Y-73942761D01*
X124129339Y-74155565D01*
X124030418Y-74394793D01*
X124018374Y-74433163D01*
X124016380Y-74440777D01*
X124014456Y-74450661D01*
X124012601Y-74463564D01*
X124010812Y-74480236D01*
X124009088Y-74501426D01*
X124007427Y-74527884D01*
X124005830Y-74560360D01*
X124004292Y-74599602D01*
X124002815Y-74646361D01*
X124001395Y-74701387D01*
X124000032Y-74765428D01*
X123998723Y-74839234D01*
X123997468Y-74923555D01*
X123996265Y-75019141D01*
X123995113Y-75126741D01*
X123994010Y-75247105D01*
X123992954Y-75380981D01*
X123991945Y-75529121D01*
X123990980Y-75692273D01*
X123990059Y-75871187D01*
X123989179Y-76066612D01*
X123988340Y-76279298D01*
X123987540Y-76509995D01*
X123986777Y-76759452D01*
X123986050Y-77028419D01*
X123985357Y-77317646D01*
X123984697Y-77627881D01*
X123984069Y-77959874D01*
X123983471Y-78314376D01*
X123982902Y-78692136D01*
X123982360Y-79093902D01*
X123981843Y-79520426D01*
X123981351Y-79972456D01*
X123980881Y-80450741D01*
X123980433Y-80956033D01*
X123980004Y-81489079D01*
X123979594Y-82050630D01*
X123979201Y-82641435D01*
X123978823Y-83262244D01*
X123978460Y-83913806D01*
X123978108Y-84596872D01*
X123977768Y-85312189D01*
X123977437Y-86060509D01*
X123977115Y-86842581D01*
X123976799Y-87659154D01*
X123976488Y-88510977D01*
X123976181Y-89398801D01*
X123975877Y-90323375D01*
X123975573Y-91285448D01*
X123975268Y-92285771D01*
X123974961Y-93325092D01*
X123974651Y-94404161D01*
X123974336Y-95523729D01*
X123974014Y-96684543D01*
X123973867Y-97219080D01*
X123973512Y-98586583D01*
X123973208Y-99911885D01*
X123972956Y-101194981D01*
X123972756Y-102435868D01*
X123972608Y-103634541D01*
X123972511Y-104790996D01*
X123972466Y-105905229D01*
X122953249Y-105905229D01*
X122953122Y-105595923D01*
X122952828Y-104788446D01*
G37*
X122952828Y-104788446D02*
X122952565Y-103971550D01*
X122952334Y-103146298D01*
X122952134Y-102313751D01*
X122951965Y-101474971D01*
X122951828Y-100631020D01*
X122951722Y-99782960D01*
X122951648Y-98931852D01*
X122951605Y-98078758D01*
X122951593Y-97224740D01*
X122951613Y-96370860D01*
X122951664Y-95518179D01*
X122951747Y-94667759D01*
X122951861Y-93820663D01*
X122952006Y-92977951D01*
X122952183Y-92140685D01*
X122952391Y-91309928D01*
X122952631Y-90486742D01*
X122952901Y-89672187D01*
X122953204Y-88867325D01*
X122953537Y-88073219D01*
X122953903Y-87290931D01*
X122954299Y-86521521D01*
X122954727Y-85766052D01*
X122955186Y-85025586D01*
X122955677Y-84301184D01*
X122956199Y-83593908D01*
X122956752Y-82904820D01*
X122957337Y-82234981D01*
X122957953Y-81585454D01*
X122958601Y-80957300D01*
X122959280Y-80351581D01*
X122959990Y-79769359D01*
X122960732Y-79211695D01*
X122961505Y-78679652D01*
X122962310Y-78174290D01*
X122963146Y-77696673D01*
X122964013Y-77247861D01*
X122964912Y-76828916D01*
X122965842Y-76440901D01*
X122966804Y-76084876D01*
X122967796Y-75761905D01*
X122968821Y-75473047D01*
X122969876Y-75219366D01*
X122970964Y-75001923D01*
X122972082Y-74821780D01*
X122973232Y-74679999D01*
X122974413Y-74577640D01*
X122975626Y-74515767D01*
X122976544Y-74496663D01*
X123036316Y-74179722D01*
X123135592Y-73876706D01*
X123273060Y-73590300D01*
X123447411Y-73323188D01*
X123657334Y-73078053D01*
X123680542Y-73054542D01*
X123923300Y-72841087D01*
X124188308Y-72663071D01*
X124472881Y-72521806D01*
X124774335Y-72418600D01*
X125089987Y-72354765D01*
X125122663Y-72350544D01*
X125153866Y-72349308D01*
X125226341Y-72348104D01*
X125339025Y-72346931D01*
X125490857Y-72345789D01*
X125680776Y-72344679D01*
X125907719Y-72343600D01*
X126170625Y-72342552D01*
X126468431Y-72341536D01*
X126800077Y-72340551D01*
X127164500Y-72339598D01*
X127560639Y-72338676D01*
X127987431Y-72337785D01*
X128443816Y-72336926D01*
X128928730Y-72336098D01*
X129441113Y-72335302D01*
X129979903Y-72334537D01*
X130544038Y-72333803D01*
X131132456Y-72333101D01*
X131744095Y-72332430D01*
X132377894Y-72331790D01*
X133032791Y-72331182D01*
X133707724Y-72330606D01*
X134401631Y-72330060D01*
X135113450Y-72329546D01*
X135842120Y-72329064D01*
X136586579Y-72328613D01*
X137345766Y-72328193D01*
X138118618Y-72327805D01*
X138904073Y-72327448D01*
X139701070Y-72327122D01*
X140508547Y-72326828D01*
X141325443Y-72326565D01*
X142150695Y-72326334D01*
X142983242Y-72326134D01*
X143822022Y-72325965D01*
X144665973Y-72325828D01*
X145514033Y-72325722D01*
X146365141Y-72325648D01*
X147218235Y-72325605D01*
X148072253Y-72325593D01*
X148926133Y-72325613D01*
X149778814Y-72325664D01*
X150629234Y-72325747D01*
X151476330Y-72325861D01*
X152319042Y-72326006D01*
X153156308Y-72326183D01*
X153987065Y-72326391D01*
X154810251Y-72326631D01*
X155624806Y-72326901D01*
X156429668Y-72327204D01*
X157223774Y-72327537D01*
X158006062Y-72327903D01*
X158775472Y-72328299D01*
X159530941Y-72328727D01*
X160271407Y-72329186D01*
X160995809Y-72329677D01*
X161703085Y-72330199D01*
X162392173Y-72330752D01*
X163062012Y-72331337D01*
X163711539Y-72331953D01*
X164339693Y-72332601D01*
X164945412Y-72333280D01*
X165527634Y-72333990D01*
X166085298Y-72334732D01*
X166617341Y-72335505D01*
X167122703Y-72336310D01*
X167600320Y-72337146D01*
X168049132Y-72338013D01*
X168468077Y-72338912D01*
X168856092Y-72339842D01*
X169212117Y-72340804D01*
X169535088Y-72341796D01*
X169823946Y-72342821D01*
X170077627Y-72343876D01*
X170295070Y-72344964D01*
X170475213Y-72346082D01*
X170616994Y-72347232D01*
X170719353Y-72348413D01*
X170781226Y-72349626D01*
X170800330Y-72350544D01*
X171117387Y-72410258D01*
X171419893Y-72509437D01*
X171705925Y-72647144D01*
X171973564Y-72822438D01*
X172220890Y-73034382D01*
X172242451Y-73055584D01*
X172455115Y-73296440D01*
X172632766Y-73560167D01*
X172774009Y-73843910D01*
X172877447Y-74144811D01*
X172941685Y-74460014D01*
X172946449Y-74496663D01*
X172947685Y-74527866D01*
X172948889Y-74600341D01*
X172950062Y-74713025D01*
X172951204Y-74864857D01*
X172952314Y-75054776D01*
X172953393Y-75281719D01*
X172954441Y-75544625D01*
X172955457Y-75842431D01*
X172956442Y-76174077D01*
X172957395Y-76538500D01*
X172958317Y-76934639D01*
X172959208Y-77361431D01*
X172960067Y-77817816D01*
X172960895Y-78302730D01*
X172961691Y-78815113D01*
X172962456Y-79353903D01*
X172963190Y-79918038D01*
X172963892Y-80506456D01*
X172964563Y-81118095D01*
X172965203Y-81751894D01*
X172965811Y-82406791D01*
X172966387Y-83081724D01*
X172966933Y-83775631D01*
X172967447Y-84487450D01*
X172967929Y-85216120D01*
X172968380Y-85960579D01*
X172968800Y-86719766D01*
X172969188Y-87492618D01*
X172969545Y-88278073D01*
X172969871Y-89075070D01*
X172970165Y-89882547D01*
X172970428Y-90699443D01*
X172970659Y-91524695D01*
X172970859Y-92357242D01*
X172971028Y-93196022D01*
X172971165Y-94039973D01*
X172971271Y-94888033D01*
X172971345Y-95739141D01*
X172971388Y-96592235D01*
X172971400Y-97446253D01*
X172971380Y-98300133D01*
X172971329Y-99152814D01*
X172971246Y-100003234D01*
X172971132Y-100850330D01*
X172970987Y-101693042D01*
X172970810Y-102530308D01*
X172970602Y-103361065D01*
X172970362Y-104184251D01*
X172970092Y-104998806D01*
X172969789Y-105803668D01*
X172969456Y-106597774D01*
X172969090Y-107380062D01*
X172968694Y-108149472D01*
X172968266Y-108904941D01*
X172967807Y-109645407D01*
X172967316Y-110369809D01*
X172966794Y-111077085D01*
X172966241Y-111766173D01*
X172965656Y-112436012D01*
X172965040Y-113085539D01*
X172964392Y-113713693D01*
X172963713Y-114319412D01*
X172963003Y-114901634D01*
X172962261Y-115459298D01*
X172961488Y-115991341D01*
X172960683Y-116496703D01*
X172959847Y-116974320D01*
X172958980Y-117423132D01*
X172958081Y-117842077D01*
X172957151Y-118230092D01*
X172956189Y-118586117D01*
X172955197Y-118909088D01*
X172954172Y-119197946D01*
X172953117Y-119451627D01*
X172952029Y-119669070D01*
X172950911Y-119849213D01*
X172949761Y-119990994D01*
X172948580Y-120093353D01*
X172947367Y-120155226D01*
X172946449Y-120174330D01*
X172886796Y-120490551D01*
X172787631Y-120792581D01*
X172650057Y-121078170D01*
X172475175Y-121345068D01*
X172264088Y-121591026D01*
X172240707Y-121614707D01*
X171996998Y-121829403D01*
X171732120Y-122008006D01*
X171448323Y-122149414D01*
X171147858Y-122252523D01*
X170832973Y-122316232D01*
X170800330Y-122320449D01*
X170770503Y-122321518D01*
X170699408Y-122322560D01*
X170588103Y-122323574D01*
X170437650Y-122324561D01*
X170249108Y-122325521D01*
X170023537Y-122326453D01*
X169761997Y-122327358D01*
X169465549Y-122328235D01*
X169135252Y-122329085D01*
X168772167Y-122329907D01*
X168377354Y-122330702D01*
X167951872Y-122331469D01*
X167496782Y-122332210D01*
X167013145Y-122332922D01*
X166502019Y-122333608D01*
X165964466Y-122334266D01*
X165401544Y-122334897D01*
X164814315Y-122335500D01*
X164203839Y-122336076D01*
X163571175Y-122336625D01*
X162917383Y-122337146D01*
X162243525Y-122337640D01*
X161550659Y-122338107D01*
X160839845Y-122338547D01*
X160112145Y-122338959D01*
X159368618Y-122339344D01*
X158610324Y-122339702D01*
X157838323Y-122340032D01*
X157053675Y-122340336D01*
X156257441Y-122340612D01*
X155450680Y-122340860D01*
X154634453Y-122341082D01*
X153809819Y-122341276D01*
X152977839Y-122341444D01*
X152139573Y-122341584D01*
X151296081Y-122341697D01*
X150448423Y-122341782D01*
X149597659Y-122341841D01*
X148744849Y-122341872D01*
X147891053Y-122341876D01*
X147037331Y-122341854D01*
X146184744Y-122341804D01*
X145334352Y-122341727D01*
X144487214Y-122341622D01*
X143644391Y-122341491D01*
X142806942Y-122341333D01*
X141975929Y-122341147D01*
X141152410Y-122340935D01*
X140337446Y-122340695D01*
X139532098Y-122340429D01*
X138737425Y-122340135D01*
X137954487Y-122339815D01*
X137184344Y-122339467D01*
X136428057Y-122339092D01*
X135686685Y-122338691D01*
X134961289Y-122338262D01*
X134252929Y-122337806D01*
X133562665Y-122337324D01*
X132891556Y-122336814D01*
X132240664Y-122336278D01*
X131611047Y-122335714D01*
X131003767Y-122335124D01*
X130419883Y-122334507D01*
X129860456Y-122333863D01*
X129326544Y-122333191D01*
X128819210Y-122332493D01*
X128339512Y-122331769D01*
X127888510Y-122331017D01*
X127467266Y-122330238D01*
X127076838Y-122329433D01*
X126718287Y-122328600D01*
X126392674Y-122327741D01*
X126101057Y-122326855D01*
X125844498Y-122325942D01*
X125624056Y-122325003D01*
X125440791Y-122324036D01*
X125295764Y-122323043D01*
X125190034Y-122322023D01*
X125124662Y-122320976D01*
X125101497Y-122320051D01*
X124804304Y-122262147D01*
X124512916Y-122164892D01*
X124233346Y-122031267D01*
X123971609Y-121864255D01*
X123733719Y-121666836D01*
X123681831Y-121616258D01*
X123466888Y-121371094D01*
X123288201Y-121105150D01*
X123146847Y-120820629D01*
X123043904Y-120519734D01*
X122980449Y-120204666D01*
X122976544Y-120174330D01*
X122975308Y-120143127D01*
X122974104Y-120070652D01*
X122972931Y-119957968D01*
X122971789Y-119806136D01*
X122970679Y-119616217D01*
X122969600Y-119389274D01*
X122968552Y-119126368D01*
X122967536Y-118828562D01*
X122966551Y-118496916D01*
X122965598Y-118132493D01*
X122964676Y-117736354D01*
X122963785Y-117309562D01*
X122962926Y-116853177D01*
X122962098Y-116368263D01*
X122961302Y-115855880D01*
X122960537Y-115317090D01*
X122959803Y-114752955D01*
X122959101Y-114164537D01*
X122958430Y-113552898D01*
X122957790Y-112919099D01*
X122957182Y-112264202D01*
X122956606Y-111589269D01*
X122956060Y-110895362D01*
X122955546Y-110183543D01*
X122955064Y-109454873D01*
X122954613Y-108710414D01*
X122954193Y-107951227D01*
X122953805Y-107178375D01*
X122953448Y-106392920D01*
X122953249Y-105905229D01*
X123972466Y-105905229D01*
X123972473Y-106977236D01*
X123972531Y-108007012D01*
X123972642Y-108994553D01*
X123972803Y-109939856D01*
X123973017Y-110842916D01*
X123973282Y-111703728D01*
X123973598Y-112522290D01*
X123973967Y-113298595D01*
X123974387Y-114032641D01*
X123974858Y-114724423D01*
X123975382Y-115373937D01*
X123975957Y-115981179D01*
X123976583Y-116546144D01*
X123977262Y-117068829D01*
X123977992Y-117549229D01*
X123978773Y-117987340D01*
X123979606Y-118383157D01*
X123980491Y-118736678D01*
X123981428Y-119047897D01*
X123982416Y-119316810D01*
X123983456Y-119543414D01*
X123984547Y-119727704D01*
X123985690Y-119869675D01*
X123986884Y-119969324D01*
X123988131Y-120026646D01*
X123988927Y-120040911D01*
X124040511Y-120281773D01*
X124128272Y-120505752D01*
X124248965Y-120709504D01*
X124399348Y-120889684D01*
X124576176Y-121042947D01*
X124776205Y-121165947D01*
X124996190Y-121255341D01*
X125215152Y-121305282D01*
X125241344Y-121306037D01*
X125308998Y-121306778D01*
X125417243Y-121307506D01*
X125565207Y-121308219D01*
X125752019Y-121308917D01*
X125976807Y-121309600D01*
X126238701Y-121310266D01*
X126536828Y-121310916D01*
X126870317Y-121311548D01*
X127238298Y-121312163D01*
X127639898Y-121312759D01*
X128074246Y-121313336D01*
X128540470Y-121313894D01*
X129037701Y-121314431D01*
X129565065Y-121314948D01*
X130121692Y-121315444D01*
X130706710Y-121315919D01*
X131319248Y-121316371D01*
X131958435Y-121316800D01*
X132623398Y-121317205D01*
X133313268Y-121317587D01*
X134027172Y-121317944D01*
X134764239Y-121318277D01*
X135523597Y-121318583D01*
X136304376Y-121318864D01*
X137105703Y-121319117D01*
X137926709Y-121319344D01*
X138766520Y-121319542D01*
X139624266Y-121319712D01*
X140499075Y-121319853D01*
X141390076Y-121319965D01*
X142296398Y-121320047D01*
X143217169Y-121320098D01*
X144151518Y-121320117D01*
X145098573Y-121320105D01*
X146057464Y-121320061D01*
X147027318Y-121319984D01*
X148007265Y-121319873D01*
X148035580Y-121319870D01*
X149216256Y-121319714D01*
X150355347Y-121319560D01*
X151453603Y-121319405D01*
X152511772Y-121319249D01*
X153530604Y-121319090D01*
X154510847Y-121318927D01*
X155453249Y-121318759D01*
X156358561Y-121318583D01*
X157227530Y-121318400D01*
X158060906Y-121318206D01*
X158859437Y-121318002D01*
X159623873Y-121317785D01*
X160354962Y-121317555D01*
X161053454Y-121317310D01*
X161720096Y-121317048D01*
X162355639Y-121316769D01*
X162960830Y-121316470D01*
X163536419Y-121316151D01*
X164083155Y-121315811D01*
X164601787Y-121315447D01*
X165093062Y-121315059D01*
X165557731Y-121314645D01*
X165996543Y-121314203D01*
X166410245Y-121313733D01*
X166799588Y-121313234D01*
X167165319Y-121312703D01*
X167508188Y-121312139D01*
X167828943Y-121311542D01*
X168128335Y-121310909D01*
X168407110Y-121310239D01*
X168666019Y-121309531D01*
X168905810Y-121308785D01*
X169127232Y-121307997D01*
X169331035Y-121307167D01*
X169517966Y-121306294D01*
X169688775Y-121305376D01*
X169844210Y-121304412D01*
X169985021Y-121303400D01*
X170111956Y-121302340D01*
X170225765Y-121301229D01*
X170327196Y-121300067D01*
X170416998Y-121298852D01*
X170495920Y-121297582D01*
X170564710Y-121296257D01*
X170624119Y-121294875D01*
X170674894Y-121293435D01*
X170717785Y-121291935D01*
X170753540Y-121290374D01*
X170782908Y-121288751D01*
X170806639Y-121287064D01*
X170825480Y-121285312D01*
X170840182Y-121283493D01*
X170851492Y-121281607D01*
X170860161Y-121279651D01*
X170863830Y-121278619D01*
X171104846Y-121185147D01*
X171321185Y-121058625D01*
X171510473Y-120901452D01*
X171670337Y-120716023D01*
X171798403Y-120504736D01*
X171892296Y-120269990D01*
X171904878Y-120227247D01*
X171906875Y-120219142D01*
X171908802Y-120208879D01*
X171910661Y-120195708D01*
X171912451Y-120178881D01*
X171914175Y-120157649D01*
X171915833Y-120131265D01*
X171917428Y-120098978D01*
X171918959Y-120060041D01*
X171920430Y-120013706D01*
X171921840Y-119959223D01*
X171923191Y-119895845D01*
X171924484Y-119822822D01*
X171925721Y-119739406D01*
X171926903Y-119644849D01*
X171928030Y-119538402D01*
X171929105Y-119419317D01*
X171930129Y-119286845D01*
X171931102Y-119140237D01*
X171932027Y-118978745D01*
X171932903Y-118801621D01*
X171933734Y-118608116D01*
X171934519Y-118397481D01*
X171935260Y-118168968D01*
X171935959Y-117921829D01*
X171936616Y-117655314D01*
X171937233Y-117368676D01*
X171937812Y-117061165D01*
X171938352Y-116732034D01*
X171938857Y-116380534D01*
X171939326Y-116005916D01*
X171939761Y-115607432D01*
X171940164Y-115184332D01*
X171940536Y-114735870D01*
X171940877Y-114261296D01*
X171941190Y-113759861D01*
X171941475Y-113230817D01*
X171941734Y-112673416D01*
X171941967Y-112086910D01*
X171942177Y-111470548D01*
X171942365Y-110823584D01*
X171942531Y-110145268D01*
X171942677Y-109434852D01*
X171942805Y-108691588D01*
X171942915Y-107914726D01*
X171943009Y-107103519D01*
X171943087Y-106257217D01*
X171943152Y-105375074D01*
X171943205Y-104456338D01*
X171943246Y-103500264D01*
X171943278Y-102506100D01*
X171943300Y-101473101D01*
X171943316Y-100400516D01*
X171943325Y-99287597D01*
X171943329Y-98133595D01*
X171943330Y-97335497D01*
X171943328Y-96153497D01*
X171943323Y-95013082D01*
X171943312Y-93913504D01*
X171943294Y-92854013D01*
X171943268Y-91833861D01*
X171943234Y-90852300D01*
X171943189Y-89908582D01*
X171943132Y-89001957D01*
X171943063Y-88131677D01*
X171942979Y-87296994D01*
X171942881Y-86497159D01*
X171942765Y-85731423D01*
X171942631Y-84999039D01*
X171942479Y-84299257D01*
X171942306Y-83631329D01*
X171942111Y-82994506D01*
X171941893Y-82388040D01*
X171941651Y-81811183D01*
X171941384Y-81263186D01*
X171941090Y-80743300D01*
X171940768Y-80250777D01*
X171940417Y-79784868D01*
X171940035Y-79344825D01*
X171939622Y-78929900D01*
X171939175Y-78539343D01*
X171938695Y-78172406D01*
X171938179Y-77828341D01*
X171937626Y-77506400D01*
X171937035Y-77205832D01*
X171936405Y-76925891D01*
X171935734Y-76665828D01*
X171935021Y-76424894D01*
X171934266Y-76202340D01*
X171933466Y-75997418D01*
X171932620Y-75809380D01*
X171931728Y-75637477D01*
X171930788Y-75480960D01*
X171929798Y-75339082D01*
X171928758Y-75211092D01*
X171927665Y-75096244D01*
X171926520Y-74993788D01*
X171925320Y-74902975D01*
X171924065Y-74823058D01*
X171922753Y-74753288D01*
X171921383Y-74692916D01*
X171919953Y-74641194D01*
X171918463Y-74597373D01*
X171916911Y-74560705D01*
X171915295Y-74530441D01*
X171913615Y-74505833D01*
X171911870Y-74486131D01*
X171910057Y-74470589D01*
X171908177Y-74458456D01*
X171906227Y-74448985D01*
X171904878Y-74443747D01*
X171817202Y-74205650D01*
X171694940Y-73990209D01*
X171540895Y-73800229D01*
X171357871Y-73638511D01*
X171148671Y-73507859D01*
X170916098Y-73411078D01*
X170853247Y-73392115D01*
X170845142Y-73390118D01*
X170834879Y-73388191D01*
X170821708Y-73386332D01*
X170804881Y-73384542D01*
X170783649Y-73382818D01*
X170757265Y-73381160D01*
X170724978Y-73379565D01*
X170686041Y-73378034D01*
X170639706Y-73376563D01*
X170585223Y-73375153D01*
X170521845Y-73373802D01*
X170448822Y-73372509D01*
X170365406Y-73371272D01*
X170270849Y-73370090D01*
X170164402Y-73368963D01*
X170045317Y-73367888D01*
X169912845Y-73366864D01*
X169766237Y-73365891D01*
X169604745Y-73364966D01*
X169427621Y-73364090D01*
X169234116Y-73363259D01*
X169023481Y-73362474D01*
X168794968Y-73361733D01*
X168547829Y-73361034D01*
X168281314Y-73360377D01*
X167994676Y-73359760D01*
X167687165Y-73359181D01*
X167358034Y-73358641D01*
X167006534Y-73358136D01*
X166631916Y-73357667D01*
X166233432Y-73357232D01*
X165810332Y-73356829D01*
X165361870Y-73356457D01*
X164887296Y-73356116D01*
X164385861Y-73355803D01*
X163856817Y-73355518D01*
X163299416Y-73355259D01*
X162712910Y-73355026D01*
X162096548Y-73354816D01*
X161449584Y-73354628D01*
X160771268Y-73354462D01*
X160060852Y-73354316D01*
X159317588Y-73354188D01*
X158540726Y-73354078D01*
X157729519Y-73353984D01*
X156883217Y-73353906D01*
X156001074Y-73353841D01*
X155082338Y-73353788D01*
X154126264Y-73353747D01*
X153132100Y-73353715D01*
X152099101Y-73353693D01*
X151026516Y-73353677D01*
X149913597Y-73353668D01*
X148759595Y-73353664D01*
X147961497Y-73353663D01*
X146779645Y-73353665D01*
X145639379Y-73353670D01*
X144539948Y-73353681D01*
X143480605Y-73353697D01*
X142460599Y-73353722D01*
X141479183Y-73353756D01*
X140535608Y-73353799D01*
X139629125Y-73353854D01*
X138758984Y-73353922D01*
X137924438Y-73354004D01*
X137124738Y-73354101D01*
X136359134Y-73354215D01*
X135626879Y-73354347D01*
X134927223Y-73354497D01*
X134259417Y-73354668D01*
X133622713Y-73354861D01*
X133016361Y-73355076D01*
X132439614Y-73355316D01*
X131891723Y-73355581D01*
X131371938Y-73355873D01*
X130879510Y-73356192D01*
X130413692Y-73356541D01*
X129973734Y-73356921D01*
X129558887Y-73357332D01*
X129168404Y-73357776D01*
X128801534Y-73358254D01*
X128457529Y-73358768D01*
X128135641Y-73359319D01*
X127835120Y-73359908D01*
X127555218Y-73360536D01*
X127295186Y-73361205D01*
X127054275Y-73361916D01*
X126831737Y-73362670D01*
X126626823Y-73363468D01*
X126438784Y-73364312D01*
X126266870Y-73365203D01*
X126110334Y-73366143D01*
X125968427Y-73367131D01*
X125840400Y-73368171D01*
X125725504Y-73369263D01*
X125622989Y-73370407D01*
X125532109Y-73371607D01*
X125452113Y-73372862D01*
X125382253Y-73374175D01*
X125321781Y-73375545D01*
X125269947Y-73376976D01*
X125226002Y-73378467D01*
X125189198Y-73380021D01*
X125158787Y-73381638D01*
X125134018Y-73383319D01*
X125114144Y-73385067D01*
X125098416Y-73386882D01*
X125086085Y-73388765D01*
X125076403Y-73390719D01*
X125069747Y-73392420D01*
X124828391Y-73481212D01*
X124611823Y-73603753D01*
X124421891Y-73758213D01*
X124260447Y-73942761D01*
X124129339Y-74155565D01*
X124030418Y-74394793D01*
X124018374Y-74433163D01*
X124016380Y-74440777D01*
X124014456Y-74450661D01*
X124012601Y-74463564D01*
X124010812Y-74480236D01*
X124009088Y-74501426D01*
X124007427Y-74527884D01*
X124005830Y-74560360D01*
X124004292Y-74599602D01*
X124002815Y-74646361D01*
X124001395Y-74701387D01*
X124000032Y-74765428D01*
X123998723Y-74839234D01*
X123997468Y-74923555D01*
X123996265Y-75019141D01*
X123995113Y-75126741D01*
X123994010Y-75247105D01*
X123992954Y-75380981D01*
X123991945Y-75529121D01*
X123990980Y-75692273D01*
X123990059Y-75871187D01*
X123989179Y-76066612D01*
X123988340Y-76279298D01*
X123987540Y-76509995D01*
X123986777Y-76759452D01*
X123986050Y-77028419D01*
X123985357Y-77317646D01*
X123984697Y-77627881D01*
X123984069Y-77959874D01*
X123983471Y-78314376D01*
X123982902Y-78692136D01*
X123982360Y-79093902D01*
X123981843Y-79520426D01*
X123981351Y-79972456D01*
X123980881Y-80450741D01*
X123980433Y-80956033D01*
X123980004Y-81489079D01*
X123979594Y-82050630D01*
X123979201Y-82641435D01*
X123978823Y-83262244D01*
X123978460Y-83913806D01*
X123978108Y-84596872D01*
X123977768Y-85312189D01*
X123977437Y-86060509D01*
X123977115Y-86842581D01*
X123976799Y-87659154D01*
X123976488Y-88510977D01*
X123976181Y-89398801D01*
X123975877Y-90323375D01*
X123975573Y-91285448D01*
X123975268Y-92285771D01*
X123974961Y-93325092D01*
X123974651Y-94404161D01*
X123974336Y-95523729D01*
X123974014Y-96684543D01*
X123973867Y-97219080D01*
X123973512Y-98586583D01*
X123973208Y-99911885D01*
X123972956Y-101194981D01*
X123972756Y-102435868D01*
X123972608Y-103634541D01*
X123972511Y-104790996D01*
X123972466Y-105905229D01*
X122953249Y-105905229D01*
X122953122Y-105595923D01*
X122952828Y-104788446D01*
%TD*%
D13*
%TO.C,U4*%
X144017309Y-106631612D03*
X144017309Y-106131612D03*
X144017309Y-105631612D03*
X144017309Y-105131612D03*
X144017309Y-104631612D03*
X144017309Y-104131612D03*
X144017309Y-103631612D03*
X144017309Y-103131612D03*
X144017309Y-102631612D03*
X144017309Y-102131612D03*
X144017309Y-101631612D03*
X144017309Y-101131612D03*
D14*
X144717309Y-100431612D03*
X145217309Y-100431612D03*
X145717309Y-100431612D03*
X146217309Y-100431612D03*
X146717309Y-100431612D03*
X147217309Y-100431612D03*
X147717309Y-100431612D03*
X148217309Y-100431612D03*
X148717309Y-100431612D03*
X149217309Y-100431612D03*
X149717309Y-100431612D03*
X150217309Y-100431612D03*
D13*
X150917309Y-101131612D03*
X150917309Y-101631612D03*
X150917309Y-102131612D03*
X150917309Y-102631612D03*
X150917309Y-103131612D03*
X150917309Y-103631612D03*
X150917309Y-104131612D03*
X150917309Y-104631612D03*
X150917309Y-105131612D03*
X150917309Y-105631612D03*
X150917309Y-106131612D03*
X150917309Y-106631612D03*
D14*
X150217309Y-107331612D03*
X149717309Y-107331612D03*
X149217309Y-107331612D03*
X148717309Y-107331612D03*
X148217309Y-107331612D03*
X147717309Y-107331612D03*
X147217309Y-107331612D03*
X146717309Y-107331612D03*
X146217309Y-107331612D03*
X145717309Y-107331612D03*
X145217309Y-107331612D03*
X144717309Y-107331612D03*
D15*
X147467309Y-103881612D03*
%TD*%
D13*
%TO.C,U3*%
X154700913Y-97766000D03*
X154700913Y-97266000D03*
X154700913Y-96766000D03*
X154700913Y-96266000D03*
X154700913Y-95766000D03*
X154700913Y-95266000D03*
X154700913Y-94766000D03*
D14*
X155650913Y-93816000D03*
X156150913Y-93816000D03*
X156650913Y-93816000D03*
X157150913Y-93816000D03*
X157650913Y-93816000D03*
X158150913Y-93816000D03*
X158650913Y-93816000D03*
D13*
X159600913Y-94766000D03*
X159600913Y-95266000D03*
X159600913Y-95766000D03*
X159600913Y-96266000D03*
X159600913Y-96766000D03*
X159600913Y-97266000D03*
X159600913Y-97766000D03*
D14*
X158650913Y-98716000D03*
X158150913Y-98716000D03*
X157650913Y-98716000D03*
X157150913Y-98716000D03*
X156650913Y-98716000D03*
X156150913Y-98716000D03*
X155650913Y-98716000D03*
D16*
X157150913Y-96266000D03*
%TD*%
D17*
%TO.C,U2*%
X157074828Y-87957496D03*
X157746579Y-88629247D03*
X158418330Y-89300998D03*
X160026998Y-87692330D03*
X159355247Y-87020579D03*
X158683496Y-86348828D03*
%TD*%
D18*
%TO.C,U1*%
X147853245Y-91871266D03*
X146226899Y-90244921D03*
D19*
X141772127Y-94699693D03*
D18*
X144600554Y-88618575D03*
%TD*%
D20*
%TO.C,SW2*%
X131520517Y-113639736D03*
X135621736Y-109538517D03*
X128692090Y-110811309D03*
X132793309Y-106710090D03*
%TD*%
D21*
%TO.C,R14*%
X139554722Y-107638705D03*
X140574722Y-107638705D03*
%TD*%
D22*
%TO.C,R13*%
X140538913Y-100724913D03*
X140538913Y-99704913D03*
%TD*%
D23*
%TO.C,R12*%
X149650913Y-95624913D03*
X150372161Y-94903665D03*
%TD*%
D24*
%TO.C,R11*%
X135966913Y-106618913D03*
X135245665Y-105897665D03*
%TD*%
D25*
%TO.C,R10*%
X154472752Y-102321248D03*
X155194000Y-101600000D03*
%TD*%
D24*
%TO.C,R9*%
X159044752Y-100116752D03*
X159766000Y-100838000D03*
%TD*%
D23*
%TO.C,R8*%
X139238635Y-89828023D03*
X139959883Y-89106775D03*
%TD*%
D22*
%TO.C,R7*%
X139750913Y-102944913D03*
X139750913Y-101924913D03*
%TD*%
D26*
%TO.C,R6*%
X159766000Y-92202000D03*
X158746000Y-92202000D03*
%TD*%
D23*
%TO.C,R5*%
X158282752Y-77683248D03*
X159004000Y-76962000D03*
%TD*%
D26*
%TO.C,R4*%
X127072913Y-113476913D03*
X128092913Y-113476913D03*
%TD*%
%TO.C,R3*%
X157736000Y-92202000D03*
X156716000Y-92202000D03*
%TD*%
D24*
%TO.C,R2*%
X156464000Y-84582000D03*
X155742752Y-83860752D03*
%TD*%
D23*
%TO.C,R1*%
X129403665Y-107086161D03*
X130124913Y-106364913D03*
%TD*%
D27*
%TO.C,Q3*%
X156718000Y-102362000D03*
X158061503Y-101018497D03*
X158715577Y-103016074D03*
%TD*%
D28*
%TO.C,Q2*%
X156937577Y-105048074D03*
X155594074Y-106391577D03*
X154940000Y-104394000D03*
%TD*%
D29*
%TO.C,Q1*%
X151745926Y-88357577D03*
X150402423Y-87014074D03*
X152400000Y-86360000D03*
%TD*%
D30*
%TO.C,J1*%
X162261340Y-76880120D03*
X158372253Y-80769208D03*
X164594792Y-86991747D03*
X168483880Y-83102660D03*
D31*
X162614893Y-85011848D03*
X162049208Y-84446163D03*
X161483522Y-83880478D03*
X160917837Y-83314792D03*
X160352152Y-82749107D03*
D32*
X161766365Y-80486365D03*
X164877635Y-83597635D03*
%TD*%
D33*
%TO.C,D8*%
X142250913Y-102174912D03*
X142250913Y-100124912D03*
%TD*%
D34*
%TO.C,D7*%
X148826129Y-94249697D03*
X150275697Y-92800129D03*
%TD*%
D35*
%TO.C,D1*%
X147150913Y-87324913D03*
X149625787Y-89799787D03*
%TD*%
D36*
%TO.C,C18*%
X139268913Y-94934913D03*
X138590091Y-95613735D03*
%TD*%
D37*
%TO.C,C17*%
X128854913Y-114238913D03*
X129533735Y-114917735D03*
%TD*%
D38*
%TO.C,C16*%
X140750913Y-104704913D03*
X140750913Y-103744913D03*
%TD*%
D39*
%TO.C,C15*%
X137576324Y-94934913D03*
X136897502Y-94256091D03*
%TD*%
D40*
%TO.C,C14*%
X141887512Y-105428618D03*
X142847512Y-105428618D03*
%TD*%
%TO.C,C13*%
X141890913Y-104424913D03*
X142850913Y-104424913D03*
%TD*%
D41*
%TO.C,C12*%
X147655838Y-98301815D03*
X147655838Y-99261815D03*
%TD*%
D40*
%TO.C,C11*%
X153530913Y-95268000D03*
X152570913Y-95268000D03*
%TD*%
D41*
%TO.C,C10*%
X153416000Y-93236000D03*
X153416000Y-94196000D03*
%TD*%
%TO.C,C9*%
X155194000Y-91260000D03*
X155194000Y-92220000D03*
%TD*%
%TO.C,C8*%
X154178000Y-91260000D03*
X154178000Y-92220000D03*
%TD*%
%TO.C,C7*%
X152150913Y-107584913D03*
X152150913Y-106624913D03*
%TD*%
D40*
%TO.C,C6*%
X146170913Y-108524913D03*
X147130913Y-108524913D03*
%TD*%
%TO.C,C5*%
X144220964Y-108524913D03*
X145180964Y-108524913D03*
%TD*%
D38*
%TO.C,C4*%
X142804669Y-108269938D03*
X142804669Y-107309938D03*
%TD*%
D40*
%TO.C,C3*%
X144276700Y-109600548D03*
X145236700Y-109600548D03*
%TD*%
D42*
%TO.C,C2*%
X137624018Y-92522509D03*
X138720034Y-91426493D03*
%TD*%
D43*
%TO.C,C1*%
X145372091Y-86803735D03*
X146050913Y-86124913D03*
%TD*%
M02*
