M48
; DRILL file {KiCad 6.0.1-79c1e3a40b~116~ubuntu20.04.1} date lun 07 feb 2022 17:32:58
; FORMAT={-:-/ absolute / metric / decimal}
; #@! TF.CreationDate,2022-02-07T17:32:58-08:00
; #@! TF.GenerationSoftware,Kicad,Pcbnew,6.0.1-79c1e3a40b~116~ubuntu20.04.1
; #@! TF.FileFunction,MixedPlating,1,4
FMAT,2
METRIC
; #@! TA.AperFunction,Plated,PTH,ViaDrill
T1C0.400
; #@! TA.AperFunction,Plated,PTH,ViaDrill
T2C0.914
; #@! TA.AperFunction,NonPlated,NPTH,ComponentDrill
T3C0.900
%
G90
G05
T1
X127.614Y-115.911
X127.636Y-114.559
X128.84Y-107.733
X128.878Y-115.61
X131.022Y-112.511
X131.148Y-105.632
X133.2Y-114.6
X134.6Y-113.2
X136.4Y-111.4
X136.4Y-118.0
X136.602Y-105.972
X138.0Y-109.8
X138.834Y-93.445
X139.08Y-98.093
X139.466Y-106.564
X139.565Y-101.176
X139.64Y-99.884
X139.794Y-95.45
X139.856Y-104.7
X140.505Y-97.617
X140.729Y-102.448
X140.833Y-105.478
X141.691Y-91.008
X141.811Y-107.411
X142.048Y-92.608
X142.382Y-108.997
X142.812Y-103.898
X142.881Y-87.832
X142.992Y-93.52
X143.393Y-109.0
X143.509Y-89.674
X143.888Y-94.304
X144.64Y-90.912
X145.806Y-103.435
X145.808Y-91.888
X145.874Y-96.793
X146.0Y-106.0
X146.178Y-109.7
X146.836Y-96.059
X147.347Y-109.784
X147.632Y-95.032
X147.656Y-97.589
X148.508Y-109.954
X148.595Y-98.196
X149.0Y-102.0
X149.0Y-103.882
X149.0Y-106.0
X150.139Y-96.287
X150.954Y-99.231
X151.167Y-87.749
X151.248Y-107.512
X151.977Y-105.727
X152.475Y-94.243
X152.789Y-93.207
X153.162Y-92.032
X153.456Y-97.807
X154.178Y-93.98
X154.763Y-98.778
X154.898Y-107.574
X155.2Y-90.587
X155.509Y-103.287
X156.131Y-81.725
X156.324Y-97.018
X156.333Y-95.528
X156.938Y-101.262
X156.972Y-91.186
X157.242Y-84.304
X157.576Y-103.724
X157.636Y-78.236
X157.981Y-95.5
X158.0Y-97.0
X158.016Y-99.775
X158.75Y-91.186
X159.853Y-78.187
X160.274Y-86.106
X163.576Y-82.804
T2
X136.475Y-98.491
X136.729Y-96.713
X148.926Y-86.106
X162.659Y-89.226
T3
X161.766Y-80.486
X164.878Y-83.598
T0
M30
