%TF.GenerationSoftware,KiCad,Pcbnew,6.0.1-79c1e3a40b~116~ubuntu20.04.1*%
%TF.CreationDate,2022-02-07T17:34:27-08:00*%
%TF.ProjectId,MirageR1,4d697261-6765-4523-912e-6b696361645f,rev?*%
%TF.SameCoordinates,Original*%
%TF.FileFunction,Paste,Bot*%
%TF.FilePolarity,Positive*%
%FSLAX46Y46*%
G04 Gerber Fmt 4.6, Leading zero omitted, Abs format (unit mm)*
G04 Created by KiCad (PCBNEW 6.0.1-79c1e3a40b~116~ubuntu20.04.1) date 2022-02-07 17:34:27*
%MOMM*%
%LPD*%
G01*
G04 APERTURE LIST*
G04 Aperture macros list*
%AMRoundRect*
0 Rectangle with rounded corners*
0 $1 Rounding radius*
0 $2 $3 $4 $5 $6 $7 $8 $9 X,Y pos of 4 corners*
0 Add a 4 corners polygon primitive as box body*
4,1,4,$2,$3,$4,$5,$6,$7,$8,$9,$2,$3,0*
0 Add four circle primitives for the rounded corners*
1,1,$1+$1,$2,$3*
1,1,$1+$1,$4,$5*
1,1,$1+$1,$6,$7*
1,1,$1+$1,$8,$9*
0 Add four rect primitives between the rounded corners*
20,1,$1+$1,$2,$3,$4,$5,0*
20,1,$1+$1,$4,$5,$6,$7,0*
20,1,$1+$1,$6,$7,$8,$9,0*
20,1,$1+$1,$8,$9,$2,$3,0*%
%AMRotRect*
0 Rectangle, with rotation*
0 The origin of the aperture is its center*
0 $1 length*
0 $2 width*
0 $3 Rotation angle, in degrees counterclockwise*
0 Add horizontal line*
21,1,$1,$2,0,0,$3*%
G04 Aperture macros list end*
%ADD10RoundRect,0.250000X-0.285000X-0.285000X0.285000X-0.285000X0.285000X0.285000X-0.285000X0.285000X0*%
%ADD11RoundRect,0.062500X-0.337500X-0.062500X0.337500X-0.062500X0.337500X0.062500X-0.337500X0.062500X0*%
%ADD12RoundRect,0.062500X-0.062500X-0.337500X0.062500X-0.337500X0.062500X0.337500X-0.062500X0.337500X0*%
%ADD13RoundRect,0.225000X-0.225000X-0.225000X0.225000X-0.225000X0.225000X0.225000X-0.225000X0.225000X0*%
%ADD14RoundRect,0.150000X0.256326X0.468458X-0.468458X-0.256326X-0.256326X-0.468458X0.468458X0.256326X0*%
%ADD15RotRect,2.000000X1.500000X225.000000*%
%ADD16RotRect,2.000000X3.800000X225.000000*%
%ADD17RotRect,2.800000X1.000000X225.000000*%
%ADD18RoundRect,0.135000X0.135000X0.185000X-0.135000X0.185000X-0.135000X-0.185000X0.135000X-0.185000X0*%
%ADD19RoundRect,0.135000X0.185000X-0.135000X0.185000X0.135000X-0.185000X0.135000X-0.185000X-0.135000X0*%
%ADD20RoundRect,0.135000X-0.035355X0.226274X-0.226274X0.035355X0.035355X-0.226274X0.226274X-0.035355X0*%
%ADD21RoundRect,0.135000X-0.226274X-0.035355X-0.035355X-0.226274X0.226274X0.035355X0.035355X0.226274X0*%
%ADD22RoundRect,0.135000X0.035355X-0.226274X0.226274X-0.035355X-0.035355X0.226274X-0.226274X0.035355X0*%
%ADD23RoundRect,0.135000X-0.135000X-0.185000X0.135000X-0.185000X0.135000X0.185000X-0.135000X0.185000X0*%
%ADD24RoundRect,0.150000X-0.521491X0.309359X0.309359X-0.521491X0.521491X-0.309359X-0.309359X0.521491X0*%
%ADD25RoundRect,0.150000X0.521491X-0.309359X-0.309359X0.521491X-0.521491X0.309359X0.309359X-0.521491X0*%
%ADD26RoundRect,0.150000X-0.309359X-0.521491X0.521491X0.309359X0.309359X0.521491X-0.521491X-0.309359X0*%
%ADD27RotRect,2.000000X2.500000X315.000000*%
%ADD28RotRect,0.500000X2.500000X315.000000*%
%ADD29RoundRect,0.250000X0.450000X-0.325000X0.450000X0.325000X-0.450000X0.325000X-0.450000X-0.325000X0*%
%ADD30RoundRect,0.250000X-0.088388X0.548008X-0.548008X0.088388X0.088388X-0.548008X0.548008X-0.088388X0*%
%ADD31RotRect,1.300000X1.700000X315.000000*%
%ADD32RoundRect,0.140000X0.021213X-0.219203X0.219203X-0.021213X-0.021213X0.219203X-0.219203X0.021213X0*%
%ADD33RoundRect,0.140000X0.219203X0.021213X0.021213X0.219203X-0.219203X-0.021213X-0.021213X-0.219203X0*%
%ADD34RoundRect,0.140000X-0.170000X0.140000X-0.170000X-0.140000X0.170000X-0.140000X0.170000X0.140000X0*%
%ADD35RoundRect,0.140000X-0.219203X-0.021213X-0.021213X-0.219203X0.219203X0.021213X0.021213X0.219203X0*%
%ADD36RoundRect,0.140000X0.140000X0.170000X-0.140000X0.170000X-0.140000X-0.170000X0.140000X-0.170000X0*%
%ADD37RoundRect,0.140000X0.170000X-0.140000X0.170000X0.140000X-0.170000X0.140000X-0.170000X-0.140000X0*%
%ADD38RoundRect,0.225000X-0.017678X0.335876X-0.335876X0.017678X0.017678X-0.335876X0.335876X-0.017678X0*%
%ADD39RoundRect,0.140000X-0.021213X0.219203X-0.219203X0.021213X0.021213X-0.219203X0.219203X-0.021213X0*%
G04 APERTURE END LIST*
D10*
%TO.C,U4*%
X149447309Y-101901612D03*
X149447309Y-103221612D03*
X145487309Y-103221612D03*
X148127309Y-103221612D03*
X146807309Y-101901612D03*
X149447309Y-104541612D03*
X148127309Y-104541612D03*
X148127309Y-101901612D03*
X146807309Y-103221612D03*
X146807309Y-105861612D03*
X145487309Y-104541612D03*
X145487309Y-105861612D03*
X149447309Y-105861612D03*
X145487309Y-101901612D03*
X146807309Y-104541612D03*
X148127309Y-105861612D03*
D11*
X144017309Y-106631612D03*
X144017309Y-106131612D03*
X144017309Y-105631612D03*
X144017309Y-105131612D03*
X144017309Y-104631612D03*
X144017309Y-104131612D03*
X144017309Y-103631612D03*
X144017309Y-103131612D03*
X144017309Y-102631612D03*
X144017309Y-102131612D03*
X144017309Y-101631612D03*
X144017309Y-101131612D03*
D12*
X144717309Y-100431612D03*
X145217309Y-100431612D03*
X145717309Y-100431612D03*
X146217309Y-100431612D03*
X146717309Y-100431612D03*
X147217309Y-100431612D03*
X147717309Y-100431612D03*
X148217309Y-100431612D03*
X148717309Y-100431612D03*
X149217309Y-100431612D03*
X149717309Y-100431612D03*
X150217309Y-100431612D03*
D11*
X150917309Y-101131612D03*
X150917309Y-101631612D03*
X150917309Y-102131612D03*
X150917309Y-102631612D03*
X150917309Y-103131612D03*
X150917309Y-103631612D03*
X150917309Y-104131612D03*
X150917309Y-104631612D03*
X150917309Y-105131612D03*
X150917309Y-105631612D03*
X150917309Y-106131612D03*
X150917309Y-106631612D03*
D12*
X150217309Y-107331612D03*
X149717309Y-107331612D03*
X149217309Y-107331612D03*
X148717309Y-107331612D03*
X148217309Y-107331612D03*
X147717309Y-107331612D03*
X147217309Y-107331612D03*
X146717309Y-107331612D03*
X146217309Y-107331612D03*
X145717309Y-107331612D03*
X145217309Y-107331612D03*
X144717309Y-107331612D03*
%TD*%
D13*
%TO.C,U3*%
X157150913Y-96266000D03*
X156030913Y-97386000D03*
X158270913Y-96266000D03*
X156030913Y-95146000D03*
X158270913Y-95146000D03*
X156030913Y-96266000D03*
X157150913Y-97386000D03*
X157150913Y-95146000D03*
X158270913Y-97386000D03*
D11*
X154700913Y-97766000D03*
X154700913Y-97266000D03*
X154700913Y-96766000D03*
X154700913Y-96266000D03*
X154700913Y-95766000D03*
X154700913Y-95266000D03*
X154700913Y-94766000D03*
D12*
X155650913Y-93816000D03*
X156150913Y-93816000D03*
X156650913Y-93816000D03*
X157150913Y-93816000D03*
X157650913Y-93816000D03*
X158150913Y-93816000D03*
X158650913Y-93816000D03*
D11*
X159600913Y-94766000D03*
X159600913Y-95266000D03*
X159600913Y-95766000D03*
X159600913Y-96266000D03*
X159600913Y-96766000D03*
X159600913Y-97266000D03*
X159600913Y-97766000D03*
D12*
X158650913Y-98716000D03*
X158150913Y-98716000D03*
X157650913Y-98716000D03*
X157150913Y-98716000D03*
X156650913Y-98716000D03*
X156150913Y-98716000D03*
X155650913Y-98716000D03*
%TD*%
D14*
%TO.C,U2*%
X157074828Y-87957496D03*
X157746579Y-88629247D03*
X158418330Y-89300998D03*
X160026998Y-87692330D03*
X159355247Y-87020579D03*
X158683496Y-86348828D03*
%TD*%
D15*
%TO.C,U1*%
X147853245Y-91871266D03*
X146226899Y-90244921D03*
D16*
X141772127Y-94699693D03*
D15*
X144600554Y-88618575D03*
%TD*%
D17*
%TO.C,SW2*%
X131520517Y-113639736D03*
X135621736Y-109538517D03*
X128692090Y-110811309D03*
X132793309Y-106710090D03*
%TD*%
D18*
%TO.C,R14*%
X139554722Y-107638705D03*
X140574722Y-107638705D03*
%TD*%
D19*
%TO.C,R13*%
X140538913Y-100724913D03*
X140538913Y-99704913D03*
%TD*%
D20*
%TO.C,R12*%
X149650913Y-95624913D03*
X150372161Y-94903665D03*
%TD*%
D21*
%TO.C,R11*%
X135966913Y-106618913D03*
X135245665Y-105897665D03*
%TD*%
D22*
%TO.C,R10*%
X154472752Y-102321248D03*
X155194000Y-101600000D03*
%TD*%
D21*
%TO.C,R9*%
X159044752Y-100116752D03*
X159766000Y-100838000D03*
%TD*%
D20*
%TO.C,R8*%
X139238635Y-89828023D03*
X139959883Y-89106775D03*
%TD*%
D19*
%TO.C,R7*%
X139750913Y-102944913D03*
X139750913Y-101924913D03*
%TD*%
D23*
%TO.C,R6*%
X159766000Y-92202000D03*
X158746000Y-92202000D03*
%TD*%
D20*
%TO.C,R5*%
X158282752Y-77683248D03*
X159004000Y-76962000D03*
%TD*%
D23*
%TO.C,R4*%
X127072913Y-113476913D03*
X128092913Y-113476913D03*
%TD*%
%TO.C,R3*%
X157736000Y-92202000D03*
X156716000Y-92202000D03*
%TD*%
D21*
%TO.C,R2*%
X156464000Y-84582000D03*
X155742752Y-83860752D03*
%TD*%
D20*
%TO.C,R1*%
X129403665Y-107086161D03*
X130124913Y-106364913D03*
%TD*%
D24*
%TO.C,Q3*%
X156718000Y-102362000D03*
X158061503Y-101018497D03*
X158715577Y-103016074D03*
%TD*%
D25*
%TO.C,Q2*%
X156937577Y-105048074D03*
X155594074Y-106391577D03*
X154940000Y-104394000D03*
%TD*%
D26*
%TO.C,Q1*%
X151745926Y-88357577D03*
X150402423Y-87014074D03*
X152400000Y-86360000D03*
%TD*%
D27*
%TO.C,J1*%
X162261340Y-76880120D03*
X158372253Y-80769208D03*
X164594792Y-86991747D03*
X168483880Y-83102660D03*
D28*
X162614893Y-85011848D03*
X162049208Y-84446163D03*
X161483522Y-83880478D03*
X160917837Y-83314792D03*
X160352152Y-82749107D03*
%TD*%
D29*
%TO.C,D8*%
X142250913Y-102174912D03*
X142250913Y-100124912D03*
%TD*%
D30*
%TO.C,D7*%
X148826129Y-94249697D03*
X150275697Y-92800129D03*
%TD*%
D31*
%TO.C,D1*%
X147150913Y-87324913D03*
X149625787Y-89799787D03*
%TD*%
D32*
%TO.C,C18*%
X139268913Y-94934913D03*
X138590091Y-95613735D03*
%TD*%
D33*
%TO.C,C17*%
X128854913Y-114238913D03*
X129533735Y-114917735D03*
%TD*%
D34*
%TO.C,C16*%
X140750913Y-104704913D03*
X140750913Y-103744913D03*
%TD*%
D35*
%TO.C,C15*%
X137576324Y-94934913D03*
X136897502Y-94256091D03*
%TD*%
D36*
%TO.C,C14*%
X141887512Y-105428618D03*
X142847512Y-105428618D03*
%TD*%
%TO.C,C13*%
X141890913Y-104424913D03*
X142850913Y-104424913D03*
%TD*%
D37*
%TO.C,C12*%
X147655838Y-98301815D03*
X147655838Y-99261815D03*
%TD*%
D36*
%TO.C,C11*%
X153530913Y-95268000D03*
X152570913Y-95268000D03*
%TD*%
D37*
%TO.C,C10*%
X153416000Y-93236000D03*
X153416000Y-94196000D03*
%TD*%
%TO.C,C9*%
X155194000Y-91260000D03*
X155194000Y-92220000D03*
%TD*%
%TO.C,C8*%
X154178000Y-91260000D03*
X154178000Y-92220000D03*
%TD*%
%TO.C,C7*%
X152150913Y-107584913D03*
X152150913Y-106624913D03*
%TD*%
D36*
%TO.C,C6*%
X146170913Y-108524913D03*
X147130913Y-108524913D03*
%TD*%
%TO.C,C5*%
X144220964Y-108524913D03*
X145180964Y-108524913D03*
%TD*%
D34*
%TO.C,C4*%
X142804669Y-108269938D03*
X142804669Y-107309938D03*
%TD*%
D36*
%TO.C,C3*%
X144276700Y-109600548D03*
X145236700Y-109600548D03*
%TD*%
D38*
%TO.C,C2*%
X137624018Y-92522509D03*
X138720034Y-91426493D03*
%TD*%
D39*
%TO.C,C1*%
X145372091Y-86803735D03*
X146050913Y-86124913D03*
%TD*%
M02*
