%TF.GenerationSoftware,KiCad,Pcbnew,6.0.1-79c1e3a40b~116~ubuntu20.04.1*%
%TF.CreationDate,2022-02-07T17:34:28-08:00*%
%TF.ProjectId,MirageR1,4d697261-6765-4523-912e-6b696361645f,rev?*%
%TF.SameCoordinates,Original*%
%TF.FileFunction,Profile,NP*%
%FSLAX46Y46*%
G04 Gerber Fmt 4.6, Leading zero omitted, Abs format (unit mm)*
G04 Created by KiCad (PCBNEW 6.0.1-79c1e3a40b~116~ubuntu20.04.1) date 2022-02-07 17:34:28*
%MOMM*%
%LPD*%
G01*
G04 APERTURE LIST*
%TA.AperFunction,Profile*%
%ADD10C,0.100000*%
%TD*%
G04 APERTURE END LIST*
D10*
X153277421Y-100257492D02*
G75*
G03*
X153277421Y-100257492I-576000J0D01*
G01*
X168370299Y-86536679D02*
G75*
G03*
X168370299Y-86536679I-576000J0D01*
G01*
X137750500Y-107571413D02*
G75*
G03*
X137750500Y-107571413I-576000J0D01*
G01*
%TO.C,Ref\u002A\u002A*%
X138638913Y-88080413D02*
X138638913Y-88080413D01*
X138686113Y-88033313D02*
X138638913Y-88080413D01*
X138757113Y-87963113D02*
X138686113Y-88033313D01*
X138828913Y-87893113D02*
X138757113Y-87963113D01*
X138900913Y-87823713D02*
X138828913Y-87893113D01*
X138972813Y-87755413D02*
X138900913Y-87823713D01*
X139045513Y-87687213D02*
X138972813Y-87755413D01*
X139119113Y-87619113D02*
X139045513Y-87687213D01*
X139192613Y-87552013D02*
X139119113Y-87619113D01*
X139266213Y-87485613D02*
X139192613Y-87552013D01*
X139340913Y-87419213D02*
X139266213Y-87485613D01*
X139416013Y-87353213D02*
X139340913Y-87419213D01*
X139491213Y-87288113D02*
X139416013Y-87353213D01*
X139567113Y-87223213D02*
X139491213Y-87288113D01*
X139643413Y-87158913D02*
X139567113Y-87223213D01*
X139719913Y-87095313D02*
X139643413Y-87158913D01*
X139796913Y-87032113D02*
X139719913Y-87095313D01*
X139874313Y-86969513D02*
X139796913Y-87032113D01*
X139952313Y-86907313D02*
X139874313Y-86969513D01*
X140030913Y-86845513D02*
X139952313Y-86907313D01*
X140109713Y-86784413D02*
X140030913Y-86845513D01*
X140189113Y-86723713D02*
X140109713Y-86784413D01*
X140269013Y-86663513D02*
X140189113Y-86723713D01*
X140349113Y-86603913D02*
X140269013Y-86663513D01*
X140430213Y-86544613D02*
X140349113Y-86603913D01*
X140511513Y-86485913D02*
X140430213Y-86544613D01*
X140592613Y-86428313D02*
X140511513Y-86485913D01*
X140674313Y-86371113D02*
X140592613Y-86428313D01*
X140756713Y-86314313D02*
X140674313Y-86371113D01*
X140838913Y-86258413D02*
X140756713Y-86314313D01*
X140921713Y-86203013D02*
X140838913Y-86258413D01*
X141005113Y-86148013D02*
X140921713Y-86203013D01*
X141089113Y-86093513D02*
X141005113Y-86148013D01*
X141173613Y-86039513D02*
X141089113Y-86093513D01*
X141258213Y-85986313D02*
X141173613Y-86039513D01*
X141342913Y-85933813D02*
X141258213Y-85986313D01*
X141427513Y-85882313D02*
X141342913Y-85933813D01*
X141512813Y-85831213D02*
X141427513Y-85882313D01*
X141599313Y-85780213D02*
X141512813Y-85831213D01*
X141685713Y-85730113D02*
X141599313Y-85780213D01*
X141772613Y-85680513D02*
X141685713Y-85730113D01*
X141860313Y-85631313D02*
X141772613Y-85680513D01*
X141947613Y-85583213D02*
X141860313Y-85631313D01*
X142035013Y-85535913D02*
X141947613Y-85583213D01*
X142122913Y-85489013D02*
X142035013Y-85535913D01*
X142211313Y-85442813D02*
X142122913Y-85489013D01*
X142300013Y-85397213D02*
X142211313Y-85442813D01*
X142389113Y-85352213D02*
X142300013Y-85397213D01*
X142478313Y-85308013D02*
X142389113Y-85352213D01*
X142567713Y-85264513D02*
X142478313Y-85308013D01*
X142657013Y-85221813D02*
X142567713Y-85264513D01*
X142747013Y-85179613D02*
X142657013Y-85221813D01*
X142838013Y-85137713D02*
X142747013Y-85179613D01*
X142929213Y-85096613D02*
X142838013Y-85137713D01*
X143020013Y-85056413D02*
X142929213Y-85096613D01*
X143111313Y-85016813D02*
X143020013Y-85056413D01*
X143203413Y-84977713D02*
X143111313Y-85016813D01*
X143295313Y-84939413D02*
X143203413Y-84977713D01*
X143387413Y-84901813D02*
X143295313Y-84939413D01*
X143480113Y-84864813D02*
X143387413Y-84901813D01*
X143572513Y-84828713D02*
X143480113Y-84864813D01*
X143665813Y-84793013D02*
X143572513Y-84828713D01*
X143759213Y-84758113D02*
X143665813Y-84793013D01*
X143852413Y-84724013D02*
X143759213Y-84758113D01*
X143946013Y-84690613D02*
X143852413Y-84724013D01*
X144039813Y-84657813D02*
X143946013Y-84690613D01*
X144133913Y-84625713D02*
X144039813Y-84657813D01*
X144228213Y-84594313D02*
X144133913Y-84625713D01*
X144322713Y-84563713D02*
X144228213Y-84594313D01*
X144417213Y-84533713D02*
X144322713Y-84563713D01*
X144511713Y-84504513D02*
X144417213Y-84533713D01*
X144607413Y-84475813D02*
X144511713Y-84504513D01*
X144703513Y-84447613D02*
X144607413Y-84475813D01*
X144799613Y-84420313D02*
X144703513Y-84447613D01*
X144895513Y-84393713D02*
X144799613Y-84420313D01*
X144991313Y-84367913D02*
X144895513Y-84393713D01*
X145088013Y-84342613D02*
X144991313Y-84367913D01*
X145185013Y-84318013D02*
X145088013Y-84342613D01*
X145281813Y-84294213D02*
X145185013Y-84318013D01*
X145378113Y-84271313D02*
X145281813Y-84294213D01*
X145475313Y-84248813D02*
X145378113Y-84271313D01*
X145572713Y-84227113D02*
X145475313Y-84248813D01*
X145669613Y-84206213D02*
X145572713Y-84227113D01*
X145767313Y-84185913D02*
X145669613Y-84206213D01*
X145865013Y-84166313D02*
X145767313Y-84185913D01*
X145963413Y-84147313D02*
X145865013Y-84166313D01*
X146061913Y-84129113D02*
X145963413Y-84147313D01*
X146159713Y-84111713D02*
X146061913Y-84129113D01*
X146258113Y-84094913D02*
X146159713Y-84111713D01*
X146356413Y-84078813D02*
X146258113Y-84094913D01*
X146455313Y-84063413D02*
X146356413Y-84078813D01*
X146554013Y-84048713D02*
X146455313Y-84063413D01*
X146653313Y-84034613D02*
X146554013Y-84048713D01*
X146752413Y-84021313D02*
X146653313Y-84034613D01*
X146851213Y-84008813D02*
X146752413Y-84021313D01*
X146950213Y-83996913D02*
X146851213Y-84008813D01*
X147049213Y-83985713D02*
X146950213Y-83996913D01*
X147148213Y-83975213D02*
X147049213Y-83985713D01*
X147248013Y-83965413D02*
X147148213Y-83975213D01*
X147347413Y-83956313D02*
X147248013Y-83965413D01*
X147447213Y-83947913D02*
X147347413Y-83956313D01*
X147546513Y-83940213D02*
X147447213Y-83947913D01*
X147646113Y-83933113D02*
X147546513Y-83940213D01*
X147745213Y-83926813D02*
X147646113Y-83933113D01*
X147844613Y-83921213D02*
X147745213Y-83926813D01*
X147944113Y-83916213D02*
X147844613Y-83921213D01*
X148043513Y-83911913D02*
X147944113Y-83916213D01*
X148143613Y-83908313D02*
X148043513Y-83911913D01*
X148242913Y-83905413D02*
X148143613Y-83908313D01*
X148342413Y-83903113D02*
X148242913Y-83905413D01*
X148442013Y-83901613D02*
X148342413Y-83903113D01*
X148541313Y-83900713D02*
X148442013Y-83901613D01*
X148641113Y-83900413D02*
X148541313Y-83900713D01*
X148741113Y-83900913D02*
X148641113Y-83900413D01*
X148840613Y-83902013D02*
X148741113Y-83900913D01*
X148940613Y-83903713D02*
X148840613Y-83902013D01*
X149040613Y-83906213D02*
X148940613Y-83903713D01*
X149140213Y-83909313D02*
X149040613Y-83906213D01*
X149240213Y-83913013D02*
X149140213Y-83909313D01*
X149340213Y-83917413D02*
X149240213Y-83913013D01*
X149439713Y-83922513D02*
X149340213Y-83917413D01*
X149539613Y-83928213D02*
X149439713Y-83922513D01*
X149639313Y-83934613D02*
X149539613Y-83928213D01*
X149738513Y-83941613D02*
X149639313Y-83934613D01*
X149838013Y-83949213D02*
X149738513Y-83941613D01*
X149937413Y-83957513D02*
X149838013Y-83949213D01*
X150036113Y-83966413D02*
X149937413Y-83957513D01*
X150135013Y-83975913D02*
X150036113Y-83966413D01*
X150234913Y-83986213D02*
X150135013Y-83975913D01*
X150334513Y-83997113D02*
X150234913Y-83986213D01*
X150433313Y-84008513D02*
X150334513Y-83997113D01*
X150532413Y-84020613D02*
X150433313Y-84008513D01*
X150631213Y-84033213D02*
X150532413Y-84020613D01*
X150730213Y-84046613D02*
X150631213Y-84033213D01*
X150828913Y-84060513D02*
X150730213Y-84046613D01*
X150927913Y-84075113D02*
X150828913Y-84060513D01*
X151026513Y-84090313D02*
X150927913Y-84075113D01*
X151125313Y-84106113D02*
X151026513Y-84090313D01*
X151223613Y-84122513D02*
X151125313Y-84106113D01*
X151322213Y-84139513D02*
X151223613Y-84122513D01*
X151420313Y-84157013D02*
X151322213Y-84139513D01*
X151487113Y-84171913D02*
X151420313Y-84157013D01*
X151605013Y-84200613D02*
X151487113Y-84171913D01*
X151700313Y-84223113D02*
X151605013Y-84200613D01*
X151794713Y-84244813D02*
X151700313Y-84223113D01*
X151888613Y-84265813D02*
X151794713Y-84244813D01*
X151983013Y-84286213D02*
X151888613Y-84265813D01*
X152077313Y-84306113D02*
X151983013Y-84286213D01*
X152171413Y-84325213D02*
X152077313Y-84306113D01*
X152265913Y-84343813D02*
X152171413Y-84325213D01*
X152360713Y-84361713D02*
X152265913Y-84343813D01*
X152455313Y-84378813D02*
X152360713Y-84361713D01*
X152549513Y-84395013D02*
X152455313Y-84378813D01*
X152643913Y-84410313D02*
X152549513Y-84395013D01*
X152739013Y-84424713D02*
X152643913Y-84410313D01*
X152834613Y-84438013D02*
X152739013Y-84424713D01*
X152929813Y-84450013D02*
X152834613Y-84438013D01*
X153025113Y-84460513D02*
X152929813Y-84450013D01*
X153120413Y-84469313D02*
X153025113Y-84460513D01*
X153216113Y-84476013D02*
X153120413Y-84469313D01*
X153312013Y-84480213D02*
X153216113Y-84476013D01*
X153408413Y-84481213D02*
X153312013Y-84480213D01*
X153505413Y-84477713D02*
X153408413Y-84481213D01*
X153602513Y-84467813D02*
X153505413Y-84477713D01*
X153697813Y-84447913D02*
X153602513Y-84467813D01*
X153787213Y-84410213D02*
X153697813Y-84447913D01*
X153856013Y-84346313D02*
X153787213Y-84410213D01*
X153918413Y-84268613D02*
X153856013Y-84346313D01*
X153971413Y-84184413D02*
X153918413Y-84268613D01*
X154016613Y-84095513D02*
X153971413Y-84184413D01*
X154055113Y-84003813D02*
X154016613Y-84095513D01*
X154088013Y-83910213D02*
X154055113Y-84003813D01*
X154116213Y-83815013D02*
X154088013Y-83910213D01*
X154140413Y-83718813D02*
X154116213Y-83815013D01*
X154161113Y-83621113D02*
X154140413Y-83718813D01*
X154178713Y-83522213D02*
X154161113Y-83621113D01*
X154193313Y-83423513D02*
X154178713Y-83522213D01*
X154205313Y-83324513D02*
X154193313Y-83423513D01*
X154214813Y-83224713D02*
X154205313Y-83324513D01*
X154221813Y-83123213D02*
X154214813Y-83224713D01*
X154226413Y-82995413D02*
X154221813Y-83123213D01*
X154223813Y-82929213D02*
X154226413Y-82995413D01*
X154220913Y-82830113D02*
X154223813Y-82929213D01*
X154219213Y-82730313D02*
X154220913Y-82830113D01*
X154218713Y-82630913D02*
X154219213Y-82730313D01*
X154219413Y-82532213D02*
X154218713Y-82630913D01*
X154221213Y-82432913D02*
X154219413Y-82532213D01*
X154224313Y-82333113D02*
X154221213Y-82432913D01*
X154228613Y-82233963D02*
X154224313Y-82333113D01*
X154234013Y-82135303D02*
X154228613Y-82233963D01*
X154240713Y-82035763D02*
X154234013Y-82135303D01*
X154248613Y-81936253D02*
X154240713Y-82035763D01*
X154257713Y-81837213D02*
X154248613Y-81936253D01*
X154268113Y-81737843D02*
X154257713Y-81837213D01*
X154279713Y-81638623D02*
X154268113Y-81737843D01*
X154292513Y-81539753D02*
X154279713Y-81638623D01*
X154306313Y-81441853D02*
X154292513Y-81539753D01*
X154321513Y-81343683D02*
X154306313Y-81441853D01*
X154338013Y-81244833D02*
X154321513Y-81343683D01*
X154355513Y-81147133D02*
X154338013Y-81244833D01*
X154374313Y-81049343D02*
X154355513Y-81147133D01*
X154394313Y-80952063D02*
X154374313Y-81049343D01*
X154415513Y-80855073D02*
X154394313Y-80952063D01*
X154437913Y-80758133D02*
X154415513Y-80855073D01*
X154461513Y-80661623D02*
X154437913Y-80758133D01*
X154486113Y-80565953D02*
X154461513Y-80661623D01*
X154512113Y-80469853D02*
X154486113Y-80565953D01*
X154539213Y-80374483D02*
X154512113Y-80469853D01*
X154567513Y-80279233D02*
X154539213Y-80374483D01*
X154596913Y-80184413D02*
X154567513Y-80279233D01*
X154627713Y-80089783D02*
X154596913Y-80184413D01*
X154659313Y-79996073D02*
X154627713Y-80089783D01*
X154692113Y-79903043D02*
X154659313Y-79996073D01*
X154725913Y-79810423D02*
X154692113Y-79903043D01*
X154760913Y-79718403D02*
X154725913Y-79810423D01*
X154797213Y-79626103D02*
X154760913Y-79718403D01*
X154834713Y-79534213D02*
X154797213Y-79626103D01*
X154873513Y-79442313D02*
X154834713Y-79534213D01*
X154913413Y-79351123D02*
X154873513Y-79442313D01*
X154954413Y-79260183D02*
X154913413Y-79351123D01*
X154996413Y-79170263D02*
X154954413Y-79260183D01*
X155039413Y-79080873D02*
X154996413Y-79170263D01*
X155083813Y-78991543D02*
X155039413Y-79080873D01*
X155129413Y-78902363D02*
X155083813Y-78991543D01*
X155175613Y-78814723D02*
X155129413Y-78902363D01*
X155222613Y-78728113D02*
X155175613Y-78814723D01*
X155270713Y-78641993D02*
X155222613Y-78728113D01*
X155319813Y-78556463D02*
X155270713Y-78641993D01*
X155369913Y-78471623D02*
X155319813Y-78556463D01*
X155421213Y-78386853D02*
X155369913Y-78471623D01*
X155473713Y-78302593D02*
X155421213Y-78386853D01*
X155527413Y-78218543D02*
X155473713Y-78302593D01*
X155582113Y-78135133D02*
X155527413Y-78218543D01*
X155637513Y-78052803D02*
X155582113Y-78135133D01*
X155693613Y-77971643D02*
X155637513Y-78052803D01*
X155750613Y-77890983D02*
X155693613Y-77971643D01*
X155809013Y-77810523D02*
X155750613Y-77890983D01*
X155868013Y-77731053D02*
X155809013Y-77810523D01*
X155927913Y-77652273D02*
X155868013Y-77731053D01*
X155989113Y-77573853D02*
X155927913Y-77652273D01*
X156050713Y-77496613D02*
X155989113Y-77573853D01*
X156113713Y-77419433D02*
X156050713Y-77496613D01*
X156177513Y-77343163D02*
X156113713Y-77419433D01*
X156241913Y-77267833D02*
X156177513Y-77343163D01*
X156307313Y-77193113D02*
X156241913Y-77267833D01*
X156373613Y-77119033D02*
X156307313Y-77193113D01*
X156440813Y-77045633D02*
X156373613Y-77119033D01*
X156508813Y-76972963D02*
X156440813Y-77045633D01*
X156577613Y-76901063D02*
X156508813Y-76972963D01*
X156647213Y-76829973D02*
X156577613Y-76901063D01*
X156717813Y-76759373D02*
X156647213Y-76829973D01*
X156789213Y-76689683D02*
X156717813Y-76759373D01*
X156861813Y-76620473D02*
X156789213Y-76689683D01*
X156934913Y-76552383D02*
X156861813Y-76620473D01*
X157008213Y-76485713D02*
X156934913Y-76552383D01*
X157082713Y-76419583D02*
X157008213Y-76485713D01*
X157158313Y-76353953D02*
X157082713Y-76419583D01*
X157234113Y-76289753D02*
X157158313Y-76353953D01*
X157311313Y-76225913D02*
X157234113Y-76289753D01*
X157389513Y-76162773D02*
X157311313Y-76225913D01*
X157468013Y-76100943D02*
X157389513Y-76162773D01*
X157546813Y-76040323D02*
X157468013Y-76100943D01*
X157626713Y-75980433D02*
X157546813Y-76040323D01*
X157707213Y-75921553D02*
X157626713Y-75980433D01*
X157789013Y-75863223D02*
X157707213Y-75921553D01*
X157871213Y-75806023D02*
X157789013Y-75863223D01*
X157953613Y-75750143D02*
X157871213Y-75806023D01*
X158037013Y-75695103D02*
X157953613Y-75750143D01*
X158121113Y-75640943D02*
X158037013Y-75695103D01*
X158205613Y-75587993D02*
X158121113Y-75640943D01*
X158291113Y-75535833D02*
X158205613Y-75587993D01*
X158377213Y-75484723D02*
X158291113Y-75535833D01*
X158463113Y-75435103D02*
X158377213Y-75484723D01*
X158550413Y-75386023D02*
X158463113Y-75435103D01*
X158638613Y-75337873D02*
X158550413Y-75386023D01*
X158726513Y-75291213D02*
X158638613Y-75337873D01*
X158815413Y-75245383D02*
X158726513Y-75291213D01*
X158905113Y-75200553D02*
X158815413Y-75245383D01*
X158994813Y-75157023D02*
X158905113Y-75200553D01*
X159085113Y-75114503D02*
X158994813Y-75157023D01*
X159176313Y-75072893D02*
X159085113Y-75114503D01*
X159268213Y-75032293D02*
X159176313Y-75072893D01*
X159360713Y-74992783D02*
X159268213Y-75032293D01*
X159453513Y-74954443D02*
X159360713Y-74992783D01*
X159546513Y-74917343D02*
X159453513Y-74954443D01*
X159639313Y-74881553D02*
X159546513Y-74917343D01*
X159733113Y-74846723D02*
X159639313Y-74881553D01*
X159826913Y-74813103D02*
X159733113Y-74846723D01*
X159921413Y-74780543D02*
X159826913Y-74813103D01*
X160016813Y-74748903D02*
X159921413Y-74780543D01*
X160112013Y-74718623D02*
X160016813Y-74748903D01*
X160207413Y-74689533D02*
X160112013Y-74718623D01*
X160303413Y-74661483D02*
X160207413Y-74689533D01*
X160400013Y-74634503D02*
X160303413Y-74661483D01*
X160497213Y-74608633D02*
X160400013Y-74634503D01*
X160594713Y-74583913D02*
X160497213Y-74608633D01*
X160692513Y-74560353D02*
X160594713Y-74583913D01*
X160790513Y-74537993D02*
X160692513Y-74560353D01*
X160888513Y-74516853D02*
X160790513Y-74537993D01*
X160986513Y-74496933D02*
X160888513Y-74516853D01*
X161084413Y-74478253D02*
X160986513Y-74496933D01*
X161182813Y-74460673D02*
X161084413Y-74478253D01*
X161282113Y-74444143D02*
X161182813Y-74460673D01*
X161381413Y-74428833D02*
X161282113Y-74444143D01*
X161480113Y-74414813D02*
X161381413Y-74428833D01*
X161579113Y-74401943D02*
X161480113Y-74414813D01*
X161678713Y-74390203D02*
X161579113Y-74401943D01*
X161778013Y-74379693D02*
X161678713Y-74390203D01*
X161877213Y-74370363D02*
X161778013Y-74379693D01*
X161976913Y-74362183D02*
X161877213Y-74370363D01*
X162076813Y-74355163D02*
X161976913Y-74362183D01*
X162177113Y-74349323D02*
X162076813Y-74355163D01*
X162276613Y-74344713D02*
X162177113Y-74349323D01*
X162376813Y-74341253D02*
X162276613Y-74344713D01*
X162476513Y-74338993D02*
X162376813Y-74341253D01*
X162576813Y-74337903D02*
X162476513Y-74338993D01*
X162676613Y-74338003D02*
X162576813Y-74337903D01*
X162776813Y-74339283D02*
X162676613Y-74338003D01*
X162877413Y-74341763D02*
X162776813Y-74339283D01*
X162977813Y-74345443D02*
X162877413Y-74341763D01*
X163077913Y-74350293D02*
X162977813Y-74345443D01*
X163177813Y-74356323D02*
X163077913Y-74350293D01*
X163277213Y-74363513D02*
X163177813Y-74356323D01*
X163376213Y-74371843D02*
X163277213Y-74363513D01*
X163476013Y-74381413D02*
X163376213Y-74371843D01*
X163575713Y-74392193D02*
X163476013Y-74381413D01*
X163674913Y-74404093D02*
X163575713Y-74392193D01*
X163773413Y-74417103D02*
X163674913Y-74404093D01*
X163872513Y-74431373D02*
X163773413Y-74417103D01*
X163971413Y-74446833D02*
X163872513Y-74431373D01*
X164069513Y-74463353D02*
X163971413Y-74446833D01*
X164168113Y-74481143D02*
X164069513Y-74463353D01*
X164266413Y-74500103D02*
X164168113Y-74481143D01*
X164363713Y-74520083D02*
X164266413Y-74500103D01*
X164461313Y-74541323D02*
X164363713Y-74520083D01*
X164558613Y-74563703D02*
X164461313Y-74541323D01*
X164656113Y-74587363D02*
X164558613Y-74563703D01*
X164753213Y-74612143D02*
X164656113Y-74587363D01*
X164849713Y-74638013D02*
X164753213Y-74612143D01*
X164946113Y-74665073D02*
X164849713Y-74638013D01*
X165041513Y-74693103D02*
X164946113Y-74665073D01*
X165137013Y-74722383D02*
X165041513Y-74693103D01*
X165231813Y-74752703D02*
X165137013Y-74722383D01*
X165326613Y-74784283D02*
X165231813Y-74752703D01*
X165420713Y-74816863D02*
X165326613Y-74784283D01*
X165514713Y-74850683D02*
X165420713Y-74816863D01*
X165608013Y-74885473D02*
X165514713Y-74850683D01*
X165701113Y-74921493D02*
X165608013Y-74885473D01*
X165794113Y-74958743D02*
X165701113Y-74921493D01*
X165886513Y-74997073D02*
X165794113Y-74958743D01*
X165978413Y-75036463D02*
X165886513Y-74997073D01*
X166069613Y-75076893D02*
X165978413Y-75036463D01*
X166161013Y-75118693D02*
X166069613Y-75076893D01*
X166251313Y-75161333D02*
X166161013Y-75118693D01*
X166341413Y-75205153D02*
X166251313Y-75161333D01*
X166431013Y-75250153D02*
X166341413Y-75205153D01*
X166520013Y-75296123D02*
X166431013Y-75250153D01*
X166608113Y-75343033D02*
X166520013Y-75296123D01*
X166695413Y-75390863D02*
X166608113Y-75343033D01*
X166782713Y-75440023D02*
X166695413Y-75390863D01*
X166869513Y-75490303D02*
X166782713Y-75440023D01*
X166955413Y-75541463D02*
X166869513Y-75490303D01*
X167041213Y-75593943D02*
X166955413Y-75541463D01*
X167125713Y-75647013D02*
X167041213Y-75593943D01*
X167209613Y-75701123D02*
X167125713Y-75647013D01*
X167292813Y-75756273D02*
X167209613Y-75701123D01*
X167375113Y-75812173D02*
X167292813Y-75756273D01*
X167457113Y-75869353D02*
X167375113Y-75812173D01*
X167538513Y-75927523D02*
X167457113Y-75869353D01*
X167618713Y-75986363D02*
X167538513Y-75927523D01*
X167698713Y-76046473D02*
X167618713Y-75986363D01*
X167777913Y-76107513D02*
X167698713Y-76046473D01*
X167856013Y-76169163D02*
X167777913Y-76107513D01*
X167933813Y-76232033D02*
X167856013Y-76169163D01*
X168010713Y-76295793D02*
X167933813Y-76232033D01*
X168086413Y-76360063D02*
X168010713Y-76295793D01*
X168161813Y-76425523D02*
X168086413Y-76360063D01*
X168236213Y-76491803D02*
X168161813Y-76425523D01*
X168310313Y-76559263D02*
X168236213Y-76491803D01*
X168383413Y-76627503D02*
X168310313Y-76559263D01*
X168456113Y-76696913D02*
X168383413Y-76627503D01*
X168527813Y-76767083D02*
X168456113Y-76696913D01*
X168598613Y-76837913D02*
X168527813Y-76767083D01*
X168668313Y-76909333D02*
X168598613Y-76837913D01*
X168737513Y-76981943D02*
X168668313Y-76909333D01*
X168805613Y-77055083D02*
X168737513Y-76981943D01*
X168872313Y-77128393D02*
X168805613Y-77055083D01*
X168938513Y-77202833D02*
X168872313Y-77128393D01*
X169004113Y-77278483D02*
X168938513Y-77202833D01*
X169068313Y-77354293D02*
X169004113Y-77278483D01*
X169132213Y-77431493D02*
X169068313Y-77354293D01*
X169195313Y-77509733D02*
X169132213Y-77431493D01*
X169257213Y-77588243D02*
X169195313Y-77509733D01*
X169317813Y-77667113D02*
X169257213Y-77588243D01*
X169377713Y-77746983D02*
X169317813Y-77667113D01*
X169436613Y-77827483D02*
X169377713Y-77746983D01*
X169495013Y-77909263D02*
X169436613Y-77827483D01*
X169552213Y-77991543D02*
X169495013Y-77909263D01*
X169608113Y-78073983D02*
X169552213Y-77991543D01*
X169663213Y-78157323D02*
X169608113Y-78073983D01*
X169717313Y-78241503D02*
X169663213Y-78157323D01*
X169770313Y-78326013D02*
X169717313Y-78241503D01*
X169822513Y-78411513D02*
X169770313Y-78326013D01*
X169873613Y-78497603D02*
X169822513Y-78411513D01*
X169923313Y-78583513D02*
X169873613Y-78497603D01*
X169972413Y-78670873D02*
X169923313Y-78583513D01*
X170020513Y-78759043D02*
X169972413Y-78670873D01*
X170067213Y-78846993D02*
X170020513Y-78759043D01*
X170113113Y-78935913D02*
X170067213Y-78846993D01*
X170157913Y-79025553D02*
X170113113Y-78935913D01*
X170201513Y-79115243D02*
X170157913Y-79025553D01*
X170244013Y-79205593D02*
X170201513Y-79115243D01*
X170285613Y-79296823D02*
X170244013Y-79205593D01*
X170326213Y-79388763D02*
X170285613Y-79296823D01*
X170365813Y-79481243D02*
X170326213Y-79388763D01*
X170404113Y-79574053D02*
X170365813Y-79481243D01*
X170441313Y-79667013D02*
X170404113Y-79574053D01*
X170477113Y-79759893D02*
X170441313Y-79667013D01*
X170511913Y-79853633D02*
X170477113Y-79759893D01*
X170545613Y-79947503D02*
X170511913Y-79853633D01*
X170578113Y-80041943D02*
X170545613Y-79947503D01*
X170609813Y-80137433D02*
X170578113Y-80041943D01*
X170640113Y-80232613D02*
X170609813Y-80137433D01*
X170669213Y-80327973D02*
X170640113Y-80232613D01*
X170697313Y-80424013D02*
X170669213Y-80327973D01*
X170724313Y-80520653D02*
X170697313Y-80424013D01*
X170750213Y-80617783D02*
X170724313Y-80520653D01*
X170774913Y-80715303D02*
X170750213Y-80617783D01*
X170798513Y-80813113D02*
X170774913Y-80715303D01*
X170820913Y-80911103D02*
X170798513Y-80813113D01*
X170842113Y-81009153D02*
X170820913Y-80911103D01*
X170862013Y-81107173D02*
X170842113Y-81009153D01*
X170880713Y-81205033D02*
X170862013Y-81107173D01*
X170898313Y-81303433D02*
X170880713Y-81205033D01*
X170914813Y-81402743D02*
X170898313Y-81303433D01*
X170930213Y-81502043D02*
X170914813Y-81402743D01*
X170944213Y-81600803D02*
X170930213Y-81502043D01*
X170957113Y-81699803D02*
X170944213Y-81600803D01*
X170968913Y-81799403D02*
X170957113Y-81699803D01*
X170979413Y-81898643D02*
X170968913Y-81799403D01*
X170988813Y-81997883D02*
X170979413Y-81898643D01*
X170997013Y-82097523D02*
X170988813Y-81997883D01*
X171004013Y-82197513D02*
X170997013Y-82097523D01*
X171009913Y-82297803D02*
X171004013Y-82197513D01*
X171014513Y-82397313D02*
X171009913Y-82297803D01*
X171018013Y-82497513D02*
X171014513Y-82397313D01*
X171020313Y-82597213D02*
X171018013Y-82497513D01*
X171021413Y-82697513D02*
X171020313Y-82597213D01*
X171021313Y-82797213D02*
X171021413Y-82697513D01*
X171020113Y-82897413D02*
X171021313Y-82797213D01*
X171017613Y-82998013D02*
X171020113Y-82897413D01*
X171013913Y-83098413D02*
X171017613Y-82998013D01*
X171009113Y-83198613D02*
X171013913Y-83098413D01*
X171003113Y-83298413D02*
X171009113Y-83198613D01*
X170995913Y-83397913D02*
X171003113Y-83298413D01*
X170987613Y-83496913D02*
X170995913Y-83397913D01*
X170978113Y-83596613D02*
X170987613Y-83496913D01*
X170967313Y-83696413D02*
X170978113Y-83596613D01*
X170955413Y-83795513D02*
X170967313Y-83696413D01*
X170942513Y-83894113D02*
X170955413Y-83795513D01*
X170928213Y-83993113D02*
X170942513Y-83894113D01*
X170912813Y-84092013D02*
X170928213Y-83993113D01*
X170896313Y-84190113D02*
X170912813Y-84092013D01*
X170878513Y-84288713D02*
X170896313Y-84190113D01*
X170859613Y-84387013D02*
X170878513Y-84288713D01*
X170839613Y-84484313D02*
X170859613Y-84387013D01*
X170818413Y-84581913D02*
X170839613Y-84484313D01*
X170796013Y-84679213D02*
X170818413Y-84581913D01*
X170772413Y-84776713D02*
X170796013Y-84679213D01*
X170747613Y-84873813D02*
X170772413Y-84776713D01*
X170721813Y-84970313D02*
X170747613Y-84873813D01*
X170694713Y-85066613D02*
X170721813Y-84970313D01*
X170666713Y-85162013D02*
X170694713Y-85066613D01*
X170637513Y-85257513D02*
X170666713Y-85162013D01*
X170607213Y-85352313D02*
X170637513Y-85257513D01*
X170575613Y-85447113D02*
X170607213Y-85352313D01*
X170543113Y-85541213D02*
X170575613Y-85447113D01*
X170509313Y-85635313D02*
X170543113Y-85541213D01*
X170474513Y-85728513D02*
X170509313Y-85635313D01*
X170438513Y-85821613D02*
X170474513Y-85728513D01*
X170401313Y-85914513D02*
X170438513Y-85821613D01*
X170363013Y-86007013D02*
X170401313Y-85914513D01*
X170323613Y-86098813D02*
X170363013Y-86007013D01*
X170283213Y-86190113D02*
X170323613Y-86098813D01*
X170241413Y-86281413D02*
X170283213Y-86190113D01*
X170198813Y-86371813D02*
X170241413Y-86281413D01*
X170155013Y-86461813D02*
X170198813Y-86371813D01*
X170110013Y-86551513D02*
X170155013Y-86461813D01*
X170064113Y-86640413D02*
X170110013Y-86551513D01*
X170017213Y-86728513D02*
X170064113Y-86640413D01*
X169969413Y-86815813D02*
X170017213Y-86728513D01*
X169920213Y-86903113D02*
X169969413Y-86815813D01*
X169870013Y-86989913D02*
X169920213Y-86903113D01*
X169818813Y-87075813D02*
X169870013Y-86989913D01*
X169766413Y-87161613D02*
X169818813Y-87075813D01*
X169713313Y-87246013D02*
X169766413Y-87161613D01*
X169659213Y-87329913D02*
X169713313Y-87246013D01*
X169604113Y-87413113D02*
X169659213Y-87329913D01*
X169548213Y-87495413D02*
X169604113Y-87413113D01*
X169491113Y-87577413D02*
X169548213Y-87495413D01*
X169432913Y-87658713D02*
X169491113Y-87577413D01*
X169374113Y-87739013D02*
X169432913Y-87658713D01*
X169314013Y-87818913D02*
X169374113Y-87739013D01*
X169253013Y-87898113D02*
X169314013Y-87818913D01*
X169191313Y-87976213D02*
X169253013Y-87898113D01*
X169128513Y-88053913D02*
X169191313Y-87976213D01*
X169064813Y-88130913D02*
X169128513Y-88053913D01*
X169000513Y-88206613D02*
X169064813Y-88130913D01*
X168935113Y-88281913D02*
X169000513Y-88206613D01*
X168868813Y-88356313D02*
X168935113Y-88281913D01*
X168801413Y-88430313D02*
X168868813Y-88356313D01*
X168733113Y-88503513D02*
X168801413Y-88430313D01*
X168663713Y-88576113D02*
X168733113Y-88503513D01*
X168593613Y-88647913D02*
X168663713Y-88576113D01*
X168522813Y-88718513D02*
X168593613Y-88647913D01*
X168451613Y-88788013D02*
X168522813Y-88718513D01*
X168379413Y-88857013D02*
X168451613Y-88788013D01*
X168306813Y-88924913D02*
X168379413Y-88857013D01*
X168233013Y-88992413D02*
X168306813Y-88924913D01*
X168158613Y-89059013D02*
X168233013Y-88992413D01*
X168083513Y-89124613D02*
X168158613Y-89059013D01*
X168007613Y-89189513D02*
X168083513Y-89124613D01*
X167930713Y-89253713D02*
X168007613Y-89189513D01*
X167853213Y-89316813D02*
X167930713Y-89253713D01*
X167775613Y-89378613D02*
X167853213Y-89316813D01*
X167697113Y-89439613D02*
X167775613Y-89378613D01*
X167618013Y-89499613D02*
X167697113Y-89439613D01*
X167537813Y-89558913D02*
X167618013Y-89499613D01*
X167456713Y-89617313D02*
X167537813Y-89558913D01*
X167374813Y-89675013D02*
X167456713Y-89617313D01*
X167292113Y-89731613D02*
X167374813Y-89675013D01*
X167209413Y-89786713D02*
X167292113Y-89731613D01*
X167126413Y-89840513D02*
X167209413Y-89786713D01*
X167042013Y-89893813D02*
X167126413Y-89840513D01*
X166957113Y-89946013D02*
X167042013Y-89893813D01*
X166871613Y-89997013D02*
X166957113Y-89946013D01*
X166785213Y-90047113D02*
X166871613Y-89997013D01*
X166698313Y-90096013D02*
X166785213Y-90047113D01*
X166611213Y-90143613D02*
X166698313Y-90096013D01*
X166522913Y-90190413D02*
X166611213Y-90143613D01*
X166434213Y-90235913D02*
X166522913Y-90190413D01*
X166344713Y-90280313D02*
X166434213Y-90235913D01*
X166254713Y-90323613D02*
X166344713Y-90280313D01*
X166164713Y-90365413D02*
X166254713Y-90323613D01*
X166074313Y-90406113D02*
X166164713Y-90365413D01*
X165983013Y-90445613D02*
X166074313Y-90406113D01*
X165891213Y-90484013D02*
X165983013Y-90445613D01*
X165799013Y-90521213D02*
X165891213Y-90484013D01*
X165706613Y-90557013D02*
X165799013Y-90521213D01*
X165613113Y-90591913D02*
X165706613Y-90557013D01*
X165519213Y-90625513D02*
X165613113Y-90591913D01*
X165424413Y-90658013D02*
X165519213Y-90625513D01*
X165329413Y-90689213D02*
X165424413Y-90658013D01*
X165233913Y-90719213D02*
X165329413Y-90689213D01*
X165138613Y-90747713D02*
X165233913Y-90719213D01*
X165042913Y-90775013D02*
X165138613Y-90747713D01*
X164946513Y-90801213D02*
X165042913Y-90775013D01*
X164849313Y-90826213D02*
X164946513Y-90801213D01*
X164752213Y-90849813D02*
X164849313Y-90826213D01*
X164655713Y-90872013D02*
X164752213Y-90849813D01*
X164559113Y-90892913D02*
X164655713Y-90872013D01*
X164462413Y-90912613D02*
X164559113Y-90892913D01*
X164364713Y-90931113D02*
X164462413Y-90912613D01*
X164266513Y-90948513D02*
X164364713Y-90931113D01*
X164167613Y-90964713D02*
X164266513Y-90948513D01*
X164068313Y-90979713D02*
X164167613Y-90964713D01*
X163969313Y-90993313D02*
X164068313Y-90979713D01*
X163870513Y-91005713D02*
X163969313Y-90993313D01*
X163772213Y-91016813D02*
X163870513Y-91005713D01*
X163673613Y-91026713D02*
X163772213Y-91016813D01*
X163574213Y-91035513D02*
X163673613Y-91026713D01*
X163475113Y-91043013D02*
X163574213Y-91035513D01*
X163375813Y-91049413D02*
X163475113Y-91043013D01*
X163276013Y-91054613D02*
X163375813Y-91049413D01*
X163176713Y-91058513D02*
X163276013Y-91054613D01*
X163077513Y-91061413D02*
X163176713Y-91058513D01*
X162977913Y-91063013D02*
X163077513Y-91061413D01*
X162878013Y-91063613D02*
X162977913Y-91063013D01*
X162777913Y-91062913D02*
X162878013Y-91063613D01*
X162678713Y-91061213D02*
X162777913Y-91062913D01*
X162578813Y-91058313D02*
X162678713Y-91061213D01*
X162479413Y-91054413D02*
X162578813Y-91058313D01*
X162379513Y-91049313D02*
X162479413Y-91054413D01*
X162287713Y-91051213D02*
X162379513Y-91049313D01*
X162190613Y-91052613D02*
X162287713Y-91051213D01*
X162095013Y-91052813D02*
X162190613Y-91052613D01*
X162000013Y-91053613D02*
X162095013Y-91052813D01*
X161905713Y-91056013D02*
X162000013Y-91053613D01*
X161811413Y-91060913D02*
X161905713Y-91056013D01*
X161717013Y-91069013D02*
X161811413Y-91060913D01*
X161622313Y-91081413D02*
X161717013Y-91069013D01*
X161528713Y-91099213D02*
X161622313Y-91081413D01*
X161436413Y-91124113D02*
X161528713Y-91099213D01*
X161347513Y-91157713D02*
X161436413Y-91124113D01*
X161264113Y-91202413D02*
X161347513Y-91157713D01*
X161189613Y-91260813D02*
X161264113Y-91202413D01*
X161131013Y-91335113D02*
X161189613Y-91260813D01*
X161091213Y-91421813D02*
X161131013Y-91335113D01*
X161067913Y-91513913D02*
X161091213Y-91421813D01*
X161057213Y-91608013D02*
X161067913Y-91513913D01*
X161055913Y-91702713D02*
X161057213Y-91608013D01*
X161061913Y-91798113D02*
X161055913Y-91702713D01*
X161073513Y-91893113D02*
X161061913Y-91798113D01*
X161089313Y-91986713D02*
X161073513Y-91893113D01*
X161108513Y-92079613D02*
X161089313Y-91986713D01*
X161130513Y-92171813D02*
X161108513Y-92079613D01*
X161154513Y-92262913D02*
X161130513Y-92171813D01*
X161180313Y-92353413D02*
X161154513Y-92262913D01*
X161207913Y-92444313D02*
X161180313Y-92353413D01*
X161236813Y-92535413D02*
X161207913Y-92444313D01*
X161266513Y-92625413D02*
X161236813Y-92535413D01*
X161296913Y-92715713D02*
X161266513Y-92625413D01*
X161328013Y-92806313D02*
X161296913Y-92715713D01*
X161359213Y-92896513D02*
X161328013Y-92806313D01*
X161388913Y-92989313D02*
X161359213Y-92896513D01*
X161417513Y-93084613D02*
X161388913Y-92989313D01*
X161445513Y-93181013D02*
X161417513Y-93084613D01*
X161472713Y-93277713D02*
X161445513Y-93181013D01*
X161499113Y-93374213D02*
X161472713Y-93277713D01*
X161524613Y-93470913D02*
X161499113Y-93374213D01*
X161549413Y-93568013D02*
X161524613Y-93470913D01*
X161573613Y-93665613D02*
X161549413Y-93568013D01*
X161596713Y-93762513D02*
X161573613Y-93665613D01*
X161619213Y-93859913D02*
X161596713Y-93762513D01*
X161640913Y-93957413D02*
X161619213Y-93859913D01*
X161661713Y-94054513D02*
X161640913Y-93957413D01*
X161681813Y-94152113D02*
X161661713Y-94054513D01*
X161701213Y-94249813D02*
X161681813Y-94152113D01*
X161720013Y-94348213D02*
X161701213Y-94249813D01*
X161738013Y-94446513D02*
X161720013Y-94348213D01*
X161755313Y-94545413D02*
X161738013Y-94446513D01*
X161771813Y-94644013D02*
X161755313Y-94545413D01*
X161787513Y-94742513D02*
X161771813Y-94644013D01*
X161802513Y-94840513D02*
X161787513Y-94742513D01*
X161816813Y-94939013D02*
X161802513Y-94840513D01*
X161830413Y-95038213D02*
X161816813Y-94939013D01*
X161843413Y-95137813D02*
X161830413Y-95038213D01*
X161855613Y-95237213D02*
X161843413Y-95137813D01*
X161867113Y-95336113D02*
X161855613Y-95237213D01*
X161877913Y-95435813D02*
X161867113Y-95336113D01*
X161888013Y-95535113D02*
X161877913Y-95435813D01*
X161897413Y-95634713D02*
X161888013Y-95535113D01*
X161906013Y-95734113D02*
X161897413Y-95634713D01*
X161914013Y-95833813D02*
X161906013Y-95734113D01*
X161921413Y-95933813D02*
X161914013Y-95833813D01*
X161928113Y-96034113D02*
X161921413Y-95933813D01*
X161934013Y-96134413D02*
X161928113Y-96034113D01*
X161939313Y-96234613D02*
X161934013Y-96134413D01*
X161943913Y-96334313D02*
X161939313Y-96234613D01*
X161947813Y-96434713D02*
X161943913Y-96334313D01*
X161951113Y-96534813D02*
X161947813Y-96434713D01*
X161953613Y-96635313D02*
X161951113Y-96534813D01*
X161955513Y-96735313D02*
X161953613Y-96635313D01*
X161956813Y-96835313D02*
X161955513Y-96735313D01*
X161957413Y-96935813D02*
X161956813Y-96835313D01*
X161957313Y-97036113D02*
X161957413Y-96935813D01*
X161956513Y-97135513D02*
X161957313Y-97036113D01*
X161955113Y-97234813D02*
X161956513Y-97135513D01*
X161953113Y-97334113D02*
X161955113Y-97234813D01*
X161950413Y-97433413D02*
X161953113Y-97334113D01*
X161947113Y-97532413D02*
X161950413Y-97433413D01*
X161943213Y-97632013D02*
X161947113Y-97532413D01*
X161938513Y-97732513D02*
X161943213Y-97632013D01*
X161933213Y-97833013D02*
X161938513Y-97732513D01*
X161927313Y-97933013D02*
X161933213Y-97833013D01*
X161920813Y-98032313D02*
X161927313Y-97933013D01*
X161913613Y-98131813D02*
X161920813Y-98032313D01*
X161905813Y-98231813D02*
X161913613Y-98131813D01*
X161897313Y-98331313D02*
X161905813Y-98231813D01*
X161888213Y-98430813D02*
X161897313Y-98331313D01*
X161878513Y-98530613D02*
X161888213Y-98430813D01*
X161868213Y-98629613D02*
X161878513Y-98530613D01*
X161857313Y-98728413D02*
X161868213Y-98629613D01*
X161845713Y-98827413D02*
X161857313Y-98728413D01*
X161833513Y-98926413D02*
X161845713Y-98827413D01*
X161820713Y-99025413D02*
X161833513Y-98926413D01*
X161807313Y-99124413D02*
X161820713Y-99025413D01*
X161793213Y-99223313D02*
X161807313Y-99124413D01*
X161778513Y-99322113D02*
X161793213Y-99223313D01*
X161763213Y-99420613D02*
X161778513Y-99322113D01*
X161747313Y-99518913D02*
X161763213Y-99420613D01*
X161730913Y-99617013D02*
X161747313Y-99518913D01*
X161713713Y-99715713D02*
X161730913Y-99617013D01*
X161695813Y-99814713D02*
X161713713Y-99715713D01*
X161677313Y-99913213D02*
X161695813Y-99814713D01*
X161658313Y-100011313D02*
X161677313Y-99913213D01*
X161638813Y-100108813D02*
X161658313Y-100011313D01*
X161618513Y-100206813D02*
X161638813Y-100108813D01*
X161597613Y-100304913D02*
X161618513Y-100206813D01*
X161576113Y-100402313D02*
X161597613Y-100304913D01*
X161554013Y-100500213D02*
X161576113Y-100402313D01*
X161531213Y-100597913D02*
X161554013Y-100500213D01*
X161507913Y-100694913D02*
X161531213Y-100597913D01*
X161484013Y-100792213D02*
X161507913Y-100694913D01*
X161459413Y-100889313D02*
X161484013Y-100792213D01*
X161434413Y-100985513D02*
X161459413Y-100889313D01*
X161408713Y-101081913D02*
X161434413Y-100985513D01*
X161382413Y-101178013D02*
X161408713Y-101081913D01*
X161355413Y-101274413D02*
X161382413Y-101178013D01*
X161327913Y-101370413D02*
X161355413Y-101274413D01*
X161299613Y-101466613D02*
X161327913Y-101370413D01*
X161270913Y-101562213D02*
X161299613Y-101466613D01*
X161241413Y-101658113D02*
X161270913Y-101562213D01*
X161211413Y-101753413D02*
X161241413Y-101658113D01*
X161180713Y-101848813D02*
X161211413Y-101753413D01*
X161149513Y-101943613D02*
X161180713Y-101848813D01*
X161117713Y-102038513D02*
X161149513Y-101943613D01*
X161085413Y-102132713D02*
X161117713Y-102038513D01*
X161052413Y-102226913D02*
X161085413Y-102132713D01*
X161018713Y-102321113D02*
X161052413Y-102226913D01*
X160984513Y-102414913D02*
X161018713Y-102321113D01*
X160949413Y-102509113D02*
X160984513Y-102414913D01*
X160914013Y-102602413D02*
X160949413Y-102509113D01*
X160877913Y-102695613D02*
X160914013Y-102602413D01*
X160841213Y-102788713D02*
X160877913Y-102695613D01*
X160804013Y-102881313D02*
X160841213Y-102788713D01*
X160765913Y-102974113D02*
X160804013Y-102881313D01*
X160727613Y-103066013D02*
X160765913Y-102974113D01*
X160688613Y-103157613D02*
X160727613Y-103066013D01*
X160648713Y-103249813D02*
X160688613Y-103157613D01*
X160608413Y-103341013D02*
X160648713Y-103249813D01*
X160567613Y-103431913D02*
X160608413Y-103341013D01*
X160525813Y-103523313D02*
X160567613Y-103431913D01*
X160483813Y-103613713D02*
X160525813Y-103523313D01*
X160441213Y-103703613D02*
X160483813Y-103613713D01*
X160397613Y-103794113D02*
X160441213Y-103703613D01*
X160353413Y-103884213D02*
X160397613Y-103794113D01*
X160308813Y-103973513D02*
X160353413Y-103884213D01*
X160263513Y-104062913D02*
X160308813Y-103973513D01*
X160217613Y-104151813D02*
X160263513Y-104062913D01*
X160171413Y-104239813D02*
X160217613Y-104151813D01*
X160124513Y-104327813D02*
X160171413Y-104239813D01*
X160076513Y-104416213D02*
X160124513Y-104327813D01*
X160028013Y-104504113D02*
X160076513Y-104416213D01*
X159979213Y-104591113D02*
X160028013Y-104504113D01*
X159929713Y-104678013D02*
X159979213Y-104591113D01*
X159879613Y-104764313D02*
X159929713Y-104678013D01*
X159828913Y-104850513D02*
X159879613Y-104764313D01*
X159777613Y-104936113D02*
X159828913Y-104850513D01*
X159725613Y-105021513D02*
X159777613Y-104936113D01*
X159673213Y-105106313D02*
X159725613Y-105021513D01*
X159620013Y-105191013D02*
X159673213Y-105106313D01*
X159566313Y-105275013D02*
X159620013Y-105191013D01*
X159512013Y-105358713D02*
X159566313Y-105275013D01*
X159456613Y-105442713D02*
X159512013Y-105358713D01*
X159400813Y-105526013D02*
X159456613Y-105442713D01*
X159344913Y-105608213D02*
X159400813Y-105526013D01*
X159288313Y-105690013D02*
X159344913Y-105608213D01*
X159230613Y-105772013D02*
X159288313Y-105690013D01*
X159172613Y-105853313D02*
X159230613Y-105772013D01*
X159113913Y-105934213D02*
X159172613Y-105853313D01*
X159054813Y-106014413D02*
X159113913Y-105934213D01*
X158995113Y-106094213D02*
X159054813Y-106014413D01*
X158934313Y-106174113D02*
X158995113Y-106094213D01*
X158873213Y-106253213D02*
X158934313Y-106174113D01*
X158811513Y-106331913D02*
X158873213Y-106253213D01*
X158749413Y-106409713D02*
X158811513Y-106331913D01*
X158686613Y-106487113D02*
X158749413Y-106409713D01*
X158622913Y-106564613D02*
X158686613Y-106487113D01*
X158558813Y-106641113D02*
X158622913Y-106564613D01*
X158494213Y-106717213D02*
X158558813Y-106641113D01*
X158429213Y-106792413D02*
X158494213Y-106717213D01*
X158363713Y-106867113D02*
X158429213Y-106792413D01*
X158297113Y-106941813D02*
X158363713Y-106867113D01*
X158230313Y-107015513D02*
X158297113Y-106941813D01*
X158162913Y-107088713D02*
X158230313Y-107015513D01*
X158094513Y-107161813D02*
X158162913Y-107088713D01*
X158025913Y-107234013D02*
X158094513Y-107161813D01*
X157956713Y-107305613D02*
X158025913Y-107234013D01*
X157886413Y-107377113D02*
X157956713Y-107305613D01*
X157815913Y-107447713D02*
X157886413Y-107377113D01*
X157745113Y-107517513D02*
X157815913Y-107447713D01*
X157673513Y-107587213D02*
X157745113Y-107517513D01*
X157601713Y-107656213D02*
X157673513Y-107587213D01*
X157529913Y-107724313D02*
X157601713Y-107656213D01*
X157457313Y-107792313D02*
X157529913Y-107724313D01*
X157383813Y-107860213D02*
X157457313Y-107792313D01*
X157310413Y-107927113D02*
X157383813Y-107860213D01*
X157236913Y-107993213D02*
X157310413Y-107927113D01*
X157162213Y-108059513D02*
X157236913Y-107993213D01*
X157087113Y-108125313D02*
X157162213Y-108059513D01*
X157011813Y-108190313D02*
X157087113Y-108125313D01*
X156935813Y-108255113D02*
X157011813Y-108190313D01*
X156859413Y-108319313D02*
X156935813Y-108255113D01*
X156782813Y-108382813D02*
X156859413Y-108319313D01*
X156705613Y-108445913D02*
X156782813Y-108382813D01*
X156628013Y-108508413D02*
X156705613Y-108445913D01*
X156549713Y-108570613D02*
X156628013Y-108508413D01*
X156470813Y-108632413D02*
X156549713Y-108570613D01*
X156391713Y-108693413D02*
X156470813Y-108632413D01*
X156311913Y-108754213D02*
X156391713Y-108693413D01*
X156232213Y-108813913D02*
X156311913Y-108754213D01*
X156152513Y-108872813D02*
X156232213Y-108813913D01*
X156072713Y-108931013D02*
X156152513Y-108872813D01*
X155991613Y-108989113D02*
X156072713Y-108931013D01*
X155910113Y-109046713D02*
X155991613Y-108989113D01*
X155827913Y-109103913D02*
X155910113Y-109046713D01*
X155745913Y-109160213D02*
X155827913Y-109103913D01*
X155663513Y-109215813D02*
X155745913Y-109160213D01*
X155580213Y-109271113D02*
X155663513Y-109215813D01*
X155496213Y-109326113D02*
X155580213Y-109271113D01*
X155412413Y-109380113D02*
X155496213Y-109326113D01*
X155327813Y-109433713D02*
X155412413Y-109380113D01*
X155242513Y-109486913D02*
X155327813Y-109433713D01*
X155157113Y-109539413D02*
X155242513Y-109486913D01*
X155071713Y-109590913D02*
X155157113Y-109539413D01*
X154985613Y-109642013D02*
X155071713Y-109590913D01*
X154899413Y-109692413D02*
X154985613Y-109642013D01*
X154812613Y-109742213D02*
X154899413Y-109692413D01*
X154725913Y-109791113D02*
X154812613Y-109742213D01*
X154639013Y-109839313D02*
X154725913Y-109791113D01*
X154551413Y-109887113D02*
X154639013Y-109839313D01*
X154463013Y-109934413D02*
X154551413Y-109887113D01*
X154374113Y-109981213D02*
X154463013Y-109934413D01*
X154284613Y-110027513D02*
X154374113Y-109981213D01*
X154195413Y-110072713D02*
X154284613Y-110027513D01*
X154105513Y-110117513D02*
X154195413Y-110072713D01*
X154015113Y-110161713D02*
X154105513Y-110117513D01*
X153924413Y-110205213D02*
X154015113Y-110161713D01*
X153833813Y-110247813D02*
X153924413Y-110205213D01*
X153743113Y-110289613D02*
X153833813Y-110247813D01*
X153652613Y-110330613D02*
X153743113Y-110289613D01*
X153561513Y-110371013D02*
X153652613Y-110330613D01*
X153469513Y-110410913D02*
X153561513Y-110371013D01*
X153377613Y-110450113D02*
X153469513Y-110410913D01*
X153286013Y-110488313D02*
X153377613Y-110450113D01*
X153193413Y-110526113D02*
X153286013Y-110488313D01*
X153100513Y-110563213D02*
X153193413Y-110526113D01*
X153007413Y-110599613D02*
X153100513Y-110563213D01*
X152913713Y-110635513D02*
X153007413Y-110599613D01*
X152820413Y-110670313D02*
X152913713Y-110635513D01*
X152727213Y-110704413D02*
X152820413Y-110670313D01*
X152633513Y-110737913D02*
X152727213Y-110704413D01*
X152539513Y-110770713D02*
X152633513Y-110737913D01*
X152445313Y-110802813D02*
X152539513Y-110770713D01*
X152350713Y-110834213D02*
X152445313Y-110802813D01*
X152256013Y-110864913D02*
X152350713Y-110834213D01*
X152161113Y-110894913D02*
X152256013Y-110864913D01*
X152066113Y-110924213D02*
X152161113Y-110894913D01*
X151971013Y-110952713D02*
X152066113Y-110924213D01*
X151876013Y-110980413D02*
X151971013Y-110952713D01*
X151779913Y-111007713D02*
X151876013Y-110980413D01*
X151683313Y-111034413D02*
X151779913Y-111007713D01*
X151586813Y-111060313D02*
X151683313Y-111034413D01*
X151490513Y-111085413D02*
X151586813Y-111060313D01*
X151394413Y-111109713D02*
X151490513Y-111085413D01*
X151297413Y-111133413D02*
X151394413Y-111109713D01*
X151200113Y-111156513D02*
X151297413Y-111133413D01*
X151103113Y-111178813D02*
X151200113Y-111156513D01*
X151005313Y-111200513D02*
X151103113Y-111178813D01*
X150907313Y-111221513D02*
X151005313Y-111200513D01*
X150809713Y-111241713D02*
X150907313Y-111221513D01*
X150711413Y-111261313D02*
X150809713Y-111241713D01*
X150613013Y-111280113D02*
X150711413Y-111261313D01*
X150515213Y-111298213D02*
X150613013Y-111280113D01*
X150416713Y-111315613D02*
X150515213Y-111298213D01*
X150318213Y-111332313D02*
X150416713Y-111315613D01*
X150219713Y-111348313D02*
X150318213Y-111332313D01*
X150121013Y-111363613D02*
X150219713Y-111348313D01*
X150022813Y-111378113D02*
X150121013Y-111363613D01*
X149924013Y-111392113D02*
X150022813Y-111378113D01*
X149825413Y-111405213D02*
X149924013Y-111392113D01*
X149726213Y-111417813D02*
X149825413Y-111405213D01*
X149627313Y-111429613D02*
X149726213Y-111417813D01*
X149527913Y-111440813D02*
X149627313Y-111429613D01*
X149428913Y-111451213D02*
X149527913Y-111440813D01*
X149329413Y-111461013D02*
X149428913Y-111451213D01*
X149230213Y-111470113D02*
X149329413Y-111461013D01*
X149130713Y-111478513D02*
X149230213Y-111470113D01*
X149031713Y-111486213D02*
X149130713Y-111478513D01*
X148932313Y-111493213D02*
X149031713Y-111486213D01*
X148832513Y-111499613D02*
X148932313Y-111493213D01*
X148732913Y-111505313D02*
X148832513Y-111499613D01*
X148633513Y-111510413D02*
X148732913Y-111505313D01*
X148534213Y-111514713D02*
X148633513Y-111510413D01*
X148434213Y-111518513D02*
X148534213Y-111514713D01*
X148334913Y-111521513D02*
X148434213Y-111518513D01*
X148235513Y-111523913D02*
X148334913Y-111521513D01*
X148135813Y-111525613D02*
X148235513Y-111523913D01*
X148036513Y-111526713D02*
X148135813Y-111525613D01*
X147936613Y-111527213D02*
X148036513Y-111526713D01*
X147836513Y-111527013D02*
X147936613Y-111527213D01*
X147736813Y-111526113D02*
X147836513Y-111527013D01*
X147636613Y-111524613D02*
X147736813Y-111526113D01*
X147536413Y-111522513D02*
X147636613Y-111524613D01*
X147436513Y-111519713D02*
X147536413Y-111522513D01*
X147336213Y-111516313D02*
X147436513Y-111519713D01*
X147235913Y-111512213D02*
X147336213Y-111516313D01*
X147136113Y-111507613D02*
X147235913Y-111512213D01*
X147035813Y-111502213D02*
X147136113Y-111507613D01*
X146935613Y-111496313D02*
X147035813Y-111502213D01*
X146836013Y-111489713D02*
X146935613Y-111496313D01*
X146736013Y-111482613D02*
X146836013Y-111489713D01*
X146636113Y-111474813D02*
X146736013Y-111482613D01*
X146536913Y-111466413D02*
X146636113Y-111474813D01*
X146437313Y-111457413D02*
X146536913Y-111466413D01*
X146337913Y-111447913D02*
X146437313Y-111457413D01*
X146239213Y-111437813D02*
X146337913Y-111447913D01*
X146140313Y-111427013D02*
X146239213Y-111437813D01*
X146040413Y-111415613D02*
X146140313Y-111427013D01*
X145940913Y-111403613D02*
X146040413Y-111415613D01*
X145842113Y-111391213D02*
X145940913Y-111403613D01*
X145743113Y-111378113D02*
X145842113Y-111391213D01*
X145644513Y-111364413D02*
X145743113Y-111378113D01*
X145545513Y-111350213D02*
X145644513Y-111364413D01*
X145447013Y-111335413D02*
X145545513Y-111350213D01*
X145348213Y-111320013D02*
X145447013Y-111335413D01*
X145249813Y-111304113D02*
X145348213Y-111320013D01*
X145151213Y-111287513D02*
X145249813Y-111304113D01*
X145053113Y-111270513D02*
X145151213Y-111287513D01*
X144954713Y-111252913D02*
X145053113Y-111270513D01*
X144856913Y-111234913D02*
X144954713Y-111252913D01*
X144758913Y-111216213D02*
X144856913Y-111234913D01*
X144661413Y-111197113D02*
X144758913Y-111216213D01*
X144563813Y-111177413D02*
X144661413Y-111197113D01*
X144465513Y-111157013D02*
X144563813Y-111177413D01*
X144367713Y-111136113D02*
X144465513Y-111157013D01*
X144269813Y-111114713D02*
X144367713Y-111136113D01*
X144172513Y-111092813D02*
X144269813Y-111114713D01*
X144075113Y-111070513D02*
X144172513Y-111092813D01*
X143978413Y-111047713D02*
X144075113Y-111070513D01*
X143881713Y-111024313D02*
X143978413Y-111047713D01*
X143784213Y-111000313D02*
X143881713Y-111024313D01*
X143687413Y-110975913D02*
X143784213Y-111000313D01*
X143590713Y-110951013D02*
X143687413Y-110975913D01*
X143494613Y-110925713D02*
X143590713Y-110951013D01*
X143398613Y-110899913D02*
X143494613Y-110925713D01*
X143305713Y-110873513D02*
X143398613Y-110899913D01*
X143212013Y-110842013D02*
X143305713Y-110873513D01*
X143118813Y-110808213D02*
X143212013Y-110842013D01*
X143026213Y-110773613D02*
X143118813Y-110808213D01*
X142934413Y-110739213D02*
X143026213Y-110773613D01*
X142841913Y-110705313D02*
X142934413Y-110739213D01*
X142748313Y-110672313D02*
X142841913Y-110705313D01*
X142654613Y-110641313D02*
X142748313Y-110672313D01*
X142560313Y-110612713D02*
X142654613Y-110641313D01*
X142465013Y-110587513D02*
X142560313Y-110612713D01*
X142369213Y-110566813D02*
X142465013Y-110587513D01*
X142271413Y-110552013D02*
X142369213Y-110566813D01*
X142172013Y-110545913D02*
X142271413Y-110552013D01*
X142073813Y-110552513D02*
X142172013Y-110545913D01*
X141978613Y-110577013D02*
X142073813Y-110552513D01*
X141893613Y-110625713D02*
X141978613Y-110577013D01*
X141827913Y-110699213D02*
X141893613Y-110625713D01*
X141775913Y-110781813D02*
X141827913Y-110699213D01*
X141734113Y-110870013D02*
X141775913Y-110781813D01*
X141701013Y-110961713D02*
X141734113Y-110870013D01*
X141674713Y-111054913D02*
X141701013Y-110961713D01*
X141653913Y-111149713D02*
X141674713Y-111054913D01*
X141637513Y-111245313D02*
X141653913Y-111149713D01*
X141624713Y-111341813D02*
X141637513Y-111245313D01*
X141614813Y-111438113D02*
X141624713Y-111341813D01*
X141607413Y-111534113D02*
X141614813Y-111438113D01*
X141601913Y-111630813D02*
X141607413Y-111534113D01*
X141598013Y-111727413D02*
X141601913Y-111630813D01*
X141595413Y-111824813D02*
X141598013Y-111727413D01*
X141593713Y-111922113D02*
X141595413Y-111824813D01*
X141592713Y-112019513D02*
X141593713Y-111922113D01*
X141592113Y-112116913D02*
X141592713Y-112019513D01*
X141591613Y-112214513D02*
X141592113Y-112116913D01*
X141590913Y-112311813D02*
X141591613Y-112214513D01*
X141589513Y-112409213D02*
X141590913Y-112311813D01*
X141584313Y-112506213D02*
X141589513Y-112409213D01*
X141576713Y-112603913D02*
X141584313Y-112506213D01*
X141568213Y-112702413D02*
X141576713Y-112603913D01*
X141558913Y-112800713D02*
X141568213Y-112702413D01*
X141548813Y-112898513D02*
X141558913Y-112800713D01*
X141537813Y-112996913D02*
X141548813Y-112898513D01*
X141526013Y-113095113D02*
X141537813Y-112996913D01*
X141513313Y-113192913D02*
X141526013Y-113095113D01*
X141499713Y-113290913D02*
X141513313Y-113192913D01*
X141485313Y-113388513D02*
X141499713Y-113290913D01*
X141470213Y-113485213D02*
X141485313Y-113388513D01*
X141454013Y-113582713D02*
X141470213Y-113485213D01*
X141436913Y-113679613D02*
X141454013Y-113582713D01*
X141419013Y-113776213D02*
X141436913Y-113679613D01*
X141400113Y-113872713D02*
X141419013Y-113776213D01*
X141380313Y-113969313D02*
X141400113Y-113872713D01*
X141359613Y-114065513D02*
X141380313Y-113969313D01*
X141337913Y-114161713D02*
X141359613Y-114065513D01*
X141315113Y-114257913D02*
X141337913Y-114161713D01*
X141291513Y-114353413D02*
X141315113Y-114257913D01*
X141266913Y-114449113D02*
X141291513Y-114353413D01*
X141241013Y-114545113D02*
X141266913Y-114449113D01*
X141214313Y-114640413D02*
X141241013Y-114545113D01*
X141186613Y-114735513D02*
X141214313Y-114640413D01*
X141157813Y-114830213D02*
X141186613Y-114735513D01*
X141128113Y-114924413D02*
X141157813Y-114830213D01*
X141097313Y-115018313D02*
X141128113Y-114924413D01*
X141065513Y-115111513D02*
X141097313Y-115018313D01*
X141033013Y-115203813D02*
X141065513Y-115111513D01*
X140999313Y-115295813D02*
X141033013Y-115203813D01*
X140964513Y-115387713D02*
X140999313Y-115295813D01*
X140928613Y-115479313D02*
X140964513Y-115387713D01*
X140891613Y-115570413D02*
X140928613Y-115479313D01*
X140853513Y-115660913D02*
X140891613Y-115570413D01*
X140814213Y-115751513D02*
X140853513Y-115660913D01*
X140773713Y-115841613D02*
X140814213Y-115751513D01*
X140732313Y-115930613D02*
X140773713Y-115841613D01*
X140689813Y-116019213D02*
X140732313Y-115930613D01*
X140645813Y-116108013D02*
X140689813Y-116019213D01*
X140600913Y-116195713D02*
X140645813Y-116108013D01*
X140554913Y-116282813D02*
X140600913Y-116195713D01*
X140507613Y-116369613D02*
X140554913Y-116282813D01*
X140458913Y-116456113D02*
X140507613Y-116369613D01*
X140409213Y-116541613D02*
X140458913Y-116456113D01*
X140358913Y-116625613D02*
X140409213Y-116541613D01*
X140307613Y-116708713D02*
X140358913Y-116625613D01*
X140254813Y-116791613D02*
X140307613Y-116708713D01*
X140200713Y-116874113D02*
X140254813Y-116791613D01*
X140145113Y-116956213D02*
X140200713Y-116874113D01*
X140088213Y-117037713D02*
X140145113Y-116956213D01*
X140030413Y-117118113D02*
X140088213Y-117037713D01*
X139971713Y-117197313D02*
X140030413Y-117118113D01*
X139912113Y-117275313D02*
X139971713Y-117197313D01*
X139851213Y-117352613D02*
X139912113Y-117275313D01*
X139788813Y-117429513D02*
X139851213Y-117352613D01*
X139725513Y-117505313D02*
X139788813Y-117429513D01*
X139661613Y-117579513D02*
X139725513Y-117505313D01*
X139596513Y-117652813D02*
X139661613Y-117579513D01*
X139530113Y-117725513D02*
X139596513Y-117652813D01*
X139462313Y-117797513D02*
X139530113Y-117725513D01*
X139393113Y-117868713D02*
X139462313Y-117797513D01*
X139322513Y-117939313D02*
X139393113Y-117868713D01*
X139251113Y-118009013D02*
X139322513Y-117939313D01*
X139178513Y-118078213D02*
X139251113Y-118009013D01*
X139105413Y-118146313D02*
X139178513Y-118078213D01*
X139032113Y-118213013D02*
X139105413Y-118146313D01*
X138957613Y-118279113D02*
X139032113Y-118213013D01*
X138882013Y-118344713D02*
X138957613Y-118279113D01*
X138806213Y-118408913D02*
X138882013Y-118344713D01*
X138729013Y-118472813D02*
X138806213Y-118408913D01*
X138650813Y-118535913D02*
X138729013Y-118472813D01*
X138572313Y-118597813D02*
X138650813Y-118535913D01*
X138493513Y-118658413D02*
X138572313Y-118597813D01*
X138413613Y-118718313D02*
X138493513Y-118658413D01*
X138333113Y-118777113D02*
X138413613Y-118718313D01*
X138251313Y-118835513D02*
X138333113Y-118777113D01*
X138169113Y-118892713D02*
X138251313Y-118835513D01*
X138086713Y-118948513D02*
X138169113Y-118892713D01*
X138003313Y-119003613D02*
X138086713Y-118948513D01*
X137919213Y-119057713D02*
X138003313Y-119003613D01*
X137834713Y-119110713D02*
X137919213Y-119057713D01*
X137749213Y-119162913D02*
X137834713Y-119110713D01*
X137663113Y-119214013D02*
X137749213Y-119162913D01*
X137577213Y-119263613D02*
X137663113Y-119214013D01*
X137489913Y-119312713D02*
X137577213Y-119263613D01*
X137401713Y-119360813D02*
X137489913Y-119312713D01*
X137313813Y-119407513D02*
X137401713Y-119360813D01*
X137224913Y-119453313D02*
X137313813Y-119407513D01*
X137135213Y-119498113D02*
X137224913Y-119453313D01*
X137045513Y-119541713D02*
X137135213Y-119498113D01*
X136955213Y-119584213D02*
X137045513Y-119541713D01*
X136864013Y-119625813D02*
X136955213Y-119584213D01*
X136772113Y-119666413D02*
X136864013Y-119625813D01*
X136679613Y-119705913D02*
X136772113Y-119666413D01*
X136586813Y-119744213D02*
X136679613Y-119705913D01*
X136493813Y-119781313D02*
X136586813Y-119744213D01*
X136401013Y-119817113D02*
X136493813Y-119781313D01*
X136307213Y-119852013D02*
X136401013Y-119817113D01*
X136213413Y-119885613D02*
X136307213Y-119852013D01*
X136118913Y-119918113D02*
X136213413Y-119885613D01*
X136023513Y-119949813D02*
X136118913Y-119918113D01*
X135928313Y-119980113D02*
X136023513Y-119949813D01*
X135832913Y-120009213D02*
X135928313Y-119980113D01*
X135736913Y-120037213D02*
X135832913Y-120009213D01*
X135640313Y-120064213D02*
X135736913Y-120037213D01*
X135543113Y-120090113D02*
X135640313Y-120064213D01*
X135445613Y-120114813D02*
X135543113Y-120090113D01*
X135347813Y-120138313D02*
X135445613Y-120114813D01*
X135249813Y-120160713D02*
X135347813Y-120138313D01*
X135151813Y-120181813D02*
X135249813Y-120160713D01*
X135053813Y-120201813D02*
X135151813Y-120181813D01*
X134955913Y-120220413D02*
X135053813Y-120201813D01*
X134857513Y-120238013D02*
X134955913Y-120220413D01*
X134758213Y-120254513D02*
X134857513Y-120238013D01*
X134658913Y-120269913D02*
X134758213Y-120254513D01*
X134560213Y-120283913D02*
X134658913Y-120269913D01*
X134461213Y-120296713D02*
X134560213Y-120283913D01*
X134361613Y-120308513D02*
X134461213Y-120296713D01*
X134262313Y-120319013D02*
X134361613Y-120308513D01*
X134163113Y-120328313D02*
X134262313Y-120319013D01*
X134063513Y-120336513D02*
X134163113Y-120328313D01*
X133963513Y-120343513D02*
X134063513Y-120336513D01*
X133863213Y-120349413D02*
X133963513Y-120343513D01*
X133763713Y-120354013D02*
X133863213Y-120349413D01*
X133663513Y-120357413D02*
X133763713Y-120354013D01*
X133563813Y-120359713D02*
X133663513Y-120357413D01*
X133463513Y-120360813D02*
X133563813Y-120359713D01*
X133363713Y-120360713D02*
X133463513Y-120360813D01*
X133263513Y-120359413D02*
X133363713Y-120360713D01*
X133162913Y-120356913D02*
X133263513Y-120359413D01*
X133062513Y-120353213D02*
X133162913Y-120356913D01*
X132962413Y-120348413D02*
X133062513Y-120353213D01*
X132862543Y-120342413D02*
X132962413Y-120348413D01*
X132763083Y-120335213D02*
X132862543Y-120342413D01*
X132664073Y-120326813D02*
X132763083Y-120335213D01*
X132564363Y-120317313D02*
X132664073Y-120326813D01*
X132464593Y-120306513D02*
X132564363Y-120317313D01*
X132365423Y-120294613D02*
X132464593Y-120306513D01*
X132266903Y-120281613D02*
X132365423Y-120294613D01*
X132167843Y-120267313D02*
X132266903Y-120281613D01*
X132068913Y-120251913D02*
X132167843Y-120267313D01*
X131970793Y-120235313D02*
X132068913Y-120251913D01*
X131872243Y-120217513D02*
X131970793Y-120235313D01*
X131773953Y-120198613D02*
X131872243Y-120217513D01*
X131676623Y-120178613D02*
X131773953Y-120198613D01*
X131578973Y-120157413D02*
X131676623Y-120178613D01*
X131481713Y-120135013D02*
X131578973Y-120157413D01*
X131384193Y-120111313D02*
X131481713Y-120135013D01*
X131287143Y-120086513D02*
X131384193Y-120111313D01*
X131190603Y-120060713D02*
X131287143Y-120086513D01*
X131094253Y-120033613D02*
X131190603Y-120060713D01*
X130998843Y-120005613D02*
X131094253Y-120033613D01*
X130903363Y-119976313D02*
X130998843Y-120005613D01*
X130808543Y-119946013D02*
X130903363Y-119976313D01*
X130713713Y-119914413D02*
X130808543Y-119946013D01*
X130619623Y-119881813D02*
X130713713Y-119914413D01*
X130525583Y-119848013D02*
X130619623Y-119881813D01*
X130432353Y-119813213D02*
X130525583Y-119848013D01*
X130339233Y-119777213D02*
X130432353Y-119813213D01*
X130246263Y-119739913D02*
X130339233Y-119777213D01*
X130153823Y-119701613D02*
X130246263Y-119739913D01*
X130061963Y-119662213D02*
X130153823Y-119701613D01*
X129970703Y-119621813D02*
X130061963Y-119662213D01*
X129879313Y-119580013D02*
X129970703Y-119621813D01*
X129788983Y-119537413D02*
X129879313Y-119580013D01*
X129698963Y-119493513D02*
X129788983Y-119537413D01*
X129609273Y-119448513D02*
X129698963Y-119493513D01*
X129520343Y-119402613D02*
X129609273Y-119448513D01*
X129432203Y-119355713D02*
X129520343Y-119402613D01*
X129344873Y-119307813D02*
X129432203Y-119355713D01*
X129257593Y-119258713D02*
X129344873Y-119307813D01*
X129170783Y-119208413D02*
X129257593Y-119258713D01*
X129084873Y-119157213D02*
X129170783Y-119208413D01*
X128999083Y-119104713D02*
X129084873Y-119157213D01*
X128914643Y-119051713D02*
X128999083Y-119104713D01*
X128830763Y-118997613D02*
X128914643Y-119051713D01*
X128747483Y-118942413D02*
X128830763Y-118997613D01*
X128665233Y-118886513D02*
X128747483Y-118942413D01*
X128583213Y-118829313D02*
X128665233Y-118886513D01*
X128501853Y-118771213D02*
X128583213Y-118829313D01*
X128421583Y-118712313D02*
X128501853Y-118771213D01*
X128341613Y-118652213D02*
X128421583Y-118712313D01*
X128262373Y-118591213D02*
X128341613Y-118652213D01*
X128184283Y-118529513D02*
X128262373Y-118591213D01*
X128106553Y-118466713D02*
X128184283Y-118529513D01*
X128029603Y-118402913D02*
X128106553Y-118466713D01*
X127953873Y-118338613D02*
X128029603Y-118402913D01*
X127878553Y-118273213D02*
X127953873Y-118338613D01*
X127804083Y-118206913D02*
X127878553Y-118273213D01*
X127730053Y-118139413D02*
X127804083Y-118206913D01*
X127656903Y-118071213D02*
X127730053Y-118139413D01*
X127584243Y-118001813D02*
X127656903Y-118071213D01*
X127512493Y-117931613D02*
X127584243Y-118001813D01*
X127441733Y-117860813D02*
X127512493Y-117931613D01*
X127372023Y-117789413D02*
X127441733Y-117860813D01*
X127302793Y-117716713D02*
X127372023Y-117789413D01*
X127234683Y-117643613D02*
X127302793Y-117716713D01*
X127168003Y-117570313D02*
X127234683Y-117643613D01*
X127101853Y-117495913D02*
X127168003Y-117570313D01*
X127036213Y-117420213D02*
X127101853Y-117495913D01*
X126971993Y-117344413D02*
X127036213Y-117420213D01*
X126908133Y-117267213D02*
X126971993Y-117344413D01*
X126844973Y-117189013D02*
X126908133Y-117267213D01*
X126783123Y-117110513D02*
X126844973Y-117189013D01*
X126722493Y-117031613D02*
X126783123Y-117110513D01*
X126662583Y-116951713D02*
X126722493Y-117031613D01*
X126603683Y-116871213D02*
X126662583Y-116951713D01*
X126545333Y-116789413D02*
X126603683Y-116871213D01*
X126488113Y-116707213D02*
X126545333Y-116789413D01*
X126432223Y-116624713D02*
X126488113Y-116707213D01*
X126377163Y-116541413D02*
X126432223Y-116624713D01*
X126322983Y-116457213D02*
X126377163Y-116541413D01*
X126270003Y-116372713D02*
X126322983Y-116457213D01*
X126217823Y-116287213D02*
X126270003Y-116372713D01*
X126166703Y-116201113D02*
X126217823Y-116287213D01*
X126117053Y-116115213D02*
X126166703Y-116201113D01*
X126067953Y-116027813D02*
X126117053Y-116115213D01*
X126019793Y-115939613D02*
X126067953Y-116027813D01*
X125973103Y-115851713D02*
X126019793Y-115939613D01*
X125927263Y-115762813D02*
X125973103Y-115851713D01*
X125882403Y-115673113D02*
X125927263Y-115762813D01*
X125838853Y-115583413D02*
X125882403Y-115673113D01*
X125796313Y-115493113D02*
X125838853Y-115583413D01*
X125754693Y-115401913D02*
X125796313Y-115493113D01*
X125714063Y-115309913D02*
X125754693Y-115401913D01*
X125674533Y-115217413D02*
X125714063Y-115309913D01*
X125636173Y-115124613D02*
X125674533Y-115217413D01*
X125599053Y-115031713D02*
X125636173Y-115124613D01*
X125563243Y-114938813D02*
X125599053Y-115031713D01*
X125528383Y-114845113D02*
X125563243Y-114938813D01*
X125494753Y-114751213D02*
X125528383Y-114845113D01*
X125462173Y-114656713D02*
X125494753Y-114751213D01*
X125430503Y-114561313D02*
X125462173Y-114656713D01*
X125400203Y-114466113D02*
X125430503Y-114561313D01*
X125371093Y-114370713D02*
X125400203Y-114466113D01*
X125343013Y-114274713D02*
X125371093Y-114370713D01*
X125316013Y-114178013D02*
X125343013Y-114274713D01*
X125290123Y-114080913D02*
X125316013Y-114178013D01*
X125265383Y-113983413D02*
X125290123Y-114080913D01*
X125241803Y-113885613D02*
X125265383Y-113983413D01*
X125219423Y-113787613D02*
X125241803Y-113885613D01*
X125198253Y-113689513D02*
X125219423Y-113787613D01*
X125178313Y-113591513D02*
X125198253Y-113689513D01*
X125159613Y-113493713D02*
X125178313Y-113591513D01*
X125142003Y-113395213D02*
X125159613Y-113493713D01*
X125125453Y-113295913D02*
X125142003Y-113395213D01*
X125110133Y-113196613D02*
X125125453Y-113295913D01*
X125096083Y-113097913D02*
X125110133Y-113196613D01*
X125083193Y-112998913D02*
X125096083Y-113097913D01*
X125071423Y-112899313D02*
X125083193Y-112998913D01*
X125060893Y-112800013D02*
X125071423Y-112899313D01*
X125051533Y-112700813D02*
X125060893Y-112800013D01*
X125043333Y-112601213D02*
X125051533Y-112700813D01*
X125036293Y-112501213D02*
X125043333Y-112601213D01*
X125030433Y-112400913D02*
X125036293Y-112501213D01*
X125025803Y-112301413D02*
X125030433Y-112400913D01*
X125022313Y-112201213D02*
X125025803Y-112301413D01*
X125020033Y-112101513D02*
X125022313Y-112201213D01*
X125018913Y-112001213D02*
X125020033Y-112101513D01*
X125018993Y-111901413D02*
X125018913Y-112001213D01*
X125020253Y-111801213D02*
X125018993Y-111901413D01*
X125022713Y-111700613D02*
X125020253Y-111801213D01*
X125026363Y-111600213D02*
X125022713Y-111700613D01*
X125031203Y-111500113D02*
X125026363Y-111600213D01*
X125037203Y-111400213D02*
X125031203Y-111500113D01*
X125044373Y-111300813D02*
X125037203Y-111400213D01*
X125052673Y-111201813D02*
X125044373Y-111300813D01*
X125062223Y-111102113D02*
X125052673Y-111201813D01*
X125072983Y-111002313D02*
X125062223Y-111102113D01*
X125084863Y-110903113D02*
X125072983Y-111002313D01*
X125097843Y-110804613D02*
X125084863Y-110903113D01*
X125112093Y-110705613D02*
X125097843Y-110804613D01*
X125127533Y-110606613D02*
X125112093Y-110705613D01*
X125144023Y-110508513D02*
X125127533Y-110606613D01*
X125161803Y-110410013D02*
X125144023Y-110508513D01*
X125180733Y-110311713D02*
X125161803Y-110410013D01*
X125200693Y-110214413D02*
X125180733Y-110311713D01*
X125221913Y-110116713D02*
X125200693Y-110214413D01*
X125244263Y-110019513D02*
X125221913Y-110116713D01*
X125267903Y-109922013D02*
X125244263Y-110019513D01*
X125292663Y-109824913D02*
X125267903Y-109922013D01*
X125318513Y-109728413D02*
X125292663Y-109824913D01*
X125345553Y-109632013D02*
X125318513Y-109728413D01*
X125373553Y-109536613D02*
X125345553Y-109632013D01*
X125402813Y-109441213D02*
X125373553Y-109536613D01*
X125433113Y-109346313D02*
X125402813Y-109441213D01*
X125464663Y-109251513D02*
X125433113Y-109346313D01*
X125497223Y-109157413D02*
X125464663Y-109251513D01*
X125531023Y-109063413D02*
X125497223Y-109157413D01*
X125565793Y-108970213D02*
X125531023Y-109063413D01*
X125601793Y-108877113D02*
X125565793Y-108970213D01*
X125639023Y-108784113D02*
X125601793Y-108877113D01*
X125677333Y-108691713D02*
X125639023Y-108784113D01*
X125716693Y-108599813D02*
X125677333Y-108691713D01*
X125757103Y-108508613D02*
X125716693Y-108599813D01*
X125798883Y-108417213D02*
X125757103Y-108508613D01*
X125841503Y-108326913D02*
X125798883Y-108417213D01*
X125885303Y-108236913D02*
X125841503Y-108326913D01*
X125930283Y-108147213D02*
X125885303Y-108236913D01*
X125976233Y-108058313D02*
X125930283Y-108147213D01*
X126023123Y-107970113D02*
X125976233Y-108058313D01*
X126070923Y-107882813D02*
X126023123Y-107970113D01*
X126120073Y-107795613D02*
X126070923Y-107882813D01*
X126170333Y-107708813D02*
X126120073Y-107795613D01*
X126221463Y-107622913D02*
X126170333Y-107708813D01*
X126273933Y-107537113D02*
X126221463Y-107622913D01*
X126326973Y-107452713D02*
X126273933Y-107537113D01*
X126381073Y-107368813D02*
X126326973Y-107452713D01*
X126436203Y-107285513D02*
X126381073Y-107368813D01*
X126492083Y-107203313D02*
X126436203Y-107285513D01*
X126549243Y-107121313D02*
X126492083Y-107203313D01*
X126607393Y-107039913D02*
X126549243Y-107121313D01*
X126666213Y-106959713D02*
X126607393Y-107039913D01*
X126726303Y-106879713D02*
X126666213Y-106959713D01*
X126787323Y-106800513D02*
X126726303Y-106879713D01*
X126848953Y-106722413D02*
X126787323Y-106800513D01*
X126911803Y-106644713D02*
X126848953Y-106722413D01*
X126975543Y-106567813D02*
X126911803Y-106644713D01*
X127039803Y-106492113D02*
X126975543Y-106567813D01*
X127105243Y-106416813D02*
X127039803Y-106492113D01*
X127171503Y-106342313D02*
X127105243Y-106416813D01*
X127238943Y-106268313D02*
X127171503Y-106342313D01*
X127307173Y-106195213D02*
X127238943Y-106268313D01*
X127376563Y-106122513D02*
X127307173Y-106195213D01*
X127446713Y-106050813D02*
X127376563Y-106122513D01*
X127517713Y-105980713D02*
X127446713Y-106050813D01*
X127589473Y-105911813D02*
X127517713Y-105980713D01*
X127662533Y-105843313D02*
X127589473Y-105911813D01*
X127736203Y-105775813D02*
X127662533Y-105843313D01*
X127810153Y-105709613D02*
X127736203Y-105775813D01*
X127885343Y-105643813D02*
X127810153Y-105709613D01*
X127961853Y-105578413D02*
X127885343Y-105643813D01*
X128038613Y-105514313D02*
X127961853Y-105578413D01*
X128115863Y-105451313D02*
X128038613Y-105514313D01*
X128193513Y-105389513D02*
X128115863Y-105451313D01*
X128272423Y-105328213D02*
X128193513Y-105389513D01*
X128352313Y-105267513D02*
X128272423Y-105328213D01*
X128432583Y-105208113D02*
X128352313Y-105267513D01*
X128513893Y-105149313D02*
X128432583Y-105208113D01*
X128595233Y-105092013D02*
X128513893Y-105149313D01*
X128676983Y-105035813D02*
X128595233Y-105092013D01*
X128759223Y-104980613D02*
X128676983Y-105035813D01*
X128842283Y-104926313D02*
X128759223Y-104980613D01*
X128926103Y-104872913D02*
X128842283Y-104926313D01*
X129010183Y-104820713D02*
X128926103Y-104872913D01*
X129095183Y-104769313D02*
X129010183Y-104820713D01*
X129181313Y-104718613D02*
X129095183Y-104769313D01*
X129268263Y-104668813D02*
X129181313Y-104718613D01*
X129355673Y-104620113D02*
X129268263Y-104668813D01*
X129443163Y-104572713D02*
X129355673Y-104620113D01*
X129531123Y-104526413D02*
X129443163Y-104572713D01*
X129619623Y-104481113D02*
X129531123Y-104526413D01*
X129709233Y-104436613D02*
X129619623Y-104481113D01*
X129799303Y-104393213D02*
X129709233Y-104436613D01*
X129889143Y-104351313D02*
X129799303Y-104393213D01*
X129979363Y-104310413D02*
X129889143Y-104351313D01*
X130070233Y-104270613D02*
X129979363Y-104310413D01*
X130161543Y-104231913D02*
X130070233Y-104270613D01*
X130253113Y-104194313D02*
X130161543Y-104231913D01*
X130345823Y-104157613D02*
X130253113Y-104194313D01*
X130438993Y-104122013D02*
X130345823Y-104157613D01*
X130533043Y-104087313D02*
X130438993Y-104122013D01*
X130627253Y-104053913D02*
X130533043Y-104087313D01*
X130722083Y-104021613D02*
X130627253Y-104053913D01*
X130816733Y-103990613D02*
X130722083Y-104021613D01*
X130911693Y-103960713D02*
X130816733Y-103990613D01*
X131007473Y-103931913D02*
X130911693Y-103960713D01*
X131103993Y-103904113D02*
X131007473Y-103931913D01*
X131200443Y-103877613D02*
X131103993Y-103904113D01*
X131296313Y-103852513D02*
X131200443Y-103877613D01*
X131392163Y-103828713D02*
X131296313Y-103852513D01*
X131488243Y-103806013D02*
X131392163Y-103828713D01*
X131585213Y-103784413D02*
X131488243Y-103806013D01*
X131682613Y-103763913D02*
X131585213Y-103784413D01*
X131780773Y-103744513D02*
X131682613Y-103763913D01*
X131879203Y-103726313D02*
X131780773Y-103744513D01*
X131977393Y-103709313D02*
X131879203Y-103726313D01*
X132075233Y-103693713D02*
X131977393Y-103709313D01*
X132148063Y-103688013D02*
X132075233Y-103693713D01*
X132266093Y-103677513D02*
X132148063Y-103688013D01*
X132362593Y-103665913D02*
X132266093Y-103677513D01*
X132459963Y-103655313D02*
X132362593Y-103665913D01*
X132557313Y-103645813D02*
X132459963Y-103655313D01*
X132654193Y-103637513D02*
X132557313Y-103645813D01*
X132751863Y-103630313D02*
X132654193Y-103637513D01*
X132849393Y-103624213D02*
X132751863Y-103630313D01*
X132946783Y-103619313D02*
X132849393Y-103624213D01*
X133044413Y-103615413D02*
X132946783Y-103619313D01*
X133141813Y-103612813D02*
X133044413Y-103615413D01*
X133240013Y-103611213D02*
X133141813Y-103612813D01*
X133338413Y-103605013D02*
X133240013Y-103611213D01*
X133437513Y-103599913D02*
X133338413Y-103605013D01*
X133536713Y-103598513D02*
X133437513Y-103599913D01*
X133636113Y-103600213D02*
X133536713Y-103598513D01*
X133735313Y-103604413D02*
X133636113Y-103600213D01*
X133834813Y-103610413D02*
X133735313Y-103604413D01*
X133934313Y-103617713D02*
X133834813Y-103610413D01*
X134033413Y-103625613D02*
X133934313Y-103617713D01*
X134131713Y-103633413D02*
X134033413Y-103625613D01*
X134231013Y-103640713D02*
X134131713Y-103633413D01*
X134331113Y-103646513D02*
X134231013Y-103640713D01*
X134431513Y-103649913D02*
X134331113Y-103646513D01*
X134531113Y-103649613D02*
X134431513Y-103649913D01*
X134630013Y-103644413D02*
X134531113Y-103649613D01*
X134729013Y-103632313D02*
X134630013Y-103644413D01*
X134826313Y-103610913D02*
X134729013Y-103632313D01*
X134919913Y-103577613D02*
X134826313Y-103610913D01*
X135006713Y-103530013D02*
X134919913Y-103577613D01*
X135082913Y-103467613D02*
X135006713Y-103530013D01*
X135143413Y-103391613D02*
X135082913Y-103467613D01*
X135183413Y-103302213D02*
X135143413Y-103391613D01*
X135208713Y-103206913D02*
X135183413Y-103302213D01*
X135223513Y-103109913D02*
X135208713Y-103206913D01*
X135231013Y-103012213D02*
X135223513Y-103109913D01*
X135233013Y-102914513D02*
X135231013Y-103012213D01*
X135230813Y-102816213D02*
X135233013Y-102914513D01*
X135225113Y-102717813D02*
X135230813Y-102816213D01*
X135216613Y-102619713D02*
X135225113Y-102717813D01*
X135205713Y-102522613D02*
X135216613Y-102619713D01*
X135192813Y-102424913D02*
X135205713Y-102522613D01*
X135178013Y-102326913D02*
X135192813Y-102424913D01*
X135161813Y-102230313D02*
X135178013Y-102326913D01*
X135144413Y-102134513D02*
X135161813Y-102230313D01*
X135125713Y-102038513D02*
X135144413Y-102134513D01*
X135105913Y-101942513D02*
X135125713Y-102038513D01*
X135084913Y-101846113D02*
X135105913Y-101942513D01*
X135063213Y-101750813D02*
X135084913Y-101846113D01*
X135040513Y-101655213D02*
X135063213Y-101750813D01*
X135017013Y-101559713D02*
X135040513Y-101655213D01*
X134992813Y-101464313D02*
X135017013Y-101559713D01*
X134967813Y-101368713D02*
X134992813Y-101464313D01*
X134942113Y-101273413D02*
X134967813Y-101368713D01*
X134916013Y-101178913D02*
X134942113Y-101273413D01*
X134889213Y-101084113D02*
X134916013Y-101178913D01*
X134861813Y-100989513D02*
X134889213Y-101084113D01*
X134834013Y-100895413D02*
X134861813Y-100989513D01*
X134805613Y-100801213D02*
X134834013Y-100895413D01*
X134776513Y-100706713D02*
X134805613Y-100801213D01*
X134747013Y-100612813D02*
X134776513Y-100706713D01*
X134717013Y-100519013D02*
X134747013Y-100612813D01*
X134686213Y-100424613D02*
X134717013Y-100519013D01*
X134654413Y-100329013D02*
X134686213Y-100424613D01*
X134613813Y-100210713D02*
X134654413Y-100329013D01*
X134601713Y-100145713D02*
X134613813Y-100210713D01*
X134584213Y-100048313D02*
X134601713Y-100145713D01*
X134567313Y-99950113D02*
X134584213Y-100048313D01*
X134551213Y-99852113D02*
X134567313Y-99950113D01*
X134536013Y-99754613D02*
X134551213Y-99852113D01*
X134521513Y-99656513D02*
X134536013Y-99754613D01*
X134507613Y-99557513D02*
X134521513Y-99656513D01*
X134494713Y-99459113D02*
X134507613Y-99557513D01*
X134482513Y-99360913D02*
X134494713Y-99459113D01*
X134471113Y-99263213D02*
X134482513Y-99360913D01*
X134460413Y-99164613D02*
X134471113Y-99263213D01*
X134450513Y-99065813D02*
X134460413Y-99164613D01*
X134441313Y-98966313D02*
X134450513Y-99065813D01*
X134432813Y-98866813D02*
X134441313Y-98966313D01*
X134425213Y-98767513D02*
X134432813Y-98866813D01*
X134418413Y-98668913D02*
X134425213Y-98767513D01*
X134412413Y-98569813D02*
X134418413Y-98668913D01*
X134407113Y-98471013D02*
X134412413Y-98569813D01*
X134402713Y-98372513D02*
X134407113Y-98471013D01*
X134399013Y-98273213D02*
X134402713Y-98372513D01*
X134396113Y-98174113D02*
X134399013Y-98273213D01*
X134393913Y-98075113D02*
X134396113Y-98174113D01*
X134392513Y-97975813D02*
X134393913Y-98075113D01*
X134392013Y-97876713D02*
X134392513Y-97975813D01*
X134392213Y-97778213D02*
X134392013Y-97876713D01*
X134393113Y-97679013D02*
X134392213Y-97778213D01*
X134394913Y-97580313D02*
X134393113Y-97679013D01*
X134397413Y-97481313D02*
X134394913Y-97580313D01*
X134400813Y-97381613D02*
X134397413Y-97481313D01*
X134404913Y-97282213D02*
X134400813Y-97381613D01*
X134409813Y-97182913D02*
X134404913Y-97282213D01*
X134415413Y-97083413D02*
X134409813Y-97182913D01*
X134421913Y-96984013D02*
X134415413Y-97083413D01*
X134429213Y-96884713D02*
X134421913Y-96984013D01*
X134437213Y-96785913D02*
X134429213Y-96884713D01*
X134446013Y-96686613D02*
X134437213Y-96785913D01*
X134455613Y-96587413D02*
X134446013Y-96686613D01*
X134465913Y-96489213D02*
X134455613Y-96587413D01*
X134477013Y-96390913D02*
X134465913Y-96489213D01*
X134488913Y-96292013D02*
X134477013Y-96390913D01*
X134501513Y-96194013D02*
X134488913Y-96292013D01*
X134514813Y-96096313D02*
X134501513Y-96194013D01*
X134529013Y-95998413D02*
X134514813Y-96096313D01*
X134543913Y-95900313D02*
X134529013Y-95998413D01*
X134559613Y-95802213D02*
X134543913Y-95900313D01*
X134576113Y-95704113D02*
X134559613Y-95802213D01*
X134593413Y-95606213D02*
X134576113Y-95704113D01*
X134611413Y-95508613D02*
X134593413Y-95606213D01*
X134630113Y-95411413D02*
X134611413Y-95508613D01*
X134649513Y-95314613D02*
X134630113Y-95411413D01*
X134669713Y-95217513D02*
X134649513Y-95314613D01*
X134690813Y-95119913D02*
X134669713Y-95217513D01*
X134712613Y-95022613D02*
X134690813Y-95119913D01*
X134735113Y-94926013D02*
X134712613Y-95022613D01*
X134758313Y-94829513D02*
X134735113Y-94926013D01*
X134782413Y-94732713D02*
X134758313Y-94829513D01*
X134807113Y-94636513D02*
X134782413Y-94732713D01*
X134832513Y-94540513D02*
X134807113Y-94636513D01*
X134858813Y-94444413D02*
X134832513Y-94540513D01*
X134885613Y-94349113D02*
X134858813Y-94444413D01*
X134913113Y-94254213D02*
X134885613Y-94349113D01*
X134941313Y-94159413D02*
X134913113Y-94254213D01*
X134970213Y-94064613D02*
X134941313Y-94159413D01*
X135000013Y-93970013D02*
X134970213Y-94064613D01*
X135030413Y-93875513D02*
X135000013Y-93970013D01*
X135061513Y-93781313D02*
X135030413Y-93875513D01*
X135093413Y-93687313D02*
X135061513Y-93781313D01*
X135125913Y-93593613D02*
X135093413Y-93687313D01*
X135159013Y-93500413D02*
X135125913Y-93593613D01*
X135192813Y-93407513D02*
X135159013Y-93500413D01*
X135227613Y-93314113D02*
X135192813Y-93407513D01*
X135263113Y-93220513D02*
X135227613Y-93314113D01*
X135299313Y-93127613D02*
X135263113Y-93220513D01*
X135336013Y-93035213D02*
X135299313Y-93127613D01*
X135373313Y-92943413D02*
X135336013Y-93035213D01*
X135411013Y-92852413D02*
X135373313Y-92943413D01*
X135449713Y-92760913D02*
X135411013Y-92852413D01*
X135489013Y-92669613D02*
X135449713Y-92760913D01*
X135528913Y-92579113D02*
X135489013Y-92669613D01*
X135569613Y-92488213D02*
X135528913Y-92579113D01*
X135611013Y-92397713D02*
X135569613Y-92488213D01*
X135652713Y-92308013D02*
X135611013Y-92397713D01*
X135695413Y-92218113D02*
X135652713Y-92308013D01*
X135738713Y-92128613D02*
X135695413Y-92218113D01*
X135782213Y-92040113D02*
X135738713Y-92128613D01*
X135826613Y-91951413D02*
X135782213Y-92040113D01*
X135871513Y-91863213D02*
X135826613Y-91951413D01*
X135917313Y-91774813D02*
X135871513Y-91863213D01*
X135963613Y-91687013D02*
X135917313Y-91774813D01*
X136010813Y-91599113D02*
X135963613Y-91687013D01*
X136058413Y-91511713D02*
X136010813Y-91599113D01*
X136106413Y-91425013D02*
X136058413Y-91511713D01*
X136155113Y-91338513D02*
X136106413Y-91425013D01*
X136204413Y-91252413D02*
X136155113Y-91338513D01*
X136254213Y-91166713D02*
X136204413Y-91252413D01*
X136304613Y-91081313D02*
X136254213Y-91166713D01*
X136355613Y-90996413D02*
X136304613Y-91081313D01*
X136407413Y-90911113D02*
X136355613Y-90996413D01*
X136459613Y-90826713D02*
X136407413Y-90911113D01*
X136512513Y-90742413D02*
X136459613Y-90826713D01*
X136565713Y-90658913D02*
X136512513Y-90742413D01*
X136619613Y-90575613D02*
X136565713Y-90658913D01*
X136674113Y-90492413D02*
X136619613Y-90575613D01*
X136729013Y-90409813D02*
X136674113Y-90492413D01*
X136784913Y-90327013D02*
X136729013Y-90409813D01*
X136840913Y-90245213D02*
X136784913Y-90327013D01*
X136897513Y-90163613D02*
X136840913Y-90245213D01*
X136954713Y-90082313D02*
X136897513Y-90163613D01*
X137012213Y-90001713D02*
X136954713Y-90082313D01*
X137070613Y-89920913D02*
X137012213Y-90001713D01*
X137129613Y-89840513D02*
X137070613Y-89920913D01*
X137188913Y-89760813D02*
X137129613Y-89840513D01*
X137248913Y-89681013D02*
X137188913Y-89760813D01*
X137309013Y-89602313D02*
X137248913Y-89681013D01*
X137369513Y-89524113D02*
X137309013Y-89602313D01*
X137431113Y-89445413D02*
X137369513Y-89524113D01*
X137493313Y-89367113D02*
X137431113Y-89445413D01*
X137555613Y-89289713D02*
X137493313Y-89367113D01*
X137618613Y-89212213D02*
X137555613Y-89289713D01*
X137682113Y-89135213D02*
X137618613Y-89212213D01*
X137745713Y-89059113D02*
X137682113Y-89135213D01*
X137810113Y-88983113D02*
X137745713Y-89059113D01*
X137874813Y-88907513D02*
X137810113Y-88983113D01*
X137939613Y-88832813D02*
X137874813Y-88907513D01*
X138005113Y-88758213D02*
X137939613Y-88832813D01*
X138070913Y-88684213D02*
X138005113Y-88758213D01*
X138137413Y-88610313D02*
X138070913Y-88684213D01*
X138204313Y-88536913D02*
X138137413Y-88610313D01*
X138271813Y-88463713D02*
X138204313Y-88536913D01*
X138339613Y-88391113D02*
X138271813Y-88463713D01*
X138408013Y-88318613D02*
X138339613Y-88391113D01*
X138476713Y-88246713D02*
X138408013Y-88318613D01*
X138546113Y-88175013D02*
X138476713Y-88246713D01*
X138615613Y-88104013D02*
X138546113Y-88175013D01*
X138638913Y-88080413D02*
X138615613Y-88104013D01*
%TD*%
M02*
