%TF.GenerationSoftware,KiCad,Pcbnew,6.0.1-79c1e3a40b~116~ubuntu20.04.1*%
%TF.CreationDate,2022-02-07T17:34:28-08:00*%
%TF.ProjectId,MirageR1,4d697261-6765-4523-912e-6b696361645f,rev?*%
%TF.SameCoordinates,Original*%
%TF.FileFunction,Soldermask,Top*%
%TF.FilePolarity,Negative*%
%FSLAX46Y46*%
G04 Gerber Fmt 4.6, Leading zero omitted, Abs format (unit mm)*
G04 Created by KiCad (PCBNEW 6.0.1-79c1e3a40b~116~ubuntu20.04.1) date 2022-02-07 17:34:28*
%MOMM*%
%LPD*%
G01*
G04 APERTURE LIST*
G04 Aperture macros list*
%AMRoundRect*
0 Rectangle with rounded corners*
0 $1 Rounding radius*
0 $2 $3 $4 $5 $6 $7 $8 $9 X,Y pos of 4 corners*
0 Add a 4 corners polygon primitive as box body*
4,1,4,$2,$3,$4,$5,$6,$7,$8,$9,$2,$3,0*
0 Add four circle primitives for the rounded corners*
1,1,$1+$1,$2,$3*
1,1,$1+$1,$4,$5*
1,1,$1+$1,$6,$7*
1,1,$1+$1,$8,$9*
0 Add four rect primitives between the rounded corners*
20,1,$1+$1,$2,$3,$4,$5,0*
20,1,$1+$1,$4,$5,$6,$7,0*
20,1,$1+$1,$6,$7,$8,$9,0*
20,1,$1+$1,$8,$9,$2,$3,0*%
G04 Aperture macros list end*
%ADD10C,0.300000*%
%ADD11C,0.010000*%
%ADD12RoundRect,0.250000X0.088388X-0.548008X0.548008X-0.088388X-0.088388X0.548008X-0.548008X0.088388X0*%
%ADD13RoundRect,0.250000X-0.325000X-0.450000X0.325000X-0.450000X0.325000X0.450000X-0.325000X0.450000X0*%
%ADD14RoundRect,0.250000X0.450000X-0.325000X0.450000X0.325000X-0.450000X0.325000X-0.450000X-0.325000X0*%
%ADD15C,0.900000*%
G04 APERTURE END LIST*
D10*
X163256723Y-89230679D02*
G75*
G03*
X163256723Y-89230679I-600000J0D01*
G01*
X149522486Y-86105418D02*
G75*
G03*
X149522486Y-86105418I-600000J0D01*
G01*
X137339428Y-96698075D02*
G75*
G03*
X137339428Y-96698075I-600000J0D01*
G01*
X137073193Y-98496488D02*
G75*
G03*
X137073193Y-98496488I-600000J0D01*
G01*
D11*
%TO.C,Ref\u002A\u002A*%
X152824936Y-89582535D02*
X152831064Y-89586680D01*
X152831064Y-89586680D02*
X152832587Y-89588497D01*
X152832587Y-89588497D02*
X152862396Y-89635234D01*
X152862396Y-89635234D02*
X152905150Y-89712795D01*
X152905150Y-89712795D02*
X152956923Y-89813179D01*
X152956923Y-89813179D02*
X153013790Y-89928383D01*
X153013790Y-89928383D02*
X153071825Y-90050405D01*
X153071825Y-90050405D02*
X153127104Y-90171243D01*
X153127104Y-90171243D02*
X153175700Y-90282894D01*
X153175700Y-90282894D02*
X153189452Y-90315993D01*
X153189452Y-90315993D02*
X153321065Y-90675253D01*
X153321065Y-90675253D02*
X153419482Y-91027687D01*
X153419482Y-91027687D02*
X153484460Y-91370470D01*
X153484460Y-91370470D02*
X153515753Y-91700778D01*
X153515753Y-91700778D02*
X153513117Y-92015784D01*
X153513117Y-92015784D02*
X153476308Y-92312664D01*
X153476308Y-92312664D02*
X153405081Y-92588594D01*
X153405081Y-92588594D02*
X153389921Y-92632138D01*
X153389921Y-92632138D02*
X153283704Y-92867105D01*
X153283704Y-92867105D02*
X153139231Y-93095194D01*
X153139231Y-93095194D02*
X152960497Y-93312212D01*
X152960497Y-93312212D02*
X152751495Y-93513966D01*
X152751495Y-93513966D02*
X152516218Y-93696261D01*
X152516218Y-93696261D02*
X152258661Y-93854904D01*
X152258661Y-93854904D02*
X152192189Y-93889904D01*
X152192189Y-93889904D02*
X151930178Y-94009066D01*
X151930178Y-94009066D02*
X151669222Y-94097106D01*
X151669222Y-94097106D02*
X151396011Y-94157825D01*
X151396011Y-94157825D02*
X151136497Y-94191527D01*
X151136497Y-94191527D02*
X151008987Y-94202487D01*
X151008987Y-94202487D02*
X150904173Y-94208363D01*
X150904173Y-94208363D02*
X150807151Y-94209140D01*
X150807151Y-94209140D02*
X150703018Y-94204802D01*
X150703018Y-94204802D02*
X150576871Y-94195334D01*
X150576871Y-94195334D02*
X150525959Y-94190912D01*
X150525959Y-94190912D02*
X150226809Y-94150538D01*
X150226809Y-94150538D02*
X149906480Y-94081286D01*
X149906480Y-94081286D02*
X149573011Y-93984914D01*
X149573011Y-93984914D02*
X149548997Y-93977070D01*
X149548997Y-93977070D02*
X149425612Y-93934541D01*
X149425612Y-93934541D02*
X149296113Y-93886576D01*
X149296113Y-93886576D02*
X149166808Y-93835874D01*
X149166808Y-93835874D02*
X149044005Y-93785135D01*
X149044005Y-93785135D02*
X148934014Y-93737059D01*
X148934014Y-93737059D02*
X148843142Y-93694346D01*
X148843142Y-93694346D02*
X148777698Y-93659696D01*
X148777698Y-93659696D02*
X148743992Y-93635808D01*
X148743992Y-93635808D02*
X148741060Y-93631299D01*
X148741060Y-93631299D02*
X148754915Y-93614064D01*
X148754915Y-93614064D02*
X148797041Y-93568688D01*
X148797041Y-93568688D02*
X148865723Y-93496910D01*
X148865723Y-93496910D02*
X148959245Y-93400469D01*
X148959245Y-93400469D02*
X149075890Y-93281103D01*
X149075890Y-93281103D02*
X149213943Y-93140552D01*
X149213943Y-93140552D02*
X149371688Y-92980555D01*
X149371688Y-92980555D02*
X149547409Y-92802852D01*
X149547409Y-92802852D02*
X149739389Y-92609180D01*
X149739389Y-92609180D02*
X149945912Y-92401279D01*
X149945912Y-92401279D02*
X150165263Y-92180889D01*
X150165263Y-92180889D02*
X150395725Y-91949748D01*
X150395725Y-91949748D02*
X150635583Y-91709595D01*
X150635583Y-91709595D02*
X150767053Y-91578132D01*
X150767053Y-91578132D02*
X151054799Y-91290565D01*
X151054799Y-91290565D02*
X151314132Y-91031504D01*
X151314132Y-91031504D02*
X151546553Y-90799501D01*
X151546553Y-90799501D02*
X151753565Y-90593110D01*
X151753565Y-90593110D02*
X151936669Y-90410883D01*
X151936669Y-90410883D02*
X152097368Y-90251373D01*
X152097368Y-90251373D02*
X152237164Y-90113135D01*
X152237164Y-90113135D02*
X152357559Y-89994719D01*
X152357559Y-89994719D02*
X152460055Y-89894681D01*
X152460055Y-89894681D02*
X152546155Y-89811572D01*
X152546155Y-89811572D02*
X152617360Y-89743946D01*
X152617360Y-89743946D02*
X152675173Y-89690356D01*
X152675173Y-89690356D02*
X152721097Y-89649354D01*
X152721097Y-89649354D02*
X152756632Y-89619494D01*
X152756632Y-89619494D02*
X152783281Y-89599330D01*
X152783281Y-89599330D02*
X152802547Y-89587413D01*
X152802547Y-89587413D02*
X152815931Y-89582297D01*
X152815931Y-89582297D02*
X152824936Y-89582535D01*
X152824936Y-89582535D02*
X152824936Y-89582535D01*
G36*
X152824936Y-89582535D02*
G01*
X152831064Y-89586680D01*
X152832587Y-89588497D01*
X152862396Y-89635234D01*
X152905150Y-89712795D01*
X152956923Y-89813179D01*
X153013790Y-89928383D01*
X153071825Y-90050405D01*
X153127104Y-90171243D01*
X153175700Y-90282894D01*
X153189452Y-90315993D01*
X153321065Y-90675253D01*
X153419482Y-91027687D01*
X153484460Y-91370470D01*
X153515753Y-91700778D01*
X153513117Y-92015784D01*
X153476308Y-92312664D01*
X153405081Y-92588594D01*
X153389921Y-92632138D01*
X153283704Y-92867105D01*
X153139231Y-93095194D01*
X152960497Y-93312212D01*
X152751495Y-93513966D01*
X152516218Y-93696261D01*
X152258661Y-93854904D01*
X152192189Y-93889904D01*
X151930178Y-94009066D01*
X151669222Y-94097106D01*
X151396011Y-94157825D01*
X151136497Y-94191527D01*
X151008987Y-94202487D01*
X150904173Y-94208363D01*
X150807151Y-94209140D01*
X150703018Y-94204802D01*
X150576871Y-94195334D01*
X150525959Y-94190912D01*
X150226809Y-94150538D01*
X149906480Y-94081286D01*
X149573011Y-93984914D01*
X149548997Y-93977070D01*
X149425612Y-93934541D01*
X149296113Y-93886576D01*
X149166808Y-93835874D01*
X149044005Y-93785135D01*
X148934014Y-93737059D01*
X148843142Y-93694346D01*
X148777698Y-93659696D01*
X148743992Y-93635808D01*
X148741060Y-93631299D01*
X148754915Y-93614064D01*
X148797041Y-93568688D01*
X148865723Y-93496910D01*
X148959245Y-93400469D01*
X149075890Y-93281103D01*
X149213943Y-93140552D01*
X149371688Y-92980555D01*
X149547409Y-92802852D01*
X149739389Y-92609180D01*
X149945912Y-92401279D01*
X150165263Y-92180889D01*
X150395725Y-91949748D01*
X150635583Y-91709595D01*
X150767053Y-91578132D01*
X151054799Y-91290565D01*
X151314132Y-91031504D01*
X151546553Y-90799501D01*
X151753565Y-90593110D01*
X151936669Y-90410883D01*
X152097368Y-90251373D01*
X152237164Y-90113135D01*
X152357559Y-89994719D01*
X152460055Y-89894681D01*
X152546155Y-89811572D01*
X152617360Y-89743946D01*
X152675173Y-89690356D01*
X152721097Y-89649354D01*
X152756632Y-89619494D01*
X152783281Y-89599330D01*
X152802547Y-89587413D01*
X152815931Y-89582297D01*
X152824936Y-89582535D01*
G37*
X152824936Y-89582535D02*
X152831064Y-89586680D01*
X152832587Y-89588497D01*
X152862396Y-89635234D01*
X152905150Y-89712795D01*
X152956923Y-89813179D01*
X153013790Y-89928383D01*
X153071825Y-90050405D01*
X153127104Y-90171243D01*
X153175700Y-90282894D01*
X153189452Y-90315993D01*
X153321065Y-90675253D01*
X153419482Y-91027687D01*
X153484460Y-91370470D01*
X153515753Y-91700778D01*
X153513117Y-92015784D01*
X153476308Y-92312664D01*
X153405081Y-92588594D01*
X153389921Y-92632138D01*
X153283704Y-92867105D01*
X153139231Y-93095194D01*
X152960497Y-93312212D01*
X152751495Y-93513966D01*
X152516218Y-93696261D01*
X152258661Y-93854904D01*
X152192189Y-93889904D01*
X151930178Y-94009066D01*
X151669222Y-94097106D01*
X151396011Y-94157825D01*
X151136497Y-94191527D01*
X151008987Y-94202487D01*
X150904173Y-94208363D01*
X150807151Y-94209140D01*
X150703018Y-94204802D01*
X150576871Y-94195334D01*
X150525959Y-94190912D01*
X150226809Y-94150538D01*
X149906480Y-94081286D01*
X149573011Y-93984914D01*
X149548997Y-93977070D01*
X149425612Y-93934541D01*
X149296113Y-93886576D01*
X149166808Y-93835874D01*
X149044005Y-93785135D01*
X148934014Y-93737059D01*
X148843142Y-93694346D01*
X148777698Y-93659696D01*
X148743992Y-93635808D01*
X148741060Y-93631299D01*
X148754915Y-93614064D01*
X148797041Y-93568688D01*
X148865723Y-93496910D01*
X148959245Y-93400469D01*
X149075890Y-93281103D01*
X149213943Y-93140552D01*
X149371688Y-92980555D01*
X149547409Y-92802852D01*
X149739389Y-92609180D01*
X149945912Y-92401279D01*
X150165263Y-92180889D01*
X150395725Y-91949748D01*
X150635583Y-91709595D01*
X150767053Y-91578132D01*
X151054799Y-91290565D01*
X151314132Y-91031504D01*
X151546553Y-90799501D01*
X151753565Y-90593110D01*
X151936669Y-90410883D01*
X152097368Y-90251373D01*
X152237164Y-90113135D01*
X152357559Y-89994719D01*
X152460055Y-89894681D01*
X152546155Y-89811572D01*
X152617360Y-89743946D01*
X152675173Y-89690356D01*
X152721097Y-89649354D01*
X152756632Y-89619494D01*
X152783281Y-89599330D01*
X152802547Y-89587413D01*
X152815931Y-89582297D01*
X152824936Y-89582535D01*
X144251489Y-98454960D02*
X144282816Y-98507113D01*
X144282816Y-98507113D02*
X144323170Y-98586264D01*
X144323170Y-98586264D02*
X144369734Y-98686057D01*
X144369734Y-98686057D02*
X144419690Y-98800132D01*
X144419690Y-98800132D02*
X144470220Y-98922135D01*
X144470220Y-98922135D02*
X144518508Y-99045706D01*
X144518508Y-99045706D02*
X144561736Y-99164488D01*
X144561736Y-99164488D02*
X144583779Y-99229913D01*
X144583779Y-99229913D02*
X144698448Y-99632278D01*
X144698448Y-99632278D02*
X144775105Y-100016253D01*
X144775105Y-100016253D02*
X144813753Y-100382074D01*
X144813753Y-100382074D02*
X144814397Y-100729979D01*
X144814397Y-100729979D02*
X144777041Y-101060202D01*
X144777041Y-101060202D02*
X144701687Y-101372982D01*
X144701687Y-101372982D02*
X144620216Y-101596315D01*
X144620216Y-101596315D02*
X144495140Y-101842309D01*
X144495140Y-101842309D02*
X144333151Y-102079894D01*
X144333151Y-102079894D02*
X144139503Y-102304436D01*
X144139503Y-102304436D02*
X143919447Y-102511301D01*
X143919447Y-102511301D02*
X143678235Y-102695855D01*
X143678235Y-102695855D02*
X143421120Y-102853463D01*
X143421120Y-102853463D02*
X143153353Y-102979492D01*
X143153353Y-102979492D02*
X142984191Y-103039771D01*
X142984191Y-103039771D02*
X142803464Y-103091590D01*
X142803464Y-103091590D02*
X142634792Y-103129110D01*
X142634792Y-103129110D02*
X142464112Y-103154507D01*
X142464112Y-103154507D02*
X142277360Y-103169956D01*
X142277360Y-103169956D02*
X142098330Y-103176823D01*
X142098330Y-103176823D02*
X141975372Y-103179144D01*
X141975372Y-103179144D02*
X141863983Y-103180132D01*
X141863983Y-103180132D02*
X141772443Y-103179799D01*
X141772443Y-103179799D02*
X141709034Y-103178158D01*
X141709034Y-103178158D02*
X141685580Y-103176197D01*
X141685580Y-103176197D02*
X141640993Y-103169470D01*
X141640993Y-103169470D02*
X141567517Y-103159405D01*
X141567517Y-103159405D02*
X141478288Y-103147780D01*
X141478288Y-103147780D02*
X141442163Y-103143222D01*
X141442163Y-103143222D02*
X141314004Y-103122906D01*
X141314004Y-103122906D02*
X141163703Y-103092120D01*
X141163703Y-103092120D02*
X140999884Y-103053287D01*
X140999884Y-103053287D02*
X140831175Y-103008833D01*
X140831175Y-103008833D02*
X140666202Y-102961182D01*
X140666202Y-102961182D02*
X140513592Y-102912759D01*
X140513592Y-102912759D02*
X140381969Y-102865989D01*
X140381969Y-102865989D02*
X140279961Y-102823297D01*
X140279961Y-102823297D02*
X140249551Y-102807996D01*
X140249551Y-102807996D02*
X140255919Y-102793830D01*
X140255919Y-102793830D02*
X140284609Y-102755921D01*
X140284609Y-102755921D02*
X140336165Y-102693663D01*
X140336165Y-102693663D02*
X140411131Y-102606448D01*
X140411131Y-102606448D02*
X140510052Y-102493669D01*
X140510052Y-102493669D02*
X140633470Y-102354718D01*
X140633470Y-102354718D02*
X140781931Y-102188988D01*
X140781931Y-102188988D02*
X140955977Y-101995871D01*
X140955977Y-101995871D02*
X141156155Y-101774760D01*
X141156155Y-101774760D02*
X141383006Y-101525048D01*
X141383006Y-101525048D02*
X141637075Y-101246128D01*
X141637075Y-101246128D02*
X141918907Y-100937391D01*
X141918907Y-100937391D02*
X142214270Y-100614377D01*
X142214270Y-100614377D02*
X142450801Y-100356076D01*
X142450801Y-100356076D02*
X142679682Y-100106497D01*
X142679682Y-100106497D02*
X142899272Y-99867414D01*
X142899272Y-99867414D02*
X143107928Y-99640601D01*
X143107928Y-99640601D02*
X143304006Y-99427831D01*
X143304006Y-99427831D02*
X143485865Y-99230877D01*
X143485865Y-99230877D02*
X143651861Y-99051512D01*
X143651861Y-99051512D02*
X143800351Y-98891511D01*
X143800351Y-98891511D02*
X143929693Y-98752647D01*
X143929693Y-98752647D02*
X144038244Y-98636693D01*
X144038244Y-98636693D02*
X144124361Y-98545423D01*
X144124361Y-98545423D02*
X144186401Y-98480610D01*
X144186401Y-98480610D02*
X144222721Y-98444027D01*
X144222721Y-98444027D02*
X144232007Y-98436163D01*
X144232007Y-98436163D02*
X144251489Y-98454960D01*
X144251489Y-98454960D02*
X144251489Y-98454960D01*
G36*
X144251489Y-98454960D02*
G01*
X144282816Y-98507113D01*
X144323170Y-98586264D01*
X144369734Y-98686057D01*
X144419690Y-98800132D01*
X144470220Y-98922135D01*
X144518508Y-99045706D01*
X144561736Y-99164488D01*
X144583779Y-99229913D01*
X144698448Y-99632278D01*
X144775105Y-100016253D01*
X144813753Y-100382074D01*
X144814397Y-100729979D01*
X144777041Y-101060202D01*
X144701687Y-101372982D01*
X144620216Y-101596315D01*
X144495140Y-101842309D01*
X144333151Y-102079894D01*
X144139503Y-102304436D01*
X143919447Y-102511301D01*
X143678235Y-102695855D01*
X143421120Y-102853463D01*
X143153353Y-102979492D01*
X142984191Y-103039771D01*
X142803464Y-103091590D01*
X142634792Y-103129110D01*
X142464112Y-103154507D01*
X142277360Y-103169956D01*
X142098330Y-103176823D01*
X141975372Y-103179144D01*
X141863983Y-103180132D01*
X141772443Y-103179799D01*
X141709034Y-103178158D01*
X141685580Y-103176197D01*
X141640993Y-103169470D01*
X141567517Y-103159405D01*
X141478288Y-103147780D01*
X141442163Y-103143222D01*
X141314004Y-103122906D01*
X141163703Y-103092120D01*
X140999884Y-103053287D01*
X140831175Y-103008833D01*
X140666202Y-102961182D01*
X140513592Y-102912759D01*
X140381969Y-102865989D01*
X140279961Y-102823297D01*
X140249551Y-102807996D01*
X140255919Y-102793830D01*
X140284609Y-102755921D01*
X140336165Y-102693663D01*
X140411131Y-102606448D01*
X140510052Y-102493669D01*
X140633470Y-102354718D01*
X140781931Y-102188988D01*
X140955977Y-101995871D01*
X141156155Y-101774760D01*
X141383006Y-101525048D01*
X141637075Y-101246128D01*
X141918907Y-100937391D01*
X142214270Y-100614377D01*
X142450801Y-100356076D01*
X142679682Y-100106497D01*
X142899272Y-99867414D01*
X143107928Y-99640601D01*
X143304006Y-99427831D01*
X143485865Y-99230877D01*
X143651861Y-99051512D01*
X143800351Y-98891511D01*
X143929693Y-98752647D01*
X144038244Y-98636693D01*
X144124361Y-98545423D01*
X144186401Y-98480610D01*
X144222721Y-98444027D01*
X144232007Y-98436163D01*
X144251489Y-98454960D01*
G37*
X144251489Y-98454960D02*
X144282816Y-98507113D01*
X144323170Y-98586264D01*
X144369734Y-98686057D01*
X144419690Y-98800132D01*
X144470220Y-98922135D01*
X144518508Y-99045706D01*
X144561736Y-99164488D01*
X144583779Y-99229913D01*
X144698448Y-99632278D01*
X144775105Y-100016253D01*
X144813753Y-100382074D01*
X144814397Y-100729979D01*
X144777041Y-101060202D01*
X144701687Y-101372982D01*
X144620216Y-101596315D01*
X144495140Y-101842309D01*
X144333151Y-102079894D01*
X144139503Y-102304436D01*
X143919447Y-102511301D01*
X143678235Y-102695855D01*
X143421120Y-102853463D01*
X143153353Y-102979492D01*
X142984191Y-103039771D01*
X142803464Y-103091590D01*
X142634792Y-103129110D01*
X142464112Y-103154507D01*
X142277360Y-103169956D01*
X142098330Y-103176823D01*
X141975372Y-103179144D01*
X141863983Y-103180132D01*
X141772443Y-103179799D01*
X141709034Y-103178158D01*
X141685580Y-103176197D01*
X141640993Y-103169470D01*
X141567517Y-103159405D01*
X141478288Y-103147780D01*
X141442163Y-103143222D01*
X141314004Y-103122906D01*
X141163703Y-103092120D01*
X140999884Y-103053287D01*
X140831175Y-103008833D01*
X140666202Y-102961182D01*
X140513592Y-102912759D01*
X140381969Y-102865989D01*
X140279961Y-102823297D01*
X140249551Y-102807996D01*
X140255919Y-102793830D01*
X140284609Y-102755921D01*
X140336165Y-102693663D01*
X140411131Y-102606448D01*
X140510052Y-102493669D01*
X140633470Y-102354718D01*
X140781931Y-102188988D01*
X140955977Y-101995871D01*
X141156155Y-101774760D01*
X141383006Y-101525048D01*
X141637075Y-101246128D01*
X141918907Y-100937391D01*
X142214270Y-100614377D01*
X142450801Y-100356076D01*
X142679682Y-100106497D01*
X142899272Y-99867414D01*
X143107928Y-99640601D01*
X143304006Y-99427831D01*
X143485865Y-99230877D01*
X143651861Y-99051512D01*
X143800351Y-98891511D01*
X143929693Y-98752647D01*
X144038244Y-98636693D01*
X144124361Y-98545423D01*
X144186401Y-98480610D01*
X144222721Y-98444027D01*
X144232007Y-98436163D01*
X144251489Y-98454960D01*
X157182020Y-92093124D02*
X157224005Y-92142790D01*
X157224005Y-92142790D02*
X157281136Y-92220124D01*
X157281136Y-92220124D02*
X157350325Y-92320675D01*
X157350325Y-92320675D02*
X157428485Y-92439990D01*
X157428485Y-92439990D02*
X157512530Y-92573617D01*
X157512530Y-92573617D02*
X157576536Y-92678830D01*
X157576536Y-92678830D02*
X157705948Y-92898573D01*
X157705948Y-92898573D02*
X157837970Y-93130158D01*
X157837970Y-93130158D02*
X157970745Y-93369827D01*
X157970745Y-93369827D02*
X158102416Y-93613819D01*
X158102416Y-93613819D02*
X158231126Y-93858374D01*
X158231126Y-93858374D02*
X158355017Y-94099733D01*
X158355017Y-94099733D02*
X158472232Y-94334135D01*
X158472232Y-94334135D02*
X158580913Y-94557821D01*
X158580913Y-94557821D02*
X158679203Y-94767030D01*
X158679203Y-94767030D02*
X158765246Y-94958004D01*
X158765246Y-94958004D02*
X158837183Y-95126981D01*
X158837183Y-95126981D02*
X158893157Y-95270203D01*
X158893157Y-95270203D02*
X158931312Y-95383910D01*
X158931312Y-95383910D02*
X158948657Y-95456479D01*
X158948657Y-95456479D02*
X158955240Y-95513751D01*
X158955240Y-95513751D02*
X158947464Y-95544120D01*
X158947464Y-95544120D02*
X158919957Y-95562053D01*
X158919957Y-95562053D02*
X158907637Y-95566949D01*
X158907637Y-95566949D02*
X158857666Y-95576900D01*
X158857666Y-95576900D02*
X158789538Y-95574432D01*
X158789538Y-95574432D02*
X158700588Y-95558723D01*
X158700588Y-95558723D02*
X158588151Y-95528948D01*
X158588151Y-95528948D02*
X158449562Y-95484284D01*
X158449562Y-95484284D02*
X158282158Y-95423908D01*
X158282158Y-95423908D02*
X158083272Y-95346995D01*
X158083272Y-95346995D02*
X157850241Y-95252723D01*
X157850241Y-95252723D02*
X157729913Y-95202912D01*
X157729913Y-95202912D02*
X157601051Y-95149488D01*
X157601051Y-95149488D02*
X157483208Y-95101078D01*
X157483208Y-95101078D02*
X157382732Y-95060255D01*
X157382732Y-95060255D02*
X157305974Y-95029591D01*
X157305974Y-95029591D02*
X157259283Y-95011660D01*
X157259283Y-95011660D02*
X157250255Y-95008571D01*
X157250255Y-95008571D02*
X157227108Y-95004433D01*
X157227108Y-95004433D02*
X157212170Y-95014185D01*
X157212170Y-95014185D02*
X157202238Y-95045722D01*
X157202238Y-95045722D02*
X157194107Y-95106940D01*
X157194107Y-95106940D02*
X157188895Y-95159793D01*
X157188895Y-95159793D02*
X157185873Y-95215672D01*
X157185873Y-95215672D02*
X157183564Y-95308624D01*
X157183564Y-95308624D02*
X157181986Y-95433394D01*
X157181986Y-95433394D02*
X157181160Y-95584727D01*
X157181160Y-95584727D02*
X157181105Y-95757368D01*
X157181105Y-95757368D02*
X157181839Y-95946062D01*
X157181839Y-95946062D02*
X157183381Y-96145555D01*
X157183381Y-96145555D02*
X157184810Y-96277163D01*
X157184810Y-96277163D02*
X157187570Y-96565156D01*
X157187570Y-96565156D02*
X157188839Y-96844384D01*
X157188839Y-96844384D02*
X157188682Y-97111619D01*
X157188682Y-97111619D02*
X157187167Y-97363634D01*
X157187167Y-97363634D02*
X157184361Y-97597202D01*
X157184361Y-97597202D02*
X157180329Y-97809094D01*
X157180329Y-97809094D02*
X157175138Y-97996084D01*
X157175138Y-97996084D02*
X157168855Y-98154943D01*
X157168855Y-98154943D02*
X157161546Y-98282445D01*
X157161546Y-98282445D02*
X157153277Y-98375362D01*
X157153277Y-98375362D02*
X157144116Y-98430467D01*
X157144116Y-98430467D02*
X157140232Y-98441168D01*
X157140232Y-98441168D02*
X157125459Y-98459193D01*
X157125459Y-98459193D02*
X157098290Y-98478128D01*
X157098290Y-98478128D02*
X157055767Y-98498854D01*
X157055767Y-98498854D02*
X156994934Y-98522255D01*
X156994934Y-98522255D02*
X156912834Y-98549214D01*
X156912834Y-98549214D02*
X156806510Y-98580613D01*
X156806510Y-98580613D02*
X156673003Y-98617335D01*
X156673003Y-98617335D02*
X156509358Y-98660262D01*
X156509358Y-98660262D02*
X156312617Y-98710278D01*
X156312617Y-98710278D02*
X156079822Y-98768264D01*
X156079822Y-98768264D02*
X155877830Y-98817996D01*
X155877830Y-98817996D02*
X155493378Y-98912380D01*
X155493378Y-98912380D02*
X155147975Y-98997343D01*
X155147975Y-98997343D02*
X154839523Y-99073417D01*
X154839523Y-99073417D02*
X154565923Y-99141130D01*
X154565923Y-99141130D02*
X154325078Y-99201011D01*
X154325078Y-99201011D02*
X154114889Y-99253591D01*
X154114889Y-99253591D02*
X153933258Y-99299399D01*
X153933258Y-99299399D02*
X153778086Y-99338964D01*
X153778086Y-99338964D02*
X153647275Y-99372815D01*
X153647275Y-99372815D02*
X153538727Y-99401483D01*
X153538727Y-99401483D02*
X153450343Y-99425496D01*
X153450343Y-99425496D02*
X153380026Y-99445384D01*
X153380026Y-99445384D02*
X153325676Y-99461676D01*
X153325676Y-99461676D02*
X153321038Y-99463128D01*
X153321038Y-99463128D02*
X153224398Y-99494843D01*
X153224398Y-99494843D02*
X153160652Y-99520036D01*
X153160652Y-99520036D02*
X153121760Y-99542987D01*
X153121760Y-99542987D02*
X153099684Y-99567976D01*
X153099684Y-99567976D02*
X153091261Y-99585487D01*
X153091261Y-99585487D02*
X153083015Y-99619705D01*
X153083015Y-99619705D02*
X153078052Y-99673694D01*
X153078052Y-99673694D02*
X153076511Y-99749525D01*
X153076511Y-99749525D02*
X153078530Y-99849272D01*
X153078530Y-99849272D02*
X153084249Y-99975007D01*
X153084249Y-99975007D02*
X153093805Y-100128802D01*
X153093805Y-100128802D02*
X153107339Y-100312729D01*
X153107339Y-100312729D02*
X153124988Y-100528862D01*
X153124988Y-100528862D02*
X153146891Y-100779273D01*
X153146891Y-100779273D02*
X153173188Y-101066034D01*
X153173188Y-101066034D02*
X153204016Y-101391217D01*
X153204016Y-101391217D02*
X153230440Y-101664080D01*
X153230440Y-101664080D02*
X153245513Y-101824150D01*
X153245513Y-101824150D02*
X153259426Y-101982422D01*
X153259426Y-101982422D02*
X153271489Y-102130199D01*
X153271489Y-102130199D02*
X153281010Y-102258781D01*
X153281010Y-102258781D02*
X153287299Y-102359470D01*
X153287299Y-102359470D02*
X153289298Y-102404913D01*
X153289298Y-102404913D02*
X153295497Y-102605997D01*
X153295497Y-102605997D02*
X153200339Y-102612759D01*
X153200339Y-102612759D02*
X153148407Y-102612429D01*
X153148407Y-102612429D02*
X153063397Y-102607318D01*
X153063397Y-102607318D02*
X152954202Y-102598160D01*
X152954202Y-102598160D02*
X152829715Y-102585686D01*
X152829715Y-102585686D02*
X152719583Y-102573151D01*
X152719583Y-102573151D02*
X152594777Y-102559004D01*
X152594777Y-102559004D02*
X152483182Y-102547979D01*
X152483182Y-102547979D02*
X152392113Y-102540667D01*
X152392113Y-102540667D02*
X152328886Y-102537663D01*
X152328886Y-102537663D02*
X152301450Y-102539266D01*
X152301450Y-102539266D02*
X152281425Y-102558197D01*
X152281425Y-102558197D02*
X152271579Y-102598471D01*
X152271579Y-102598471D02*
X152272170Y-102664116D01*
X152272170Y-102664116D02*
X152283455Y-102759163D01*
X152283455Y-102759163D02*
X152305693Y-102887644D01*
X152305693Y-102887644D02*
X152332241Y-103020576D01*
X152332241Y-103020576D02*
X152355418Y-103140598D01*
X152355418Y-103140598D02*
X152374815Y-103256974D01*
X152374815Y-103256974D02*
X152388714Y-103358181D01*
X152388714Y-103358181D02*
X152395397Y-103432697D01*
X152395397Y-103432697D02*
X152395741Y-103446556D01*
X152395741Y-103446556D02*
X152395913Y-103567448D01*
X152395913Y-103567448D02*
X152316538Y-103588245D01*
X152316538Y-103588245D02*
X152262779Y-103600293D01*
X152262779Y-103600293D02*
X152190315Y-103612930D01*
X152190315Y-103612930D02*
X152096963Y-103626370D01*
X152096963Y-103626370D02*
X151980537Y-103640829D01*
X151980537Y-103640829D02*
X151838855Y-103656521D01*
X151838855Y-103656521D02*
X151669731Y-103673663D01*
X151669731Y-103673663D02*
X151470982Y-103692469D01*
X151470982Y-103692469D02*
X151240424Y-103713153D01*
X151240424Y-103713153D02*
X150975871Y-103735933D01*
X150975871Y-103735933D02*
X150675142Y-103761021D01*
X150675142Y-103761021D02*
X150336050Y-103788634D01*
X150336050Y-103788634D02*
X150046413Y-103811833D01*
X150046413Y-103811833D02*
X149758483Y-103834895D01*
X149758483Y-103834895D02*
X149509696Y-103855137D01*
X149509696Y-103855137D02*
X149296976Y-103872836D01*
X149296976Y-103872836D02*
X149117246Y-103888270D01*
X149117246Y-103888270D02*
X148967429Y-103901717D01*
X148967429Y-103901717D02*
X148844449Y-103913451D01*
X148844449Y-103913451D02*
X148745228Y-103923752D01*
X148745228Y-103923752D02*
X148666692Y-103932896D01*
X148666692Y-103932896D02*
X148605761Y-103941161D01*
X148605761Y-103941161D02*
X148598811Y-103942210D01*
X148598811Y-103942210D02*
X148516459Y-103954807D01*
X148516459Y-103954807D02*
X148528648Y-104127068D01*
X148528648Y-104127068D02*
X148534482Y-104184091D01*
X148534482Y-104184091D02*
X148546253Y-104277710D01*
X148546253Y-104277710D02*
X148563216Y-104402721D01*
X148563216Y-104402721D02*
X148584626Y-104553918D01*
X148584626Y-104553918D02*
X148609736Y-104726095D01*
X148609736Y-104726095D02*
X148637803Y-104914048D01*
X148637803Y-104914048D02*
X148668080Y-105112570D01*
X148668080Y-105112570D02*
X148689688Y-105251830D01*
X148689688Y-105251830D02*
X148732471Y-105526417D01*
X148732471Y-105526417D02*
X148768863Y-105762185D01*
X148768863Y-105762185D02*
X148799224Y-105962107D01*
X148799224Y-105962107D02*
X148823917Y-106129156D01*
X148823917Y-106129156D02*
X148843302Y-106266303D01*
X148843302Y-106266303D02*
X148857741Y-106376523D01*
X148857741Y-106376523D02*
X148867595Y-106462787D01*
X148867595Y-106462787D02*
X148873224Y-106528067D01*
X148873224Y-106528067D02*
X148874991Y-106575337D01*
X148874991Y-106575337D02*
X148873256Y-106607570D01*
X148873256Y-106607570D02*
X148868380Y-106627737D01*
X148868380Y-106627737D02*
X148860726Y-106638811D01*
X148860726Y-106638811D02*
X148858423Y-106640506D01*
X148858423Y-106640506D02*
X148813264Y-106660840D01*
X148813264Y-106660840D02*
X148731713Y-106688657D01*
X148731713Y-106688657D02*
X148618794Y-106722678D01*
X148618794Y-106722678D02*
X148479530Y-106761622D01*
X148479530Y-106761622D02*
X148318946Y-106804208D01*
X148318946Y-106804208D02*
X148142065Y-106849157D01*
X148142065Y-106849157D02*
X147953912Y-106895187D01*
X147953912Y-106895187D02*
X147759510Y-106941019D01*
X147759510Y-106941019D02*
X147563883Y-106985373D01*
X147563883Y-106985373D02*
X147372056Y-107026967D01*
X147372056Y-107026967D02*
X147214833Y-107059378D01*
X147214833Y-107059378D02*
X146768849Y-107142137D01*
X146768849Y-107142137D02*
X146327869Y-107209826D01*
X146327869Y-107209826D02*
X145887163Y-107264034D01*
X145887163Y-107264034D02*
X145769038Y-107274567D01*
X145769038Y-107274567D02*
X145622514Y-107283835D01*
X145622514Y-107283835D02*
X145455016Y-107291705D01*
X145455016Y-107291705D02*
X145273968Y-107298045D01*
X145273968Y-107298045D02*
X145086795Y-107302723D01*
X145086795Y-107302723D02*
X144900922Y-107305605D01*
X144900922Y-107305605D02*
X144723772Y-107306561D01*
X144723772Y-107306561D02*
X144562770Y-107305458D01*
X144562770Y-107305458D02*
X144425340Y-107302164D01*
X144425340Y-107302164D02*
X144318908Y-107296545D01*
X144318908Y-107296545D02*
X144278497Y-107292688D01*
X144278497Y-107292688D02*
X144023254Y-107247179D01*
X144023254Y-107247179D02*
X143751467Y-107169542D01*
X143751467Y-107169542D02*
X143460615Y-107058928D01*
X143460615Y-107058928D02*
X143148181Y-106914488D01*
X143148181Y-106914488D02*
X143132069Y-106906424D01*
X143132069Y-106906424D02*
X143038994Y-106857425D01*
X143038994Y-106857425D02*
X142976763Y-106817996D01*
X142976763Y-106817996D02*
X142936988Y-106781805D01*
X142936988Y-106781805D02*
X142911278Y-106742520D01*
X142911278Y-106742520D02*
X142909149Y-106738159D01*
X142909149Y-106738159D02*
X142873842Y-106664119D01*
X142873842Y-106664119D02*
X142938523Y-106651183D01*
X142938523Y-106651183D02*
X143008405Y-106641772D01*
X143008405Y-106641772D02*
X143075535Y-106638247D01*
X143075535Y-106638247D02*
X143155310Y-106631729D01*
X143155310Y-106631729D02*
X143263072Y-106613892D01*
X143263072Y-106613892D02*
X143386820Y-106587312D01*
X143386820Y-106587312D02*
X143514553Y-106554562D01*
X143514553Y-106554562D02*
X143632913Y-106518669D01*
X143632913Y-106518669D02*
X143949963Y-106392198D01*
X143949963Y-106392198D02*
X144249729Y-106229277D01*
X144249729Y-106229277D02*
X144533616Y-106028885D01*
X144533616Y-106028885D02*
X144803026Y-105790000D01*
X144803026Y-105790000D02*
X145059363Y-105511603D01*
X145059363Y-105511603D02*
X145122432Y-105434633D01*
X145122432Y-105434633D02*
X145213114Y-105319800D01*
X145213114Y-105319800D02*
X145315040Y-105187583D01*
X145315040Y-105187583D02*
X145429288Y-105036488D01*
X145429288Y-105036488D02*
X145556938Y-104865024D01*
X145556938Y-104865024D02*
X145699068Y-104671696D01*
X145699068Y-104671696D02*
X145856757Y-104455012D01*
X145856757Y-104455012D02*
X146031082Y-104213479D01*
X146031082Y-104213479D02*
X146223124Y-103945603D01*
X146223124Y-103945603D02*
X146433960Y-103649891D01*
X146433960Y-103649891D02*
X146664670Y-103324851D01*
X146664670Y-103324851D02*
X146916331Y-102968989D01*
X146916331Y-102968989D02*
X147190023Y-102580812D01*
X147190023Y-102580812D02*
X147410570Y-102267330D01*
X147410570Y-102267330D02*
X147662134Y-101909787D01*
X147662134Y-101909787D02*
X147900662Y-101571412D01*
X147900662Y-101571412D02*
X148125168Y-101253586D01*
X148125168Y-101253586D02*
X148334665Y-100957691D01*
X148334665Y-100957691D02*
X148528167Y-100685111D01*
X148528167Y-100685111D02*
X148704687Y-100437228D01*
X148704687Y-100437228D02*
X148863239Y-100215423D01*
X148863239Y-100215423D02*
X149002834Y-100021080D01*
X149002834Y-100021080D02*
X149122488Y-99855580D01*
X149122488Y-99855580D02*
X149221213Y-99720305D01*
X149221213Y-99720305D02*
X149298023Y-99616639D01*
X149298023Y-99616639D02*
X149351931Y-99545963D01*
X149351931Y-99545963D02*
X149362766Y-99532299D01*
X149362766Y-99532299D02*
X149411722Y-99474218D01*
X149411722Y-99474218D02*
X149468270Y-99413091D01*
X149468270Y-99413091D02*
X149535376Y-99346343D01*
X149535376Y-99346343D02*
X149616007Y-99271398D01*
X149616007Y-99271398D02*
X149713128Y-99185682D01*
X149713128Y-99185682D02*
X149829706Y-99086619D01*
X149829706Y-99086619D02*
X149968706Y-98971634D01*
X149968706Y-98971634D02*
X150133096Y-98838152D01*
X150133096Y-98838152D02*
X150325840Y-98683597D01*
X150325840Y-98683597D02*
X150499584Y-98545322D01*
X150499584Y-98545322D02*
X150663768Y-98414687D01*
X150663768Y-98414687D02*
X150841295Y-98272925D01*
X150841295Y-98272925D02*
X151023388Y-98127080D01*
X151023388Y-98127080D02*
X151201270Y-97984194D01*
X151201270Y-97984194D02*
X151366165Y-97851311D01*
X151366165Y-97851311D02*
X151509296Y-97735471D01*
X151509296Y-97735471D02*
X151547334Y-97704563D01*
X151547334Y-97704563D02*
X151664280Y-97610242D01*
X151664280Y-97610242D02*
X151808529Y-97495219D01*
X151808529Y-97495219D02*
X151973737Y-97364482D01*
X151973737Y-97364482D02*
X152153558Y-97223015D01*
X152153558Y-97223015D02*
X152341646Y-97075805D01*
X152341646Y-97075805D02*
X152531656Y-96927838D01*
X152531656Y-96927838D02*
X152717243Y-96784101D01*
X152717243Y-96784101D02*
X152798080Y-96721775D01*
X152798080Y-96721775D02*
X153070984Y-96511004D01*
X153070984Y-96511004D02*
X153341283Y-96300914D01*
X153341283Y-96300914D02*
X153605416Y-96094336D01*
X153605416Y-96094336D02*
X153859822Y-95894097D01*
X153859822Y-95894097D02*
X154100943Y-95703027D01*
X154100943Y-95703027D02*
X154325216Y-95523955D01*
X154325216Y-95523955D02*
X154529084Y-95359709D01*
X154529084Y-95359709D02*
X154708984Y-95213119D01*
X154708984Y-95213119D02*
X154861358Y-95087014D01*
X154861358Y-95087014D02*
X154957080Y-95006172D01*
X154957080Y-95006172D02*
X155127601Y-94855236D01*
X155127601Y-94855236D02*
X155304261Y-94689518D01*
X155304261Y-94689518D02*
X155480107Y-94516156D01*
X155480107Y-94516156D02*
X155648189Y-94342287D01*
X155648189Y-94342287D02*
X155801557Y-94175047D01*
X155801557Y-94175047D02*
X155933260Y-94021576D01*
X155933260Y-94021576D02*
X156008866Y-93926124D01*
X156008866Y-93926124D02*
X156323135Y-93485325D01*
X156323135Y-93485325D02*
X156628720Y-93004427D01*
X156628720Y-93004427D02*
X156924667Y-92484957D01*
X156924667Y-92484957D02*
X156999028Y-92345455D01*
X156999028Y-92345455D02*
X157050638Y-92249484D01*
X157050638Y-92249484D02*
X157096327Y-92168555D01*
X157096327Y-92168555D02*
X157132162Y-92109332D01*
X157132162Y-92109332D02*
X157154208Y-92078482D01*
X157154208Y-92078482D02*
X157158267Y-92075580D01*
X157158267Y-92075580D02*
X157182020Y-92093124D01*
X157182020Y-92093124D02*
X157182020Y-92093124D01*
G36*
X157182020Y-92093124D02*
G01*
X157224005Y-92142790D01*
X157281136Y-92220124D01*
X157350325Y-92320675D01*
X157428485Y-92439990D01*
X157512530Y-92573617D01*
X157576536Y-92678830D01*
X157705948Y-92898573D01*
X157837970Y-93130158D01*
X157970745Y-93369827D01*
X158102416Y-93613819D01*
X158231126Y-93858374D01*
X158355017Y-94099733D01*
X158472232Y-94334135D01*
X158580913Y-94557821D01*
X158679203Y-94767030D01*
X158765246Y-94958004D01*
X158837183Y-95126981D01*
X158893157Y-95270203D01*
X158931312Y-95383910D01*
X158948657Y-95456479D01*
X158955240Y-95513751D01*
X158947464Y-95544120D01*
X158919957Y-95562053D01*
X158907637Y-95566949D01*
X158857666Y-95576900D01*
X158789538Y-95574432D01*
X158700588Y-95558723D01*
X158588151Y-95528948D01*
X158449562Y-95484284D01*
X158282158Y-95423908D01*
X158083272Y-95346995D01*
X157850241Y-95252723D01*
X157729913Y-95202912D01*
X157601051Y-95149488D01*
X157483208Y-95101078D01*
X157382732Y-95060255D01*
X157305974Y-95029591D01*
X157259283Y-95011660D01*
X157250255Y-95008571D01*
X157227108Y-95004433D01*
X157212170Y-95014185D01*
X157202238Y-95045722D01*
X157194107Y-95106940D01*
X157188895Y-95159793D01*
X157185873Y-95215672D01*
X157183564Y-95308624D01*
X157181986Y-95433394D01*
X157181160Y-95584727D01*
X157181105Y-95757368D01*
X157181839Y-95946062D01*
X157183381Y-96145555D01*
X157184810Y-96277163D01*
X157187570Y-96565156D01*
X157188839Y-96844384D01*
X157188682Y-97111619D01*
X157187167Y-97363634D01*
X157184361Y-97597202D01*
X157180329Y-97809094D01*
X157175138Y-97996084D01*
X157168855Y-98154943D01*
X157161546Y-98282445D01*
X157153277Y-98375362D01*
X157144116Y-98430467D01*
X157140232Y-98441168D01*
X157125459Y-98459193D01*
X157098290Y-98478128D01*
X157055767Y-98498854D01*
X156994934Y-98522255D01*
X156912834Y-98549214D01*
X156806510Y-98580613D01*
X156673003Y-98617335D01*
X156509358Y-98660262D01*
X156312617Y-98710278D01*
X156079822Y-98768264D01*
X155877830Y-98817996D01*
X155493378Y-98912380D01*
X155147975Y-98997343D01*
X154839523Y-99073417D01*
X154565923Y-99141130D01*
X154325078Y-99201011D01*
X154114889Y-99253591D01*
X153933258Y-99299399D01*
X153778086Y-99338964D01*
X153647275Y-99372815D01*
X153538727Y-99401483D01*
X153450343Y-99425496D01*
X153380026Y-99445384D01*
X153325676Y-99461676D01*
X153321038Y-99463128D01*
X153224398Y-99494843D01*
X153160652Y-99520036D01*
X153121760Y-99542987D01*
X153099684Y-99567976D01*
X153091261Y-99585487D01*
X153083015Y-99619705D01*
X153078052Y-99673694D01*
X153076511Y-99749525D01*
X153078530Y-99849272D01*
X153084249Y-99975007D01*
X153093805Y-100128802D01*
X153107339Y-100312729D01*
X153124988Y-100528862D01*
X153146891Y-100779273D01*
X153173188Y-101066034D01*
X153204016Y-101391217D01*
X153230440Y-101664080D01*
X153245513Y-101824150D01*
X153259426Y-101982422D01*
X153271489Y-102130199D01*
X153281010Y-102258781D01*
X153287299Y-102359470D01*
X153289298Y-102404913D01*
X153295497Y-102605997D01*
X153200339Y-102612759D01*
X153148407Y-102612429D01*
X153063397Y-102607318D01*
X152954202Y-102598160D01*
X152829715Y-102585686D01*
X152719583Y-102573151D01*
X152594777Y-102559004D01*
X152483182Y-102547979D01*
X152392113Y-102540667D01*
X152328886Y-102537663D01*
X152301450Y-102539266D01*
X152281425Y-102558197D01*
X152271579Y-102598471D01*
X152272170Y-102664116D01*
X152283455Y-102759163D01*
X152305693Y-102887644D01*
X152332241Y-103020576D01*
X152355418Y-103140598D01*
X152374815Y-103256974D01*
X152388714Y-103358181D01*
X152395397Y-103432697D01*
X152395741Y-103446556D01*
X152395913Y-103567448D01*
X152316538Y-103588245D01*
X152262779Y-103600293D01*
X152190315Y-103612930D01*
X152096963Y-103626370D01*
X151980537Y-103640829D01*
X151838855Y-103656521D01*
X151669731Y-103673663D01*
X151470982Y-103692469D01*
X151240424Y-103713153D01*
X150975871Y-103735933D01*
X150675142Y-103761021D01*
X150336050Y-103788634D01*
X150046413Y-103811833D01*
X149758483Y-103834895D01*
X149509696Y-103855137D01*
X149296976Y-103872836D01*
X149117246Y-103888270D01*
X148967429Y-103901717D01*
X148844449Y-103913451D01*
X148745228Y-103923752D01*
X148666692Y-103932896D01*
X148605761Y-103941161D01*
X148598811Y-103942210D01*
X148516459Y-103954807D01*
X148528648Y-104127068D01*
X148534482Y-104184091D01*
X148546253Y-104277710D01*
X148563216Y-104402721D01*
X148584626Y-104553918D01*
X148609736Y-104726095D01*
X148637803Y-104914048D01*
X148668080Y-105112570D01*
X148689688Y-105251830D01*
X148732471Y-105526417D01*
X148768863Y-105762185D01*
X148799224Y-105962107D01*
X148823917Y-106129156D01*
X148843302Y-106266303D01*
X148857741Y-106376523D01*
X148867595Y-106462787D01*
X148873224Y-106528067D01*
X148874991Y-106575337D01*
X148873256Y-106607570D01*
X148868380Y-106627737D01*
X148860726Y-106638811D01*
X148858423Y-106640506D01*
X148813264Y-106660840D01*
X148731713Y-106688657D01*
X148618794Y-106722678D01*
X148479530Y-106761622D01*
X148318946Y-106804208D01*
X148142065Y-106849157D01*
X147953912Y-106895187D01*
X147759510Y-106941019D01*
X147563883Y-106985373D01*
X147372056Y-107026967D01*
X147214833Y-107059378D01*
X146768849Y-107142137D01*
X146327869Y-107209826D01*
X145887163Y-107264034D01*
X145769038Y-107274567D01*
X145622514Y-107283835D01*
X145455016Y-107291705D01*
X145273968Y-107298045D01*
X145086795Y-107302723D01*
X144900922Y-107305605D01*
X144723772Y-107306561D01*
X144562770Y-107305458D01*
X144425340Y-107302164D01*
X144318908Y-107296545D01*
X144278497Y-107292688D01*
X144023254Y-107247179D01*
X143751467Y-107169542D01*
X143460615Y-107058928D01*
X143148181Y-106914488D01*
X143132069Y-106906424D01*
X143038994Y-106857425D01*
X142976763Y-106817996D01*
X142936988Y-106781805D01*
X142911278Y-106742520D01*
X142909149Y-106738159D01*
X142873842Y-106664119D01*
X142938523Y-106651183D01*
X143008405Y-106641772D01*
X143075535Y-106638247D01*
X143155310Y-106631729D01*
X143263072Y-106613892D01*
X143386820Y-106587312D01*
X143514553Y-106554562D01*
X143632913Y-106518669D01*
X143949963Y-106392198D01*
X144249729Y-106229277D01*
X144533616Y-106028885D01*
X144803026Y-105790000D01*
X145059363Y-105511603D01*
X145122432Y-105434633D01*
X145213114Y-105319800D01*
X145315040Y-105187583D01*
X145429288Y-105036488D01*
X145556938Y-104865024D01*
X145699068Y-104671696D01*
X145856757Y-104455012D01*
X146031082Y-104213479D01*
X146223124Y-103945603D01*
X146433960Y-103649891D01*
X146664670Y-103324851D01*
X146916331Y-102968989D01*
X147190023Y-102580812D01*
X147410570Y-102267330D01*
X147662134Y-101909787D01*
X147900662Y-101571412D01*
X148125168Y-101253586D01*
X148334665Y-100957691D01*
X148528167Y-100685111D01*
X148704687Y-100437228D01*
X148863239Y-100215423D01*
X149002834Y-100021080D01*
X149122488Y-99855580D01*
X149221213Y-99720305D01*
X149298023Y-99616639D01*
X149351931Y-99545963D01*
X149362766Y-99532299D01*
X149411722Y-99474218D01*
X149468270Y-99413091D01*
X149535376Y-99346343D01*
X149616007Y-99271398D01*
X149713128Y-99185682D01*
X149829706Y-99086619D01*
X149968706Y-98971634D01*
X150133096Y-98838152D01*
X150325840Y-98683597D01*
X150499584Y-98545322D01*
X150663768Y-98414687D01*
X150841295Y-98272925D01*
X151023388Y-98127080D01*
X151201270Y-97984194D01*
X151366165Y-97851311D01*
X151509296Y-97735471D01*
X151547334Y-97704563D01*
X151664280Y-97610242D01*
X151808529Y-97495219D01*
X151973737Y-97364482D01*
X152153558Y-97223015D01*
X152341646Y-97075805D01*
X152531656Y-96927838D01*
X152717243Y-96784101D01*
X152798080Y-96721775D01*
X153070984Y-96511004D01*
X153341283Y-96300914D01*
X153605416Y-96094336D01*
X153859822Y-95894097D01*
X154100943Y-95703027D01*
X154325216Y-95523955D01*
X154529084Y-95359709D01*
X154708984Y-95213119D01*
X154861358Y-95087014D01*
X154957080Y-95006172D01*
X155127601Y-94855236D01*
X155304261Y-94689518D01*
X155480107Y-94516156D01*
X155648189Y-94342287D01*
X155801557Y-94175047D01*
X155933260Y-94021576D01*
X156008866Y-93926124D01*
X156323135Y-93485325D01*
X156628720Y-93004427D01*
X156924667Y-92484957D01*
X156999028Y-92345455D01*
X157050638Y-92249484D01*
X157096327Y-92168555D01*
X157132162Y-92109332D01*
X157154208Y-92078482D01*
X157158267Y-92075580D01*
X157182020Y-92093124D01*
G37*
X157182020Y-92093124D02*
X157224005Y-92142790D01*
X157281136Y-92220124D01*
X157350325Y-92320675D01*
X157428485Y-92439990D01*
X157512530Y-92573617D01*
X157576536Y-92678830D01*
X157705948Y-92898573D01*
X157837970Y-93130158D01*
X157970745Y-93369827D01*
X158102416Y-93613819D01*
X158231126Y-93858374D01*
X158355017Y-94099733D01*
X158472232Y-94334135D01*
X158580913Y-94557821D01*
X158679203Y-94767030D01*
X158765246Y-94958004D01*
X158837183Y-95126981D01*
X158893157Y-95270203D01*
X158931312Y-95383910D01*
X158948657Y-95456479D01*
X158955240Y-95513751D01*
X158947464Y-95544120D01*
X158919957Y-95562053D01*
X158907637Y-95566949D01*
X158857666Y-95576900D01*
X158789538Y-95574432D01*
X158700588Y-95558723D01*
X158588151Y-95528948D01*
X158449562Y-95484284D01*
X158282158Y-95423908D01*
X158083272Y-95346995D01*
X157850241Y-95252723D01*
X157729913Y-95202912D01*
X157601051Y-95149488D01*
X157483208Y-95101078D01*
X157382732Y-95060255D01*
X157305974Y-95029591D01*
X157259283Y-95011660D01*
X157250255Y-95008571D01*
X157227108Y-95004433D01*
X157212170Y-95014185D01*
X157202238Y-95045722D01*
X157194107Y-95106940D01*
X157188895Y-95159793D01*
X157185873Y-95215672D01*
X157183564Y-95308624D01*
X157181986Y-95433394D01*
X157181160Y-95584727D01*
X157181105Y-95757368D01*
X157181839Y-95946062D01*
X157183381Y-96145555D01*
X157184810Y-96277163D01*
X157187570Y-96565156D01*
X157188839Y-96844384D01*
X157188682Y-97111619D01*
X157187167Y-97363634D01*
X157184361Y-97597202D01*
X157180329Y-97809094D01*
X157175138Y-97996084D01*
X157168855Y-98154943D01*
X157161546Y-98282445D01*
X157153277Y-98375362D01*
X157144116Y-98430467D01*
X157140232Y-98441168D01*
X157125459Y-98459193D01*
X157098290Y-98478128D01*
X157055767Y-98498854D01*
X156994934Y-98522255D01*
X156912834Y-98549214D01*
X156806510Y-98580613D01*
X156673003Y-98617335D01*
X156509358Y-98660262D01*
X156312617Y-98710278D01*
X156079822Y-98768264D01*
X155877830Y-98817996D01*
X155493378Y-98912380D01*
X155147975Y-98997343D01*
X154839523Y-99073417D01*
X154565923Y-99141130D01*
X154325078Y-99201011D01*
X154114889Y-99253591D01*
X153933258Y-99299399D01*
X153778086Y-99338964D01*
X153647275Y-99372815D01*
X153538727Y-99401483D01*
X153450343Y-99425496D01*
X153380026Y-99445384D01*
X153325676Y-99461676D01*
X153321038Y-99463128D01*
X153224398Y-99494843D01*
X153160652Y-99520036D01*
X153121760Y-99542987D01*
X153099684Y-99567976D01*
X153091261Y-99585487D01*
X153083015Y-99619705D01*
X153078052Y-99673694D01*
X153076511Y-99749525D01*
X153078530Y-99849272D01*
X153084249Y-99975007D01*
X153093805Y-100128802D01*
X153107339Y-100312729D01*
X153124988Y-100528862D01*
X153146891Y-100779273D01*
X153173188Y-101066034D01*
X153204016Y-101391217D01*
X153230440Y-101664080D01*
X153245513Y-101824150D01*
X153259426Y-101982422D01*
X153271489Y-102130199D01*
X153281010Y-102258781D01*
X153287299Y-102359470D01*
X153289298Y-102404913D01*
X153295497Y-102605997D01*
X153200339Y-102612759D01*
X153148407Y-102612429D01*
X153063397Y-102607318D01*
X152954202Y-102598160D01*
X152829715Y-102585686D01*
X152719583Y-102573151D01*
X152594777Y-102559004D01*
X152483182Y-102547979D01*
X152392113Y-102540667D01*
X152328886Y-102537663D01*
X152301450Y-102539266D01*
X152281425Y-102558197D01*
X152271579Y-102598471D01*
X152272170Y-102664116D01*
X152283455Y-102759163D01*
X152305693Y-102887644D01*
X152332241Y-103020576D01*
X152355418Y-103140598D01*
X152374815Y-103256974D01*
X152388714Y-103358181D01*
X152395397Y-103432697D01*
X152395741Y-103446556D01*
X152395913Y-103567448D01*
X152316538Y-103588245D01*
X152262779Y-103600293D01*
X152190315Y-103612930D01*
X152096963Y-103626370D01*
X151980537Y-103640829D01*
X151838855Y-103656521D01*
X151669731Y-103673663D01*
X151470982Y-103692469D01*
X151240424Y-103713153D01*
X150975871Y-103735933D01*
X150675142Y-103761021D01*
X150336050Y-103788634D01*
X150046413Y-103811833D01*
X149758483Y-103834895D01*
X149509696Y-103855137D01*
X149296976Y-103872836D01*
X149117246Y-103888270D01*
X148967429Y-103901717D01*
X148844449Y-103913451D01*
X148745228Y-103923752D01*
X148666692Y-103932896D01*
X148605761Y-103941161D01*
X148598811Y-103942210D01*
X148516459Y-103954807D01*
X148528648Y-104127068D01*
X148534482Y-104184091D01*
X148546253Y-104277710D01*
X148563216Y-104402721D01*
X148584626Y-104553918D01*
X148609736Y-104726095D01*
X148637803Y-104914048D01*
X148668080Y-105112570D01*
X148689688Y-105251830D01*
X148732471Y-105526417D01*
X148768863Y-105762185D01*
X148799224Y-105962107D01*
X148823917Y-106129156D01*
X148843302Y-106266303D01*
X148857741Y-106376523D01*
X148867595Y-106462787D01*
X148873224Y-106528067D01*
X148874991Y-106575337D01*
X148873256Y-106607570D01*
X148868380Y-106627737D01*
X148860726Y-106638811D01*
X148858423Y-106640506D01*
X148813264Y-106660840D01*
X148731713Y-106688657D01*
X148618794Y-106722678D01*
X148479530Y-106761622D01*
X148318946Y-106804208D01*
X148142065Y-106849157D01*
X147953912Y-106895187D01*
X147759510Y-106941019D01*
X147563883Y-106985373D01*
X147372056Y-107026967D01*
X147214833Y-107059378D01*
X146768849Y-107142137D01*
X146327869Y-107209826D01*
X145887163Y-107264034D01*
X145769038Y-107274567D01*
X145622514Y-107283835D01*
X145455016Y-107291705D01*
X145273968Y-107298045D01*
X145086795Y-107302723D01*
X144900922Y-107305605D01*
X144723772Y-107306561D01*
X144562770Y-107305458D01*
X144425340Y-107302164D01*
X144318908Y-107296545D01*
X144278497Y-107292688D01*
X144023254Y-107247179D01*
X143751467Y-107169542D01*
X143460615Y-107058928D01*
X143148181Y-106914488D01*
X143132069Y-106906424D01*
X143038994Y-106857425D01*
X142976763Y-106817996D01*
X142936988Y-106781805D01*
X142911278Y-106742520D01*
X142909149Y-106738159D01*
X142873842Y-106664119D01*
X142938523Y-106651183D01*
X143008405Y-106641772D01*
X143075535Y-106638247D01*
X143155310Y-106631729D01*
X143263072Y-106613892D01*
X143386820Y-106587312D01*
X143514553Y-106554562D01*
X143632913Y-106518669D01*
X143949963Y-106392198D01*
X144249729Y-106229277D01*
X144533616Y-106028885D01*
X144803026Y-105790000D01*
X145059363Y-105511603D01*
X145122432Y-105434633D01*
X145213114Y-105319800D01*
X145315040Y-105187583D01*
X145429288Y-105036488D01*
X145556938Y-104865024D01*
X145699068Y-104671696D01*
X145856757Y-104455012D01*
X146031082Y-104213479D01*
X146223124Y-103945603D01*
X146433960Y-103649891D01*
X146664670Y-103324851D01*
X146916331Y-102968989D01*
X147190023Y-102580812D01*
X147410570Y-102267330D01*
X147662134Y-101909787D01*
X147900662Y-101571412D01*
X148125168Y-101253586D01*
X148334665Y-100957691D01*
X148528167Y-100685111D01*
X148704687Y-100437228D01*
X148863239Y-100215423D01*
X149002834Y-100021080D01*
X149122488Y-99855580D01*
X149221213Y-99720305D01*
X149298023Y-99616639D01*
X149351931Y-99545963D01*
X149362766Y-99532299D01*
X149411722Y-99474218D01*
X149468270Y-99413091D01*
X149535376Y-99346343D01*
X149616007Y-99271398D01*
X149713128Y-99185682D01*
X149829706Y-99086619D01*
X149968706Y-98971634D01*
X150133096Y-98838152D01*
X150325840Y-98683597D01*
X150499584Y-98545322D01*
X150663768Y-98414687D01*
X150841295Y-98272925D01*
X151023388Y-98127080D01*
X151201270Y-97984194D01*
X151366165Y-97851311D01*
X151509296Y-97735471D01*
X151547334Y-97704563D01*
X151664280Y-97610242D01*
X151808529Y-97495219D01*
X151973737Y-97364482D01*
X152153558Y-97223015D01*
X152341646Y-97075805D01*
X152531656Y-96927838D01*
X152717243Y-96784101D01*
X152798080Y-96721775D01*
X153070984Y-96511004D01*
X153341283Y-96300914D01*
X153605416Y-96094336D01*
X153859822Y-95894097D01*
X154100943Y-95703027D01*
X154325216Y-95523955D01*
X154529084Y-95359709D01*
X154708984Y-95213119D01*
X154861358Y-95087014D01*
X154957080Y-95006172D01*
X155127601Y-94855236D01*
X155304261Y-94689518D01*
X155480107Y-94516156D01*
X155648189Y-94342287D01*
X155801557Y-94175047D01*
X155933260Y-94021576D01*
X156008866Y-93926124D01*
X156323135Y-93485325D01*
X156628720Y-93004427D01*
X156924667Y-92484957D01*
X156999028Y-92345455D01*
X157050638Y-92249484D01*
X157096327Y-92168555D01*
X157132162Y-92109332D01*
X157154208Y-92078482D01*
X157158267Y-92075580D01*
X157182020Y-92093124D01*
X158772270Y-96274947D02*
X158872001Y-96282630D01*
X158872001Y-96282630D02*
X158967684Y-96294443D01*
X158967684Y-96294443D02*
X159048570Y-96309173D01*
X159048570Y-96309173D02*
X159103911Y-96325605D01*
X159103911Y-96325605D02*
X159119768Y-96335129D01*
X159119768Y-96335129D02*
X159129873Y-96364034D01*
X159129873Y-96364034D02*
X159143001Y-96431096D01*
X159143001Y-96431096D02*
X159158719Y-96532278D01*
X159158719Y-96532278D02*
X159176597Y-96663546D01*
X159176597Y-96663546D02*
X159196203Y-96820863D01*
X159196203Y-96820863D02*
X159217104Y-97000194D01*
X159217104Y-97000194D02*
X159238871Y-97197503D01*
X159238871Y-97197503D02*
X159261070Y-97408754D01*
X159261070Y-97408754D02*
X159283272Y-97629912D01*
X159283272Y-97629912D02*
X159305043Y-97856941D01*
X159305043Y-97856941D02*
X159325953Y-98085806D01*
X159325953Y-98085806D02*
X159345569Y-98312470D01*
X159345569Y-98312470D02*
X159363462Y-98532898D01*
X159363462Y-98532898D02*
X159379198Y-98743055D01*
X159379198Y-98743055D02*
X159382916Y-98795997D01*
X159382916Y-98795997D02*
X159394379Y-99036678D01*
X159394379Y-99036678D02*
X159394699Y-99276392D01*
X159394699Y-99276392D02*
X159383198Y-99520612D01*
X159383198Y-99520612D02*
X159359198Y-99774808D01*
X159359198Y-99774808D02*
X159322021Y-100044451D01*
X159322021Y-100044451D02*
X159270989Y-100335015D01*
X159270989Y-100335015D02*
X159205423Y-100651969D01*
X159205423Y-100651969D02*
X159124647Y-101000785D01*
X159124647Y-101000785D02*
X159094410Y-101124330D01*
X159094410Y-101124330D02*
X159038458Y-101342678D01*
X159038458Y-101342678D02*
X158982716Y-101542475D01*
X158982716Y-101542475D02*
X158924501Y-101730814D01*
X158924501Y-101730814D02*
X158861134Y-101914787D01*
X158861134Y-101914787D02*
X158789932Y-102101489D01*
X158789932Y-102101489D02*
X158708215Y-102298010D01*
X158708215Y-102298010D02*
X158613300Y-102511443D01*
X158613300Y-102511443D02*
X158502507Y-102748883D01*
X158502507Y-102748883D02*
X158398239Y-102965830D01*
X158398239Y-102965830D02*
X158189709Y-103379395D01*
X158189709Y-103379395D02*
X157983875Y-103754647D01*
X157983875Y-103754647D02*
X157778530Y-104095321D01*
X157778530Y-104095321D02*
X157571469Y-104405152D01*
X157571469Y-104405152D02*
X157448447Y-104573882D01*
X157448447Y-104573882D02*
X157388793Y-104647186D01*
X157388793Y-104647186D02*
X157302831Y-104744653D01*
X157302831Y-104744653D02*
X157195202Y-104861560D01*
X157195202Y-104861560D02*
X157070546Y-104993183D01*
X157070546Y-104993183D02*
X156933501Y-105134799D01*
X156933501Y-105134799D02*
X156788708Y-105281686D01*
X156788708Y-105281686D02*
X156640807Y-105429120D01*
X156640807Y-105429120D02*
X156494436Y-105572378D01*
X156494436Y-105572378D02*
X156354237Y-105706738D01*
X156354237Y-105706738D02*
X156224849Y-105827475D01*
X156224849Y-105827475D02*
X156152997Y-105892610D01*
X156152997Y-105892610D02*
X155564285Y-106390954D01*
X155564285Y-106390954D02*
X154944865Y-106860991D01*
X154944865Y-106860991D02*
X154296469Y-107301614D01*
X154296469Y-107301614D02*
X153620829Y-107711716D01*
X153620829Y-107711716D02*
X152919677Y-108090190D01*
X152919677Y-108090190D02*
X152194743Y-108435929D01*
X152194743Y-108435929D02*
X152131330Y-108464104D01*
X152131330Y-108464104D02*
X151737167Y-108627720D01*
X151737167Y-108627720D02*
X151352341Y-108764980D01*
X151352341Y-108764980D02*
X150965309Y-108879176D01*
X150965309Y-108879176D02*
X150564529Y-108973600D01*
X150564529Y-108973600D02*
X150138461Y-109051542D01*
X150138461Y-109051542D02*
X149993497Y-109073744D01*
X149993497Y-109073744D02*
X149890153Y-109086398D01*
X149890153Y-109086398D02*
X149763731Y-109097945D01*
X149763731Y-109097945D02*
X149620839Y-109108166D01*
X149620839Y-109108166D02*
X149468084Y-109116843D01*
X149468084Y-109116843D02*
X149312076Y-109123757D01*
X149312076Y-109123757D02*
X149159422Y-109128691D01*
X149159422Y-109128691D02*
X149016731Y-109131424D01*
X149016731Y-109131424D02*
X148890610Y-109131740D01*
X148890610Y-109131740D02*
X148787667Y-109129420D01*
X148787667Y-109129420D02*
X148714512Y-109124245D01*
X148714512Y-109124245D02*
X148680030Y-109117160D01*
X148680030Y-109117160D02*
X148660365Y-109102130D01*
X148660365Y-109102130D02*
X148642591Y-109071498D01*
X148642591Y-109071498D02*
X148624468Y-109018737D01*
X148624468Y-109018737D02*
X148603757Y-108937320D01*
X148603757Y-108937320D02*
X148578217Y-108820721D01*
X148578217Y-108820721D02*
X148578089Y-108820113D01*
X148578089Y-108820113D02*
X148517838Y-108519394D01*
X148517838Y-108519394D02*
X148469413Y-108246730D01*
X148469413Y-108246730D02*
X148433338Y-108005472D01*
X148433338Y-108005472D02*
X148410136Y-107798974D01*
X148410136Y-107798974D02*
X148402790Y-107696580D01*
X148402790Y-107696580D02*
X148397835Y-107589605D01*
X148397835Y-107589605D02*
X148396896Y-107516101D01*
X148396896Y-107516101D02*
X148400781Y-107467324D01*
X148400781Y-107467324D02*
X148410294Y-107434533D01*
X148410294Y-107434533D02*
X148426243Y-107408986D01*
X148426243Y-107408986D02*
X148429708Y-107404667D01*
X148429708Y-107404667D02*
X148452625Y-107384154D01*
X148452625Y-107384154D02*
X148487772Y-107365475D01*
X148487772Y-107365475D02*
X148537705Y-107348369D01*
X148537705Y-107348369D02*
X148604978Y-107332574D01*
X148604978Y-107332574D02*
X148692147Y-107317829D01*
X148692147Y-107317829D02*
X148801768Y-107303872D01*
X148801768Y-107303872D02*
X148936394Y-107290442D01*
X148936394Y-107290442D02*
X149098583Y-107277277D01*
X149098583Y-107277277D02*
X149290888Y-107264115D01*
X149290888Y-107264115D02*
X149515866Y-107250695D01*
X149515866Y-107250695D02*
X149776071Y-107236756D01*
X149776071Y-107236756D02*
X150074059Y-107222036D01*
X150074059Y-107222036D02*
X150332163Y-107209945D01*
X150332163Y-107209945D02*
X150580363Y-107198382D01*
X150580363Y-107198382D02*
X150789534Y-107188252D01*
X150789534Y-107188252D02*
X150962947Y-107179309D01*
X150962947Y-107179309D02*
X151103874Y-107171305D01*
X151103874Y-107171305D02*
X151215586Y-107163995D01*
X151215586Y-107163995D02*
X151301353Y-107157131D01*
X151301353Y-107157131D02*
X151364447Y-107150466D01*
X151364447Y-107150466D02*
X151408140Y-107143754D01*
X151408140Y-107143754D02*
X151435701Y-107136747D01*
X151435701Y-107136747D02*
X151450403Y-107129200D01*
X151450403Y-107129200D02*
X151453854Y-107125310D01*
X151453854Y-107125310D02*
X151460544Y-107094586D01*
X151460544Y-107094586D02*
X151468307Y-107023516D01*
X151468307Y-107023516D02*
X151477027Y-106914073D01*
X151477027Y-106914073D02*
X151486590Y-106768227D01*
X151486590Y-106768227D02*
X151496881Y-106587951D01*
X151496881Y-106587951D02*
X151507783Y-106375215D01*
X151507783Y-106375215D02*
X151519183Y-106131991D01*
X151519183Y-106131991D02*
X151530965Y-105860250D01*
X151530965Y-105860250D02*
X151538538Y-105675163D01*
X151538538Y-105675163D02*
X151549680Y-105408952D01*
X151549680Y-105408952D02*
X151560806Y-105166328D01*
X151560806Y-105166328D02*
X151571761Y-104949779D01*
X151571761Y-104949779D02*
X151582389Y-104761791D01*
X151582389Y-104761791D02*
X151592534Y-104604850D01*
X151592534Y-104604850D02*
X151602042Y-104481444D01*
X151602042Y-104481444D02*
X151610757Y-104394057D01*
X151610757Y-104394057D02*
X151618524Y-104345178D01*
X151618524Y-104345178D02*
X151622216Y-104335721D01*
X151622216Y-104335721D02*
X151650203Y-104328457D01*
X151650203Y-104328457D02*
X151719821Y-104320570D01*
X151719821Y-104320570D02*
X151830370Y-104312094D01*
X151830370Y-104312094D02*
X151981154Y-104303067D01*
X151981154Y-104303067D02*
X152171475Y-104293526D01*
X152171475Y-104293526D02*
X152400634Y-104283508D01*
X152400634Y-104283508D02*
X152667934Y-104273048D01*
X152667934Y-104273048D02*
X152972676Y-104262183D01*
X152972676Y-104262183D02*
X153115580Y-104257378D01*
X153115580Y-104257378D02*
X153471169Y-104245167D01*
X153471169Y-104245167D02*
X153784805Y-104233430D01*
X153784805Y-104233430D02*
X154056866Y-104222147D01*
X154056866Y-104222147D02*
X154287729Y-104211296D01*
X154287729Y-104211296D02*
X154477771Y-104200857D01*
X154477771Y-104200857D02*
X154627370Y-104190810D01*
X154627370Y-104190810D02*
X154736903Y-104181133D01*
X154736903Y-104181133D02*
X154806748Y-104171805D01*
X154806748Y-104171805D02*
X154837282Y-104162806D01*
X154837282Y-104162806D02*
X154837822Y-104162327D01*
X154837822Y-104162327D02*
X154845801Y-104147629D01*
X154845801Y-104147629D02*
X154853484Y-104118028D01*
X154853484Y-104118028D02*
X154861054Y-104070895D01*
X154861054Y-104070895D02*
X154868695Y-104003601D01*
X154868695Y-104003601D02*
X154876589Y-103913515D01*
X154876589Y-103913515D02*
X154884920Y-103798009D01*
X154884920Y-103798009D02*
X154893871Y-103654453D01*
X154893871Y-103654453D02*
X154903626Y-103480216D01*
X154903626Y-103480216D02*
X154914368Y-103272670D01*
X154914368Y-103272670D02*
X154926280Y-103029185D01*
X154926280Y-103029185D02*
X154939545Y-102747131D01*
X154939545Y-102747131D02*
X154945562Y-102616580D01*
X154945562Y-102616580D02*
X154961515Y-102271172D01*
X154961515Y-102271172D02*
X154975893Y-101965354D01*
X154975893Y-101965354D02*
X154988848Y-101696416D01*
X154988848Y-101696416D02*
X155000532Y-101461649D01*
X155000532Y-101461649D02*
X155011097Y-101258344D01*
X155011097Y-101258344D02*
X155020696Y-101083792D01*
X155020696Y-101083792D02*
X155029480Y-100935284D01*
X155029480Y-100935284D02*
X155037600Y-100810110D01*
X155037600Y-100810110D02*
X155045210Y-100705563D01*
X155045210Y-100705563D02*
X155052460Y-100618933D01*
X155052460Y-100618933D02*
X155059504Y-100547511D01*
X155059504Y-100547511D02*
X155063667Y-100511052D01*
X155063667Y-100511052D02*
X155073210Y-100430496D01*
X155073210Y-100430496D02*
X155080367Y-100366925D01*
X155080367Y-100366925D02*
X155083905Y-100331402D01*
X155083905Y-100331402D02*
X155084080Y-100328108D01*
X155084080Y-100328108D02*
X155092454Y-100316309D01*
X155092454Y-100316309D02*
X155119104Y-100304729D01*
X155119104Y-100304729D02*
X155166320Y-100293133D01*
X155166320Y-100293133D02*
X155236393Y-100281286D01*
X155236393Y-100281286D02*
X155331613Y-100268954D01*
X155331613Y-100268954D02*
X155454271Y-100255902D01*
X155454271Y-100255902D02*
X155606659Y-100241897D01*
X155606659Y-100241897D02*
X155791066Y-100226704D01*
X155791066Y-100226704D02*
X156009783Y-100210087D01*
X156009783Y-100210087D02*
X156265101Y-100191813D01*
X156265101Y-100191813D02*
X156559311Y-100171648D01*
X156559311Y-100171648D02*
X156713913Y-100161302D01*
X156713913Y-100161302D02*
X156917986Y-100147499D01*
X156917986Y-100147499D02*
X157114239Y-100133781D01*
X157114239Y-100133781D02*
X157297536Y-100120540D01*
X157297536Y-100120540D02*
X157462741Y-100108165D01*
X157462741Y-100108165D02*
X157604719Y-100097046D01*
X157604719Y-100097046D02*
X157718336Y-100087574D01*
X157718336Y-100087574D02*
X157798456Y-100080139D01*
X157798456Y-100080139D02*
X157831986Y-100076338D01*
X157831986Y-100076338D02*
X157910017Y-100066142D01*
X157910017Y-100066142D02*
X157971785Y-100058694D01*
X157971785Y-100058694D02*
X158005151Y-100055451D01*
X158005151Y-100055451D02*
X158006611Y-100055413D01*
X158006611Y-100055413D02*
X158018687Y-100041692D01*
X158018687Y-100041692D02*
X158024504Y-99999109D01*
X158024504Y-99999109D02*
X158023919Y-99925533D01*
X158023919Y-99925533D02*
X158016788Y-99818835D01*
X158016788Y-99818835D02*
X158002967Y-99676883D01*
X158002967Y-99676883D02*
X157982312Y-99497547D01*
X157982312Y-99497547D02*
X157954679Y-99278698D01*
X157954679Y-99278698D02*
X157953435Y-99269156D01*
X157953435Y-99269156D02*
X157919416Y-99005137D01*
X157919416Y-99005137D02*
X157891447Y-98779761D01*
X157891447Y-98779761D02*
X157869290Y-98589805D01*
X157869290Y-98589805D02*
X157852704Y-98432049D01*
X157852704Y-98432049D02*
X157841451Y-98303272D01*
X157841451Y-98303272D02*
X157835291Y-98200252D01*
X157835291Y-98200252D02*
X157833985Y-98119769D01*
X157833985Y-98119769D02*
X157837294Y-98058601D01*
X157837294Y-98058601D02*
X157844979Y-98013526D01*
X157844979Y-98013526D02*
X157856799Y-97981324D01*
X157856799Y-97981324D02*
X157857658Y-97979688D01*
X157857658Y-97979688D02*
X157894529Y-97944728D01*
X157894529Y-97944728D02*
X157955358Y-97935770D01*
X157955358Y-97935770D02*
X158042261Y-97953208D01*
X158042261Y-97953208D02*
X158157357Y-97997433D01*
X158157357Y-97997433D02*
X158283011Y-98058491D01*
X158283011Y-98058491D02*
X158372389Y-98103249D01*
X158372389Y-98103249D02*
X158448053Y-98137978D01*
X158448053Y-98137978D02*
X158502315Y-98159372D01*
X158502315Y-98159372D02*
X158527489Y-98164125D01*
X158527489Y-98164125D02*
X158527904Y-98163812D01*
X158527904Y-98163812D02*
X158530074Y-98140257D01*
X158530074Y-98140257D02*
X158530360Y-98078858D01*
X158530360Y-98078858D02*
X158528884Y-97984055D01*
X158528884Y-97984055D02*
X158525766Y-97860291D01*
X158525766Y-97860291D02*
X158521125Y-97712005D01*
X158521125Y-97712005D02*
X158515082Y-97543640D01*
X158515082Y-97543640D02*
X158507759Y-97359636D01*
X158507759Y-97359636D02*
X158503215Y-97253074D01*
X158503215Y-97253074D02*
X158495177Y-97061497D01*
X158495177Y-97061497D02*
X158488282Y-96882395D01*
X158488282Y-96882395D02*
X158482659Y-96720331D01*
X158482659Y-96720331D02*
X158478440Y-96579867D01*
X158478440Y-96579867D02*
X158475754Y-96465565D01*
X158475754Y-96465565D02*
X158474732Y-96381988D01*
X158474732Y-96381988D02*
X158475503Y-96333698D01*
X158475503Y-96333698D02*
X158476696Y-96323940D01*
X158476696Y-96323940D02*
X158507695Y-96299024D01*
X158507695Y-96299024D02*
X158576789Y-96280725D01*
X158576789Y-96280725D02*
X158603658Y-96276831D01*
X158603658Y-96276831D02*
X158679239Y-96272610D01*
X158679239Y-96272610D02*
X158772270Y-96274947D01*
X158772270Y-96274947D02*
X158772270Y-96274947D01*
G36*
X158772270Y-96274947D02*
G01*
X158872001Y-96282630D01*
X158967684Y-96294443D01*
X159048570Y-96309173D01*
X159103911Y-96325605D01*
X159119768Y-96335129D01*
X159129873Y-96364034D01*
X159143001Y-96431096D01*
X159158719Y-96532278D01*
X159176597Y-96663546D01*
X159196203Y-96820863D01*
X159217104Y-97000194D01*
X159238871Y-97197503D01*
X159261070Y-97408754D01*
X159283272Y-97629912D01*
X159305043Y-97856941D01*
X159325953Y-98085806D01*
X159345569Y-98312470D01*
X159363462Y-98532898D01*
X159379198Y-98743055D01*
X159382916Y-98795997D01*
X159394379Y-99036678D01*
X159394699Y-99276392D01*
X159383198Y-99520612D01*
X159359198Y-99774808D01*
X159322021Y-100044451D01*
X159270989Y-100335015D01*
X159205423Y-100651969D01*
X159124647Y-101000785D01*
X159094410Y-101124330D01*
X159038458Y-101342678D01*
X158982716Y-101542475D01*
X158924501Y-101730814D01*
X158861134Y-101914787D01*
X158789932Y-102101489D01*
X158708215Y-102298010D01*
X158613300Y-102511443D01*
X158502507Y-102748883D01*
X158398239Y-102965830D01*
X158189709Y-103379395D01*
X157983875Y-103754647D01*
X157778530Y-104095321D01*
X157571469Y-104405152D01*
X157448447Y-104573882D01*
X157388793Y-104647186D01*
X157302831Y-104744653D01*
X157195202Y-104861560D01*
X157070546Y-104993183D01*
X156933501Y-105134799D01*
X156788708Y-105281686D01*
X156640807Y-105429120D01*
X156494436Y-105572378D01*
X156354237Y-105706738D01*
X156224849Y-105827475D01*
X156152997Y-105892610D01*
X155564285Y-106390954D01*
X154944865Y-106860991D01*
X154296469Y-107301614D01*
X153620829Y-107711716D01*
X152919677Y-108090190D01*
X152194743Y-108435929D01*
X152131330Y-108464104D01*
X151737167Y-108627720D01*
X151352341Y-108764980D01*
X150965309Y-108879176D01*
X150564529Y-108973600D01*
X150138461Y-109051542D01*
X149993497Y-109073744D01*
X149890153Y-109086398D01*
X149763731Y-109097945D01*
X149620839Y-109108166D01*
X149468084Y-109116843D01*
X149312076Y-109123757D01*
X149159422Y-109128691D01*
X149016731Y-109131424D01*
X148890610Y-109131740D01*
X148787667Y-109129420D01*
X148714512Y-109124245D01*
X148680030Y-109117160D01*
X148660365Y-109102130D01*
X148642591Y-109071498D01*
X148624468Y-109018737D01*
X148603757Y-108937320D01*
X148578217Y-108820721D01*
X148578089Y-108820113D01*
X148517838Y-108519394D01*
X148469413Y-108246730D01*
X148433338Y-108005472D01*
X148410136Y-107798974D01*
X148402790Y-107696580D01*
X148397835Y-107589605D01*
X148396896Y-107516101D01*
X148400781Y-107467324D01*
X148410294Y-107434533D01*
X148426243Y-107408986D01*
X148429708Y-107404667D01*
X148452625Y-107384154D01*
X148487772Y-107365475D01*
X148537705Y-107348369D01*
X148604978Y-107332574D01*
X148692147Y-107317829D01*
X148801768Y-107303872D01*
X148936394Y-107290442D01*
X149098583Y-107277277D01*
X149290888Y-107264115D01*
X149515866Y-107250695D01*
X149776071Y-107236756D01*
X150074059Y-107222036D01*
X150332163Y-107209945D01*
X150580363Y-107198382D01*
X150789534Y-107188252D01*
X150962947Y-107179309D01*
X151103874Y-107171305D01*
X151215586Y-107163995D01*
X151301353Y-107157131D01*
X151364447Y-107150466D01*
X151408140Y-107143754D01*
X151435701Y-107136747D01*
X151450403Y-107129200D01*
X151453854Y-107125310D01*
X151460544Y-107094586D01*
X151468307Y-107023516D01*
X151477027Y-106914073D01*
X151486590Y-106768227D01*
X151496881Y-106587951D01*
X151507783Y-106375215D01*
X151519183Y-106131991D01*
X151530965Y-105860250D01*
X151538538Y-105675163D01*
X151549680Y-105408952D01*
X151560806Y-105166328D01*
X151571761Y-104949779D01*
X151582389Y-104761791D01*
X151592534Y-104604850D01*
X151602042Y-104481444D01*
X151610757Y-104394057D01*
X151618524Y-104345178D01*
X151622216Y-104335721D01*
X151650203Y-104328457D01*
X151719821Y-104320570D01*
X151830370Y-104312094D01*
X151981154Y-104303067D01*
X152171475Y-104293526D01*
X152400634Y-104283508D01*
X152667934Y-104273048D01*
X152972676Y-104262183D01*
X153115580Y-104257378D01*
X153471169Y-104245167D01*
X153784805Y-104233430D01*
X154056866Y-104222147D01*
X154287729Y-104211296D01*
X154477771Y-104200857D01*
X154627370Y-104190810D01*
X154736903Y-104181133D01*
X154806748Y-104171805D01*
X154837282Y-104162806D01*
X154837822Y-104162327D01*
X154845801Y-104147629D01*
X154853484Y-104118028D01*
X154861054Y-104070895D01*
X154868695Y-104003601D01*
X154876589Y-103913515D01*
X154884920Y-103798009D01*
X154893871Y-103654453D01*
X154903626Y-103480216D01*
X154914368Y-103272670D01*
X154926280Y-103029185D01*
X154939545Y-102747131D01*
X154945562Y-102616580D01*
X154961515Y-102271172D01*
X154975893Y-101965354D01*
X154988848Y-101696416D01*
X155000532Y-101461649D01*
X155011097Y-101258344D01*
X155020696Y-101083792D01*
X155029480Y-100935284D01*
X155037600Y-100810110D01*
X155045210Y-100705563D01*
X155052460Y-100618933D01*
X155059504Y-100547511D01*
X155063667Y-100511052D01*
X155073210Y-100430496D01*
X155080367Y-100366925D01*
X155083905Y-100331402D01*
X155084080Y-100328108D01*
X155092454Y-100316309D01*
X155119104Y-100304729D01*
X155166320Y-100293133D01*
X155236393Y-100281286D01*
X155331613Y-100268954D01*
X155454271Y-100255902D01*
X155606659Y-100241897D01*
X155791066Y-100226704D01*
X156009783Y-100210087D01*
X156265101Y-100191813D01*
X156559311Y-100171648D01*
X156713913Y-100161302D01*
X156917986Y-100147499D01*
X157114239Y-100133781D01*
X157297536Y-100120540D01*
X157462741Y-100108165D01*
X157604719Y-100097046D01*
X157718336Y-100087574D01*
X157798456Y-100080139D01*
X157831986Y-100076338D01*
X157910017Y-100066142D01*
X157971785Y-100058694D01*
X158005151Y-100055451D01*
X158006611Y-100055413D01*
X158018687Y-100041692D01*
X158024504Y-99999109D01*
X158023919Y-99925533D01*
X158016788Y-99818835D01*
X158002967Y-99676883D01*
X157982312Y-99497547D01*
X157954679Y-99278698D01*
X157953435Y-99269156D01*
X157919416Y-99005137D01*
X157891447Y-98779761D01*
X157869290Y-98589805D01*
X157852704Y-98432049D01*
X157841451Y-98303272D01*
X157835291Y-98200252D01*
X157833985Y-98119769D01*
X157837294Y-98058601D01*
X157844979Y-98013526D01*
X157856799Y-97981324D01*
X157857658Y-97979688D01*
X157894529Y-97944728D01*
X157955358Y-97935770D01*
X158042261Y-97953208D01*
X158157357Y-97997433D01*
X158283011Y-98058491D01*
X158372389Y-98103249D01*
X158448053Y-98137978D01*
X158502315Y-98159372D01*
X158527489Y-98164125D01*
X158527904Y-98163812D01*
X158530074Y-98140257D01*
X158530360Y-98078858D01*
X158528884Y-97984055D01*
X158525766Y-97860291D01*
X158521125Y-97712005D01*
X158515082Y-97543640D01*
X158507759Y-97359636D01*
X158503215Y-97253074D01*
X158495177Y-97061497D01*
X158488282Y-96882395D01*
X158482659Y-96720331D01*
X158478440Y-96579867D01*
X158475754Y-96465565D01*
X158474732Y-96381988D01*
X158475503Y-96333698D01*
X158476696Y-96323940D01*
X158507695Y-96299024D01*
X158576789Y-96280725D01*
X158603658Y-96276831D01*
X158679239Y-96272610D01*
X158772270Y-96274947D01*
G37*
X158772270Y-96274947D02*
X158872001Y-96282630D01*
X158967684Y-96294443D01*
X159048570Y-96309173D01*
X159103911Y-96325605D01*
X159119768Y-96335129D01*
X159129873Y-96364034D01*
X159143001Y-96431096D01*
X159158719Y-96532278D01*
X159176597Y-96663546D01*
X159196203Y-96820863D01*
X159217104Y-97000194D01*
X159238871Y-97197503D01*
X159261070Y-97408754D01*
X159283272Y-97629912D01*
X159305043Y-97856941D01*
X159325953Y-98085806D01*
X159345569Y-98312470D01*
X159363462Y-98532898D01*
X159379198Y-98743055D01*
X159382916Y-98795997D01*
X159394379Y-99036678D01*
X159394699Y-99276392D01*
X159383198Y-99520612D01*
X159359198Y-99774808D01*
X159322021Y-100044451D01*
X159270989Y-100335015D01*
X159205423Y-100651969D01*
X159124647Y-101000785D01*
X159094410Y-101124330D01*
X159038458Y-101342678D01*
X158982716Y-101542475D01*
X158924501Y-101730814D01*
X158861134Y-101914787D01*
X158789932Y-102101489D01*
X158708215Y-102298010D01*
X158613300Y-102511443D01*
X158502507Y-102748883D01*
X158398239Y-102965830D01*
X158189709Y-103379395D01*
X157983875Y-103754647D01*
X157778530Y-104095321D01*
X157571469Y-104405152D01*
X157448447Y-104573882D01*
X157388793Y-104647186D01*
X157302831Y-104744653D01*
X157195202Y-104861560D01*
X157070546Y-104993183D01*
X156933501Y-105134799D01*
X156788708Y-105281686D01*
X156640807Y-105429120D01*
X156494436Y-105572378D01*
X156354237Y-105706738D01*
X156224849Y-105827475D01*
X156152997Y-105892610D01*
X155564285Y-106390954D01*
X154944865Y-106860991D01*
X154296469Y-107301614D01*
X153620829Y-107711716D01*
X152919677Y-108090190D01*
X152194743Y-108435929D01*
X152131330Y-108464104D01*
X151737167Y-108627720D01*
X151352341Y-108764980D01*
X150965309Y-108879176D01*
X150564529Y-108973600D01*
X150138461Y-109051542D01*
X149993497Y-109073744D01*
X149890153Y-109086398D01*
X149763731Y-109097945D01*
X149620839Y-109108166D01*
X149468084Y-109116843D01*
X149312076Y-109123757D01*
X149159422Y-109128691D01*
X149016731Y-109131424D01*
X148890610Y-109131740D01*
X148787667Y-109129420D01*
X148714512Y-109124245D01*
X148680030Y-109117160D01*
X148660365Y-109102130D01*
X148642591Y-109071498D01*
X148624468Y-109018737D01*
X148603757Y-108937320D01*
X148578217Y-108820721D01*
X148578089Y-108820113D01*
X148517838Y-108519394D01*
X148469413Y-108246730D01*
X148433338Y-108005472D01*
X148410136Y-107798974D01*
X148402790Y-107696580D01*
X148397835Y-107589605D01*
X148396896Y-107516101D01*
X148400781Y-107467324D01*
X148410294Y-107434533D01*
X148426243Y-107408986D01*
X148429708Y-107404667D01*
X148452625Y-107384154D01*
X148487772Y-107365475D01*
X148537705Y-107348369D01*
X148604978Y-107332574D01*
X148692147Y-107317829D01*
X148801768Y-107303872D01*
X148936394Y-107290442D01*
X149098583Y-107277277D01*
X149290888Y-107264115D01*
X149515866Y-107250695D01*
X149776071Y-107236756D01*
X150074059Y-107222036D01*
X150332163Y-107209945D01*
X150580363Y-107198382D01*
X150789534Y-107188252D01*
X150962947Y-107179309D01*
X151103874Y-107171305D01*
X151215586Y-107163995D01*
X151301353Y-107157131D01*
X151364447Y-107150466D01*
X151408140Y-107143754D01*
X151435701Y-107136747D01*
X151450403Y-107129200D01*
X151453854Y-107125310D01*
X151460544Y-107094586D01*
X151468307Y-107023516D01*
X151477027Y-106914073D01*
X151486590Y-106768227D01*
X151496881Y-106587951D01*
X151507783Y-106375215D01*
X151519183Y-106131991D01*
X151530965Y-105860250D01*
X151538538Y-105675163D01*
X151549680Y-105408952D01*
X151560806Y-105166328D01*
X151571761Y-104949779D01*
X151582389Y-104761791D01*
X151592534Y-104604850D01*
X151602042Y-104481444D01*
X151610757Y-104394057D01*
X151618524Y-104345178D01*
X151622216Y-104335721D01*
X151650203Y-104328457D01*
X151719821Y-104320570D01*
X151830370Y-104312094D01*
X151981154Y-104303067D01*
X152171475Y-104293526D01*
X152400634Y-104283508D01*
X152667934Y-104273048D01*
X152972676Y-104262183D01*
X153115580Y-104257378D01*
X153471169Y-104245167D01*
X153784805Y-104233430D01*
X154056866Y-104222147D01*
X154287729Y-104211296D01*
X154477771Y-104200857D01*
X154627370Y-104190810D01*
X154736903Y-104181133D01*
X154806748Y-104171805D01*
X154837282Y-104162806D01*
X154837822Y-104162327D01*
X154845801Y-104147629D01*
X154853484Y-104118028D01*
X154861054Y-104070895D01*
X154868695Y-104003601D01*
X154876589Y-103913515D01*
X154884920Y-103798009D01*
X154893871Y-103654453D01*
X154903626Y-103480216D01*
X154914368Y-103272670D01*
X154926280Y-103029185D01*
X154939545Y-102747131D01*
X154945562Y-102616580D01*
X154961515Y-102271172D01*
X154975893Y-101965354D01*
X154988848Y-101696416D01*
X155000532Y-101461649D01*
X155011097Y-101258344D01*
X155020696Y-101083792D01*
X155029480Y-100935284D01*
X155037600Y-100810110D01*
X155045210Y-100705563D01*
X155052460Y-100618933D01*
X155059504Y-100547511D01*
X155063667Y-100511052D01*
X155073210Y-100430496D01*
X155080367Y-100366925D01*
X155083905Y-100331402D01*
X155084080Y-100328108D01*
X155092454Y-100316309D01*
X155119104Y-100304729D01*
X155166320Y-100293133D01*
X155236393Y-100281286D01*
X155331613Y-100268954D01*
X155454271Y-100255902D01*
X155606659Y-100241897D01*
X155791066Y-100226704D01*
X156009783Y-100210087D01*
X156265101Y-100191813D01*
X156559311Y-100171648D01*
X156713913Y-100161302D01*
X156917986Y-100147499D01*
X157114239Y-100133781D01*
X157297536Y-100120540D01*
X157462741Y-100108165D01*
X157604719Y-100097046D01*
X157718336Y-100087574D01*
X157798456Y-100080139D01*
X157831986Y-100076338D01*
X157910017Y-100066142D01*
X157971785Y-100058694D01*
X158005151Y-100055451D01*
X158006611Y-100055413D01*
X158018687Y-100041692D01*
X158024504Y-99999109D01*
X158023919Y-99925533D01*
X158016788Y-99818835D01*
X158002967Y-99676883D01*
X157982312Y-99497547D01*
X157954679Y-99278698D01*
X157953435Y-99269156D01*
X157919416Y-99005137D01*
X157891447Y-98779761D01*
X157869290Y-98589805D01*
X157852704Y-98432049D01*
X157841451Y-98303272D01*
X157835291Y-98200252D01*
X157833985Y-98119769D01*
X157837294Y-98058601D01*
X157844979Y-98013526D01*
X157856799Y-97981324D01*
X157857658Y-97979688D01*
X157894529Y-97944728D01*
X157955358Y-97935770D01*
X158042261Y-97953208D01*
X158157357Y-97997433D01*
X158283011Y-98058491D01*
X158372389Y-98103249D01*
X158448053Y-98137978D01*
X158502315Y-98159372D01*
X158527489Y-98164125D01*
X158527904Y-98163812D01*
X158530074Y-98140257D01*
X158530360Y-98078858D01*
X158528884Y-97984055D01*
X158525766Y-97860291D01*
X158521125Y-97712005D01*
X158515082Y-97543640D01*
X158507759Y-97359636D01*
X158503215Y-97253074D01*
X158495177Y-97061497D01*
X158488282Y-96882395D01*
X158482659Y-96720331D01*
X158478440Y-96579867D01*
X158475754Y-96465565D01*
X158474732Y-96381988D01*
X158475503Y-96333698D01*
X158476696Y-96323940D01*
X158507695Y-96299024D01*
X158576789Y-96280725D01*
X158603658Y-96276831D01*
X158679239Y-96272610D01*
X158772270Y-96274947D01*
X148926133Y-72325613D02*
X149778814Y-72325664D01*
X149778814Y-72325664D02*
X150629234Y-72325747D01*
X150629234Y-72325747D02*
X151476330Y-72325861D01*
X151476330Y-72325861D02*
X152319042Y-72326006D01*
X152319042Y-72326006D02*
X153156308Y-72326183D01*
X153156308Y-72326183D02*
X153987065Y-72326391D01*
X153987065Y-72326391D02*
X154810251Y-72326631D01*
X154810251Y-72326631D02*
X155624806Y-72326901D01*
X155624806Y-72326901D02*
X156429668Y-72327204D01*
X156429668Y-72327204D02*
X157223774Y-72327537D01*
X157223774Y-72327537D02*
X158006062Y-72327903D01*
X158006062Y-72327903D02*
X158775472Y-72328299D01*
X158775472Y-72328299D02*
X159530941Y-72328727D01*
X159530941Y-72328727D02*
X160271407Y-72329186D01*
X160271407Y-72329186D02*
X160995809Y-72329677D01*
X160995809Y-72329677D02*
X161703085Y-72330199D01*
X161703085Y-72330199D02*
X162392173Y-72330752D01*
X162392173Y-72330752D02*
X163062012Y-72331337D01*
X163062012Y-72331337D02*
X163711539Y-72331953D01*
X163711539Y-72331953D02*
X164339693Y-72332601D01*
X164339693Y-72332601D02*
X164945412Y-72333280D01*
X164945412Y-72333280D02*
X165527634Y-72333990D01*
X165527634Y-72333990D02*
X166085298Y-72334732D01*
X166085298Y-72334732D02*
X166617341Y-72335505D01*
X166617341Y-72335505D02*
X167122703Y-72336310D01*
X167122703Y-72336310D02*
X167600320Y-72337146D01*
X167600320Y-72337146D02*
X168049132Y-72338013D01*
X168049132Y-72338013D02*
X168468077Y-72338912D01*
X168468077Y-72338912D02*
X168856092Y-72339842D01*
X168856092Y-72339842D02*
X169212117Y-72340804D01*
X169212117Y-72340804D02*
X169535088Y-72341796D01*
X169535088Y-72341796D02*
X169823946Y-72342821D01*
X169823946Y-72342821D02*
X170077627Y-72343876D01*
X170077627Y-72343876D02*
X170295070Y-72344964D01*
X170295070Y-72344964D02*
X170475213Y-72346082D01*
X170475213Y-72346082D02*
X170616994Y-72347232D01*
X170616994Y-72347232D02*
X170719353Y-72348413D01*
X170719353Y-72348413D02*
X170781226Y-72349626D01*
X170781226Y-72349626D02*
X170800330Y-72350544D01*
X170800330Y-72350544D02*
X171117387Y-72410258D01*
X171117387Y-72410258D02*
X171419893Y-72509437D01*
X171419893Y-72509437D02*
X171705925Y-72647144D01*
X171705925Y-72647144D02*
X171973564Y-72822438D01*
X171973564Y-72822438D02*
X172220890Y-73034382D01*
X172220890Y-73034382D02*
X172242451Y-73055584D01*
X172242451Y-73055584D02*
X172455115Y-73296440D01*
X172455115Y-73296440D02*
X172632766Y-73560167D01*
X172632766Y-73560167D02*
X172774009Y-73843910D01*
X172774009Y-73843910D02*
X172877447Y-74144811D01*
X172877447Y-74144811D02*
X172941685Y-74460014D01*
X172941685Y-74460014D02*
X172946449Y-74496663D01*
X172946449Y-74496663D02*
X172947685Y-74527866D01*
X172947685Y-74527866D02*
X172948889Y-74600341D01*
X172948889Y-74600341D02*
X172950062Y-74713025D01*
X172950062Y-74713025D02*
X172951204Y-74864857D01*
X172951204Y-74864857D02*
X172952314Y-75054776D01*
X172952314Y-75054776D02*
X172953393Y-75281719D01*
X172953393Y-75281719D02*
X172954441Y-75544625D01*
X172954441Y-75544625D02*
X172955457Y-75842431D01*
X172955457Y-75842431D02*
X172956442Y-76174077D01*
X172956442Y-76174077D02*
X172957395Y-76538500D01*
X172957395Y-76538500D02*
X172958317Y-76934639D01*
X172958317Y-76934639D02*
X172959208Y-77361431D01*
X172959208Y-77361431D02*
X172960067Y-77817816D01*
X172960067Y-77817816D02*
X172960895Y-78302730D01*
X172960895Y-78302730D02*
X172961691Y-78815113D01*
X172961691Y-78815113D02*
X172962456Y-79353903D01*
X172962456Y-79353903D02*
X172963190Y-79918038D01*
X172963190Y-79918038D02*
X172963892Y-80506456D01*
X172963892Y-80506456D02*
X172964563Y-81118095D01*
X172964563Y-81118095D02*
X172965203Y-81751894D01*
X172965203Y-81751894D02*
X172965811Y-82406791D01*
X172965811Y-82406791D02*
X172966387Y-83081724D01*
X172966387Y-83081724D02*
X172966933Y-83775631D01*
X172966933Y-83775631D02*
X172967447Y-84487450D01*
X172967447Y-84487450D02*
X172967929Y-85216120D01*
X172967929Y-85216120D02*
X172968380Y-85960579D01*
X172968380Y-85960579D02*
X172968800Y-86719766D01*
X172968800Y-86719766D02*
X172969188Y-87492618D01*
X172969188Y-87492618D02*
X172969545Y-88278073D01*
X172969545Y-88278073D02*
X172969871Y-89075070D01*
X172969871Y-89075070D02*
X172970165Y-89882547D01*
X172970165Y-89882547D02*
X172970428Y-90699443D01*
X172970428Y-90699443D02*
X172970659Y-91524695D01*
X172970659Y-91524695D02*
X172970859Y-92357242D01*
X172970859Y-92357242D02*
X172971028Y-93196022D01*
X172971028Y-93196022D02*
X172971165Y-94039973D01*
X172971165Y-94039973D02*
X172971271Y-94888033D01*
X172971271Y-94888033D02*
X172971345Y-95739141D01*
X172971345Y-95739141D02*
X172971388Y-96592235D01*
X172971388Y-96592235D02*
X172971400Y-97446253D01*
X172971400Y-97446253D02*
X172971380Y-98300133D01*
X172971380Y-98300133D02*
X172971329Y-99152814D01*
X172971329Y-99152814D02*
X172971246Y-100003234D01*
X172971246Y-100003234D02*
X172971132Y-100850330D01*
X172971132Y-100850330D02*
X172970987Y-101693042D01*
X172970987Y-101693042D02*
X172970810Y-102530308D01*
X172970810Y-102530308D02*
X172970602Y-103361065D01*
X172970602Y-103361065D02*
X172970362Y-104184251D01*
X172970362Y-104184251D02*
X172970092Y-104998806D01*
X172970092Y-104998806D02*
X172969789Y-105803668D01*
X172969789Y-105803668D02*
X172969456Y-106597774D01*
X172969456Y-106597774D02*
X172969090Y-107380062D01*
X172969090Y-107380062D02*
X172968694Y-108149472D01*
X172968694Y-108149472D02*
X172968266Y-108904941D01*
X172968266Y-108904941D02*
X172967807Y-109645407D01*
X172967807Y-109645407D02*
X172967316Y-110369809D01*
X172967316Y-110369809D02*
X172966794Y-111077085D01*
X172966794Y-111077085D02*
X172966241Y-111766173D01*
X172966241Y-111766173D02*
X172965656Y-112436012D01*
X172965656Y-112436012D02*
X172965040Y-113085539D01*
X172965040Y-113085539D02*
X172964392Y-113713693D01*
X172964392Y-113713693D02*
X172963713Y-114319412D01*
X172963713Y-114319412D02*
X172963003Y-114901634D01*
X172963003Y-114901634D02*
X172962261Y-115459298D01*
X172962261Y-115459298D02*
X172961488Y-115991341D01*
X172961488Y-115991341D02*
X172960683Y-116496703D01*
X172960683Y-116496703D02*
X172959847Y-116974320D01*
X172959847Y-116974320D02*
X172958980Y-117423132D01*
X172958980Y-117423132D02*
X172958081Y-117842077D01*
X172958081Y-117842077D02*
X172957151Y-118230092D01*
X172957151Y-118230092D02*
X172956189Y-118586117D01*
X172956189Y-118586117D02*
X172955197Y-118909088D01*
X172955197Y-118909088D02*
X172954172Y-119197946D01*
X172954172Y-119197946D02*
X172953117Y-119451627D01*
X172953117Y-119451627D02*
X172952029Y-119669070D01*
X172952029Y-119669070D02*
X172950911Y-119849213D01*
X172950911Y-119849213D02*
X172949761Y-119990994D01*
X172949761Y-119990994D02*
X172948580Y-120093353D01*
X172948580Y-120093353D02*
X172947367Y-120155226D01*
X172947367Y-120155226D02*
X172946449Y-120174330D01*
X172946449Y-120174330D02*
X172886796Y-120490551D01*
X172886796Y-120490551D02*
X172787631Y-120792581D01*
X172787631Y-120792581D02*
X172650057Y-121078170D01*
X172650057Y-121078170D02*
X172475175Y-121345068D01*
X172475175Y-121345068D02*
X172264088Y-121591026D01*
X172264088Y-121591026D02*
X172240707Y-121614707D01*
X172240707Y-121614707D02*
X171996998Y-121829403D01*
X171996998Y-121829403D02*
X171732120Y-122008006D01*
X171732120Y-122008006D02*
X171448323Y-122149414D01*
X171448323Y-122149414D02*
X171147858Y-122252523D01*
X171147858Y-122252523D02*
X170832973Y-122316232D01*
X170832973Y-122316232D02*
X170800330Y-122320449D01*
X170800330Y-122320449D02*
X170770503Y-122321518D01*
X170770503Y-122321518D02*
X170699408Y-122322560D01*
X170699408Y-122322560D02*
X170588103Y-122323574D01*
X170588103Y-122323574D02*
X170437650Y-122324561D01*
X170437650Y-122324561D02*
X170249108Y-122325521D01*
X170249108Y-122325521D02*
X170023537Y-122326453D01*
X170023537Y-122326453D02*
X169761997Y-122327358D01*
X169761997Y-122327358D02*
X169465549Y-122328235D01*
X169465549Y-122328235D02*
X169135252Y-122329085D01*
X169135252Y-122329085D02*
X168772167Y-122329907D01*
X168772167Y-122329907D02*
X168377354Y-122330702D01*
X168377354Y-122330702D02*
X167951872Y-122331469D01*
X167951872Y-122331469D02*
X167496782Y-122332210D01*
X167496782Y-122332210D02*
X167013145Y-122332922D01*
X167013145Y-122332922D02*
X166502019Y-122333608D01*
X166502019Y-122333608D02*
X165964466Y-122334266D01*
X165964466Y-122334266D02*
X165401544Y-122334897D01*
X165401544Y-122334897D02*
X164814315Y-122335500D01*
X164814315Y-122335500D02*
X164203839Y-122336076D01*
X164203839Y-122336076D02*
X163571175Y-122336625D01*
X163571175Y-122336625D02*
X162917383Y-122337146D01*
X162917383Y-122337146D02*
X162243525Y-122337640D01*
X162243525Y-122337640D02*
X161550659Y-122338107D01*
X161550659Y-122338107D02*
X160839845Y-122338547D01*
X160839845Y-122338547D02*
X160112145Y-122338959D01*
X160112145Y-122338959D02*
X159368618Y-122339344D01*
X159368618Y-122339344D02*
X158610324Y-122339702D01*
X158610324Y-122339702D02*
X157838323Y-122340032D01*
X157838323Y-122340032D02*
X157053675Y-122340336D01*
X157053675Y-122340336D02*
X156257441Y-122340612D01*
X156257441Y-122340612D02*
X155450680Y-122340860D01*
X155450680Y-122340860D02*
X154634453Y-122341082D01*
X154634453Y-122341082D02*
X153809819Y-122341276D01*
X153809819Y-122341276D02*
X152977839Y-122341444D01*
X152977839Y-122341444D02*
X152139573Y-122341584D01*
X152139573Y-122341584D02*
X151296081Y-122341697D01*
X151296081Y-122341697D02*
X150448423Y-122341782D01*
X150448423Y-122341782D02*
X149597659Y-122341841D01*
X149597659Y-122341841D02*
X148744849Y-122341872D01*
X148744849Y-122341872D02*
X147891053Y-122341876D01*
X147891053Y-122341876D02*
X147037331Y-122341854D01*
X147037331Y-122341854D02*
X146184744Y-122341804D01*
X146184744Y-122341804D02*
X145334352Y-122341727D01*
X145334352Y-122341727D02*
X144487214Y-122341622D01*
X144487214Y-122341622D02*
X143644391Y-122341491D01*
X143644391Y-122341491D02*
X142806942Y-122341333D01*
X142806942Y-122341333D02*
X141975929Y-122341147D01*
X141975929Y-122341147D02*
X141152410Y-122340935D01*
X141152410Y-122340935D02*
X140337446Y-122340695D01*
X140337446Y-122340695D02*
X139532098Y-122340429D01*
X139532098Y-122340429D02*
X138737425Y-122340135D01*
X138737425Y-122340135D02*
X137954487Y-122339815D01*
X137954487Y-122339815D02*
X137184344Y-122339467D01*
X137184344Y-122339467D02*
X136428057Y-122339092D01*
X136428057Y-122339092D02*
X135686685Y-122338691D01*
X135686685Y-122338691D02*
X134961289Y-122338262D01*
X134961289Y-122338262D02*
X134252929Y-122337806D01*
X134252929Y-122337806D02*
X133562665Y-122337324D01*
X133562665Y-122337324D02*
X132891556Y-122336814D01*
X132891556Y-122336814D02*
X132240664Y-122336278D01*
X132240664Y-122336278D02*
X131611047Y-122335714D01*
X131611047Y-122335714D02*
X131003767Y-122335124D01*
X131003767Y-122335124D02*
X130419883Y-122334507D01*
X130419883Y-122334507D02*
X129860456Y-122333863D01*
X129860456Y-122333863D02*
X129326544Y-122333191D01*
X129326544Y-122333191D02*
X128819210Y-122332493D01*
X128819210Y-122332493D02*
X128339512Y-122331769D01*
X128339512Y-122331769D02*
X127888510Y-122331017D01*
X127888510Y-122331017D02*
X127467266Y-122330238D01*
X127467266Y-122330238D02*
X127076838Y-122329433D01*
X127076838Y-122329433D02*
X126718287Y-122328600D01*
X126718287Y-122328600D02*
X126392674Y-122327741D01*
X126392674Y-122327741D02*
X126101057Y-122326855D01*
X126101057Y-122326855D02*
X125844498Y-122325942D01*
X125844498Y-122325942D02*
X125624056Y-122325003D01*
X125624056Y-122325003D02*
X125440791Y-122324036D01*
X125440791Y-122324036D02*
X125295764Y-122323043D01*
X125295764Y-122323043D02*
X125190034Y-122322023D01*
X125190034Y-122322023D02*
X125124662Y-122320976D01*
X125124662Y-122320976D02*
X125101497Y-122320051D01*
X125101497Y-122320051D02*
X124804304Y-122262147D01*
X124804304Y-122262147D02*
X124512916Y-122164892D01*
X124512916Y-122164892D02*
X124233346Y-122031267D01*
X124233346Y-122031267D02*
X123971609Y-121864255D01*
X123971609Y-121864255D02*
X123733719Y-121666836D01*
X123733719Y-121666836D02*
X123681831Y-121616258D01*
X123681831Y-121616258D02*
X123466888Y-121371094D01*
X123466888Y-121371094D02*
X123288201Y-121105150D01*
X123288201Y-121105150D02*
X123146847Y-120820629D01*
X123146847Y-120820629D02*
X123043904Y-120519734D01*
X123043904Y-120519734D02*
X122980449Y-120204666D01*
X122980449Y-120204666D02*
X122976544Y-120174330D01*
X122976544Y-120174330D02*
X122975308Y-120143127D01*
X122975308Y-120143127D02*
X122974104Y-120070652D01*
X122974104Y-120070652D02*
X122972931Y-119957968D01*
X122972931Y-119957968D02*
X122971789Y-119806136D01*
X122971789Y-119806136D02*
X122970679Y-119616217D01*
X122970679Y-119616217D02*
X122969600Y-119389274D01*
X122969600Y-119389274D02*
X122968552Y-119126368D01*
X122968552Y-119126368D02*
X122967536Y-118828562D01*
X122967536Y-118828562D02*
X122966551Y-118496916D01*
X122966551Y-118496916D02*
X122965598Y-118132493D01*
X122965598Y-118132493D02*
X122964676Y-117736354D01*
X122964676Y-117736354D02*
X122963785Y-117309562D01*
X122963785Y-117309562D02*
X122962926Y-116853177D01*
X122962926Y-116853177D02*
X122962098Y-116368263D01*
X122962098Y-116368263D02*
X122961302Y-115855880D01*
X122961302Y-115855880D02*
X122960537Y-115317090D01*
X122960537Y-115317090D02*
X122959803Y-114752955D01*
X122959803Y-114752955D02*
X122959101Y-114164537D01*
X122959101Y-114164537D02*
X122958430Y-113552898D01*
X122958430Y-113552898D02*
X122957790Y-112919099D01*
X122957790Y-112919099D02*
X122957182Y-112264202D01*
X122957182Y-112264202D02*
X122956606Y-111589269D01*
X122956606Y-111589269D02*
X122956060Y-110895362D01*
X122956060Y-110895362D02*
X122955546Y-110183543D01*
X122955546Y-110183543D02*
X122955064Y-109454873D01*
X122955064Y-109454873D02*
X122954613Y-108710414D01*
X122954613Y-108710414D02*
X122954193Y-107951227D01*
X122954193Y-107951227D02*
X122953805Y-107178375D01*
X122953805Y-107178375D02*
X122953448Y-106392920D01*
X122953448Y-106392920D02*
X122953249Y-105905229D01*
X122953249Y-105905229D02*
X123972466Y-105905229D01*
X123972466Y-105905229D02*
X123972473Y-106977236D01*
X123972473Y-106977236D02*
X123972531Y-108007012D01*
X123972531Y-108007012D02*
X123972642Y-108994553D01*
X123972642Y-108994553D02*
X123972803Y-109939856D01*
X123972803Y-109939856D02*
X123973017Y-110842916D01*
X123973017Y-110842916D02*
X123973282Y-111703728D01*
X123973282Y-111703728D02*
X123973598Y-112522290D01*
X123973598Y-112522290D02*
X123973967Y-113298595D01*
X123973967Y-113298595D02*
X123974387Y-114032641D01*
X123974387Y-114032641D02*
X123974858Y-114724423D01*
X123974858Y-114724423D02*
X123975382Y-115373937D01*
X123975382Y-115373937D02*
X123975957Y-115981179D01*
X123975957Y-115981179D02*
X123976583Y-116546144D01*
X123976583Y-116546144D02*
X123977262Y-117068829D01*
X123977262Y-117068829D02*
X123977992Y-117549229D01*
X123977992Y-117549229D02*
X123978773Y-117987340D01*
X123978773Y-117987340D02*
X123979606Y-118383157D01*
X123979606Y-118383157D02*
X123980491Y-118736678D01*
X123980491Y-118736678D02*
X123981428Y-119047897D01*
X123981428Y-119047897D02*
X123982416Y-119316810D01*
X123982416Y-119316810D02*
X123983456Y-119543414D01*
X123983456Y-119543414D02*
X123984547Y-119727704D01*
X123984547Y-119727704D02*
X123985690Y-119869675D01*
X123985690Y-119869675D02*
X123986884Y-119969324D01*
X123986884Y-119969324D02*
X123988131Y-120026646D01*
X123988131Y-120026646D02*
X123988927Y-120040911D01*
X123988927Y-120040911D02*
X124040511Y-120281773D01*
X124040511Y-120281773D02*
X124128272Y-120505752D01*
X124128272Y-120505752D02*
X124248965Y-120709504D01*
X124248965Y-120709504D02*
X124399348Y-120889684D01*
X124399348Y-120889684D02*
X124576176Y-121042947D01*
X124576176Y-121042947D02*
X124776205Y-121165947D01*
X124776205Y-121165947D02*
X124996190Y-121255341D01*
X124996190Y-121255341D02*
X125215152Y-121305282D01*
X125215152Y-121305282D02*
X125241344Y-121306037D01*
X125241344Y-121306037D02*
X125308998Y-121306778D01*
X125308998Y-121306778D02*
X125417243Y-121307506D01*
X125417243Y-121307506D02*
X125565207Y-121308219D01*
X125565207Y-121308219D02*
X125752019Y-121308917D01*
X125752019Y-121308917D02*
X125976807Y-121309600D01*
X125976807Y-121309600D02*
X126238701Y-121310266D01*
X126238701Y-121310266D02*
X126536828Y-121310916D01*
X126536828Y-121310916D02*
X126870317Y-121311548D01*
X126870317Y-121311548D02*
X127238298Y-121312163D01*
X127238298Y-121312163D02*
X127639898Y-121312759D01*
X127639898Y-121312759D02*
X128074246Y-121313336D01*
X128074246Y-121313336D02*
X128540470Y-121313894D01*
X128540470Y-121313894D02*
X129037701Y-121314431D01*
X129037701Y-121314431D02*
X129565065Y-121314948D01*
X129565065Y-121314948D02*
X130121692Y-121315444D01*
X130121692Y-121315444D02*
X130706710Y-121315919D01*
X130706710Y-121315919D02*
X131319248Y-121316371D01*
X131319248Y-121316371D02*
X131958435Y-121316800D01*
X131958435Y-121316800D02*
X132623398Y-121317205D01*
X132623398Y-121317205D02*
X133313268Y-121317587D01*
X133313268Y-121317587D02*
X134027172Y-121317944D01*
X134027172Y-121317944D02*
X134764239Y-121318277D01*
X134764239Y-121318277D02*
X135523597Y-121318583D01*
X135523597Y-121318583D02*
X136304376Y-121318864D01*
X136304376Y-121318864D02*
X137105703Y-121319117D01*
X137105703Y-121319117D02*
X137926709Y-121319344D01*
X137926709Y-121319344D02*
X138766520Y-121319542D01*
X138766520Y-121319542D02*
X139624266Y-121319712D01*
X139624266Y-121319712D02*
X140499075Y-121319853D01*
X140499075Y-121319853D02*
X141390076Y-121319965D01*
X141390076Y-121319965D02*
X142296398Y-121320047D01*
X142296398Y-121320047D02*
X143217169Y-121320098D01*
X143217169Y-121320098D02*
X144151518Y-121320117D01*
X144151518Y-121320117D02*
X145098573Y-121320105D01*
X145098573Y-121320105D02*
X146057464Y-121320061D01*
X146057464Y-121320061D02*
X147027318Y-121319984D01*
X147027318Y-121319984D02*
X148007265Y-121319873D01*
X148007265Y-121319873D02*
X148035580Y-121319870D01*
X148035580Y-121319870D02*
X149216256Y-121319714D01*
X149216256Y-121319714D02*
X150355347Y-121319560D01*
X150355347Y-121319560D02*
X151453603Y-121319405D01*
X151453603Y-121319405D02*
X152511772Y-121319249D01*
X152511772Y-121319249D02*
X153530604Y-121319090D01*
X153530604Y-121319090D02*
X154510847Y-121318927D01*
X154510847Y-121318927D02*
X155453249Y-121318759D01*
X155453249Y-121318759D02*
X156358561Y-121318583D01*
X156358561Y-121318583D02*
X157227530Y-121318400D01*
X157227530Y-121318400D02*
X158060906Y-121318206D01*
X158060906Y-121318206D02*
X158859437Y-121318002D01*
X158859437Y-121318002D02*
X159623873Y-121317785D01*
X159623873Y-121317785D02*
X160354962Y-121317555D01*
X160354962Y-121317555D02*
X161053454Y-121317310D01*
X161053454Y-121317310D02*
X161720096Y-121317048D01*
X161720096Y-121317048D02*
X162355639Y-121316769D01*
X162355639Y-121316769D02*
X162960830Y-121316470D01*
X162960830Y-121316470D02*
X163536419Y-121316151D01*
X163536419Y-121316151D02*
X164083155Y-121315811D01*
X164083155Y-121315811D02*
X164601787Y-121315447D01*
X164601787Y-121315447D02*
X165093062Y-121315059D01*
X165093062Y-121315059D02*
X165557731Y-121314645D01*
X165557731Y-121314645D02*
X165996543Y-121314203D01*
X165996543Y-121314203D02*
X166410245Y-121313733D01*
X166410245Y-121313733D02*
X166799588Y-121313234D01*
X166799588Y-121313234D02*
X167165319Y-121312703D01*
X167165319Y-121312703D02*
X167508188Y-121312139D01*
X167508188Y-121312139D02*
X167828943Y-121311542D01*
X167828943Y-121311542D02*
X168128335Y-121310909D01*
X168128335Y-121310909D02*
X168407110Y-121310239D01*
X168407110Y-121310239D02*
X168666019Y-121309531D01*
X168666019Y-121309531D02*
X168905810Y-121308785D01*
X168905810Y-121308785D02*
X169127232Y-121307997D01*
X169127232Y-121307997D02*
X169331035Y-121307167D01*
X169331035Y-121307167D02*
X169517966Y-121306294D01*
X169517966Y-121306294D02*
X169688775Y-121305376D01*
X169688775Y-121305376D02*
X169844210Y-121304412D01*
X169844210Y-121304412D02*
X169985021Y-121303400D01*
X169985021Y-121303400D02*
X170111956Y-121302340D01*
X170111956Y-121302340D02*
X170225765Y-121301229D01*
X170225765Y-121301229D02*
X170327196Y-121300067D01*
X170327196Y-121300067D02*
X170416998Y-121298852D01*
X170416998Y-121298852D02*
X170495920Y-121297582D01*
X170495920Y-121297582D02*
X170564710Y-121296257D01*
X170564710Y-121296257D02*
X170624119Y-121294875D01*
X170624119Y-121294875D02*
X170674894Y-121293435D01*
X170674894Y-121293435D02*
X170717785Y-121291935D01*
X170717785Y-121291935D02*
X170753540Y-121290374D01*
X170753540Y-121290374D02*
X170782908Y-121288751D01*
X170782908Y-121288751D02*
X170806639Y-121287064D01*
X170806639Y-121287064D02*
X170825480Y-121285312D01*
X170825480Y-121285312D02*
X170840182Y-121283493D01*
X170840182Y-121283493D02*
X170851492Y-121281607D01*
X170851492Y-121281607D02*
X170860161Y-121279651D01*
X170860161Y-121279651D02*
X170863830Y-121278619D01*
X170863830Y-121278619D02*
X171104846Y-121185147D01*
X171104846Y-121185147D02*
X171321185Y-121058625D01*
X171321185Y-121058625D02*
X171510473Y-120901452D01*
X171510473Y-120901452D02*
X171670337Y-120716023D01*
X171670337Y-120716023D02*
X171798403Y-120504736D01*
X171798403Y-120504736D02*
X171892296Y-120269990D01*
X171892296Y-120269990D02*
X171904878Y-120227247D01*
X171904878Y-120227247D02*
X171906875Y-120219142D01*
X171906875Y-120219142D02*
X171908802Y-120208879D01*
X171908802Y-120208879D02*
X171910661Y-120195708D01*
X171910661Y-120195708D02*
X171912451Y-120178881D01*
X171912451Y-120178881D02*
X171914175Y-120157649D01*
X171914175Y-120157649D02*
X171915833Y-120131265D01*
X171915833Y-120131265D02*
X171917428Y-120098978D01*
X171917428Y-120098978D02*
X171918959Y-120060041D01*
X171918959Y-120060041D02*
X171920430Y-120013706D01*
X171920430Y-120013706D02*
X171921840Y-119959223D01*
X171921840Y-119959223D02*
X171923191Y-119895845D01*
X171923191Y-119895845D02*
X171924484Y-119822822D01*
X171924484Y-119822822D02*
X171925721Y-119739406D01*
X171925721Y-119739406D02*
X171926903Y-119644849D01*
X171926903Y-119644849D02*
X171928030Y-119538402D01*
X171928030Y-119538402D02*
X171929105Y-119419317D01*
X171929105Y-119419317D02*
X171930129Y-119286845D01*
X171930129Y-119286845D02*
X171931102Y-119140237D01*
X171931102Y-119140237D02*
X171932027Y-118978745D01*
X171932027Y-118978745D02*
X171932903Y-118801621D01*
X171932903Y-118801621D02*
X171933734Y-118608116D01*
X171933734Y-118608116D02*
X171934519Y-118397481D01*
X171934519Y-118397481D02*
X171935260Y-118168968D01*
X171935260Y-118168968D02*
X171935959Y-117921829D01*
X171935959Y-117921829D02*
X171936616Y-117655314D01*
X171936616Y-117655314D02*
X171937233Y-117368676D01*
X171937233Y-117368676D02*
X171937812Y-117061165D01*
X171937812Y-117061165D02*
X171938352Y-116732034D01*
X171938352Y-116732034D02*
X171938857Y-116380534D01*
X171938857Y-116380534D02*
X171939326Y-116005916D01*
X171939326Y-116005916D02*
X171939761Y-115607432D01*
X171939761Y-115607432D02*
X171940164Y-115184332D01*
X171940164Y-115184332D02*
X171940536Y-114735870D01*
X171940536Y-114735870D02*
X171940877Y-114261296D01*
X171940877Y-114261296D02*
X171941190Y-113759861D01*
X171941190Y-113759861D02*
X171941475Y-113230817D01*
X171941475Y-113230817D02*
X171941734Y-112673416D01*
X171941734Y-112673416D02*
X171941967Y-112086910D01*
X171941967Y-112086910D02*
X171942177Y-111470548D01*
X171942177Y-111470548D02*
X171942365Y-110823584D01*
X171942365Y-110823584D02*
X171942531Y-110145268D01*
X171942531Y-110145268D02*
X171942677Y-109434852D01*
X171942677Y-109434852D02*
X171942805Y-108691588D01*
X171942805Y-108691588D02*
X171942915Y-107914726D01*
X171942915Y-107914726D02*
X171943009Y-107103519D01*
X171943009Y-107103519D02*
X171943087Y-106257217D01*
X171943087Y-106257217D02*
X171943152Y-105375074D01*
X171943152Y-105375074D02*
X171943205Y-104456338D01*
X171943205Y-104456338D02*
X171943246Y-103500264D01*
X171943246Y-103500264D02*
X171943278Y-102506100D01*
X171943278Y-102506100D02*
X171943300Y-101473101D01*
X171943300Y-101473101D02*
X171943316Y-100400516D01*
X171943316Y-100400516D02*
X171943325Y-99287597D01*
X171943325Y-99287597D02*
X171943329Y-98133595D01*
X171943329Y-98133595D02*
X171943330Y-97335497D01*
X171943330Y-97335497D02*
X171943328Y-96153497D01*
X171943328Y-96153497D02*
X171943323Y-95013082D01*
X171943323Y-95013082D02*
X171943312Y-93913504D01*
X171943312Y-93913504D02*
X171943294Y-92854013D01*
X171943294Y-92854013D02*
X171943268Y-91833861D01*
X171943268Y-91833861D02*
X171943234Y-90852300D01*
X171943234Y-90852300D02*
X171943189Y-89908582D01*
X171943189Y-89908582D02*
X171943132Y-89001957D01*
X171943132Y-89001957D02*
X171943063Y-88131677D01*
X171943063Y-88131677D02*
X171942979Y-87296994D01*
X171942979Y-87296994D02*
X171942881Y-86497159D01*
X171942881Y-86497159D02*
X171942765Y-85731423D01*
X171942765Y-85731423D02*
X171942631Y-84999039D01*
X171942631Y-84999039D02*
X171942479Y-84299257D01*
X171942479Y-84299257D02*
X171942306Y-83631329D01*
X171942306Y-83631329D02*
X171942111Y-82994506D01*
X171942111Y-82994506D02*
X171941893Y-82388040D01*
X171941893Y-82388040D02*
X171941651Y-81811183D01*
X171941651Y-81811183D02*
X171941384Y-81263186D01*
X171941384Y-81263186D02*
X171941090Y-80743300D01*
X171941090Y-80743300D02*
X171940768Y-80250777D01*
X171940768Y-80250777D02*
X171940417Y-79784868D01*
X171940417Y-79784868D02*
X171940035Y-79344825D01*
X171940035Y-79344825D02*
X171939622Y-78929900D01*
X171939622Y-78929900D02*
X171939175Y-78539343D01*
X171939175Y-78539343D02*
X171938695Y-78172406D01*
X171938695Y-78172406D02*
X171938179Y-77828341D01*
X171938179Y-77828341D02*
X171937626Y-77506400D01*
X171937626Y-77506400D02*
X171937035Y-77205832D01*
X171937035Y-77205832D02*
X171936405Y-76925891D01*
X171936405Y-76925891D02*
X171935734Y-76665828D01*
X171935734Y-76665828D02*
X171935021Y-76424894D01*
X171935021Y-76424894D02*
X171934266Y-76202340D01*
X171934266Y-76202340D02*
X171933466Y-75997418D01*
X171933466Y-75997418D02*
X171932620Y-75809380D01*
X171932620Y-75809380D02*
X171931728Y-75637477D01*
X171931728Y-75637477D02*
X171930788Y-75480960D01*
X171930788Y-75480960D02*
X171929798Y-75339082D01*
X171929798Y-75339082D02*
X171928758Y-75211092D01*
X171928758Y-75211092D02*
X171927665Y-75096244D01*
X171927665Y-75096244D02*
X171926520Y-74993788D01*
X171926520Y-74993788D02*
X171925320Y-74902975D01*
X171925320Y-74902975D02*
X171924065Y-74823058D01*
X171924065Y-74823058D02*
X171922753Y-74753288D01*
X171922753Y-74753288D02*
X171921383Y-74692916D01*
X171921383Y-74692916D02*
X171919953Y-74641194D01*
X171919953Y-74641194D02*
X171918463Y-74597373D01*
X171918463Y-74597373D02*
X171916911Y-74560705D01*
X171916911Y-74560705D02*
X171915295Y-74530441D01*
X171915295Y-74530441D02*
X171913615Y-74505833D01*
X171913615Y-74505833D02*
X171911870Y-74486131D01*
X171911870Y-74486131D02*
X171910057Y-74470589D01*
X171910057Y-74470589D02*
X171908177Y-74458456D01*
X171908177Y-74458456D02*
X171906227Y-74448985D01*
X171906227Y-74448985D02*
X171904878Y-74443747D01*
X171904878Y-74443747D02*
X171817202Y-74205650D01*
X171817202Y-74205650D02*
X171694940Y-73990209D01*
X171694940Y-73990209D02*
X171540895Y-73800229D01*
X171540895Y-73800229D02*
X171357871Y-73638511D01*
X171357871Y-73638511D02*
X171148671Y-73507859D01*
X171148671Y-73507859D02*
X170916098Y-73411078D01*
X170916098Y-73411078D02*
X170853247Y-73392115D01*
X170853247Y-73392115D02*
X170845142Y-73390118D01*
X170845142Y-73390118D02*
X170834879Y-73388191D01*
X170834879Y-73388191D02*
X170821708Y-73386332D01*
X170821708Y-73386332D02*
X170804881Y-73384542D01*
X170804881Y-73384542D02*
X170783649Y-73382818D01*
X170783649Y-73382818D02*
X170757265Y-73381160D01*
X170757265Y-73381160D02*
X170724978Y-73379565D01*
X170724978Y-73379565D02*
X170686041Y-73378034D01*
X170686041Y-73378034D02*
X170639706Y-73376563D01*
X170639706Y-73376563D02*
X170585223Y-73375153D01*
X170585223Y-73375153D02*
X170521845Y-73373802D01*
X170521845Y-73373802D02*
X170448822Y-73372509D01*
X170448822Y-73372509D02*
X170365406Y-73371272D01*
X170365406Y-73371272D02*
X170270849Y-73370090D01*
X170270849Y-73370090D02*
X170164402Y-73368963D01*
X170164402Y-73368963D02*
X170045317Y-73367888D01*
X170045317Y-73367888D02*
X169912845Y-73366864D01*
X169912845Y-73366864D02*
X169766237Y-73365891D01*
X169766237Y-73365891D02*
X169604745Y-73364966D01*
X169604745Y-73364966D02*
X169427621Y-73364090D01*
X169427621Y-73364090D02*
X169234116Y-73363259D01*
X169234116Y-73363259D02*
X169023481Y-73362474D01*
X169023481Y-73362474D02*
X168794968Y-73361733D01*
X168794968Y-73361733D02*
X168547829Y-73361034D01*
X168547829Y-73361034D02*
X168281314Y-73360377D01*
X168281314Y-73360377D02*
X167994676Y-73359760D01*
X167994676Y-73359760D02*
X167687165Y-73359181D01*
X167687165Y-73359181D02*
X167358034Y-73358641D01*
X167358034Y-73358641D02*
X167006534Y-73358136D01*
X167006534Y-73358136D02*
X166631916Y-73357667D01*
X166631916Y-73357667D02*
X166233432Y-73357232D01*
X166233432Y-73357232D02*
X165810332Y-73356829D01*
X165810332Y-73356829D02*
X165361870Y-73356457D01*
X165361870Y-73356457D02*
X164887296Y-73356116D01*
X164887296Y-73356116D02*
X164385861Y-73355803D01*
X164385861Y-73355803D02*
X163856817Y-73355518D01*
X163856817Y-73355518D02*
X163299416Y-73355259D01*
X163299416Y-73355259D02*
X162712910Y-73355026D01*
X162712910Y-73355026D02*
X162096548Y-73354816D01*
X162096548Y-73354816D02*
X161449584Y-73354628D01*
X161449584Y-73354628D02*
X160771268Y-73354462D01*
X160771268Y-73354462D02*
X160060852Y-73354316D01*
X160060852Y-73354316D02*
X159317588Y-73354188D01*
X159317588Y-73354188D02*
X158540726Y-73354078D01*
X158540726Y-73354078D02*
X157729519Y-73353984D01*
X157729519Y-73353984D02*
X156883217Y-73353906D01*
X156883217Y-73353906D02*
X156001074Y-73353841D01*
X156001074Y-73353841D02*
X155082338Y-73353788D01*
X155082338Y-73353788D02*
X154126264Y-73353747D01*
X154126264Y-73353747D02*
X153132100Y-73353715D01*
X153132100Y-73353715D02*
X152099101Y-73353693D01*
X152099101Y-73353693D02*
X151026516Y-73353677D01*
X151026516Y-73353677D02*
X149913597Y-73353668D01*
X149913597Y-73353668D02*
X148759595Y-73353664D01*
X148759595Y-73353664D02*
X147961497Y-73353663D01*
X147961497Y-73353663D02*
X146779645Y-73353665D01*
X146779645Y-73353665D02*
X145639379Y-73353670D01*
X145639379Y-73353670D02*
X144539948Y-73353681D01*
X144539948Y-73353681D02*
X143480605Y-73353697D01*
X143480605Y-73353697D02*
X142460599Y-73353722D01*
X142460599Y-73353722D02*
X141479183Y-73353756D01*
X141479183Y-73353756D02*
X140535608Y-73353799D01*
X140535608Y-73353799D02*
X139629125Y-73353854D01*
X139629125Y-73353854D02*
X138758984Y-73353922D01*
X138758984Y-73353922D02*
X137924438Y-73354004D01*
X137924438Y-73354004D02*
X137124738Y-73354101D01*
X137124738Y-73354101D02*
X136359134Y-73354215D01*
X136359134Y-73354215D02*
X135626879Y-73354347D01*
X135626879Y-73354347D02*
X134927223Y-73354497D01*
X134927223Y-73354497D02*
X134259417Y-73354668D01*
X134259417Y-73354668D02*
X133622713Y-73354861D01*
X133622713Y-73354861D02*
X133016361Y-73355076D01*
X133016361Y-73355076D02*
X132439614Y-73355316D01*
X132439614Y-73355316D02*
X131891723Y-73355581D01*
X131891723Y-73355581D02*
X131371938Y-73355873D01*
X131371938Y-73355873D02*
X130879510Y-73356192D01*
X130879510Y-73356192D02*
X130413692Y-73356541D01*
X130413692Y-73356541D02*
X129973734Y-73356921D01*
X129973734Y-73356921D02*
X129558887Y-73357332D01*
X129558887Y-73357332D02*
X129168404Y-73357776D01*
X129168404Y-73357776D02*
X128801534Y-73358254D01*
X128801534Y-73358254D02*
X128457529Y-73358768D01*
X128457529Y-73358768D02*
X128135641Y-73359319D01*
X128135641Y-73359319D02*
X127835120Y-73359908D01*
X127835120Y-73359908D02*
X127555218Y-73360536D01*
X127555218Y-73360536D02*
X127295186Y-73361205D01*
X127295186Y-73361205D02*
X127054275Y-73361916D01*
X127054275Y-73361916D02*
X126831737Y-73362670D01*
X126831737Y-73362670D02*
X126626823Y-73363468D01*
X126626823Y-73363468D02*
X126438784Y-73364312D01*
X126438784Y-73364312D02*
X126266870Y-73365203D01*
X126266870Y-73365203D02*
X126110334Y-73366143D01*
X126110334Y-73366143D02*
X125968427Y-73367131D01*
X125968427Y-73367131D02*
X125840400Y-73368171D01*
X125840400Y-73368171D02*
X125725504Y-73369263D01*
X125725504Y-73369263D02*
X125622989Y-73370407D01*
X125622989Y-73370407D02*
X125532109Y-73371607D01*
X125532109Y-73371607D02*
X125452113Y-73372862D01*
X125452113Y-73372862D02*
X125382253Y-73374175D01*
X125382253Y-73374175D02*
X125321781Y-73375545D01*
X125321781Y-73375545D02*
X125269947Y-73376976D01*
X125269947Y-73376976D02*
X125226002Y-73378467D01*
X125226002Y-73378467D02*
X125189198Y-73380021D01*
X125189198Y-73380021D02*
X125158787Y-73381638D01*
X125158787Y-73381638D02*
X125134018Y-73383319D01*
X125134018Y-73383319D02*
X125114144Y-73385067D01*
X125114144Y-73385067D02*
X125098416Y-73386882D01*
X125098416Y-73386882D02*
X125086085Y-73388765D01*
X125086085Y-73388765D02*
X125076403Y-73390719D01*
X125076403Y-73390719D02*
X125069747Y-73392420D01*
X125069747Y-73392420D02*
X124828391Y-73481212D01*
X124828391Y-73481212D02*
X124611823Y-73603753D01*
X124611823Y-73603753D02*
X124421891Y-73758213D01*
X124421891Y-73758213D02*
X124260447Y-73942761D01*
X124260447Y-73942761D02*
X124129339Y-74155565D01*
X124129339Y-74155565D02*
X124030418Y-74394793D01*
X124030418Y-74394793D02*
X124018374Y-74433163D01*
X124018374Y-74433163D02*
X124016380Y-74440777D01*
X124016380Y-74440777D02*
X124014456Y-74450661D01*
X124014456Y-74450661D02*
X124012601Y-74463564D01*
X124012601Y-74463564D02*
X124010812Y-74480236D01*
X124010812Y-74480236D02*
X124009088Y-74501426D01*
X124009088Y-74501426D02*
X124007427Y-74527884D01*
X124007427Y-74527884D02*
X124005830Y-74560360D01*
X124005830Y-74560360D02*
X124004292Y-74599602D01*
X124004292Y-74599602D02*
X124002815Y-74646361D01*
X124002815Y-74646361D02*
X124001395Y-74701387D01*
X124001395Y-74701387D02*
X124000032Y-74765428D01*
X124000032Y-74765428D02*
X123998723Y-74839234D01*
X123998723Y-74839234D02*
X123997468Y-74923555D01*
X123997468Y-74923555D02*
X123996265Y-75019141D01*
X123996265Y-75019141D02*
X123995113Y-75126741D01*
X123995113Y-75126741D02*
X123994010Y-75247105D01*
X123994010Y-75247105D02*
X123992954Y-75380981D01*
X123992954Y-75380981D02*
X123991945Y-75529121D01*
X123991945Y-75529121D02*
X123990980Y-75692273D01*
X123990980Y-75692273D02*
X123990059Y-75871187D01*
X123990059Y-75871187D02*
X123989179Y-76066612D01*
X123989179Y-76066612D02*
X123988340Y-76279298D01*
X123988340Y-76279298D02*
X123987540Y-76509995D01*
X123987540Y-76509995D02*
X123986777Y-76759452D01*
X123986777Y-76759452D02*
X123986050Y-77028419D01*
X123986050Y-77028419D02*
X123985357Y-77317646D01*
X123985357Y-77317646D02*
X123984697Y-77627881D01*
X123984697Y-77627881D02*
X123984069Y-77959874D01*
X123984069Y-77959874D02*
X123983471Y-78314376D01*
X123983471Y-78314376D02*
X123982902Y-78692136D01*
X123982902Y-78692136D02*
X123982360Y-79093902D01*
X123982360Y-79093902D02*
X123981843Y-79520426D01*
X123981843Y-79520426D02*
X123981351Y-79972456D01*
X123981351Y-79972456D02*
X123980881Y-80450741D01*
X123980881Y-80450741D02*
X123980433Y-80956033D01*
X123980433Y-80956033D02*
X123980004Y-81489079D01*
X123980004Y-81489079D02*
X123979594Y-82050630D01*
X123979594Y-82050630D02*
X123979201Y-82641435D01*
X123979201Y-82641435D02*
X123978823Y-83262244D01*
X123978823Y-83262244D02*
X123978460Y-83913806D01*
X123978460Y-83913806D02*
X123978108Y-84596872D01*
X123978108Y-84596872D02*
X123977768Y-85312189D01*
X123977768Y-85312189D02*
X123977437Y-86060509D01*
X123977437Y-86060509D02*
X123977115Y-86842581D01*
X123977115Y-86842581D02*
X123976799Y-87659154D01*
X123976799Y-87659154D02*
X123976488Y-88510977D01*
X123976488Y-88510977D02*
X123976181Y-89398801D01*
X123976181Y-89398801D02*
X123975877Y-90323375D01*
X123975877Y-90323375D02*
X123975573Y-91285448D01*
X123975573Y-91285448D02*
X123975268Y-92285771D01*
X123975268Y-92285771D02*
X123974961Y-93325092D01*
X123974961Y-93325092D02*
X123974651Y-94404161D01*
X123974651Y-94404161D02*
X123974336Y-95523729D01*
X123974336Y-95523729D02*
X123974014Y-96684543D01*
X123974014Y-96684543D02*
X123973867Y-97219080D01*
X123973867Y-97219080D02*
X123973512Y-98586583D01*
X123973512Y-98586583D02*
X123973208Y-99911885D01*
X123973208Y-99911885D02*
X123972956Y-101194981D01*
X123972956Y-101194981D02*
X123972756Y-102435868D01*
X123972756Y-102435868D02*
X123972608Y-103634541D01*
X123972608Y-103634541D02*
X123972511Y-104790996D01*
X123972511Y-104790996D02*
X123972466Y-105905229D01*
X123972466Y-105905229D02*
X122953249Y-105905229D01*
X122953249Y-105905229D02*
X122953122Y-105595923D01*
X122953122Y-105595923D02*
X122952828Y-104788446D01*
X122952828Y-104788446D02*
X122952565Y-103971550D01*
X122952565Y-103971550D02*
X122952334Y-103146298D01*
X122952334Y-103146298D02*
X122952134Y-102313751D01*
X122952134Y-102313751D02*
X122951965Y-101474971D01*
X122951965Y-101474971D02*
X122951828Y-100631020D01*
X122951828Y-100631020D02*
X122951722Y-99782960D01*
X122951722Y-99782960D02*
X122951648Y-98931852D01*
X122951648Y-98931852D02*
X122951605Y-98078758D01*
X122951605Y-98078758D02*
X122951593Y-97224740D01*
X122951593Y-97224740D02*
X122951613Y-96370860D01*
X122951613Y-96370860D02*
X122951664Y-95518179D01*
X122951664Y-95518179D02*
X122951747Y-94667759D01*
X122951747Y-94667759D02*
X122951861Y-93820663D01*
X122951861Y-93820663D02*
X122952006Y-92977951D01*
X122952006Y-92977951D02*
X122952183Y-92140685D01*
X122952183Y-92140685D02*
X122952391Y-91309928D01*
X122952391Y-91309928D02*
X122952631Y-90486742D01*
X122952631Y-90486742D02*
X122952901Y-89672187D01*
X122952901Y-89672187D02*
X122953204Y-88867325D01*
X122953204Y-88867325D02*
X122953537Y-88073219D01*
X122953537Y-88073219D02*
X122953903Y-87290931D01*
X122953903Y-87290931D02*
X122954299Y-86521521D01*
X122954299Y-86521521D02*
X122954727Y-85766052D01*
X122954727Y-85766052D02*
X122955186Y-85025586D01*
X122955186Y-85025586D02*
X122955677Y-84301184D01*
X122955677Y-84301184D02*
X122956199Y-83593908D01*
X122956199Y-83593908D02*
X122956752Y-82904820D01*
X122956752Y-82904820D02*
X122957337Y-82234981D01*
X122957337Y-82234981D02*
X122957953Y-81585454D01*
X122957953Y-81585454D02*
X122958601Y-80957300D01*
X122958601Y-80957300D02*
X122959280Y-80351581D01*
X122959280Y-80351581D02*
X122959990Y-79769359D01*
X122959990Y-79769359D02*
X122960732Y-79211695D01*
X122960732Y-79211695D02*
X122961505Y-78679652D01*
X122961505Y-78679652D02*
X122962310Y-78174290D01*
X122962310Y-78174290D02*
X122963146Y-77696673D01*
X122963146Y-77696673D02*
X122964013Y-77247861D01*
X122964013Y-77247861D02*
X122964912Y-76828916D01*
X122964912Y-76828916D02*
X122965842Y-76440901D01*
X122965842Y-76440901D02*
X122966804Y-76084876D01*
X122966804Y-76084876D02*
X122967796Y-75761905D01*
X122967796Y-75761905D02*
X122968821Y-75473047D01*
X122968821Y-75473047D02*
X122969876Y-75219366D01*
X122969876Y-75219366D02*
X122970964Y-75001923D01*
X122970964Y-75001923D02*
X122972082Y-74821780D01*
X122972082Y-74821780D02*
X122973232Y-74679999D01*
X122973232Y-74679999D02*
X122974413Y-74577640D01*
X122974413Y-74577640D02*
X122975626Y-74515767D01*
X122975626Y-74515767D02*
X122976544Y-74496663D01*
X122976544Y-74496663D02*
X123036316Y-74179722D01*
X123036316Y-74179722D02*
X123135592Y-73876706D01*
X123135592Y-73876706D02*
X123273060Y-73590300D01*
X123273060Y-73590300D02*
X123447411Y-73323188D01*
X123447411Y-73323188D02*
X123657334Y-73078053D01*
X123657334Y-73078053D02*
X123680542Y-73054542D01*
X123680542Y-73054542D02*
X123923300Y-72841087D01*
X123923300Y-72841087D02*
X124188308Y-72663071D01*
X124188308Y-72663071D02*
X124472881Y-72521806D01*
X124472881Y-72521806D02*
X124774335Y-72418600D01*
X124774335Y-72418600D02*
X125089987Y-72354765D01*
X125089987Y-72354765D02*
X125122663Y-72350544D01*
X125122663Y-72350544D02*
X125153866Y-72349308D01*
X125153866Y-72349308D02*
X125226341Y-72348104D01*
X125226341Y-72348104D02*
X125339025Y-72346931D01*
X125339025Y-72346931D02*
X125490857Y-72345789D01*
X125490857Y-72345789D02*
X125680776Y-72344679D01*
X125680776Y-72344679D02*
X125907719Y-72343600D01*
X125907719Y-72343600D02*
X126170625Y-72342552D01*
X126170625Y-72342552D02*
X126468431Y-72341536D01*
X126468431Y-72341536D02*
X126800077Y-72340551D01*
X126800077Y-72340551D02*
X127164500Y-72339598D01*
X127164500Y-72339598D02*
X127560639Y-72338676D01*
X127560639Y-72338676D02*
X127987431Y-72337785D01*
X127987431Y-72337785D02*
X128443816Y-72336926D01*
X128443816Y-72336926D02*
X128928730Y-72336098D01*
X128928730Y-72336098D02*
X129441113Y-72335302D01*
X129441113Y-72335302D02*
X129979903Y-72334537D01*
X129979903Y-72334537D02*
X130544038Y-72333803D01*
X130544038Y-72333803D02*
X131132456Y-72333101D01*
X131132456Y-72333101D02*
X131744095Y-72332430D01*
X131744095Y-72332430D02*
X132377894Y-72331790D01*
X132377894Y-72331790D02*
X133032791Y-72331182D01*
X133032791Y-72331182D02*
X133707724Y-72330606D01*
X133707724Y-72330606D02*
X134401631Y-72330060D01*
X134401631Y-72330060D02*
X135113450Y-72329546D01*
X135113450Y-72329546D02*
X135842120Y-72329064D01*
X135842120Y-72329064D02*
X136586579Y-72328613D01*
X136586579Y-72328613D02*
X137345766Y-72328193D01*
X137345766Y-72328193D02*
X138118618Y-72327805D01*
X138118618Y-72327805D02*
X138904073Y-72327448D01*
X138904073Y-72327448D02*
X139701070Y-72327122D01*
X139701070Y-72327122D02*
X140508547Y-72326828D01*
X140508547Y-72326828D02*
X141325443Y-72326565D01*
X141325443Y-72326565D02*
X142150695Y-72326334D01*
X142150695Y-72326334D02*
X142983242Y-72326134D01*
X142983242Y-72326134D02*
X143822022Y-72325965D01*
X143822022Y-72325965D02*
X144665973Y-72325828D01*
X144665973Y-72325828D02*
X145514033Y-72325722D01*
X145514033Y-72325722D02*
X146365141Y-72325648D01*
X146365141Y-72325648D02*
X147218235Y-72325605D01*
X147218235Y-72325605D02*
X148072253Y-72325593D01*
X148072253Y-72325593D02*
X148926133Y-72325613D01*
X148926133Y-72325613D02*
X148926133Y-72325613D01*
G36*
X122952828Y-104788446D02*
G01*
X122952565Y-103971550D01*
X122952334Y-103146298D01*
X122952134Y-102313751D01*
X122951965Y-101474971D01*
X122951828Y-100631020D01*
X122951722Y-99782960D01*
X122951648Y-98931852D01*
X122951605Y-98078758D01*
X122951593Y-97224740D01*
X122951613Y-96370860D01*
X122951664Y-95518179D01*
X122951747Y-94667759D01*
X122951861Y-93820663D01*
X122952006Y-92977951D01*
X122952183Y-92140685D01*
X122952391Y-91309928D01*
X122952631Y-90486742D01*
X122952901Y-89672187D01*
X122953204Y-88867325D01*
X122953537Y-88073219D01*
X122953903Y-87290931D01*
X122954299Y-86521521D01*
X122954727Y-85766052D01*
X122955186Y-85025586D01*
X122955677Y-84301184D01*
X122956199Y-83593908D01*
X122956752Y-82904820D01*
X122957337Y-82234981D01*
X122957953Y-81585454D01*
X122958601Y-80957300D01*
X122959280Y-80351581D01*
X122959990Y-79769359D01*
X122960732Y-79211695D01*
X122961505Y-78679652D01*
X122962310Y-78174290D01*
X122963146Y-77696673D01*
X122964013Y-77247861D01*
X122964912Y-76828916D01*
X122965842Y-76440901D01*
X122966804Y-76084876D01*
X122967796Y-75761905D01*
X122968821Y-75473047D01*
X122969876Y-75219366D01*
X122970964Y-75001923D01*
X122972082Y-74821780D01*
X122973232Y-74679999D01*
X122974413Y-74577640D01*
X122975626Y-74515767D01*
X122976544Y-74496663D01*
X123036316Y-74179722D01*
X123135592Y-73876706D01*
X123273060Y-73590300D01*
X123447411Y-73323188D01*
X123657334Y-73078053D01*
X123680542Y-73054542D01*
X123923300Y-72841087D01*
X124188308Y-72663071D01*
X124472881Y-72521806D01*
X124774335Y-72418600D01*
X125089987Y-72354765D01*
X125122663Y-72350544D01*
X125153866Y-72349308D01*
X125226341Y-72348104D01*
X125339025Y-72346931D01*
X125490857Y-72345789D01*
X125680776Y-72344679D01*
X125907719Y-72343600D01*
X126170625Y-72342552D01*
X126468431Y-72341536D01*
X126800077Y-72340551D01*
X127164500Y-72339598D01*
X127560639Y-72338676D01*
X127987431Y-72337785D01*
X128443816Y-72336926D01*
X128928730Y-72336098D01*
X129441113Y-72335302D01*
X129979903Y-72334537D01*
X130544038Y-72333803D01*
X131132456Y-72333101D01*
X131744095Y-72332430D01*
X132377894Y-72331790D01*
X133032791Y-72331182D01*
X133707724Y-72330606D01*
X134401631Y-72330060D01*
X135113450Y-72329546D01*
X135842120Y-72329064D01*
X136586579Y-72328613D01*
X137345766Y-72328193D01*
X138118618Y-72327805D01*
X138904073Y-72327448D01*
X139701070Y-72327122D01*
X140508547Y-72326828D01*
X141325443Y-72326565D01*
X142150695Y-72326334D01*
X142983242Y-72326134D01*
X143822022Y-72325965D01*
X144665973Y-72325828D01*
X145514033Y-72325722D01*
X146365141Y-72325648D01*
X147218235Y-72325605D01*
X148072253Y-72325593D01*
X148926133Y-72325613D01*
X149778814Y-72325664D01*
X150629234Y-72325747D01*
X151476330Y-72325861D01*
X152319042Y-72326006D01*
X153156308Y-72326183D01*
X153987065Y-72326391D01*
X154810251Y-72326631D01*
X155624806Y-72326901D01*
X156429668Y-72327204D01*
X157223774Y-72327537D01*
X158006062Y-72327903D01*
X158775472Y-72328299D01*
X159530941Y-72328727D01*
X160271407Y-72329186D01*
X160995809Y-72329677D01*
X161703085Y-72330199D01*
X162392173Y-72330752D01*
X163062012Y-72331337D01*
X163711539Y-72331953D01*
X164339693Y-72332601D01*
X164945412Y-72333280D01*
X165527634Y-72333990D01*
X166085298Y-72334732D01*
X166617341Y-72335505D01*
X167122703Y-72336310D01*
X167600320Y-72337146D01*
X168049132Y-72338013D01*
X168468077Y-72338912D01*
X168856092Y-72339842D01*
X169212117Y-72340804D01*
X169535088Y-72341796D01*
X169823946Y-72342821D01*
X170077627Y-72343876D01*
X170295070Y-72344964D01*
X170475213Y-72346082D01*
X170616994Y-72347232D01*
X170719353Y-72348413D01*
X170781226Y-72349626D01*
X170800330Y-72350544D01*
X171117387Y-72410258D01*
X171419893Y-72509437D01*
X171705925Y-72647144D01*
X171973564Y-72822438D01*
X172220890Y-73034382D01*
X172242451Y-73055584D01*
X172455115Y-73296440D01*
X172632766Y-73560167D01*
X172774009Y-73843910D01*
X172877447Y-74144811D01*
X172941685Y-74460014D01*
X172946449Y-74496663D01*
X172947685Y-74527866D01*
X172948889Y-74600341D01*
X172950062Y-74713025D01*
X172951204Y-74864857D01*
X172952314Y-75054776D01*
X172953393Y-75281719D01*
X172954441Y-75544625D01*
X172955457Y-75842431D01*
X172956442Y-76174077D01*
X172957395Y-76538500D01*
X172958317Y-76934639D01*
X172959208Y-77361431D01*
X172960067Y-77817816D01*
X172960895Y-78302730D01*
X172961691Y-78815113D01*
X172962456Y-79353903D01*
X172963190Y-79918038D01*
X172963892Y-80506456D01*
X172964563Y-81118095D01*
X172965203Y-81751894D01*
X172965811Y-82406791D01*
X172966387Y-83081724D01*
X172966933Y-83775631D01*
X172967447Y-84487450D01*
X172967929Y-85216120D01*
X172968380Y-85960579D01*
X172968800Y-86719766D01*
X172969188Y-87492618D01*
X172969545Y-88278073D01*
X172969871Y-89075070D01*
X172970165Y-89882547D01*
X172970428Y-90699443D01*
X172970659Y-91524695D01*
X172970859Y-92357242D01*
X172971028Y-93196022D01*
X172971165Y-94039973D01*
X172971271Y-94888033D01*
X172971345Y-95739141D01*
X172971388Y-96592235D01*
X172971400Y-97446253D01*
X172971380Y-98300133D01*
X172971329Y-99152814D01*
X172971246Y-100003234D01*
X172971132Y-100850330D01*
X172970987Y-101693042D01*
X172970810Y-102530308D01*
X172970602Y-103361065D01*
X172970362Y-104184251D01*
X172970092Y-104998806D01*
X172969789Y-105803668D01*
X172969456Y-106597774D01*
X172969090Y-107380062D01*
X172968694Y-108149472D01*
X172968266Y-108904941D01*
X172967807Y-109645407D01*
X172967316Y-110369809D01*
X172966794Y-111077085D01*
X172966241Y-111766173D01*
X172965656Y-112436012D01*
X172965040Y-113085539D01*
X172964392Y-113713693D01*
X172963713Y-114319412D01*
X172963003Y-114901634D01*
X172962261Y-115459298D01*
X172961488Y-115991341D01*
X172960683Y-116496703D01*
X172959847Y-116974320D01*
X172958980Y-117423132D01*
X172958081Y-117842077D01*
X172957151Y-118230092D01*
X172956189Y-118586117D01*
X172955197Y-118909088D01*
X172954172Y-119197946D01*
X172953117Y-119451627D01*
X172952029Y-119669070D01*
X172950911Y-119849213D01*
X172949761Y-119990994D01*
X172948580Y-120093353D01*
X172947367Y-120155226D01*
X172946449Y-120174330D01*
X172886796Y-120490551D01*
X172787631Y-120792581D01*
X172650057Y-121078170D01*
X172475175Y-121345068D01*
X172264088Y-121591026D01*
X172240707Y-121614707D01*
X171996998Y-121829403D01*
X171732120Y-122008006D01*
X171448323Y-122149414D01*
X171147858Y-122252523D01*
X170832973Y-122316232D01*
X170800330Y-122320449D01*
X170770503Y-122321518D01*
X170699408Y-122322560D01*
X170588103Y-122323574D01*
X170437650Y-122324561D01*
X170249108Y-122325521D01*
X170023537Y-122326453D01*
X169761997Y-122327358D01*
X169465549Y-122328235D01*
X169135252Y-122329085D01*
X168772167Y-122329907D01*
X168377354Y-122330702D01*
X167951872Y-122331469D01*
X167496782Y-122332210D01*
X167013145Y-122332922D01*
X166502019Y-122333608D01*
X165964466Y-122334266D01*
X165401544Y-122334897D01*
X164814315Y-122335500D01*
X164203839Y-122336076D01*
X163571175Y-122336625D01*
X162917383Y-122337146D01*
X162243525Y-122337640D01*
X161550659Y-122338107D01*
X160839845Y-122338547D01*
X160112145Y-122338959D01*
X159368618Y-122339344D01*
X158610324Y-122339702D01*
X157838323Y-122340032D01*
X157053675Y-122340336D01*
X156257441Y-122340612D01*
X155450680Y-122340860D01*
X154634453Y-122341082D01*
X153809819Y-122341276D01*
X152977839Y-122341444D01*
X152139573Y-122341584D01*
X151296081Y-122341697D01*
X150448423Y-122341782D01*
X149597659Y-122341841D01*
X148744849Y-122341872D01*
X147891053Y-122341876D01*
X147037331Y-122341854D01*
X146184744Y-122341804D01*
X145334352Y-122341727D01*
X144487214Y-122341622D01*
X143644391Y-122341491D01*
X142806942Y-122341333D01*
X141975929Y-122341147D01*
X141152410Y-122340935D01*
X140337446Y-122340695D01*
X139532098Y-122340429D01*
X138737425Y-122340135D01*
X137954487Y-122339815D01*
X137184344Y-122339467D01*
X136428057Y-122339092D01*
X135686685Y-122338691D01*
X134961289Y-122338262D01*
X134252929Y-122337806D01*
X133562665Y-122337324D01*
X132891556Y-122336814D01*
X132240664Y-122336278D01*
X131611047Y-122335714D01*
X131003767Y-122335124D01*
X130419883Y-122334507D01*
X129860456Y-122333863D01*
X129326544Y-122333191D01*
X128819210Y-122332493D01*
X128339512Y-122331769D01*
X127888510Y-122331017D01*
X127467266Y-122330238D01*
X127076838Y-122329433D01*
X126718287Y-122328600D01*
X126392674Y-122327741D01*
X126101057Y-122326855D01*
X125844498Y-122325942D01*
X125624056Y-122325003D01*
X125440791Y-122324036D01*
X125295764Y-122323043D01*
X125190034Y-122322023D01*
X125124662Y-122320976D01*
X125101497Y-122320051D01*
X124804304Y-122262147D01*
X124512916Y-122164892D01*
X124233346Y-122031267D01*
X123971609Y-121864255D01*
X123733719Y-121666836D01*
X123681831Y-121616258D01*
X123466888Y-121371094D01*
X123288201Y-121105150D01*
X123146847Y-120820629D01*
X123043904Y-120519734D01*
X122980449Y-120204666D01*
X122976544Y-120174330D01*
X122975308Y-120143127D01*
X122974104Y-120070652D01*
X122972931Y-119957968D01*
X122971789Y-119806136D01*
X122970679Y-119616217D01*
X122969600Y-119389274D01*
X122968552Y-119126368D01*
X122967536Y-118828562D01*
X122966551Y-118496916D01*
X122965598Y-118132493D01*
X122964676Y-117736354D01*
X122963785Y-117309562D01*
X122962926Y-116853177D01*
X122962098Y-116368263D01*
X122961302Y-115855880D01*
X122960537Y-115317090D01*
X122959803Y-114752955D01*
X122959101Y-114164537D01*
X122958430Y-113552898D01*
X122957790Y-112919099D01*
X122957182Y-112264202D01*
X122956606Y-111589269D01*
X122956060Y-110895362D01*
X122955546Y-110183543D01*
X122955064Y-109454873D01*
X122954613Y-108710414D01*
X122954193Y-107951227D01*
X122953805Y-107178375D01*
X122953448Y-106392920D01*
X122953249Y-105905229D01*
X123972466Y-105905229D01*
X123972473Y-106977236D01*
X123972531Y-108007012D01*
X123972642Y-108994553D01*
X123972803Y-109939856D01*
X123973017Y-110842916D01*
X123973282Y-111703728D01*
X123973598Y-112522290D01*
X123973967Y-113298595D01*
X123974387Y-114032641D01*
X123974858Y-114724423D01*
X123975382Y-115373937D01*
X123975957Y-115981179D01*
X123976583Y-116546144D01*
X123977262Y-117068829D01*
X123977992Y-117549229D01*
X123978773Y-117987340D01*
X123979606Y-118383157D01*
X123980491Y-118736678D01*
X123981428Y-119047897D01*
X123982416Y-119316810D01*
X123983456Y-119543414D01*
X123984547Y-119727704D01*
X123985690Y-119869675D01*
X123986884Y-119969324D01*
X123988131Y-120026646D01*
X123988927Y-120040911D01*
X124040511Y-120281773D01*
X124128272Y-120505752D01*
X124248965Y-120709504D01*
X124399348Y-120889684D01*
X124576176Y-121042947D01*
X124776205Y-121165947D01*
X124996190Y-121255341D01*
X125215152Y-121305282D01*
X125241344Y-121306037D01*
X125308998Y-121306778D01*
X125417243Y-121307506D01*
X125565207Y-121308219D01*
X125752019Y-121308917D01*
X125976807Y-121309600D01*
X126238701Y-121310266D01*
X126536828Y-121310916D01*
X126870317Y-121311548D01*
X127238298Y-121312163D01*
X127639898Y-121312759D01*
X128074246Y-121313336D01*
X128540470Y-121313894D01*
X129037701Y-121314431D01*
X129565065Y-121314948D01*
X130121692Y-121315444D01*
X130706710Y-121315919D01*
X131319248Y-121316371D01*
X131958435Y-121316800D01*
X132623398Y-121317205D01*
X133313268Y-121317587D01*
X134027172Y-121317944D01*
X134764239Y-121318277D01*
X135523597Y-121318583D01*
X136304376Y-121318864D01*
X137105703Y-121319117D01*
X137926709Y-121319344D01*
X138766520Y-121319542D01*
X139624266Y-121319712D01*
X140499075Y-121319853D01*
X141390076Y-121319965D01*
X142296398Y-121320047D01*
X143217169Y-121320098D01*
X144151518Y-121320117D01*
X145098573Y-121320105D01*
X146057464Y-121320061D01*
X147027318Y-121319984D01*
X148007265Y-121319873D01*
X148035580Y-121319870D01*
X149216256Y-121319714D01*
X150355347Y-121319560D01*
X151453603Y-121319405D01*
X152511772Y-121319249D01*
X153530604Y-121319090D01*
X154510847Y-121318927D01*
X155453249Y-121318759D01*
X156358561Y-121318583D01*
X157227530Y-121318400D01*
X158060906Y-121318206D01*
X158859437Y-121318002D01*
X159623873Y-121317785D01*
X160354962Y-121317555D01*
X161053454Y-121317310D01*
X161720096Y-121317048D01*
X162355639Y-121316769D01*
X162960830Y-121316470D01*
X163536419Y-121316151D01*
X164083155Y-121315811D01*
X164601787Y-121315447D01*
X165093062Y-121315059D01*
X165557731Y-121314645D01*
X165996543Y-121314203D01*
X166410245Y-121313733D01*
X166799588Y-121313234D01*
X167165319Y-121312703D01*
X167508188Y-121312139D01*
X167828943Y-121311542D01*
X168128335Y-121310909D01*
X168407110Y-121310239D01*
X168666019Y-121309531D01*
X168905810Y-121308785D01*
X169127232Y-121307997D01*
X169331035Y-121307167D01*
X169517966Y-121306294D01*
X169688775Y-121305376D01*
X169844210Y-121304412D01*
X169985021Y-121303400D01*
X170111956Y-121302340D01*
X170225765Y-121301229D01*
X170327196Y-121300067D01*
X170416998Y-121298852D01*
X170495920Y-121297582D01*
X170564710Y-121296257D01*
X170624119Y-121294875D01*
X170674894Y-121293435D01*
X170717785Y-121291935D01*
X170753540Y-121290374D01*
X170782908Y-121288751D01*
X170806639Y-121287064D01*
X170825480Y-121285312D01*
X170840182Y-121283493D01*
X170851492Y-121281607D01*
X170860161Y-121279651D01*
X170863830Y-121278619D01*
X171104846Y-121185147D01*
X171321185Y-121058625D01*
X171510473Y-120901452D01*
X171670337Y-120716023D01*
X171798403Y-120504736D01*
X171892296Y-120269990D01*
X171904878Y-120227247D01*
X171906875Y-120219142D01*
X171908802Y-120208879D01*
X171910661Y-120195708D01*
X171912451Y-120178881D01*
X171914175Y-120157649D01*
X171915833Y-120131265D01*
X171917428Y-120098978D01*
X171918959Y-120060041D01*
X171920430Y-120013706D01*
X171921840Y-119959223D01*
X171923191Y-119895845D01*
X171924484Y-119822822D01*
X171925721Y-119739406D01*
X171926903Y-119644849D01*
X171928030Y-119538402D01*
X171929105Y-119419317D01*
X171930129Y-119286845D01*
X171931102Y-119140237D01*
X171932027Y-118978745D01*
X171932903Y-118801621D01*
X171933734Y-118608116D01*
X171934519Y-118397481D01*
X171935260Y-118168968D01*
X171935959Y-117921829D01*
X171936616Y-117655314D01*
X171937233Y-117368676D01*
X171937812Y-117061165D01*
X171938352Y-116732034D01*
X171938857Y-116380534D01*
X171939326Y-116005916D01*
X171939761Y-115607432D01*
X171940164Y-115184332D01*
X171940536Y-114735870D01*
X171940877Y-114261296D01*
X171941190Y-113759861D01*
X171941475Y-113230817D01*
X171941734Y-112673416D01*
X171941967Y-112086910D01*
X171942177Y-111470548D01*
X171942365Y-110823584D01*
X171942531Y-110145268D01*
X171942677Y-109434852D01*
X171942805Y-108691588D01*
X171942915Y-107914726D01*
X171943009Y-107103519D01*
X171943087Y-106257217D01*
X171943152Y-105375074D01*
X171943205Y-104456338D01*
X171943246Y-103500264D01*
X171943278Y-102506100D01*
X171943300Y-101473101D01*
X171943316Y-100400516D01*
X171943325Y-99287597D01*
X171943329Y-98133595D01*
X171943330Y-97335497D01*
X171943328Y-96153497D01*
X171943323Y-95013082D01*
X171943312Y-93913504D01*
X171943294Y-92854013D01*
X171943268Y-91833861D01*
X171943234Y-90852300D01*
X171943189Y-89908582D01*
X171943132Y-89001957D01*
X171943063Y-88131677D01*
X171942979Y-87296994D01*
X171942881Y-86497159D01*
X171942765Y-85731423D01*
X171942631Y-84999039D01*
X171942479Y-84299257D01*
X171942306Y-83631329D01*
X171942111Y-82994506D01*
X171941893Y-82388040D01*
X171941651Y-81811183D01*
X171941384Y-81263186D01*
X171941090Y-80743300D01*
X171940768Y-80250777D01*
X171940417Y-79784868D01*
X171940035Y-79344825D01*
X171939622Y-78929900D01*
X171939175Y-78539343D01*
X171938695Y-78172406D01*
X171938179Y-77828341D01*
X171937626Y-77506400D01*
X171937035Y-77205832D01*
X171936405Y-76925891D01*
X171935734Y-76665828D01*
X171935021Y-76424894D01*
X171934266Y-76202340D01*
X171933466Y-75997418D01*
X171932620Y-75809380D01*
X171931728Y-75637477D01*
X171930788Y-75480960D01*
X171929798Y-75339082D01*
X171928758Y-75211092D01*
X171927665Y-75096244D01*
X171926520Y-74993788D01*
X171925320Y-74902975D01*
X171924065Y-74823058D01*
X171922753Y-74753288D01*
X171921383Y-74692916D01*
X171919953Y-74641194D01*
X171918463Y-74597373D01*
X171916911Y-74560705D01*
X171915295Y-74530441D01*
X171913615Y-74505833D01*
X171911870Y-74486131D01*
X171910057Y-74470589D01*
X171908177Y-74458456D01*
X171906227Y-74448985D01*
X171904878Y-74443747D01*
X171817202Y-74205650D01*
X171694940Y-73990209D01*
X171540895Y-73800229D01*
X171357871Y-73638511D01*
X171148671Y-73507859D01*
X170916098Y-73411078D01*
X170853247Y-73392115D01*
X170845142Y-73390118D01*
X170834879Y-73388191D01*
X170821708Y-73386332D01*
X170804881Y-73384542D01*
X170783649Y-73382818D01*
X170757265Y-73381160D01*
X170724978Y-73379565D01*
X170686041Y-73378034D01*
X170639706Y-73376563D01*
X170585223Y-73375153D01*
X170521845Y-73373802D01*
X170448822Y-73372509D01*
X170365406Y-73371272D01*
X170270849Y-73370090D01*
X170164402Y-73368963D01*
X170045317Y-73367888D01*
X169912845Y-73366864D01*
X169766237Y-73365891D01*
X169604745Y-73364966D01*
X169427621Y-73364090D01*
X169234116Y-73363259D01*
X169023481Y-73362474D01*
X168794968Y-73361733D01*
X168547829Y-73361034D01*
X168281314Y-73360377D01*
X167994676Y-73359760D01*
X167687165Y-73359181D01*
X167358034Y-73358641D01*
X167006534Y-73358136D01*
X166631916Y-73357667D01*
X166233432Y-73357232D01*
X165810332Y-73356829D01*
X165361870Y-73356457D01*
X164887296Y-73356116D01*
X164385861Y-73355803D01*
X163856817Y-73355518D01*
X163299416Y-73355259D01*
X162712910Y-73355026D01*
X162096548Y-73354816D01*
X161449584Y-73354628D01*
X160771268Y-73354462D01*
X160060852Y-73354316D01*
X159317588Y-73354188D01*
X158540726Y-73354078D01*
X157729519Y-73353984D01*
X156883217Y-73353906D01*
X156001074Y-73353841D01*
X155082338Y-73353788D01*
X154126264Y-73353747D01*
X153132100Y-73353715D01*
X152099101Y-73353693D01*
X151026516Y-73353677D01*
X149913597Y-73353668D01*
X148759595Y-73353664D01*
X147961497Y-73353663D01*
X146779645Y-73353665D01*
X145639379Y-73353670D01*
X144539948Y-73353681D01*
X143480605Y-73353697D01*
X142460599Y-73353722D01*
X141479183Y-73353756D01*
X140535608Y-73353799D01*
X139629125Y-73353854D01*
X138758984Y-73353922D01*
X137924438Y-73354004D01*
X137124738Y-73354101D01*
X136359134Y-73354215D01*
X135626879Y-73354347D01*
X134927223Y-73354497D01*
X134259417Y-73354668D01*
X133622713Y-73354861D01*
X133016361Y-73355076D01*
X132439614Y-73355316D01*
X131891723Y-73355581D01*
X131371938Y-73355873D01*
X130879510Y-73356192D01*
X130413692Y-73356541D01*
X129973734Y-73356921D01*
X129558887Y-73357332D01*
X129168404Y-73357776D01*
X128801534Y-73358254D01*
X128457529Y-73358768D01*
X128135641Y-73359319D01*
X127835120Y-73359908D01*
X127555218Y-73360536D01*
X127295186Y-73361205D01*
X127054275Y-73361916D01*
X126831737Y-73362670D01*
X126626823Y-73363468D01*
X126438784Y-73364312D01*
X126266870Y-73365203D01*
X126110334Y-73366143D01*
X125968427Y-73367131D01*
X125840400Y-73368171D01*
X125725504Y-73369263D01*
X125622989Y-73370407D01*
X125532109Y-73371607D01*
X125452113Y-73372862D01*
X125382253Y-73374175D01*
X125321781Y-73375545D01*
X125269947Y-73376976D01*
X125226002Y-73378467D01*
X125189198Y-73380021D01*
X125158787Y-73381638D01*
X125134018Y-73383319D01*
X125114144Y-73385067D01*
X125098416Y-73386882D01*
X125086085Y-73388765D01*
X125076403Y-73390719D01*
X125069747Y-73392420D01*
X124828391Y-73481212D01*
X124611823Y-73603753D01*
X124421891Y-73758213D01*
X124260447Y-73942761D01*
X124129339Y-74155565D01*
X124030418Y-74394793D01*
X124018374Y-74433163D01*
X124016380Y-74440777D01*
X124014456Y-74450661D01*
X124012601Y-74463564D01*
X124010812Y-74480236D01*
X124009088Y-74501426D01*
X124007427Y-74527884D01*
X124005830Y-74560360D01*
X124004292Y-74599602D01*
X124002815Y-74646361D01*
X124001395Y-74701387D01*
X124000032Y-74765428D01*
X123998723Y-74839234D01*
X123997468Y-74923555D01*
X123996265Y-75019141D01*
X123995113Y-75126741D01*
X123994010Y-75247105D01*
X123992954Y-75380981D01*
X123991945Y-75529121D01*
X123990980Y-75692273D01*
X123990059Y-75871187D01*
X123989179Y-76066612D01*
X123988340Y-76279298D01*
X123987540Y-76509995D01*
X123986777Y-76759452D01*
X123986050Y-77028419D01*
X123985357Y-77317646D01*
X123984697Y-77627881D01*
X123984069Y-77959874D01*
X123983471Y-78314376D01*
X123982902Y-78692136D01*
X123982360Y-79093902D01*
X123981843Y-79520426D01*
X123981351Y-79972456D01*
X123980881Y-80450741D01*
X123980433Y-80956033D01*
X123980004Y-81489079D01*
X123979594Y-82050630D01*
X123979201Y-82641435D01*
X123978823Y-83262244D01*
X123978460Y-83913806D01*
X123978108Y-84596872D01*
X123977768Y-85312189D01*
X123977437Y-86060509D01*
X123977115Y-86842581D01*
X123976799Y-87659154D01*
X123976488Y-88510977D01*
X123976181Y-89398801D01*
X123975877Y-90323375D01*
X123975573Y-91285448D01*
X123975268Y-92285771D01*
X123974961Y-93325092D01*
X123974651Y-94404161D01*
X123974336Y-95523729D01*
X123974014Y-96684543D01*
X123973867Y-97219080D01*
X123973512Y-98586583D01*
X123973208Y-99911885D01*
X123972956Y-101194981D01*
X123972756Y-102435868D01*
X123972608Y-103634541D01*
X123972511Y-104790996D01*
X123972466Y-105905229D01*
X122953249Y-105905229D01*
X122953122Y-105595923D01*
X122952828Y-104788446D01*
G37*
X122952828Y-104788446D02*
X122952565Y-103971550D01*
X122952334Y-103146298D01*
X122952134Y-102313751D01*
X122951965Y-101474971D01*
X122951828Y-100631020D01*
X122951722Y-99782960D01*
X122951648Y-98931852D01*
X122951605Y-98078758D01*
X122951593Y-97224740D01*
X122951613Y-96370860D01*
X122951664Y-95518179D01*
X122951747Y-94667759D01*
X122951861Y-93820663D01*
X122952006Y-92977951D01*
X122952183Y-92140685D01*
X122952391Y-91309928D01*
X122952631Y-90486742D01*
X122952901Y-89672187D01*
X122953204Y-88867325D01*
X122953537Y-88073219D01*
X122953903Y-87290931D01*
X122954299Y-86521521D01*
X122954727Y-85766052D01*
X122955186Y-85025586D01*
X122955677Y-84301184D01*
X122956199Y-83593908D01*
X122956752Y-82904820D01*
X122957337Y-82234981D01*
X122957953Y-81585454D01*
X122958601Y-80957300D01*
X122959280Y-80351581D01*
X122959990Y-79769359D01*
X122960732Y-79211695D01*
X122961505Y-78679652D01*
X122962310Y-78174290D01*
X122963146Y-77696673D01*
X122964013Y-77247861D01*
X122964912Y-76828916D01*
X122965842Y-76440901D01*
X122966804Y-76084876D01*
X122967796Y-75761905D01*
X122968821Y-75473047D01*
X122969876Y-75219366D01*
X122970964Y-75001923D01*
X122972082Y-74821780D01*
X122973232Y-74679999D01*
X122974413Y-74577640D01*
X122975626Y-74515767D01*
X122976544Y-74496663D01*
X123036316Y-74179722D01*
X123135592Y-73876706D01*
X123273060Y-73590300D01*
X123447411Y-73323188D01*
X123657334Y-73078053D01*
X123680542Y-73054542D01*
X123923300Y-72841087D01*
X124188308Y-72663071D01*
X124472881Y-72521806D01*
X124774335Y-72418600D01*
X125089987Y-72354765D01*
X125122663Y-72350544D01*
X125153866Y-72349308D01*
X125226341Y-72348104D01*
X125339025Y-72346931D01*
X125490857Y-72345789D01*
X125680776Y-72344679D01*
X125907719Y-72343600D01*
X126170625Y-72342552D01*
X126468431Y-72341536D01*
X126800077Y-72340551D01*
X127164500Y-72339598D01*
X127560639Y-72338676D01*
X127987431Y-72337785D01*
X128443816Y-72336926D01*
X128928730Y-72336098D01*
X129441113Y-72335302D01*
X129979903Y-72334537D01*
X130544038Y-72333803D01*
X131132456Y-72333101D01*
X131744095Y-72332430D01*
X132377894Y-72331790D01*
X133032791Y-72331182D01*
X133707724Y-72330606D01*
X134401631Y-72330060D01*
X135113450Y-72329546D01*
X135842120Y-72329064D01*
X136586579Y-72328613D01*
X137345766Y-72328193D01*
X138118618Y-72327805D01*
X138904073Y-72327448D01*
X139701070Y-72327122D01*
X140508547Y-72326828D01*
X141325443Y-72326565D01*
X142150695Y-72326334D01*
X142983242Y-72326134D01*
X143822022Y-72325965D01*
X144665973Y-72325828D01*
X145514033Y-72325722D01*
X146365141Y-72325648D01*
X147218235Y-72325605D01*
X148072253Y-72325593D01*
X148926133Y-72325613D01*
X149778814Y-72325664D01*
X150629234Y-72325747D01*
X151476330Y-72325861D01*
X152319042Y-72326006D01*
X153156308Y-72326183D01*
X153987065Y-72326391D01*
X154810251Y-72326631D01*
X155624806Y-72326901D01*
X156429668Y-72327204D01*
X157223774Y-72327537D01*
X158006062Y-72327903D01*
X158775472Y-72328299D01*
X159530941Y-72328727D01*
X160271407Y-72329186D01*
X160995809Y-72329677D01*
X161703085Y-72330199D01*
X162392173Y-72330752D01*
X163062012Y-72331337D01*
X163711539Y-72331953D01*
X164339693Y-72332601D01*
X164945412Y-72333280D01*
X165527634Y-72333990D01*
X166085298Y-72334732D01*
X166617341Y-72335505D01*
X167122703Y-72336310D01*
X167600320Y-72337146D01*
X168049132Y-72338013D01*
X168468077Y-72338912D01*
X168856092Y-72339842D01*
X169212117Y-72340804D01*
X169535088Y-72341796D01*
X169823946Y-72342821D01*
X170077627Y-72343876D01*
X170295070Y-72344964D01*
X170475213Y-72346082D01*
X170616994Y-72347232D01*
X170719353Y-72348413D01*
X170781226Y-72349626D01*
X170800330Y-72350544D01*
X171117387Y-72410258D01*
X171419893Y-72509437D01*
X171705925Y-72647144D01*
X171973564Y-72822438D01*
X172220890Y-73034382D01*
X172242451Y-73055584D01*
X172455115Y-73296440D01*
X172632766Y-73560167D01*
X172774009Y-73843910D01*
X172877447Y-74144811D01*
X172941685Y-74460014D01*
X172946449Y-74496663D01*
X172947685Y-74527866D01*
X172948889Y-74600341D01*
X172950062Y-74713025D01*
X172951204Y-74864857D01*
X172952314Y-75054776D01*
X172953393Y-75281719D01*
X172954441Y-75544625D01*
X172955457Y-75842431D01*
X172956442Y-76174077D01*
X172957395Y-76538500D01*
X172958317Y-76934639D01*
X172959208Y-77361431D01*
X172960067Y-77817816D01*
X172960895Y-78302730D01*
X172961691Y-78815113D01*
X172962456Y-79353903D01*
X172963190Y-79918038D01*
X172963892Y-80506456D01*
X172964563Y-81118095D01*
X172965203Y-81751894D01*
X172965811Y-82406791D01*
X172966387Y-83081724D01*
X172966933Y-83775631D01*
X172967447Y-84487450D01*
X172967929Y-85216120D01*
X172968380Y-85960579D01*
X172968800Y-86719766D01*
X172969188Y-87492618D01*
X172969545Y-88278073D01*
X172969871Y-89075070D01*
X172970165Y-89882547D01*
X172970428Y-90699443D01*
X172970659Y-91524695D01*
X172970859Y-92357242D01*
X172971028Y-93196022D01*
X172971165Y-94039973D01*
X172971271Y-94888033D01*
X172971345Y-95739141D01*
X172971388Y-96592235D01*
X172971400Y-97446253D01*
X172971380Y-98300133D01*
X172971329Y-99152814D01*
X172971246Y-100003234D01*
X172971132Y-100850330D01*
X172970987Y-101693042D01*
X172970810Y-102530308D01*
X172970602Y-103361065D01*
X172970362Y-104184251D01*
X172970092Y-104998806D01*
X172969789Y-105803668D01*
X172969456Y-106597774D01*
X172969090Y-107380062D01*
X172968694Y-108149472D01*
X172968266Y-108904941D01*
X172967807Y-109645407D01*
X172967316Y-110369809D01*
X172966794Y-111077085D01*
X172966241Y-111766173D01*
X172965656Y-112436012D01*
X172965040Y-113085539D01*
X172964392Y-113713693D01*
X172963713Y-114319412D01*
X172963003Y-114901634D01*
X172962261Y-115459298D01*
X172961488Y-115991341D01*
X172960683Y-116496703D01*
X172959847Y-116974320D01*
X172958980Y-117423132D01*
X172958081Y-117842077D01*
X172957151Y-118230092D01*
X172956189Y-118586117D01*
X172955197Y-118909088D01*
X172954172Y-119197946D01*
X172953117Y-119451627D01*
X172952029Y-119669070D01*
X172950911Y-119849213D01*
X172949761Y-119990994D01*
X172948580Y-120093353D01*
X172947367Y-120155226D01*
X172946449Y-120174330D01*
X172886796Y-120490551D01*
X172787631Y-120792581D01*
X172650057Y-121078170D01*
X172475175Y-121345068D01*
X172264088Y-121591026D01*
X172240707Y-121614707D01*
X171996998Y-121829403D01*
X171732120Y-122008006D01*
X171448323Y-122149414D01*
X171147858Y-122252523D01*
X170832973Y-122316232D01*
X170800330Y-122320449D01*
X170770503Y-122321518D01*
X170699408Y-122322560D01*
X170588103Y-122323574D01*
X170437650Y-122324561D01*
X170249108Y-122325521D01*
X170023537Y-122326453D01*
X169761997Y-122327358D01*
X169465549Y-122328235D01*
X169135252Y-122329085D01*
X168772167Y-122329907D01*
X168377354Y-122330702D01*
X167951872Y-122331469D01*
X167496782Y-122332210D01*
X167013145Y-122332922D01*
X166502019Y-122333608D01*
X165964466Y-122334266D01*
X165401544Y-122334897D01*
X164814315Y-122335500D01*
X164203839Y-122336076D01*
X163571175Y-122336625D01*
X162917383Y-122337146D01*
X162243525Y-122337640D01*
X161550659Y-122338107D01*
X160839845Y-122338547D01*
X160112145Y-122338959D01*
X159368618Y-122339344D01*
X158610324Y-122339702D01*
X157838323Y-122340032D01*
X157053675Y-122340336D01*
X156257441Y-122340612D01*
X155450680Y-122340860D01*
X154634453Y-122341082D01*
X153809819Y-122341276D01*
X152977839Y-122341444D01*
X152139573Y-122341584D01*
X151296081Y-122341697D01*
X150448423Y-122341782D01*
X149597659Y-122341841D01*
X148744849Y-122341872D01*
X147891053Y-122341876D01*
X147037331Y-122341854D01*
X146184744Y-122341804D01*
X145334352Y-122341727D01*
X144487214Y-122341622D01*
X143644391Y-122341491D01*
X142806942Y-122341333D01*
X141975929Y-122341147D01*
X141152410Y-122340935D01*
X140337446Y-122340695D01*
X139532098Y-122340429D01*
X138737425Y-122340135D01*
X137954487Y-122339815D01*
X137184344Y-122339467D01*
X136428057Y-122339092D01*
X135686685Y-122338691D01*
X134961289Y-122338262D01*
X134252929Y-122337806D01*
X133562665Y-122337324D01*
X132891556Y-122336814D01*
X132240664Y-122336278D01*
X131611047Y-122335714D01*
X131003767Y-122335124D01*
X130419883Y-122334507D01*
X129860456Y-122333863D01*
X129326544Y-122333191D01*
X128819210Y-122332493D01*
X128339512Y-122331769D01*
X127888510Y-122331017D01*
X127467266Y-122330238D01*
X127076838Y-122329433D01*
X126718287Y-122328600D01*
X126392674Y-122327741D01*
X126101057Y-122326855D01*
X125844498Y-122325942D01*
X125624056Y-122325003D01*
X125440791Y-122324036D01*
X125295764Y-122323043D01*
X125190034Y-122322023D01*
X125124662Y-122320976D01*
X125101497Y-122320051D01*
X124804304Y-122262147D01*
X124512916Y-122164892D01*
X124233346Y-122031267D01*
X123971609Y-121864255D01*
X123733719Y-121666836D01*
X123681831Y-121616258D01*
X123466888Y-121371094D01*
X123288201Y-121105150D01*
X123146847Y-120820629D01*
X123043904Y-120519734D01*
X122980449Y-120204666D01*
X122976544Y-120174330D01*
X122975308Y-120143127D01*
X122974104Y-120070652D01*
X122972931Y-119957968D01*
X122971789Y-119806136D01*
X122970679Y-119616217D01*
X122969600Y-119389274D01*
X122968552Y-119126368D01*
X122967536Y-118828562D01*
X122966551Y-118496916D01*
X122965598Y-118132493D01*
X122964676Y-117736354D01*
X122963785Y-117309562D01*
X122962926Y-116853177D01*
X122962098Y-116368263D01*
X122961302Y-115855880D01*
X122960537Y-115317090D01*
X122959803Y-114752955D01*
X122959101Y-114164537D01*
X122958430Y-113552898D01*
X122957790Y-112919099D01*
X122957182Y-112264202D01*
X122956606Y-111589269D01*
X122956060Y-110895362D01*
X122955546Y-110183543D01*
X122955064Y-109454873D01*
X122954613Y-108710414D01*
X122954193Y-107951227D01*
X122953805Y-107178375D01*
X122953448Y-106392920D01*
X122953249Y-105905229D01*
X123972466Y-105905229D01*
X123972473Y-106977236D01*
X123972531Y-108007012D01*
X123972642Y-108994553D01*
X123972803Y-109939856D01*
X123973017Y-110842916D01*
X123973282Y-111703728D01*
X123973598Y-112522290D01*
X123973967Y-113298595D01*
X123974387Y-114032641D01*
X123974858Y-114724423D01*
X123975382Y-115373937D01*
X123975957Y-115981179D01*
X123976583Y-116546144D01*
X123977262Y-117068829D01*
X123977992Y-117549229D01*
X123978773Y-117987340D01*
X123979606Y-118383157D01*
X123980491Y-118736678D01*
X123981428Y-119047897D01*
X123982416Y-119316810D01*
X123983456Y-119543414D01*
X123984547Y-119727704D01*
X123985690Y-119869675D01*
X123986884Y-119969324D01*
X123988131Y-120026646D01*
X123988927Y-120040911D01*
X124040511Y-120281773D01*
X124128272Y-120505752D01*
X124248965Y-120709504D01*
X124399348Y-120889684D01*
X124576176Y-121042947D01*
X124776205Y-121165947D01*
X124996190Y-121255341D01*
X125215152Y-121305282D01*
X125241344Y-121306037D01*
X125308998Y-121306778D01*
X125417243Y-121307506D01*
X125565207Y-121308219D01*
X125752019Y-121308917D01*
X125976807Y-121309600D01*
X126238701Y-121310266D01*
X126536828Y-121310916D01*
X126870317Y-121311548D01*
X127238298Y-121312163D01*
X127639898Y-121312759D01*
X128074246Y-121313336D01*
X128540470Y-121313894D01*
X129037701Y-121314431D01*
X129565065Y-121314948D01*
X130121692Y-121315444D01*
X130706710Y-121315919D01*
X131319248Y-121316371D01*
X131958435Y-121316800D01*
X132623398Y-121317205D01*
X133313268Y-121317587D01*
X134027172Y-121317944D01*
X134764239Y-121318277D01*
X135523597Y-121318583D01*
X136304376Y-121318864D01*
X137105703Y-121319117D01*
X137926709Y-121319344D01*
X138766520Y-121319542D01*
X139624266Y-121319712D01*
X140499075Y-121319853D01*
X141390076Y-121319965D01*
X142296398Y-121320047D01*
X143217169Y-121320098D01*
X144151518Y-121320117D01*
X145098573Y-121320105D01*
X146057464Y-121320061D01*
X147027318Y-121319984D01*
X148007265Y-121319873D01*
X148035580Y-121319870D01*
X149216256Y-121319714D01*
X150355347Y-121319560D01*
X151453603Y-121319405D01*
X152511772Y-121319249D01*
X153530604Y-121319090D01*
X154510847Y-121318927D01*
X155453249Y-121318759D01*
X156358561Y-121318583D01*
X157227530Y-121318400D01*
X158060906Y-121318206D01*
X158859437Y-121318002D01*
X159623873Y-121317785D01*
X160354962Y-121317555D01*
X161053454Y-121317310D01*
X161720096Y-121317048D01*
X162355639Y-121316769D01*
X162960830Y-121316470D01*
X163536419Y-121316151D01*
X164083155Y-121315811D01*
X164601787Y-121315447D01*
X165093062Y-121315059D01*
X165557731Y-121314645D01*
X165996543Y-121314203D01*
X166410245Y-121313733D01*
X166799588Y-121313234D01*
X167165319Y-121312703D01*
X167508188Y-121312139D01*
X167828943Y-121311542D01*
X168128335Y-121310909D01*
X168407110Y-121310239D01*
X168666019Y-121309531D01*
X168905810Y-121308785D01*
X169127232Y-121307997D01*
X169331035Y-121307167D01*
X169517966Y-121306294D01*
X169688775Y-121305376D01*
X169844210Y-121304412D01*
X169985021Y-121303400D01*
X170111956Y-121302340D01*
X170225765Y-121301229D01*
X170327196Y-121300067D01*
X170416998Y-121298852D01*
X170495920Y-121297582D01*
X170564710Y-121296257D01*
X170624119Y-121294875D01*
X170674894Y-121293435D01*
X170717785Y-121291935D01*
X170753540Y-121290374D01*
X170782908Y-121288751D01*
X170806639Y-121287064D01*
X170825480Y-121285312D01*
X170840182Y-121283493D01*
X170851492Y-121281607D01*
X170860161Y-121279651D01*
X170863830Y-121278619D01*
X171104846Y-121185147D01*
X171321185Y-121058625D01*
X171510473Y-120901452D01*
X171670337Y-120716023D01*
X171798403Y-120504736D01*
X171892296Y-120269990D01*
X171904878Y-120227247D01*
X171906875Y-120219142D01*
X171908802Y-120208879D01*
X171910661Y-120195708D01*
X171912451Y-120178881D01*
X171914175Y-120157649D01*
X171915833Y-120131265D01*
X171917428Y-120098978D01*
X171918959Y-120060041D01*
X171920430Y-120013706D01*
X171921840Y-119959223D01*
X171923191Y-119895845D01*
X171924484Y-119822822D01*
X171925721Y-119739406D01*
X171926903Y-119644849D01*
X171928030Y-119538402D01*
X171929105Y-119419317D01*
X171930129Y-119286845D01*
X171931102Y-119140237D01*
X171932027Y-118978745D01*
X171932903Y-118801621D01*
X171933734Y-118608116D01*
X171934519Y-118397481D01*
X171935260Y-118168968D01*
X171935959Y-117921829D01*
X171936616Y-117655314D01*
X171937233Y-117368676D01*
X171937812Y-117061165D01*
X171938352Y-116732034D01*
X171938857Y-116380534D01*
X171939326Y-116005916D01*
X171939761Y-115607432D01*
X171940164Y-115184332D01*
X171940536Y-114735870D01*
X171940877Y-114261296D01*
X171941190Y-113759861D01*
X171941475Y-113230817D01*
X171941734Y-112673416D01*
X171941967Y-112086910D01*
X171942177Y-111470548D01*
X171942365Y-110823584D01*
X171942531Y-110145268D01*
X171942677Y-109434852D01*
X171942805Y-108691588D01*
X171942915Y-107914726D01*
X171943009Y-107103519D01*
X171943087Y-106257217D01*
X171943152Y-105375074D01*
X171943205Y-104456338D01*
X171943246Y-103500264D01*
X171943278Y-102506100D01*
X171943300Y-101473101D01*
X171943316Y-100400516D01*
X171943325Y-99287597D01*
X171943329Y-98133595D01*
X171943330Y-97335497D01*
X171943328Y-96153497D01*
X171943323Y-95013082D01*
X171943312Y-93913504D01*
X171943294Y-92854013D01*
X171943268Y-91833861D01*
X171943234Y-90852300D01*
X171943189Y-89908582D01*
X171943132Y-89001957D01*
X171943063Y-88131677D01*
X171942979Y-87296994D01*
X171942881Y-86497159D01*
X171942765Y-85731423D01*
X171942631Y-84999039D01*
X171942479Y-84299257D01*
X171942306Y-83631329D01*
X171942111Y-82994506D01*
X171941893Y-82388040D01*
X171941651Y-81811183D01*
X171941384Y-81263186D01*
X171941090Y-80743300D01*
X171940768Y-80250777D01*
X171940417Y-79784868D01*
X171940035Y-79344825D01*
X171939622Y-78929900D01*
X171939175Y-78539343D01*
X171938695Y-78172406D01*
X171938179Y-77828341D01*
X171937626Y-77506400D01*
X171937035Y-77205832D01*
X171936405Y-76925891D01*
X171935734Y-76665828D01*
X171935021Y-76424894D01*
X171934266Y-76202340D01*
X171933466Y-75997418D01*
X171932620Y-75809380D01*
X171931728Y-75637477D01*
X171930788Y-75480960D01*
X171929798Y-75339082D01*
X171928758Y-75211092D01*
X171927665Y-75096244D01*
X171926520Y-74993788D01*
X171925320Y-74902975D01*
X171924065Y-74823058D01*
X171922753Y-74753288D01*
X171921383Y-74692916D01*
X171919953Y-74641194D01*
X171918463Y-74597373D01*
X171916911Y-74560705D01*
X171915295Y-74530441D01*
X171913615Y-74505833D01*
X171911870Y-74486131D01*
X171910057Y-74470589D01*
X171908177Y-74458456D01*
X171906227Y-74448985D01*
X171904878Y-74443747D01*
X171817202Y-74205650D01*
X171694940Y-73990209D01*
X171540895Y-73800229D01*
X171357871Y-73638511D01*
X171148671Y-73507859D01*
X170916098Y-73411078D01*
X170853247Y-73392115D01*
X170845142Y-73390118D01*
X170834879Y-73388191D01*
X170821708Y-73386332D01*
X170804881Y-73384542D01*
X170783649Y-73382818D01*
X170757265Y-73381160D01*
X170724978Y-73379565D01*
X170686041Y-73378034D01*
X170639706Y-73376563D01*
X170585223Y-73375153D01*
X170521845Y-73373802D01*
X170448822Y-73372509D01*
X170365406Y-73371272D01*
X170270849Y-73370090D01*
X170164402Y-73368963D01*
X170045317Y-73367888D01*
X169912845Y-73366864D01*
X169766237Y-73365891D01*
X169604745Y-73364966D01*
X169427621Y-73364090D01*
X169234116Y-73363259D01*
X169023481Y-73362474D01*
X168794968Y-73361733D01*
X168547829Y-73361034D01*
X168281314Y-73360377D01*
X167994676Y-73359760D01*
X167687165Y-73359181D01*
X167358034Y-73358641D01*
X167006534Y-73358136D01*
X166631916Y-73357667D01*
X166233432Y-73357232D01*
X165810332Y-73356829D01*
X165361870Y-73356457D01*
X164887296Y-73356116D01*
X164385861Y-73355803D01*
X163856817Y-73355518D01*
X163299416Y-73355259D01*
X162712910Y-73355026D01*
X162096548Y-73354816D01*
X161449584Y-73354628D01*
X160771268Y-73354462D01*
X160060852Y-73354316D01*
X159317588Y-73354188D01*
X158540726Y-73354078D01*
X157729519Y-73353984D01*
X156883217Y-73353906D01*
X156001074Y-73353841D01*
X155082338Y-73353788D01*
X154126264Y-73353747D01*
X153132100Y-73353715D01*
X152099101Y-73353693D01*
X151026516Y-73353677D01*
X149913597Y-73353668D01*
X148759595Y-73353664D01*
X147961497Y-73353663D01*
X146779645Y-73353665D01*
X145639379Y-73353670D01*
X144539948Y-73353681D01*
X143480605Y-73353697D01*
X142460599Y-73353722D01*
X141479183Y-73353756D01*
X140535608Y-73353799D01*
X139629125Y-73353854D01*
X138758984Y-73353922D01*
X137924438Y-73354004D01*
X137124738Y-73354101D01*
X136359134Y-73354215D01*
X135626879Y-73354347D01*
X134927223Y-73354497D01*
X134259417Y-73354668D01*
X133622713Y-73354861D01*
X133016361Y-73355076D01*
X132439614Y-73355316D01*
X131891723Y-73355581D01*
X131371938Y-73355873D01*
X130879510Y-73356192D01*
X130413692Y-73356541D01*
X129973734Y-73356921D01*
X129558887Y-73357332D01*
X129168404Y-73357776D01*
X128801534Y-73358254D01*
X128457529Y-73358768D01*
X128135641Y-73359319D01*
X127835120Y-73359908D01*
X127555218Y-73360536D01*
X127295186Y-73361205D01*
X127054275Y-73361916D01*
X126831737Y-73362670D01*
X126626823Y-73363468D01*
X126438784Y-73364312D01*
X126266870Y-73365203D01*
X126110334Y-73366143D01*
X125968427Y-73367131D01*
X125840400Y-73368171D01*
X125725504Y-73369263D01*
X125622989Y-73370407D01*
X125532109Y-73371607D01*
X125452113Y-73372862D01*
X125382253Y-73374175D01*
X125321781Y-73375545D01*
X125269947Y-73376976D01*
X125226002Y-73378467D01*
X125189198Y-73380021D01*
X125158787Y-73381638D01*
X125134018Y-73383319D01*
X125114144Y-73385067D01*
X125098416Y-73386882D01*
X125086085Y-73388765D01*
X125076403Y-73390719D01*
X125069747Y-73392420D01*
X124828391Y-73481212D01*
X124611823Y-73603753D01*
X124421891Y-73758213D01*
X124260447Y-73942761D01*
X124129339Y-74155565D01*
X124030418Y-74394793D01*
X124018374Y-74433163D01*
X124016380Y-74440777D01*
X124014456Y-74450661D01*
X124012601Y-74463564D01*
X124010812Y-74480236D01*
X124009088Y-74501426D01*
X124007427Y-74527884D01*
X124005830Y-74560360D01*
X124004292Y-74599602D01*
X124002815Y-74646361D01*
X124001395Y-74701387D01*
X124000032Y-74765428D01*
X123998723Y-74839234D01*
X123997468Y-74923555D01*
X123996265Y-75019141D01*
X123995113Y-75126741D01*
X123994010Y-75247105D01*
X123992954Y-75380981D01*
X123991945Y-75529121D01*
X123990980Y-75692273D01*
X123990059Y-75871187D01*
X123989179Y-76066612D01*
X123988340Y-76279298D01*
X123987540Y-76509995D01*
X123986777Y-76759452D01*
X123986050Y-77028419D01*
X123985357Y-77317646D01*
X123984697Y-77627881D01*
X123984069Y-77959874D01*
X123983471Y-78314376D01*
X123982902Y-78692136D01*
X123982360Y-79093902D01*
X123981843Y-79520426D01*
X123981351Y-79972456D01*
X123980881Y-80450741D01*
X123980433Y-80956033D01*
X123980004Y-81489079D01*
X123979594Y-82050630D01*
X123979201Y-82641435D01*
X123978823Y-83262244D01*
X123978460Y-83913806D01*
X123978108Y-84596872D01*
X123977768Y-85312189D01*
X123977437Y-86060509D01*
X123977115Y-86842581D01*
X123976799Y-87659154D01*
X123976488Y-88510977D01*
X123976181Y-89398801D01*
X123975877Y-90323375D01*
X123975573Y-91285448D01*
X123975268Y-92285771D01*
X123974961Y-93325092D01*
X123974651Y-94404161D01*
X123974336Y-95523729D01*
X123974014Y-96684543D01*
X123973867Y-97219080D01*
X123973512Y-98586583D01*
X123973208Y-99911885D01*
X123972956Y-101194981D01*
X123972756Y-102435868D01*
X123972608Y-103634541D01*
X123972511Y-104790996D01*
X123972466Y-105905229D01*
X122953249Y-105905229D01*
X122953122Y-105595923D01*
X122952828Y-104788446D01*
%TD*%
D12*
%TO.C,D6*%
X140359345Y-90796481D03*
X141808913Y-89346913D03*
%TD*%
D13*
%TO.C,D5*%
X161856913Y-76646913D03*
X163906913Y-76646913D03*
%TD*%
D14*
%TO.C,D4*%
X127584913Y-111952913D03*
X127584913Y-109902913D03*
%TD*%
%TO.C,D3*%
X157048913Y-82488913D03*
X157048913Y-80438913D03*
%TD*%
D13*
%TO.C,D2*%
X132147913Y-106364913D03*
X134197913Y-106364913D03*
%TD*%
D15*
%TO.C,J1*%
X161766365Y-80486365D03*
X164877635Y-83597635D03*
%TD*%
M02*
